<svg width="116" height="138" viewBox="0 0 116 138" fill="none" xmlns="http://www.w3.org/2000/svg">
<path d="M92.3654 2.0377C96.4703 11.9414 98.4427 38.315 95.4835 48.1337C92.8299 56.6967 89.2543 64.9459 85.0445 72.7494C76.6559 88.1107 65.2763 101.771 51.8158 112.766C44.2367 118.937 35.9637 124.353 27.164 128.663C24.9526 129.783 23.2372 126.171 25.4635 125.128C40.5488 117.682 54.0989 107.151 65.1887 94.4235C76.2179 81.7868 84.953 67.0032 90.4692 50.9601C93.8825 41.0594 93.1826 13.9758 88.9274 3.69905C88.5062 2.73461 88.8269 1.55619 89.7508 1.06918C90.6897 0.659516 91.9443 1.07327 92.3654 2.0377Z" fill="#FBBB5B"/>
<path d="M30.1836 113.181C29.3068 115.819 28.0746 117.633 27.5008 120.088C27.0895 121.203 26.739 122.227 26.3278 123.341C25.9773 124.365 25.3998 125.43 25.3062 126.567C25.121 128.041 26.7688 128.464 27.9785 128.646C32.6961 129.555 28.6651 129.055 33.5202 129.638C36.0048 129.936 38.0453 130.166 39.5987 130.399C42.0182 130.763 41.7662 134.73 39.3318 134.289C37.8744 134.025 36.2367 133.976 33.9791 133.637C28.8981 132.874 32.5954 133.495 27.5453 132.486C25.5042 132.054 23.3277 131.327 22.1827 129.453C20.7967 127.142 21.7108 124.575 22.5333 122.346C23.3555 120.116 24.6184 117.026 25.0678 115.704C25.9999 112.961 26.3266 112.372 26.5414 111.758C27.349 109.451 30.9762 110.797 30.1836 113.181Z" fill="#FBBB5B"/>
</svg>
