<svg version="1.2" xmlns="http://www.w3.org/2000/svg" viewBox="0 0 58 61" width="58" height="61">
	<title>arrow-mob-left-svg</title>
	<style>
		.s0 { fill: #fbbb5b } 
	</style>
	<path id="Layer" class="s0" d="m69.6-59.5c3.5 9 4.5 32.8 1.6 41.5-2.6 7.7-6.1 15-10.1 21.9-7.9 13.6-18.5 25.6-31 35.1-6.9 5.4-14.5 10-22.6 13.7-2 0.9-3.4-2.4-1.4-3.2 13.8-6.3 26.2-15.5 36.6-26.6 10.2-11.1 18.5-24.2 23.9-38.5 3.3-8.8 3.4-33.2-0.1-42.5-0.4-0.9 0-2 0.8-2.4 0.9-0.3 2 0.1 2.3 1z"/>
	<path id="Layer" class="s0" d="m10.7 38.8c-0.9 2.4-2.1 4-2.6 6.2-0.4 1-0.8 1.9-1.2 2.9-0.3 0.9-0.9 1.8-1 2.9-0.2 1.3 1.3 1.7 2.4 1.9 4.2 1 0.6 0.4 4.9 1 2.2 0.4 4.1 0.6 5.5 0.9 2.1 0.4 1.8 4-0.4 3.5-1.3-0.3-2.8-0.4-4.8-0.7-4.5-0.9-1.2-0.2-5.7-1.2-1.9-0.5-3.8-1.2-4.8-2.9-1.2-2.1-0.3-4.4 0.5-6.4 0.8-2 2-4.7 2.5-5.9 0.9-2.5 1.2-3 1.4-3.5 0.8-2.1 4-0.8 3.3 1.3z"/>
</svg>