<svg width="143" height="86" viewBox="0 0 143 86" fill="none" xmlns="http://www.w3.org/2000/svg">
<path d="M2.16015 19.2099C16.3773 19.8028 112.74 19.8771 126.96 19.5136C128.184 19.4778 128.899 20.1965 128.867 21.4303C128.823 32.295 127.88 43.0814 126.106 53.78C125.583 56.8586 124.983 59.8797 124.325 62.9771C124.113 63.8948 123.385 64.5437 122.41 64.4078C121.578 64.3201 120.767 63.4099 120.98 62.4922C123.251 51.9284 124.672 41.143 125.204 30.3462C125.383 27.2478 125.419 24.1012 125.464 21.0217C126.103 21.6829 126.733 22.2772 127.372 22.9384C116.07 23.1643 104.806 23.1798 93.4948 22.8605C8.13745 22.8754 4.91528 22.7828 1.68373 22.6233C0.794506 22.6119 0.0989719 21.5489 0.253902 20.7076C0.380609 19.6654 1.26152 19.1315 2.16015 19.2099Z" fill="#FBBB5B"/>
<path d="M114.683 49.1612C115.564 52.2859 116.749 55.2473 118.258 58.11C118.97 59.5188 119.811 60.8883 120.698 62.1733C121.193 62.8706 121.623 63.5876 122.164 64.2005C122.268 64.3102 122.49 64.8079 122.704 64.8134C122.788 64.8584 122.51 64.8726 122.619 64.7685C123.162 64.4615 123.522 63.7862 123.941 63.3049C124.514 62.6351 125.087 61.9652 125.661 61.2954C126.763 60.0401 127.864 58.7848 128.966 57.5295C131.215 54.9346 133.464 52.3396 135.692 49.6799C137.103 48.0475 139.568 50.3358 138.157 51.9682C134.233 56.4883 130.329 61.0731 126.405 65.5932C125.522 66.6401 124.55 67.856 123.133 68.0762C121.651 68.3163 120.475 67.4731 119.648 66.3821C117.909 64.1553 116.454 61.7005 115.148 59.2709C113.62 56.3435 112.395 53.2527 111.494 50.0633C110.819 48.0778 114.052 47.0912 114.683 49.1612Z" fill="#FBBB5B"/>
</svg>
