<svg width="50" height="50" viewBox="0 0 50 50" fill="none" xmlns="http://www.w3.org/2000/svg">
<path d="M41.6666 21.7107V6.25033C41.6666 5.69779 41.4471 5.16789 41.0564 4.77719C40.6657 4.38649 40.1358 4.16699 39.5833 4.16699H10.4166C9.86405 4.16699 9.33415 4.38649 8.94345 4.77719C8.55275 5.16789 8.33325 5.69779 8.33325 6.25033V43.7503C8.33325 44.3029 8.55275 44.8328 8.94345 45.2235C9.33415 45.6142 9.86405 45.8337 10.4166 45.8337H27.0833" stroke="#FBBB5B" stroke-width="3" stroke-linecap="round" stroke-linejoin="round"/>
<path d="M14.5833 17.709H20.8333M29.1666 17.709H35.4166M14.5833 29.1673H20.8333M14.5833 35.4173H20.8333M17.7083 20.834V14.584M39.2999 39.3007L43.7197 43.7204" stroke="#FBBB5B" stroke-width="3" stroke-linecap="round"/>
<path d="M30.4607 39.3002C32.9015 41.741 36.8588 41.741 39.2995 39.3002C41.7403 36.8595 41.7403 32.9022 39.2995 30.4614C36.8588 28.0206 32.9015 28.0206 30.4607 30.4614C28.0199 32.9022 28.0199 36.8595 30.4607 39.3002Z" stroke="#FBBB5B" stroke-width="3" stroke-linecap="round" stroke-linejoin="round"/>
</svg>
