<svg width="310" height="295" viewBox="0 0 310 295" fill="none" xmlns="http://www.w3.org/2000/svg">
<g filter="url(#filter0_d_563_15451)">
<g clip-path="url(#clip0_563_15451)">
<rect x="30" y="29" width="250" height="235" rx="15" fill="white"/>
<rect width="250" height="34" transform="translate(30 29)" fill="#526374"/>
<path d="M54.1 50.13C55.1 50.13 55.93 49.74 56.55 49.11C56.62 49.04 56.61 48.97 56.55 48.91L55.85 48.16C55.79 48.09 55.71 48.09 55.64 48.15C55.22 48.5 54.72 48.73 54.1 48.73C52.87 48.73 51.94 47.8 51.94 46.53C51.94 45.26 52.87 44.32 54.1 44.32C54.72 44.32 55.22 44.55 55.64 44.9C55.71 44.96 55.79 44.96 55.85 44.89L56.55 44.14C56.61 44.07 56.62 44 56.55 43.93C55.93 43.31 55.1 42.92 54.1 42.92C52.1 42.92 50.49 44.48 50.49 46.53C50.49 48.58 52.1 50.13 54.1 50.13ZM59.3083 50.12C60.0383 50.12 60.5683 49.81 60.9083 49.31L60.9283 49.85C60.9283 49.94 60.9883 50 61.0783 50H62.0483C62.1383 50 62.2083 49.94 62.2083 49.85V45.25C62.2083 45.16 62.1483 45.1 62.0583 45.1H61.0783C60.9883 45.1 60.9283 45.16 60.9283 45.25L60.9083 45.79C60.5783 45.28 60.0483 44.98 59.3083 44.98C57.9283 44.98 56.9783 46.1 56.9783 47.55C56.9783 49.01 57.9283 50.12 59.3083 50.12ZM58.3283 47.55C58.3283 46.77 58.8683 46.24 59.5983 46.24C60.3283 46.24 60.8383 46.76 60.8383 47.55C60.8383 48.34 60.3283 48.86 59.5983 48.86C58.8683 48.86 58.3283 48.34 58.3283 47.55ZM63.4502 50H64.5302C64.6202 50 64.6802 49.94 64.6802 49.85V47.28C64.6802 46.61 64.9802 46.25 65.5002 46.25C66.0302 46.25 66.2802 46.61 66.2802 47.28V49.85C66.2802 49.94 66.3402 50 66.4402 50H67.5102C67.6002 50 67.6602 49.94 67.6602 49.85V47.28C67.6602 46.61 67.9602 46.25 68.4802 46.25C69.0202 46.25 69.2602 46.61 69.2602 47.28V49.85C69.2602 49.94 69.3202 50 69.4102 50H70.4902C70.5802 50 70.6402 49.94 70.6402 49.85V46.98C70.6402 45.7 70.0002 44.98 68.9502 44.98C68.1902 44.98 67.7102 45.35 67.4402 45.85C67.1702 45.28 66.6802 44.98 66.0502 44.98C65.3802 44.98 64.9402 45.32 64.6702 45.78L64.6402 45.26C64.6402 45.14 64.5802 45.1 64.4902 45.1H63.4502C63.3602 45.1 63.3002 45.16 63.3002 45.25V49.85C63.3002 49.94 63.3602 50 63.4502 50ZM71.8658 51.9H72.9558C73.0458 51.9 73.1058 51.84 73.1058 51.75V49.42C73.4458 49.86 73.9558 50.12 74.6258 50.12C75.9958 50.12 76.9458 49.01 76.9458 47.55C76.9458 46.1 75.9958 44.98 74.6258 44.98C73.8758 44.98 73.3558 45.28 73.0258 45.79L73.0058 45.25C73.0058 45.16 72.9458 45.1 72.8558 45.1H71.8658C71.7758 45.1 71.7158 45.16 71.7158 45.25V51.75C71.7158 51.84 71.7758 51.9 71.8658 51.9ZM73.0858 47.55C73.0858 46.76 73.5958 46.24 74.3358 46.24C75.0558 46.24 75.5958 46.77 75.5958 47.55C75.5958 48.34 75.0558 48.86 74.3358 48.86C73.5958 48.86 73.0858 48.34 73.0858 47.55ZM79.8677 50.12C80.5977 50.12 81.1277 49.81 81.4677 49.31L81.4877 49.85C81.4877 49.94 81.5477 50 81.6377 50H82.6077C82.6977 50 82.7677 49.94 82.7677 49.85V45.25C82.7677 45.16 82.7077 45.1 82.6177 45.1H81.6377C81.5477 45.1 81.4877 45.16 81.4877 45.25L81.4677 45.79C81.1377 45.28 80.6077 44.98 79.8677 44.98C78.4877 44.98 77.5377 46.1 77.5377 47.55C77.5377 49.01 78.4877 50.12 79.8677 50.12ZM78.8877 47.55C78.8877 46.77 79.4277 46.24 80.1577 46.24C80.8877 46.24 81.3977 46.76 81.3977 47.55C81.3977 48.34 80.8877 48.86 80.1577 48.86C79.4277 48.86 78.8877 48.34 78.8877 47.55ZM84.5695 44.23C85.0095 44.23 85.3295 43.89 85.3295 43.46C85.3295 43.04 85.0095 42.7 84.5695 42.7C84.1295 42.7 83.7995 43.04 83.7995 43.46C83.7995 43.89 84.1295 44.23 84.5695 44.23ZM83.8695 49.85C83.8695 49.94 83.9295 50 84.0195 50H85.1095C85.1995 50 85.2595 49.94 85.2595 49.85V45.25C85.2595 45.16 85.1995 45.1 85.1095 45.1H84.0195C83.9295 45.1 83.8695 45.16 83.8695 45.25V49.85ZM88.6672 52.05C89.8772 52.05 91.2572 51.49 91.2572 49.73V45.25C91.2572 45.16 91.1972 45.1 91.1072 45.1H90.1272C90.0372 45.1 89.9672 45.16 89.9672 45.25L89.9472 45.7C89.6372 45.24 89.1372 44.98 88.4172 44.98C87.0372 44.98 86.1072 46 86.1072 47.44C86.1072 48.89 87.0372 49.9 88.4172 49.9C89.1172 49.9 89.6272 49.63 89.9372 49.19V49.72C89.9372 50.63 89.2272 50.93 88.5372 50.93C88.1072 50.93 87.6672 50.81 87.2372 50.57C87.1272 50.51 87.0372 50.55 86.9872 50.65L86.6972 51.2C86.6472 51.29 86.6572 51.42 86.7572 51.49C87.2372 51.85 87.9372 52.05 88.6672 52.05ZM87.4572 47.44C87.4572 46.7 87.9772 46.22 88.6872 46.22C89.3872 46.22 89.8872 46.69 89.8872 47.44C89.8872 48.19 89.3872 48.66 88.6872 48.66C87.9772 48.66 87.4572 48.19 87.4572 47.44ZM92.4912 50H93.5712C93.6612 50 93.7212 49.94 93.7212 49.85V47.31C93.7212 46.62 94.1012 46.25 94.6812 46.25C95.2712 46.25 95.5912 46.62 95.5912 47.31V49.85C95.5912 49.94 95.6512 50 95.7412 50H96.8112C96.9012 50 96.9712 49.94 96.9712 49.85V47C96.9712 45.72 96.2212 44.98 95.2012 44.98C94.4712 44.98 94.0012 45.34 93.7212 45.84L93.6812 45.26C93.6812 45.14 93.6212 45.1 93.5312 45.1H92.4912C92.4012 45.1 92.3412 45.16 92.3412 45.25V49.85C92.3412 49.94 92.4012 50 92.4912 50ZM103.605 50H104.805C104.925 50 104.975 49.93 104.905 49.82L103.335 47.39C104.275 47.06 104.725 46.29 104.725 45.27C104.725 43.93 103.925 43 102.265 43H100.155C100.065 43 100.005 43.06 100.005 43.15V49.85C100.005 49.94 100.065 50 100.155 50H101.285C101.375 50 101.435 49.94 101.435 49.85V47.55H101.945L103.425 49.9C103.465 49.97 103.525 50 103.605 50ZM101.435 46.28V44.27H102.215C102.825 44.27 103.355 44.48 103.355 45.27C103.355 46.07 102.825 46.28 102.215 46.28H101.435ZM107.948 50.12C108.638 50.12 109.268 49.92 109.688 49.5C109.778 49.42 109.788 49.35 109.738 49.28L109.368 48.77C109.318 48.7 109.268 48.69 109.198 48.73C108.798 48.96 108.438 49.03 108.058 49.03C107.268 49.03 106.758 48.69 106.608 48.07H109.588C110.018 48.07 110.128 47.8 110.128 47.32C110.128 46.08 109.268 44.98 107.778 44.98C106.268 44.98 105.258 46.09 105.258 47.53C105.258 49.01 106.338 50.12 107.948 50.12ZM106.588 47.1C106.708 46.45 107.178 46.12 107.788 46.12C108.378 46.12 108.818 46.45 108.898 47.1H106.588ZM112.527 50.12C113.507 50.12 114.357 49.61 114.367 48.62C114.377 47.87 113.887 47.44 113.267 47.19L112.577 46.92C112.307 46.82 112.107 46.69 112.107 46.45C112.107 46.24 112.257 46.06 112.577 46.06C112.867 46.06 113.147 46.2 113.467 46.47C113.557 46.54 113.627 46.55 113.697 46.47L114.137 45.94C114.187 45.88 114.207 45.8 114.147 45.73C113.737 45.24 113.147 44.98 112.507 44.98C111.597 44.98 110.797 45.52 110.797 46.46C110.797 47.14 111.237 47.56 111.867 47.81L112.487 48.06C112.847 48.21 112.997 48.32 112.997 48.56C112.997 48.84 112.777 48.97 112.447 48.97C112.067 48.97 111.727 48.8 111.317 48.49C111.237 48.43 111.147 48.41 111.067 48.53L110.717 49.02C110.647 49.13 110.637 49.24 110.697 49.31C111.087 49.77 111.707 50.12 112.527 50.12ZM117.019 50.12C117.749 50.12 118.219 49.76 118.499 49.26L118.539 49.84C118.549 49.96 118.599 50 118.689 50H119.719C119.809 50 119.879 49.94 119.879 49.85V45.25C119.879 45.16 119.809 45.1 119.719 45.1H118.649C118.559 45.1 118.499 45.16 118.499 45.25V47.79C118.499 48.48 118.119 48.85 117.539 48.85C116.949 48.85 116.629 48.48 116.629 47.79V45.25C116.629 45.16 116.569 45.1 116.479 45.1H115.399C115.309 45.1 115.249 45.16 115.249 45.25V48.1C115.249 49.38 115.989 50.12 117.019 50.12ZM121.11 50H122.2C122.29 50 122.35 49.94 122.35 49.85V43C122.35 42.91 122.29 42.85 122.2 42.85H121.11C121.02 42.85 120.96 42.91 120.96 43V49.85C120.96 49.94 121.02 50 121.11 50ZM125.29 50.06C125.62 50.06 126.12 50 126.12 49.77V49.04C126.12 48.94 126.05 48.89 125.94 48.9C125.82 48.91 125.72 48.91 125.63 48.91C125.37 48.91 125.2 48.77 125.2 48.48V46.17H125.97C126.06 46.17 126.12 46.11 126.12 46.02V45.25C126.12 45.16 126.06 45.1 125.97 45.1H125.2V43.95C125.2 43.86 125.14 43.8 125.05 43.8H123.96C123.87 43.8 123.81 43.86 123.81 43.95V45.1H123.19C123.1 45.1 123.04 45.16 123.04 45.25V46.02C123.04 46.11 123.1 46.17 123.19 46.17H123.81V48.63C123.81 49.7 124.51 50.06 125.29 50.06ZM128.582 50.12C129.562 50.12 130.412 49.61 130.422 48.62C130.432 47.87 129.942 47.44 129.322 47.19L128.632 46.92C128.362 46.82 128.162 46.69 128.162 46.45C128.162 46.24 128.312 46.06 128.632 46.06C128.922 46.06 129.202 46.2 129.522 46.47C129.612 46.54 129.682 46.55 129.752 46.47L130.192 45.94C130.242 45.88 130.262 45.8 130.202 45.73C129.792 45.24 129.202 44.98 128.562 44.98C127.652 44.98 126.852 45.52 126.852 46.46C126.852 47.14 127.292 47.56 127.922 47.81L128.542 48.06C128.902 48.21 129.052 48.32 129.052 48.56C129.052 48.84 128.832 48.97 128.502 48.97C128.122 48.97 127.782 48.8 127.372 48.49C127.292 48.43 127.202 48.41 127.122 48.53L126.772 49.02C126.702 49.13 126.692 49.24 126.752 49.31C127.142 49.77 127.762 50.12 128.582 50.12Z" fill="white"/>
<rect x="50" y="78" width="106.63" height="8" rx="1.93313" fill="#526374" fill-opacity="0.25"/>
<rect x="50" y="95.2793" width="210" height="3.093" rx="1.15988" fill="#526374" fill-opacity="0.2"/>
<rect x="50" y="101.465" width="210" height="3.093" rx="1.15988" fill="#526374" fill-opacity="0.2"/>
<path d="M50 108.811C50 108.171 50.5193 107.651 51.1599 107.651H120V110.744H51.1599C50.5193 110.744 50 110.225 50 109.584V108.811Z" fill="#526374" fill-opacity="0.2"/>
<path d="M120 107.651H188.84C189.481 107.651 190 108.171 190 108.811V109.584C190 110.225 189.481 110.744 188.84 110.744H120V107.651Z" fill="#526374" fill-opacity="0.2"/>
<mask id="path-8-inside-1_563_15451" fill="white">
<path d="M30 125.744H280V264H30V125.744Z"/>
</mask>
<path d="M30 125.744H280V264H30V125.744Z" fill="white"/>
<path d="M65.8272 218.69L50 244H260V145.744L251.507 154.677L236.452 191.894H223.713L216.379 176.263L188.585 185.196L161.949 176.263L154.228 154.677H140.331L130.294 185.196L115.239 197.105L106.746 191.894L102.114 222.413L95.5515 234.323L88.2169 206.781L76.25 222.413L65.8272 218.69Z" fill="url(#paint0_linear_563_15451)"/>
<path d="M50 244L65.8272 218.69L76.25 222.413L88.2169 206.781L95.5515 234.323L102.114 222.413L106.746 191.894L115.239 197.105L130.294 185.196L140.331 154.677H154.228L161.949 176.263L188.585 185.196L216.379 176.263L223.713 191.894H236.452L251.507 154.677L260 145.744" stroke="#FBBB5B" stroke-dasharray="2 2"/>
<path d="M260 167.046L50 167.046" stroke="#526374" stroke-width="0.5"/>
<rect x="65.5497" y="161.673" width="13.1155" height="10.8599" rx="1.15988" fill="#0974E4"/>
<path d="M30 126.744H280V124.744H30V126.744Z" fill="#526374" fill-opacity="0.1" mask="url(#path-8-inside-1_563_15451)"/>
</g>
</g>
<defs>
<filter id="filter0_d_563_15451" x="0" y="0" width="310" height="295" filterUnits="userSpaceOnUse" color-interpolation-filters="sRGB">
<feFlood flood-opacity="0" result="BackgroundImageFix"/>
<feColorMatrix in="SourceAlpha" type="matrix" values="0 0 0 0 0 0 0 0 0 0 0 0 0 0 0 0 0 0 127 0" result="hardAlpha"/>
<feOffset dy="1"/>
<feGaussianBlur stdDeviation="15"/>
<feColorMatrix type="matrix" values="0 0 0 0 0.321569 0 0 0 0 0.388235 0 0 0 0 0.454902 0 0 0 0.2 0"/>
<feBlend mode="normal" in2="BackgroundImageFix" result="effect1_dropShadow_563_15451"/>
<feBlend mode="normal" in="SourceGraphic" in2="effect1_dropShadow_563_15451" result="shape"/>
</filter>
<linearGradient id="paint0_linear_563_15451" x1="155" y1="145.744" x2="155" y2="244" gradientUnits="userSpaceOnUse">
<stop stop-color="#EFF8FC"/>
<stop offset="1" stop-color="#EFF8FC" stop-opacity="0"/>
</linearGradient>
<clipPath id="clip0_563_15451">
<rect x="30" y="29" width="250" height="235" rx="15" fill="white"/>
</clipPath>
</defs>
</svg>
