<svg width="310" height="297" viewBox="30 29.959999084472656 250 235.41201782226562"  fill="none" xmlns="http://www.w3.org/2000/svg">
<g filter="url(#filter0_d_562_13937)">
<g clip-path="url(#clip0_562_13937)">
<rect x="30" y="29.96" width="250" height="235.412" rx="15" fill="white"/>
<rect x="50" y="44.96" width="15.465" height="15.465" rx="1.93313" fill="#FBBB5B"/>
<rect x="80.9301" y="44.96" width="179.07" height="7.73251" rx="1.93313" fill="#526374" fill-opacity="0.2"/>
<path d="M50.84 89.4248H51.97C52.06 89.4248 52.12 89.3648 52.12 89.2748V86.9748H52.95C54.61 86.9748 55.41 86.0448 55.41 84.6948C55.41 83.3548 54.61 82.4248 52.95 82.4248H50.84C50.75 82.4248 50.69 82.4848 50.69 82.5748V89.2748C50.69 89.3648 50.75 89.4248 50.84 89.4248ZM52.12 85.7048V83.6948H52.9C53.51 83.6948 54.04 83.9048 54.04 84.6948C54.04 85.4948 53.51 85.7048 52.9 85.7048H52.12ZM56.4408 89.4248H57.5208C57.6108 89.4248 57.6708 89.3648 57.6708 89.2748V86.8248C57.6708 86.1248 58.0308 85.6748 58.7108 85.6748C58.8508 85.6748 58.9608 85.6948 59.0708 85.7248C59.2008 85.7548 59.2708 85.7248 59.2708 85.6048V84.7248C59.2708 84.6348 59.2508 84.5748 59.1808 84.5248C59.1008 84.4648 58.9608 84.4048 58.7308 84.4048C58.1508 84.4048 57.8408 84.7948 57.6708 85.3148L57.6308 84.6848C57.6208 84.5648 57.5708 84.5248 57.4808 84.5248H56.4408C56.3508 84.5248 56.2908 84.5848 56.2908 84.6748V89.2748C56.2908 89.3648 56.3508 89.4248 56.4408 89.4248ZM62.2413 89.5448C63.7113 89.5448 64.8013 88.4248 64.8013 86.9748C64.8013 85.5248 63.7113 84.4048 62.2413 84.4048C60.7613 84.4048 59.6713 85.5248 59.6713 86.9748C59.6713 88.4248 60.7613 89.5448 62.2413 89.5448ZM61.0013 86.9748C61.0013 86.1748 61.5413 85.6748 62.2413 85.6748C62.9313 85.6748 63.4713 86.1748 63.4713 86.9748C63.4713 87.7748 62.9313 88.2748 62.2413 88.2748C61.5413 88.2748 61.0013 87.7748 61.0013 86.9748ZM66.4218 83.6548C66.8618 83.6548 67.1818 83.3148 67.1818 82.8848C67.1818 82.4648 66.8618 82.1248 66.4218 82.1248C65.9818 82.1248 65.6518 82.4648 65.6518 82.8848C65.6518 83.3148 65.9818 83.6548 66.4218 83.6548ZM64.5918 91.1248C64.5918 91.1848 64.6218 91.2448 64.6818 91.2748C64.9518 91.4048 65.1618 91.4248 65.4318 91.4248C66.4818 91.4248 67.1118 90.9148 67.1118 89.7748V84.6748C67.1118 84.5848 67.0518 84.5248 66.9618 84.5248H65.8718C65.7818 84.5248 65.7218 84.5848 65.7218 84.6748V89.5848C65.7218 89.9448 65.6118 90.1948 65.1318 90.1948C65.0118 90.1948 64.8818 90.1748 64.7218 90.1448C64.6518 90.1348 64.5918 90.1448 64.5918 90.2148V91.1248ZM70.6476 89.5448C71.3376 89.5448 71.9676 89.3448 72.3876 88.9248C72.4776 88.8448 72.4876 88.7748 72.4376 88.7048L72.0676 88.1948C72.0176 88.1248 71.9676 88.1148 71.8976 88.1548C71.4976 88.3848 71.1376 88.4548 70.7576 88.4548C69.9676 88.4548 69.4576 88.1148 69.3076 87.4948H72.2876C72.7176 87.4948 72.8276 87.2248 72.8276 86.7448C72.8276 85.5048 71.9676 84.4048 70.4776 84.4048C68.9676 84.4048 67.9576 85.5148 67.9576 86.9548C67.9576 88.4348 69.0376 89.5448 70.6476 89.5448ZM69.2876 86.5248C69.4076 85.8748 69.8776 85.5448 70.4876 85.5448C71.0776 85.5448 71.5176 85.8748 71.5976 86.5248H69.2876ZM75.9945 89.5448C76.7845 89.5448 77.4545 89.2048 77.8745 88.6648C77.9345 88.5948 77.9145 88.5148 77.8545 88.4548L77.2545 87.8648C77.1745 87.7848 77.0645 87.7948 76.9945 87.8648C76.7245 88.1348 76.4345 88.2748 76.0545 88.2748C75.2445 88.2748 74.7345 87.6748 74.7345 86.9548C74.7345 86.2348 75.2445 85.6748 76.0245 85.6748C76.4245 85.6748 76.7145 85.8148 76.9845 86.0848C77.0545 86.1548 77.1645 86.1648 77.2445 86.0848L77.8445 85.4948C77.9045 85.4348 77.9245 85.3548 77.8645 85.2848C77.4445 84.7448 76.7745 84.4048 75.9645 84.4048C74.4945 84.4048 73.4045 85.5048 73.4045 86.9548C73.4045 88.4248 74.5045 89.5448 75.9945 89.5448ZM80.6412 89.4848C80.9712 89.4848 81.4712 89.4248 81.4712 89.1948V88.4648C81.4712 88.3648 81.4012 88.3148 81.2912 88.3248C81.1712 88.3348 81.0712 88.3348 80.9812 88.3348C80.7212 88.3348 80.5512 88.1948 80.5512 87.9048V85.5948H81.3212C81.4112 85.5948 81.4712 85.5348 81.4712 85.4448V84.6748C81.4712 84.5848 81.4112 84.5248 81.3212 84.5248H80.5512V83.3748C80.5512 83.2848 80.4912 83.2248 80.4012 83.2248H79.3112C79.2212 83.2248 79.1612 83.2848 79.1612 83.3748V84.5248H78.5412C78.4512 84.5248 78.3912 84.5848 78.3912 84.6748V85.4448C78.3912 85.5348 78.4512 85.5948 78.5412 85.5948H79.1612V88.0548C79.1612 89.1248 79.8612 89.4848 80.6412 89.4848ZM84.3564 89.4248H86.4164C88.7564 89.4248 89.9864 87.8948 89.9864 85.9248C89.9864 83.9548 88.7564 82.4248 86.4164 82.4248H84.3564C84.2664 82.4248 84.2064 82.4848 84.2064 82.5748V89.2748C84.2064 89.3648 84.2664 89.4248 84.3564 89.4248ZM85.6364 88.1548V83.6948H86.3964C87.8164 83.6948 88.5364 84.4848 88.5364 85.9248C88.5364 87.3648 87.8164 88.1548 86.3964 88.1548H85.6364ZM93.3605 89.5448C94.0505 89.5448 94.6805 89.3448 95.1005 88.9248C95.1905 88.8448 95.2005 88.7748 95.1505 88.7048L94.7805 88.1948C94.7305 88.1248 94.6805 88.1148 94.6105 88.1548C94.2105 88.3848 93.8505 88.4548 93.4705 88.4548C92.6805 88.4548 92.1705 88.1148 92.0205 87.4948H95.0005C95.4305 87.4948 95.5405 87.2248 95.5405 86.7448C95.5405 85.5048 94.6805 84.4048 93.1905 84.4048C91.6805 84.4048 90.6705 85.5148 90.6705 86.9548C90.6705 88.4348 91.7505 89.5448 93.3605 89.5448ZM92.0005 86.5248C92.1205 85.8748 92.5905 85.5448 93.2005 85.5448C93.7905 85.5448 94.2305 85.8748 94.3105 86.5248H92.0005ZM98.2197 89.4848C98.5497 89.4848 99.0497 89.4248 99.0497 89.1948V88.4648C99.0497 88.3648 98.9797 88.3148 98.8697 88.3248C98.7497 88.3348 98.6497 88.3348 98.5597 88.3348C98.2997 88.3348 98.1297 88.1948 98.1297 87.9048V85.5948H98.8997C98.9897 85.5948 99.0497 85.5348 99.0497 85.4448V84.6748C99.0497 84.5848 98.9897 84.5248 98.8997 84.5248H98.1297V83.3748C98.1297 83.2848 98.0697 83.2248 97.9797 83.2248H96.8897C96.7997 83.2248 96.7397 83.2848 96.7397 83.3748V84.5248H96.1197C96.0297 84.5248 95.9697 84.5848 95.9697 84.6748V85.4448C95.9697 85.5348 96.0297 85.5948 96.1197 85.5948H96.7397V88.0548C96.7397 89.1248 97.4397 89.4848 98.2197 89.4848ZM101.863 89.5448C102.593 89.5448 103.123 89.2348 103.463 88.7348L103.483 89.2748C103.483 89.3648 103.543 89.4248 103.633 89.4248H104.603C104.693 89.4248 104.763 89.3648 104.763 89.2748V84.6748C104.763 84.5848 104.703 84.5248 104.613 84.5248H103.633C103.543 84.5248 103.483 84.5848 103.483 84.6748L103.463 85.2148C103.133 84.7048 102.603 84.4048 101.863 84.4048C100.483 84.4048 99.533 85.5248 99.533 86.9748C99.533 88.4348 100.483 89.5448 101.863 89.5448ZM100.883 86.9748C100.883 86.1948 101.423 85.6648 102.153 85.6648C102.883 85.6648 103.393 86.1848 103.393 86.9748C103.393 87.7648 102.883 88.2848 102.153 88.2848C101.423 88.2848 100.883 87.7648 100.883 86.9748ZM106.565 83.6548C107.005 83.6548 107.325 83.3148 107.325 82.8848C107.325 82.4648 107.005 82.1248 106.565 82.1248C106.125 82.1248 105.795 82.4648 105.795 82.8848C105.795 83.3148 106.125 83.6548 106.565 83.6548ZM105.865 89.2748C105.865 89.3648 105.925 89.4248 106.015 89.4248H107.105C107.195 89.4248 107.255 89.3648 107.255 89.2748V84.6748C107.255 84.5848 107.195 84.5248 107.105 84.5248H106.015C105.925 84.5248 105.865 84.5848 105.865 84.6748V89.2748ZM108.503 89.4248H109.593C109.683 89.4248 109.743 89.3648 109.743 89.2748V82.4248C109.743 82.3348 109.683 82.2748 109.593 82.2748H108.503C108.413 82.2748 108.353 82.3348 108.353 82.4248V89.2748C108.353 89.3648 108.413 89.4248 108.503 89.4248ZM112.501 89.5448C113.481 89.5448 114.331 89.0348 114.341 88.0448C114.351 87.2948 113.861 86.8648 113.241 86.6148L112.551 86.3448C112.281 86.2448 112.081 86.1148 112.081 85.8748C112.081 85.6648 112.231 85.4848 112.551 85.4848C112.841 85.4848 113.121 85.6248 113.441 85.8948C113.531 85.9648 113.601 85.9748 113.671 85.8948L114.111 85.3648C114.161 85.3048 114.181 85.2248 114.121 85.1548C113.711 84.6648 113.121 84.4048 112.481 84.4048C111.571 84.4048 110.771 84.9448 110.771 85.8848C110.771 86.5648 111.211 86.9848 111.841 87.2348L112.461 87.4848C112.821 87.6348 112.971 87.7448 112.971 87.9848C112.971 88.2648 112.751 88.3948 112.421 88.3948C112.041 88.3948 111.701 88.2248 111.291 87.9148C111.211 87.8548 111.121 87.8348 111.041 87.9548L110.691 88.4448C110.621 88.5548 110.611 88.6648 110.671 88.7348C111.061 89.1948 111.681 89.5448 112.501 89.5448Z" fill="#00386C"/>
<rect x="50" y="101.704" width="210" height="3.093" rx="1.15988" fill="#526374" fill-opacity="0.2"/>
<rect x="50" y="107.89" width="210" height="3.093" rx="1.15988" fill="#526374" fill-opacity="0.2"/>
<path d="M50 115.236C50 114.595 50.5193 114.076 51.1599 114.076H120V117.169H51.1599C50.5193 117.169 50 116.65 50 116.009V115.236Z" fill="#526374" fill-opacity="0.2"/>
<path d="M120 114.076H188.84C189.481 114.076 190 114.595 190 115.236V116.009C190 116.65 189.481 117.169 188.84 117.169H120V114.076Z" fill="#526374" fill-opacity="0.2"/>
<rect x="50.0001" y="154.566" width="16.2383" height="3.093" rx="1.15988" fill="#526374" fill-opacity="0.5"/>
<rect x="50.0001" y="161.14" width="100" height="15.465" rx="2.31975" fill="white"/>
<rect x="56.9595" y="167.325" width="23.1975" height="3.093" rx="1.15988" fill="#526374" fill-opacity="0.2"/>
<rect x="50.3867" y="161.526" width="99.2267" height="14.6918" rx="1.93313" stroke="#526374" stroke-opacity="0.2" stroke-width="0.773251"/>
<rect x="160" y="154.567" width="16.2383" height="3.093" rx="1.15988" fill="#526374" fill-opacity="0.5"/>
<rect x="160" y="161.14" width="100" height="15.465" rx="2.31975" fill="white"/>
<rect x="166.96" y="167.325" width="23.1975" height="3.093" rx="1.15988" fill="#526374" fill-opacity="0.2"/>
<rect x="160.387" y="161.526" width="99.2267" height="14.6918" rx="1.93313" stroke="#526374" stroke-opacity="0.2" stroke-width="0.773251"/>
<rect x="50.0001" y="183.538" width="16.2383" height="3.093" rx="1.15988" fill="#526374" fill-opacity="0.5"/>
<rect x="50.0001" y="190.11" width="100" height="15.465" rx="2.31975" fill="white"/>
<rect x="54.6396" y="196.296" width="16.2383" height="3.093" rx="1.15988" fill="#526374" fill-opacity="0.2"/>
<path d="M138.401 196.683L140.721 199.002L143.041 196.683" stroke="#526374" stroke-opacity="0.5" stroke-width="0.773251" stroke-linecap="round" stroke-linejoin="round"/>
<rect x="50.3867" y="190.497" width="99.2267" height="14.6918" rx="1.93313" stroke="#526374" stroke-opacity="0.2" stroke-width="0.773251"/>
<rect x="160" y="183.538" width="16.2383" height="3.093" rx="1.15988" fill="#526374" fill-opacity="0.5"/>
<rect x="160.644" y="193.848" width="6.44376" height="6.44376" rx="1.15988" fill="white"/>
<rect x="161.031" y="194.234" width="5.67051" height="5.67051" rx="0.773251" stroke="#526374" stroke-opacity="0.2" stroke-width="0.773251"/>
<rect x="172.372" y="195.522" width="16.2383" height="3.093" rx="1.15988" fill="#526374" fill-opacity="0.2"/>
<rect x="160.644" y="203.127" width="6.44376" height="6.44376" rx="1.15988" fill="white"/>
<rect x="161.031" y="203.514" width="5.67051" height="5.67051" rx="0.773251" stroke="#526374" stroke-opacity="0.2" stroke-width="0.773251"/>
<rect x="172.372" y="204.802" width="16.2383" height="3.093" rx="1.15988" fill="#526374" fill-opacity="0.2"/>
<rect x="160.644" y="212.405" width="6.44376" height="6.44376" rx="1.15988" fill="white"/>
<rect x="161.031" y="212.792" width="5.67051" height="5.67051" rx="0.773251" stroke="#526374" stroke-opacity="0.2" stroke-width="0.773251"/>
<rect x="172.372" y="214.08" width="16.2383" height="3.093" rx="1.15988" fill="#526374" fill-opacity="0.2"/>
<rect x="50.0001" y="228.36" width="45.6218" height="17.0115" rx="8.50576" fill="#0974E4"/>
<rect x="63.1451" y="235.319" width="19.3313" height="3.093" rx="1.15988" fill="white"/>
<path d="M30 133.634H280V131.634H30V133.634Z" fill="#526374" fill-opacity="0.1" mask="url(#path-9-inside-1_562_13937)"/>
</g>
</g>
<defs>
<filter id="filter0_d_562_13937" x="0" y="0.959961" width="310" height="295.412" filterUnits="userSpaceOnUse" color-interpolation-filters="sRGB">
<feFlood flood-opacity="0" result="BackgroundImageFix"/>
<feColorMatrix in="SourceAlpha" type="matrix" values="0 0 0 0 0 0 0 0 0 0 0 0 0 0 0 0 0 0 127 0" result="hardAlpha"/>
<feOffset dy="1"/>
<feGaussianBlur stdDeviation="15"/>
<feColorMatrix type="matrix" values="0 0 0 0 0.321569 0 0 0 0 0.388235 0 0 0 0 0.454902 0 0 0 0.2 0"/>
<feBlend mode="normal" in2="BackgroundImageFix" result="effect1_dropShadow_562_13937"/>
<feBlend mode="normal" in="SourceGraphic" in2="effect1_dropShadow_562_13937" result="shape"/>
</filter>
<clipPath id="clip0_562_13937">
<rect x="30" y="29.96" width="250" height="235.412" rx="15" fill="white"/>
</clipPath>
</defs>
</svg>
