<svg width="310" height="263" viewBox="0 0 310 263" fill="none" xmlns="http://www.w3.org/2000/svg">
<g filter="url(#filter0_d_563_15287)">
<g clip-path="url(#clip0_563_15287)">
<rect x="30" y="29.0791" width="250" height="202.418" rx="15" fill="white"/>
<rect width="250" height="34" transform="translate(30 29.0791)" fill="#526374"/>
<path d="M54.1 50.2091C55.1 50.2091 55.93 49.8191 56.55 49.1891C56.62 49.1191 56.61 49.0491 56.55 48.9891L55.85 48.2391C55.79 48.1691 55.71 48.1691 55.64 48.2291C55.22 48.5791 54.72 48.8091 54.1 48.8091C52.87 48.8091 51.94 47.8791 51.94 46.6091C51.94 45.3391 52.87 44.3991 54.1 44.3991C54.72 44.3991 55.22 44.6291 55.64 44.9791C55.71 45.0391 55.79 45.0391 55.85 44.9691L56.55 44.2191C56.61 44.1491 56.62 44.0791 56.55 44.0091C55.93 43.3891 55.1 42.9991 54.1 42.9991C52.1 42.9991 50.49 44.5591 50.49 46.6091C50.49 48.6591 52.1 50.2091 54.1 50.2091ZM59.3083 50.1991C60.0383 50.1991 60.5683 49.8891 60.9083 49.3891L60.9283 49.9291C60.9283 50.0191 60.9883 50.0791 61.0783 50.0791H62.0483C62.1383 50.0791 62.2083 50.0191 62.2083 49.9291V45.3291C62.2083 45.2391 62.1483 45.1791 62.0583 45.1791H61.0783C60.9883 45.1791 60.9283 45.2391 60.9283 45.3291L60.9083 45.8691C60.5783 45.3591 60.0483 45.0591 59.3083 45.0591C57.9283 45.0591 56.9783 46.1791 56.9783 47.6291C56.9783 49.0891 57.9283 50.1991 59.3083 50.1991ZM58.3283 47.6291C58.3283 46.8491 58.8683 46.3191 59.5983 46.3191C60.3283 46.3191 60.8383 46.8391 60.8383 47.6291C60.8383 48.4191 60.3283 48.9391 59.5983 48.9391C58.8683 48.9391 58.3283 48.4191 58.3283 47.6291ZM63.4502 50.0791H64.5302C64.6202 50.0791 64.6802 50.0191 64.6802 49.9291V47.3591C64.6802 46.6891 64.9802 46.3291 65.5002 46.3291C66.0302 46.3291 66.2802 46.6891 66.2802 47.3591V49.9291C66.2802 50.0191 66.3402 50.0791 66.4402 50.0791H67.5102C67.6002 50.0791 67.6602 50.0191 67.6602 49.9291V47.3591C67.6602 46.6891 67.9602 46.3291 68.4802 46.3291C69.0202 46.3291 69.2602 46.6891 69.2602 47.3591V49.9291C69.2602 50.0191 69.3202 50.0791 69.4102 50.0791H70.4902C70.5802 50.0791 70.6402 50.0191 70.6402 49.9291V47.0591C70.6402 45.7791 70.0002 45.0591 68.9502 45.0591C68.1902 45.0591 67.7102 45.4291 67.4402 45.9291C67.1702 45.3591 66.6802 45.0591 66.0502 45.0591C65.3802 45.0591 64.9402 45.3991 64.6702 45.8591L64.6402 45.3391C64.6402 45.2191 64.5802 45.1791 64.4902 45.1791H63.4502C63.3602 45.1791 63.3002 45.2391 63.3002 45.3291V49.9291C63.3002 50.0191 63.3602 50.0791 63.4502 50.0791ZM71.8658 51.9791H72.9558C73.0458 51.9791 73.1058 51.9191 73.1058 51.8291V49.4991C73.4458 49.9391 73.9558 50.1991 74.6258 50.1991C75.9958 50.1991 76.9458 49.0891 76.9458 47.6291C76.9458 46.1791 75.9958 45.0591 74.6258 45.0591C73.8758 45.0591 73.3558 45.3591 73.0258 45.8691L73.0058 45.3291C73.0058 45.2391 72.9458 45.1791 72.8558 45.1791H71.8658C71.7758 45.1791 71.7158 45.2391 71.7158 45.3291V51.8291C71.7158 51.9191 71.7758 51.9791 71.8658 51.9791ZM73.0858 47.6291C73.0858 46.8391 73.5958 46.3191 74.3358 46.3191C75.0558 46.3191 75.5958 46.8491 75.5958 47.6291C75.5958 48.4191 75.0558 48.9391 74.3358 48.9391C73.5958 48.9391 73.0858 48.4191 73.0858 47.6291ZM79.8677 50.1991C80.5977 50.1991 81.1277 49.8891 81.4677 49.3891L81.4877 49.9291C81.4877 50.0191 81.5477 50.0791 81.6377 50.0791H82.6077C82.6977 50.0791 82.7677 50.0191 82.7677 49.9291V45.3291C82.7677 45.2391 82.7077 45.1791 82.6177 45.1791H81.6377C81.5477 45.1791 81.4877 45.2391 81.4877 45.3291L81.4677 45.8691C81.1377 45.3591 80.6077 45.0591 79.8677 45.0591C78.4877 45.0591 77.5377 46.1791 77.5377 47.6291C77.5377 49.0891 78.4877 50.1991 79.8677 50.1991ZM78.8877 47.6291C78.8877 46.8491 79.4277 46.3191 80.1577 46.3191C80.8877 46.3191 81.3977 46.8391 81.3977 47.6291C81.3977 48.4191 80.8877 48.9391 80.1577 48.9391C79.4277 48.9391 78.8877 48.4191 78.8877 47.6291ZM84.5695 44.3091C85.0095 44.3091 85.3295 43.9691 85.3295 43.5391C85.3295 43.1191 85.0095 42.7791 84.5695 42.7791C84.1295 42.7791 83.7995 43.1191 83.7995 43.5391C83.7995 43.9691 84.1295 44.3091 84.5695 44.3091ZM83.8695 49.9291C83.8695 50.0191 83.9295 50.0791 84.0195 50.0791H85.1095C85.1995 50.0791 85.2595 50.0191 85.2595 49.9291V45.3291C85.2595 45.2391 85.1995 45.1791 85.1095 45.1791H84.0195C83.9295 45.1791 83.8695 45.2391 83.8695 45.3291V49.9291ZM88.6672 52.1291C89.8772 52.1291 91.2572 51.5691 91.2572 49.8091V45.3291C91.2572 45.2391 91.1972 45.1791 91.1072 45.1791H90.1272C90.0372 45.1791 89.9672 45.2391 89.9672 45.3291L89.9472 45.7791C89.6372 45.3191 89.1372 45.0591 88.4172 45.0591C87.0372 45.0591 86.1072 46.0791 86.1072 47.5191C86.1072 48.9691 87.0372 49.9791 88.4172 49.9791C89.1172 49.9791 89.6272 49.7091 89.9372 49.2691V49.7991C89.9372 50.7091 89.2272 51.0091 88.5372 51.0091C88.1072 51.0091 87.6672 50.8891 87.2372 50.6491C87.1272 50.5891 87.0372 50.6291 86.9872 50.7291L86.6972 51.2791C86.6472 51.3691 86.6572 51.4991 86.7572 51.5691C87.2372 51.9291 87.9372 52.1291 88.6672 52.1291ZM87.4572 47.5191C87.4572 46.7791 87.9772 46.2991 88.6872 46.2991C89.3872 46.2991 89.8872 46.7691 89.8872 47.5191C89.8872 48.2691 89.3872 48.7391 88.6872 48.7391C87.9772 48.7391 87.4572 48.2691 87.4572 47.5191ZM92.4912 50.0791H93.5712C93.6612 50.0791 93.7212 50.0191 93.7212 49.9291V47.3891C93.7212 46.6991 94.1012 46.3291 94.6812 46.3291C95.2712 46.3291 95.5912 46.6991 95.5912 47.3891V49.9291C95.5912 50.0191 95.6512 50.0791 95.7412 50.0791H96.8112C96.9012 50.0791 96.9712 50.0191 96.9712 49.9291V47.0791C96.9712 45.7991 96.2212 45.0591 95.2012 45.0591C94.4712 45.0591 94.0012 45.4191 93.7212 45.9191L93.6812 45.3391C93.6812 45.2191 93.6212 45.1791 93.5312 45.1791H92.4912C92.4012 45.1791 92.3412 45.2391 92.3412 45.3291V49.9291C92.3412 50.0191 92.4012 50.0791 92.4912 50.0791ZM100.155 50.0791H101.285C101.375 50.0791 101.435 50.0191 101.435 49.9291V47.6291H102.265C103.925 47.6291 104.725 46.6991 104.725 45.3491C104.725 44.0091 103.925 43.0791 102.265 43.0791H100.155C100.065 43.0791 100.005 43.1391 100.005 43.2291V49.9291C100.005 50.0191 100.065 50.0791 100.155 50.0791ZM101.435 46.3591V44.3491H102.215C102.825 44.3491 103.355 44.5591 103.355 45.3491C103.355 46.1491 102.825 46.3591 102.215 46.3591H101.435ZM105.756 50.0791H106.836C106.926 50.0791 106.986 50.0191 106.986 49.9291V47.4791C106.986 46.7791 107.346 46.3291 108.026 46.3291C108.166 46.3291 108.276 46.3491 108.386 46.3791C108.516 46.4091 108.586 46.3791 108.586 46.2591V45.3791C108.586 45.2891 108.566 45.2291 108.496 45.1791C108.416 45.1191 108.276 45.0591 108.046 45.0591C107.466 45.0591 107.156 45.4491 106.986 45.9691L106.946 45.3391C106.936 45.2191 106.886 45.1791 106.796 45.1791H105.756C105.666 45.1791 105.606 45.2391 105.606 45.3291V49.9291C105.606 50.0191 105.666 50.0791 105.756 50.0791ZM111.556 50.1991C113.026 50.1991 114.116 49.0791 114.116 47.6291C114.116 46.1791 113.026 45.0591 111.556 45.0591C110.076 45.0591 108.986 46.1791 108.986 47.6291C108.986 49.0791 110.076 50.1991 111.556 50.1991ZM110.316 47.6291C110.316 46.8291 110.856 46.3291 111.556 46.3291C112.246 46.3291 112.786 46.8291 112.786 47.6291C112.786 48.4291 112.246 48.9291 111.556 48.9291C110.856 48.9291 110.316 48.4291 110.316 47.6291ZM115.097 51.9791H116.187C116.277 51.9791 116.337 51.9191 116.337 51.8291V49.4991C116.677 49.9391 117.187 50.1991 117.857 50.1991C119.227 50.1991 120.177 49.0891 120.177 47.6291C120.177 46.1791 119.227 45.0591 117.857 45.0591C117.107 45.0591 116.587 45.3591 116.257 45.8691L116.237 45.3291C116.237 45.2391 116.177 45.1791 116.087 45.1791H115.097C115.007 45.1791 114.947 45.2391 114.947 45.3291V51.8291C114.947 51.9191 115.007 51.9791 115.097 51.9791ZM116.317 47.6291C116.317 46.8391 116.827 46.3191 117.567 46.3191C118.287 46.3191 118.827 46.8491 118.827 47.6291C118.827 48.4191 118.287 48.9391 117.567 48.9391C116.827 48.9391 116.317 48.4191 116.317 47.6291ZM121.169 50.0791H122.249C122.339 50.0791 122.399 50.0191 122.399 49.9291V47.4791C122.399 46.7791 122.759 46.3291 123.439 46.3291C123.579 46.3291 123.689 46.3491 123.799 46.3791C123.929 46.4091 123.999 46.3791 123.999 46.2591V45.3791C123.999 45.2891 123.979 45.2291 123.909 45.1791C123.829 45.1191 123.689 45.0591 123.459 45.0591C122.879 45.0591 122.569 45.4491 122.399 45.9691L122.359 45.3391C122.349 45.2191 122.299 45.1791 122.209 45.1791H121.169C121.079 45.1791 121.019 45.2391 121.019 45.3291V49.9291C121.019 50.0191 121.079 50.0791 121.169 50.0791ZM126.969 50.1991C128.439 50.1991 129.529 49.0791 129.529 47.6291C129.529 46.1791 128.439 45.0591 126.969 45.0591C125.489 45.0591 124.399 46.1791 124.399 47.6291C124.399 49.0791 125.489 50.1991 126.969 50.1991ZM125.729 47.6291C125.729 46.8291 126.269 46.3291 126.969 46.3291C127.659 46.3291 128.199 46.8291 128.199 47.6291C128.199 48.4291 127.659 48.9291 126.969 48.9291C126.269 48.9291 125.729 48.4291 125.729 47.6291ZM131.932 50.1991C132.912 50.1991 133.762 49.6891 133.772 48.6991C133.782 47.9491 133.292 47.5191 132.672 47.2691L131.982 46.9991C131.712 46.8991 131.512 46.7691 131.512 46.5291C131.512 46.3191 131.662 46.1391 131.982 46.1391C132.272 46.1391 132.552 46.2791 132.872 46.5491C132.962 46.6191 133.032 46.6291 133.102 46.5491L133.542 46.0191C133.592 45.9591 133.612 45.8791 133.552 45.8091C133.142 45.3191 132.552 45.0591 131.912 45.0591C131.002 45.0591 130.202 45.5991 130.202 46.5391C130.202 47.2191 130.642 47.6391 131.272 47.8891L131.892 48.1391C132.252 48.2891 132.402 48.3991 132.402 48.6391C132.402 48.9191 132.182 49.0491 131.852 49.0491C131.472 49.0491 131.132 48.8791 130.722 48.5691C130.642 48.5091 130.552 48.4891 130.472 48.6091L130.122 49.0991C130.052 49.2091 130.042 49.3191 130.102 49.3891C130.492 49.8491 131.112 50.1991 131.932 50.1991ZM136.685 50.1991C137.415 50.1991 137.945 49.8891 138.285 49.3891L138.305 49.9291C138.305 50.0191 138.365 50.0791 138.455 50.0791H139.425C139.515 50.0791 139.585 50.0191 139.585 49.9291V45.3291C139.585 45.2391 139.525 45.1791 139.435 45.1791H138.455C138.365 45.1791 138.305 45.2391 138.305 45.3291L138.285 45.8691C137.955 45.3591 137.425 45.0591 136.685 45.0591C135.305 45.0591 134.355 46.1791 134.355 47.6291C134.355 49.0891 135.305 50.1991 136.685 50.1991ZM135.705 47.6291C135.705 46.8491 136.245 46.3191 136.975 46.3191C137.705 46.3191 138.215 46.8391 138.215 47.6291C138.215 48.4191 137.705 48.9391 136.975 48.9391C136.245 48.9391 135.705 48.4191 135.705 47.6291ZM140.827 50.0791H141.917C142.007 50.0791 142.067 50.0191 142.067 49.9291V43.0791C142.067 42.9891 142.007 42.9291 141.917 42.9291H140.827C140.737 42.9291 140.677 42.9891 140.677 43.0791V49.9291C140.677 50.0191 140.737 50.0791 140.827 50.0791Z" fill="white"/>
<rect x="50" y="78.0791" width="180.377" height="8" rx="1.93313" fill="#FBBB5B"/>
<rect x="50" y="95.3584" width="210" height="3.093" rx="1.15988" fill="#526374" fill-opacity="0.2"/>
<rect x="50" y="101.544" width="210" height="3.093" rx="1.15988" fill="#526374" fill-opacity="0.2"/>
<rect x="50.0001" y="107.73" width="210" height="3.093" rx="1.15988" fill="#526374" fill-opacity="0.2"/>
<rect x="50" y="113.916" width="210" height="3.093" rx="1.15988" fill="#526374" fill-opacity="0.2"/>
<path d="M50.0001 121.262C50.0001 120.622 50.5194 120.103 51.1599 120.103H120V123.196H51.1599C50.5194 123.196 50.0001 122.676 50.0001 122.036V121.262Z" fill="#526374" fill-opacity="0.2"/>
<path d="M120 120.103H188.84C189.481 120.103 190 120.622 190 121.262V122.036C190 122.676 189.481 123.196 188.84 123.196H120V120.103Z" fill="#526374" fill-opacity="0.2"/>
<rect x="50" y="141.637" width="106.63" height="8" rx="1.93313" fill="#526374" fill-opacity="0.25"/>
<rect x="50" y="158.916" width="210" height="3.093" rx="1.15988" fill="#526374" fill-opacity="0.2"/>
<rect x="50" y="165.102" width="210" height="3.093" rx="1.15988" fill="#526374" fill-opacity="0.2"/>
<rect x="50.0001" y="171.288" width="210" height="3.093" rx="1.15988" fill="#526374" fill-opacity="0.2"/>
<path d="M50 178.634C50 177.993 50.5193 177.474 51.1599 177.474H120V180.567H51.1599C50.5193 180.567 50 180.047 50 179.407V178.634Z" fill="#526374" fill-opacity="0.2"/>
<path d="M120 177.474H188.84C189.481 177.474 190 177.993 190 178.634V179.407C190 180.047 189.481 180.567 188.84 180.567H120V177.474Z" fill="#526374" fill-opacity="0.2"/>
<rect x="50" y="189.846" width="210" height="3.093" rx="1.15988" fill="#526374" fill-opacity="0.2"/>
<rect x="50" y="196.031" width="210" height="3.093" rx="1.15988" fill="#526374" fill-opacity="0.2"/>
<rect x="50.0001" y="202.218" width="210" height="3.093" rx="1.15988" fill="#526374" fill-opacity="0.2"/>
<path d="M50 209.563C50 208.923 50.5193 208.403 51.1599 208.403H120V211.496H51.1599C50.5193 211.496 50 210.977 50 210.336V209.563Z" fill="#526374" fill-opacity="0.2"/>
<path d="M120 208.403H188.84C189.481 208.403 190 208.923 190 209.563V210.336C190 210.977 189.481 211.496 188.84 211.496H120V208.403Z" fill="#526374" fill-opacity="0.2"/>
</g>
</g>
<defs>
<filter id="filter0_d_563_15287" x="0" y="0.0791016" width="310" height="262.418" filterUnits="userSpaceOnUse" color-interpolation-filters="sRGB">
<feFlood flood-opacity="0" result="BackgroundImageFix"/>
<feColorMatrix in="SourceAlpha" type="matrix" values="0 0 0 0 0 0 0 0 0 0 0 0 0 0 0 0 0 0 127 0" result="hardAlpha"/>
<feOffset dy="1"/>
<feGaussianBlur stdDeviation="15"/>
<feColorMatrix type="matrix" values="0 0 0 0 0.321569 0 0 0 0 0.388235 0 0 0 0 0.454902 0 0 0 0.2 0"/>
<feBlend mode="normal" in2="BackgroundImageFix" result="effect1_dropShadow_563_15287"/>
<feBlend mode="normal" in="SourceGraphic" in2="effect1_dropShadow_563_15287" result="shape"/>
</filter>
<clipPath id="clip0_563_15287">
<rect x="30" y="29.0791" width="250" height="202.418" rx="15" fill="white"/>
</clipPath>
</defs>
</svg>
