<svg width="310" height="269" viewBox="0 0 310 269" fill="none" xmlns="http://www.w3.org/2000/svg">
<g filter="url(#filter0_d_562_14780)">
<g clip-path="url(#clip0_562_14780)">
<rect x="30" y="29.6367" width="250" height="208.092" rx="15" fill="white"/>
<rect x="50" y="44.6367" width="15.465" height="15.465" rx="1.93313" fill="#FBBB5B"/>
<rect x="80.9301" y="44.6367" width="179.07" height="7.73251" rx="1.93313" fill="#526374" fill-opacity="0.2"/>
<path d="M50.84 89.1016H54.26C54.35 89.1016 54.41 89.0416 54.41 88.9516V87.9816C54.41 87.8916 54.35 87.8316 54.26 87.8316H52.12V82.2516C52.12 82.1616 52.06 82.1016 51.97 82.1016H50.84C50.75 82.1016 50.69 82.1616 50.69 82.2516V88.9516C50.69 89.0416 50.75 89.1016 50.84 89.1016ZM57.1208 89.2216C57.8508 89.2216 58.3808 88.9116 58.7208 88.4116L58.7408 88.9516C58.7408 89.0416 58.8008 89.1016 58.8908 89.1016H59.8608C59.9508 89.1016 60.0208 89.0416 60.0208 88.9516V84.3516C60.0208 84.2616 59.9608 84.2016 59.8708 84.2016H58.8908C58.8008 84.2016 58.7408 84.2616 58.7408 84.3516L58.7208 84.8916C58.3908 84.3816 57.8608 84.0816 57.1208 84.0816C55.7408 84.0816 54.7908 85.2016 54.7908 86.6516C54.7908 88.1116 55.7408 89.2216 57.1208 89.2216ZM56.1408 86.6516C56.1408 85.8716 56.6808 85.3416 57.4108 85.3416C58.1408 85.3416 58.6508 85.8616 58.6508 86.6516C58.6508 87.4416 58.1408 87.9616 57.4108 87.9616C56.6808 87.9616 56.1408 87.4416 56.1408 86.6516ZM62.8827 89.2216C63.6127 89.2216 64.0827 88.8616 64.3627 88.3616L64.4027 88.9416C64.4127 89.0616 64.4627 89.1016 64.5527 89.1016H65.5827C65.6727 89.1016 65.7427 89.0416 65.7427 88.9516V84.3516C65.7427 84.2616 65.6727 84.2016 65.5827 84.2016H64.5127C64.4227 84.2016 64.3627 84.2616 64.3627 84.3516V86.8916C64.3627 87.5816 63.9827 87.9516 63.4027 87.9516C62.8127 87.9516 62.4927 87.5816 62.4927 86.8916V84.3516C62.4927 84.2616 62.4327 84.2016 62.3427 84.2016H61.2627C61.1727 84.2016 61.1127 84.2616 61.1127 84.3516V87.2016C61.1127 88.4816 61.8527 89.2216 62.8827 89.2216ZM66.9732 89.1016H68.0532C68.1432 89.1016 68.2032 89.0416 68.2032 88.9516V86.4116C68.2032 85.7216 68.5832 85.3516 69.1632 85.3516C69.7532 85.3516 70.0732 85.7216 70.0732 86.4116V88.9516C70.0732 89.0416 70.1332 89.1016 70.2232 89.1016H71.2932C71.3832 89.1016 71.4532 89.0416 71.4532 88.9516V86.1016C71.4532 84.8216 70.7032 84.0816 69.6832 84.0816C68.9532 84.0816 68.4832 84.4416 68.2032 84.9416L68.1632 84.3616C68.1632 84.2416 68.1032 84.2016 68.0132 84.2016H66.9732C66.8832 84.2016 66.8232 84.2616 66.8232 84.3516V88.9516C66.8232 89.0416 66.8832 89.1016 66.9732 89.1016ZM74.8738 89.2216C75.6638 89.2216 76.3338 88.8816 76.7538 88.3416C76.8138 88.2716 76.7938 88.1916 76.7338 88.1316L76.1338 87.5416C76.0538 87.4616 75.9438 87.4716 75.8738 87.5416C75.6038 87.8116 75.3138 87.9516 74.9338 87.9516C74.1238 87.9516 73.6138 87.3516 73.6138 86.6316C73.6138 85.9116 74.1238 85.3516 74.9038 85.3516C75.3038 85.3516 75.5938 85.4916 75.8638 85.7616C75.9338 85.8316 76.0438 85.8416 76.1238 85.7616L76.7238 85.1716C76.7838 85.1116 76.8038 85.0316 76.7438 84.9616C76.3238 84.4216 75.6538 84.0816 74.8438 84.0816C73.3738 84.0816 72.2838 85.1816 72.2838 86.6316C72.2838 88.1016 73.3838 89.2216 74.8738 89.2216ZM77.7693 89.1016H78.8493C78.9393 89.1016 78.9993 89.0416 78.9993 88.9516V86.4116C78.9993 85.7216 79.3793 85.3516 79.9593 85.3516C80.5493 85.3516 80.8693 85.7216 80.8693 86.4116V88.9516C80.8693 89.0416 80.9293 89.1016 81.0193 89.1016H82.0893C82.1793 89.1016 82.2493 89.0416 82.2493 88.9516V86.1016C82.2493 84.8216 81.4993 84.0816 80.4793 84.0816C79.7493 84.0816 79.2793 84.4416 78.9993 84.9416V82.1016C78.9993 82.0116 78.9393 81.9516 78.8493 81.9516H77.7693C77.6793 81.9516 77.6193 82.0116 77.6193 82.1016V88.9516C77.6193 89.0416 77.6793 89.1016 77.7693 89.1016ZM85.433 89.1016H86.563C86.653 89.1016 86.713 89.0416 86.713 88.9516V86.6516H87.543C89.203 86.6516 90.003 85.7216 90.003 84.3716C90.003 83.0316 89.203 82.1016 87.543 82.1016H85.433C85.343 82.1016 85.283 82.1616 85.283 82.2516V88.9516C85.283 89.0416 85.343 89.1016 85.433 89.1016ZM86.713 85.3816V83.3716H87.493C88.103 83.3716 88.633 83.5816 88.633 84.3716C88.633 85.1716 88.103 85.3816 87.493 85.3816H86.713ZM91.0338 89.1016H92.1238C92.2138 89.1016 92.2738 89.0416 92.2738 88.9516V82.1016C92.2738 82.0116 92.2138 81.9516 92.1238 81.9516H91.0338C90.9438 81.9516 90.8838 82.0116 90.8838 82.1016V88.9516C90.8838 89.0416 90.9438 89.1016 91.0338 89.1016ZM95.4419 89.2216C96.1719 89.2216 96.7019 88.9116 97.0419 88.4116L97.0619 88.9516C97.0619 89.0416 97.1219 89.1016 97.2119 89.1016H98.1819C98.2719 89.1016 98.3419 89.0416 98.3419 88.9516V84.3516C98.3419 84.2616 98.2819 84.2016 98.1919 84.2016H97.2119C97.1219 84.2016 97.0619 84.2616 97.0619 84.3516L97.0419 84.8916C96.7119 84.3816 96.1819 84.0816 95.4419 84.0816C94.0619 84.0816 93.1119 85.2016 93.1119 86.6516C93.1119 88.1116 94.0619 89.2216 95.4419 89.2216ZM94.4619 86.6516C94.4619 85.8716 95.0019 85.3416 95.7319 85.3416C96.4619 85.3416 96.9719 85.8616 96.9719 86.6516C96.9719 87.4416 96.4619 87.9616 95.7319 87.9616C95.0019 87.9616 94.4619 87.4416 94.4619 86.6516ZM99.5838 89.1016H100.664C100.754 89.1016 100.814 89.0416 100.814 88.9516V86.4116C100.814 85.7216 101.194 85.3516 101.774 85.3516C102.364 85.3516 102.684 85.7216 102.684 86.4116V88.9516C102.684 89.0416 102.744 89.1016 102.834 89.1016H103.904C103.994 89.1016 104.064 89.0416 104.064 88.9516V86.1016C104.064 84.8216 103.314 84.0816 102.294 84.0816C101.564 84.0816 101.094 84.4416 100.814 84.9416L100.774 84.3616C100.774 84.2416 100.714 84.2016 100.624 84.2016H99.5838C99.4938 84.2016 99.4338 84.2616 99.4338 84.3516V88.9516C99.4338 89.0416 99.4938 89.1016 99.5838 89.1016Z" fill="#00386C"/>
<rect x="50" y="101.381" width="210" height="3.093" rx="1.15988" fill="#526374" fill-opacity="0.2"/>
<rect x="50" y="107.566" width="210" height="3.093" rx="1.15988" fill="#526374" fill-opacity="0.2"/>
<rect x="50" y="113.753" width="210" height="3.093" rx="1.15988" fill="#526374" fill-opacity="0.2"/>
<path d="M50 121.098C50 120.458 50.5193 119.938 51.1599 119.938H120V123.031H51.1599C50.5193 123.031 50 122.512 50 121.872V121.098Z" fill="#526374" fill-opacity="0.2"/>
<path d="M120 119.938H188.84C189.481 119.938 190 120.458 190 121.098V121.872C190 122.512 189.481 123.031 188.84 123.031H120V119.938Z" fill="#526374" fill-opacity="0.2"/>
<rect x="50" y="132.311" width="210" height="3.093" rx="1.15988" fill="#526374" fill-opacity="0.2"/>
<rect x="50" y="138.496" width="210" height="3.093" rx="1.15988" fill="#526374" fill-opacity="0.2"/>
<path d="M50 145.842C50 145.202 50.5193 144.683 51.1599 144.683H120V147.776H51.1599C50.5193 147.776 50 147.256 50 146.616V145.842Z" fill="#526374" fill-opacity="0.2"/>
<path d="M120 144.683H188.84C189.481 144.683 190 145.202 190 145.842V146.616C190 147.256 189.481 147.776 188.84 147.776H120V144.683Z" fill="#526374" fill-opacity="0.2"/>
<rect x="50.0001" y="165.174" width="16.2383" height="3.093" rx="1.15988" fill="#526374" fill-opacity="0.5"/>
<rect x="50.0001" y="171.746" width="100" height="15.465" rx="2.31975" fill="white"/>
<rect x="54.6396" y="177.932" width="16.2383" height="3.093" rx="1.15988" fill="#526374" fill-opacity="0.2"/>
<path d="M138.401 178.318L140.721 180.638L143.041 178.318" stroke="#526374" stroke-opacity="0.5" stroke-width="0.773251" stroke-linecap="round" stroke-linejoin="round"/>
<rect x="50.3867" y="172.133" width="99.2267" height="14.6918" rx="1.93313" stroke="#526374" stroke-opacity="0.2" stroke-width="0.773251"/>
<rect x="160" y="165.174" width="16.2383" height="3.093" rx="1.15988" fill="#526374" fill-opacity="0.5"/>
<rect x="160.644" y="175.483" width="6.44376" height="6.44376" rx="1.15988" fill="white"/>
<rect x="161.031" y="175.87" width="5.67051" height="5.67051" rx="0.773251" stroke="#526374" stroke-opacity="0.2" stroke-width="0.773251"/>
<rect x="172.372" y="177.158" width="16.2383" height="3.093" rx="1.15988" fill="#526374" fill-opacity="0.2"/>
<rect x="160.644" y="184.763" width="6.44376" height="6.44376" rx="1.15988" fill="white"/>
<rect x="161.031" y="185.149" width="5.67051" height="5.67051" rx="0.773251" stroke="#526374" stroke-opacity="0.2" stroke-width="0.773251"/>
<rect x="172.372" y="186.438" width="16.2383" height="3.093" rx="1.15988" fill="#526374" fill-opacity="0.2"/>
<rect x="50.0001" y="200.717" width="45.6218" height="17.0115" rx="8.50576" fill="#0974E4"/>
<rect x="63.1451" y="207.676" width="19.3313" height="3.093" rx="1.15988" fill="white"/>
</g>
</g>
<defs>
<filter id="filter0_d_562_14780" x="0" y="0.636719" width="310" height="268.092" filterUnits="userSpaceOnUse" color-interpolation-filters="sRGB">
<feFlood flood-opacity="0" result="BackgroundImageFix"/>
<feColorMatrix in="SourceAlpha" type="matrix" values="0 0 0 0 0 0 0 0 0 0 0 0 0 0 0 0 0 0 127 0" result="hardAlpha"/>
<feOffset dy="1"/>
<feGaussianBlur stdDeviation="15"/>
<feColorMatrix type="matrix" values="0 0 0 0 0.321569 0 0 0 0 0.388235 0 0 0 0 0.454902 0 0 0 0.2 0"/>
<feBlend mode="normal" in2="BackgroundImageFix" result="effect1_dropShadow_562_14780"/>
<feBlend mode="normal" in="SourceGraphic" in2="effect1_dropShadow_562_14780" result="shape"/>
</filter>
<clipPath id="clip0_562_14780">
<rect x="30" y="29.6367" width="250" height="208.092" rx="15" fill="white"/>
</clipPath>
</defs>
</svg>
