<svg width="50" height="51" viewBox="0 0 50 51" fill="none" xmlns="http://www.w3.org/2000/svg">
<path d="M45.8333 4.66309H32.2916L28.125 15.3923C30.3899 15.8559 32.5239 16.8157 34.3737 18.2026C36.2234 19.5894 37.7429 21.3689 38.8229 23.4131L45.8333 4.66309ZM17.7083 4.66309H4.16663L11.177 23.4131C12.257 21.3689 13.7765 19.5894 15.6262 18.2026C17.476 16.8157 19.61 15.8559 21.875 15.3923L17.7083 4.66309Z" stroke="#FBBB5B" stroke-width="3" stroke-linecap="round" stroke-linejoin="round"/>
<path d="M40.625 30.7051C40.625 39.3342 33.6292 46.3301 25 46.3301C16.3708 46.3301 9.375 39.3342 9.375 30.7051C9.375 28.0717 10.026 25.5905 11.1771 23.4134C12.257 21.3692 13.7765 19.5898 15.6263 18.2029C17.476 16.8161 19.6101 15.8563 21.875 15.3926C22.8854 15.1874 23.9302 15.0801 25 15.0801C26.0698 15.0801 27.1146 15.1874 28.125 15.3926C30.3899 15.8563 32.524 16.8161 34.3737 18.2029C36.2235 19.5898 37.7429 21.3692 38.8229 23.4134C40.0101 25.6603 40.6289 28.1638 40.625 30.7051Z" stroke="#FBBB5B" stroke-width="3" stroke-linecap="round" stroke-linejoin="round"/>
<path d="M24.9999 36.9548V23.4131L21.8749 24.4548M24.9999 36.9548H29.1666M24.9999 36.9548H20.8333" stroke="#FBBB5B" stroke-width="3" stroke-linecap="round" stroke-linejoin="round"/>
</svg>
