<svg width="240" height="43" viewBox="0 0 240 43" fill="none" xmlns="http://www.w3.org/2000/svg">
<g clip-path="url(#clip0_502_5067)">
<path d="M65.6015 34.314C61.7557 34.314 58.4394 33.023 55.6526 30.4503C52.8658 27.8775 51.4724 24.7238 51.4724 20.9892C51.4724 17.2545 52.8658 14.0916 55.6526 11.4819C58.4394 8.88151 61.7557 7.5813 65.6015 7.5813C69.4473 7.5813 72.8194 8.88151 75.634 11.4819C78.4487 14.0824 79.8514 17.2545 79.8514 20.9892C79.8514 24.7238 78.4394 27.8775 75.634 30.4503C72.8194 33.023 69.4752 34.314 65.6015 34.314ZM65.6015 11.445C62.8426 11.445 60.4738 12.3764 58.4952 14.2299C56.5165 16.0834 55.5226 18.3426 55.5226 20.9892C55.5504 23.6449 56.5537 25.8673 58.5323 27.6746C60.511 29.4728 62.8612 30.3673 65.6015 30.3673C68.3419 30.3673 70.7386 29.4728 72.7265 27.6746C74.7144 25.8765 75.7269 23.6449 75.7548 20.9892C75.7827 18.3334 74.7887 16.0834 72.7636 14.2299C70.7478 12.3764 68.3512 11.445 65.5922 11.445H65.6015Z" fill="#00386C"/>
<path d="M105.815 18.9605V33.9452H101.672V19.1726C101.672 17.0148 100.975 15.189 99.5728 13.6951C98.1794 12.2013 96.3865 11.4543 94.2035 11.4543C92.0205 11.4543 90.237 12.192 88.8343 13.6767C87.4409 15.1613 86.7349 16.9871 86.7349 19.1726V33.9452H82.4711V7.96865H86.7349V10.6613C88.1283 9.58239 89.3452 8.83546 90.3763 8.4205C91.6304 7.86722 93.0331 7.59058 94.5658 7.59058C97.6963 7.59058 100.344 8.70636 102.527 10.9287C104.701 13.1603 105.797 15.8345 105.797 18.9605H105.815Z" fill="#00386C"/>
<path d="M108.704 1.11719H112.847V7.96866H121.914V11.8232H112.847V24.6132C112.847 25.0005 112.968 25.563 113.2 26.3099C113.433 27.0569 113.665 27.5825 113.888 27.8868C114.975 29.4083 116.897 30.1645 119.656 30.1645H122.75V33.936C122.583 33.936 121.691 33.9545 120.074 33.9729C118.876 34.0006 117.901 34.0006 117.148 33.9729C116.089 33.8899 115.188 33.7424 114.436 33.5211C112.736 33.0508 111.352 32.101 110.293 30.6624C109.234 29.2239 108.704 27.6194 108.704 25.8581V1.11719Z" fill="#00386C"/>
<path d="M142.146 33.9453V11.7033H136.34C133.665 11.7033 131.389 12.5886 129.531 14.3591C127.664 16.1296 126.735 18.3335 126.735 20.9616C126.735 23.5897 127.655 25.7844 129.494 27.5364C131.333 29.2977 133.572 30.1737 136.229 30.1737C137.817 30.1737 139.285 29.7957 140.613 29.0579V33.2444C138.857 33.8254 137.325 34.1113 136.015 34.1113C132.253 34.1113 129.039 32.8479 126.382 30.3121C123.716 27.7762 122.387 24.6594 122.387 20.9524C122.387 18.8499 122.88 16.8396 123.855 14.9308C125.026 12.7177 126.67 11.0025 128.788 9.7853C130.906 8.56808 133.247 7.95947 135.811 7.95947H146.224V33.936H142.165L142.146 33.9453Z" fill="#00386C"/>
<path d="M160.595 11.4543C158.439 11.4543 156.665 12.192 155.253 13.6767C153.841 15.1613 153.135 16.9871 153.135 19.1726V33.9452H148.871V7.96865H153.135V10.6613C154.529 9.58239 155.745 8.83546 156.777 8.4205C158.031 7.86722 159.433 7.59058 160.966 7.59058C164.515 7.59058 167.422 8.97378 169.68 11.7402L165.992 13.732C164.57 12.2105 162.768 11.4451 160.585 11.4451L160.595 11.4543Z" fill="#00386C"/>
<path d="M181.523 33.9452C178.96 33.9452 176.619 33.3274 174.501 32.101C172.383 30.8745 170.739 29.1501 169.568 26.937C168.593 25.0558 168.1 23.0548 168.1 20.9155C168.1 17.2085 169.429 14.0916 172.076 11.5558C174.724 9.02912 177.928 7.75657 181.672 7.75657C181.867 7.75657 182.517 7.72891 183.632 7.67358C184.598 7.64592 185.369 7.64592 185.917 7.67358C186.753 7.70124 187.385 7.80268 187.831 7.96866H191.89V34.5262C191.89 36.352 191.389 37.9934 190.386 39.4688C189.327 41.0457 187.933 41.9586 186.205 42.2076C184.477 42.4566 181.737 42.5857 177.966 42.5857V38.851C178.328 38.851 178.848 38.8602 179.517 38.8879H181.068C183.827 38.8879 185.75 38.141 186.837 36.6471C187.534 35.6789 187.868 34.7752 187.84 33.9452H181.533H181.523ZM187.831 12.1183C187.413 11.897 186.809 11.7586 186.038 11.7033C185.481 11.648 184.756 11.6388 183.864 11.6664L181.941 11.7033C179.294 11.7033 177.055 12.5793 175.207 14.3406C173.367 16.1019 172.448 18.2874 172.448 20.9155C172.448 23.5435 173.377 25.7751 175.244 27.5364C177.111 29.2977 179.387 30.1737 182.053 30.1737H187.822V12.1183H187.831Z" fill="#00386C"/>
<path d="M218.059 18.9604C217.278 13.9532 214.129 11.445 208.611 11.445C205.852 11.445 203.474 12.3764 201.486 14.2298C199.498 16.0833 198.514 18.3426 198.542 20.9891C198.57 23.5895 199.508 25.8027 201.366 27.6285C203.224 29.4543 205.453 30.3672 208.073 30.3672C210.302 30.3672 212.42 29.9523 214.427 29.1223C216.767 28.1264 218.254 26.7801 218.904 25.0926L221.7 27.7852C220.557 29.9154 218.727 31.5476 216.219 32.6818C213.934 33.7607 211.398 34.2955 208.611 34.2955C204.71 34.2955 201.375 33.0138 198.597 30.4594C195.82 27.9051 194.436 24.7422 194.436 20.9799C194.436 17.2176 195.829 14.0823 198.616 11.4727C201.403 8.87223 204.728 7.57202 208.602 7.57202C212.782 7.59969 216.052 8.54026 218.43 10.3938C221.245 12.5792 222.648 15.9727 222.648 20.5557C222.648 21.109 222.629 21.6899 222.61 22.2985H202.545V18.9788H218.012L218.049 18.942L218.059 18.9604Z" fill="#00386C"/>
<path d="M225.955 1.11719H230.098V7.96866H239.164V11.8232H230.098V24.6132C230.098 25.0005 230.218 25.563 230.451 26.3099C230.683 27.0569 230.915 27.5825 231.138 27.8868C232.225 29.4083 234.148 30.1645 236.907 30.1645H240V33.936C239.833 33.936 238.941 33.9545 237.325 33.9729C236.126 34.0006 235.151 34.0006 234.399 33.9729C233.34 33.8899 232.439 33.7424 231.686 33.5211C229.986 33.0508 228.602 32.101 227.543 30.6624C226.484 29.2239 225.955 27.6194 225.955 25.8581V1.11719Z" fill="#00386C"/>
<path d="M7.43149 7.44312H0V34.4433H7.43149V7.44312Z" fill="#0974E4"/>
<path d="M7.43149 0.923584H0V5.06398H7.43149V0.923584Z" fill="#0974E4"/>
<path d="M49.9396 15.3734V7.99634H27.0134V15.3734H39.1639L27.0134 27.0846V34.4616H49.9396V27.0846H37.7055L49.9396 15.3734Z" fill="#0974E4"/>
<path d="M24.1524 15.1429V7.76583H17.9842V0.923584H10.5527V28.1358C10.5527 31.6215 13.4139 34.4617 16.9252 34.4617H24.1524V27.0846H17.9842V15.1429H24.1524Z" fill="#0974E4"/>
</g>
<defs>
<clipPath id="clip0_502_5067">
<rect width="240" height="41.6529" fill="white" transform="translate(0 0.923584)"/>
</clipPath>
</defs>
</svg>
