<svg width="189" height="42" viewBox="0 0 189 42" fill="none" xmlns="http://www.w3.org/2000/svg">
<g clip-path="url(#clip0_562_12615)">
<path d="M15.0742 11.9432H20.9874V24.6H29.2849V29.6665H15.0742V11.9432Z" fill="#526374"/>
<path d="M37.3157 11.9432H43.9346L47.3681 21.8851L50.8016 11.9432H57.3061L50.1339 29.7812H44.4878L37.3157 11.9432Z" fill="#526374"/>
<path d="M57.5349 11.9432H72.604V16.7994H63.3337V18.5966H71.9746V22.8793H63.3337V24.8103H72.7185V29.6665H57.5159V11.9432H57.5349Z" fill="#526374"/>
<path d="M79.7188 11.9432H85.2504L91.5451 19.7629V11.9432H97.4011V29.6474H92.1555L85.5938 21.4836V29.6474H79.7378V11.9432H79.7188Z" fill="#526374"/>
<path d="M104.554 11.8094H110.41L117.849 29.6474H111.44L110.506 27.2767H104.325L103.41 29.6474H97.0961L104.554 11.8094ZM109.056 23.0705L107.435 18.7687L105.813 23.0705H109.056Z" fill="#526374"/>
<path d="M118.822 16.9524H113.615V11.9432H129.924V16.9524H124.716V29.6474H118.803V16.9524H118.822Z" fill="#526374"/>
<path d="M130.82 11.9432H136.733V29.6474H130.82V11.9432Z" fill="#526374"/>
<path d="M137.878 20.8527V20.7953C137.878 15.6524 142.093 11.5609 147.549 11.5609C153.004 11.5609 157.162 15.6141 157.162 20.738V20.7953C157.162 25.9383 152.947 30.0298 147.491 30.0298C142.036 30.0298 137.878 25.9766 137.878 20.8527ZM151.211 20.8527V20.7953C151.211 18.6923 149.78 16.7995 147.491 16.7995C145.241 16.7995 143.829 18.6732 143.829 20.738V20.7953C143.829 22.8984 145.26 24.7912 147.549 24.7912C149.799 24.7912 151.211 22.9175 151.211 20.8527Z" fill="#526374"/>
<path d="M157.773 11.9432H163.305L169.599 19.7629V11.9432H175.455V29.6474H170.191L163.629 21.4836V29.6474H157.773V11.9432Z" fill="#526374"/>
<path d="M188.235 40.7555H1.95056V0.988159H188.235V40.7555ZM5.86089 36.817H184.325V4.90754H5.86089V36.817Z" fill="#526374"/>
<path d="M39.4326 8.3488C39.4326 8.3488 39.0511 7.67964 38.9748 7.5458C38.8985 7.41197 38.784 7.50756 38.784 7.50756C38.784 7.50756 38.4025 7.79435 38.1927 7.92818C37.9829 8.06201 38.0019 8.23408 38.0019 8.31056C38.0019 8.40615 37.9447 8.92236 37.9447 8.92236C37.9256 9.03708 37.8684 9.13267 37.8303 9.19003L34.435 11.8284L34.0153 11.924L32.9662 12.4402L33.0234 11.7328C33.0997 11.7711 33.2142 11.8858 33.2905 11.9049C33.3858 11.924 33.5384 11.8858 33.5384 11.8858C33.5384 11.8858 33.4812 11.752 33.4812 11.6755C33.4812 11.599 33.5003 11.4652 33.5003 11.4652C33.5003 11.4652 33.6529 11.5608 33.7864 11.5608C33.8818 11.5608 33.9772 11.5225 34.0344 11.4843C34.0916 11.4461 34.1488 11.3696 34.1488 11.3696C34.1488 11.3696 33.9581 11.2549 33.8818 11.1784C33.8436 11.121 33.7673 11.0446 33.8055 11.0446C33.9009 11.0446 34.0535 10.9107 34.0535 10.9107C34.0535 10.9107 33.9581 10.8534 33.8627 10.7769C33.7673 10.7004 33.7292 10.6431 33.691 10.5475C33.6529 10.4519 33.6338 10.3754 33.6338 10.3754C33.6338 10.3754 33.691 10.4519 33.8246 10.4519C33.939 10.4519 34.0535 10.3754 34.0535 10.3754C34.0535 10.3754 33.9581 10.318 33.9009 10.2607C33.8436 10.1842 33.7864 10.1077 33.7483 10.0121C33.7101 9.87831 33.691 9.80183 33.6529 9.70624C33.6338 9.64888 33.6338 9.57241 33.5957 9.43858C33.5575 9.13267 33.424 8.99884 33.424 8.99884C33.0234 8.46351 32.1078 8.32968 32.1078 8.32968C31.65 8.23408 31.1732 8.84589 30.9824 9.45769C30.6772 10.471 30.7726 11.4652 30.7726 11.4652C30.7726 11.4652 30.7917 11.6564 30.9443 11.752C31.0396 11.8093 31.4402 11.9049 31.4402 11.9049L31.4021 12.727L30.4293 12.8035C30.4293 12.8035 29.7044 12.3638 29.094 12.0005L26.4045 9.99302C26.4045 9.99302 26.29 9.91655 26.2709 9.70624C26.2709 9.70624 26.2137 9.19003 26.2137 9.09444C26.2137 8.99884 26.2328 8.84589 26.023 8.71206C25.8132 8.57822 25.4317 8.29144 25.4317 8.29144C25.4317 8.29144 25.2981 8.17673 25.2218 8.31056C25.1455 8.44439 24.764 9.11355 24.764 9.11355L24.9548 9.87831C24.9548 9.87831 25.0311 10.0313 25.1646 10.1651L25.3363 10.3372L26.3282 11.2358H26.3472L27.9877 12.7079L28.4645 13.1668C28.4645 13.1668 28.5027 13.2241 28.5027 13.3197C28.5027 13.4153 28.5027 13.683 28.5027 13.683C28.5027 13.683 28.5027 13.7595 28.5408 13.8168C28.5981 13.8742 29.4755 14.5816 29.4755 14.5816C29.4755 14.5816 29.5327 14.6389 29.5327 14.7536L29.6853 20.0305C29.6853 20.0305 29.6853 20.1069 29.7616 20.1069L30.0478 20.2216L30.6963 25.9956L31.9362 29.8193L29.9715 30.7753C29.9715 30.7753 29.8952 30.8135 29.857 30.89C29.857 30.89 29.7426 31.1194 29.7426 31.1577C29.7426 31.2341 29.7998 31.2533 29.7998 31.2533H32.7182L32.4321 32.018L32.3558 32.2283C32.3558 32.2283 32.2604 32.6107 32.413 32.6681C32.5847 32.7254 33.0997 32.7445 33.3286 32.7254C33.6147 32.7063 34.1298 32.6681 34.2251 32.5916C34.3014 32.5151 34.3396 32.1518 33.9199 29.8193L33.672 20.7952L34.4159 15.136C34.4922 14.5051 34.5685 14.4477 34.5685 14.4477C34.5685 14.4477 35.3696 13.855 35.4459 13.7786C35.5222 13.7021 35.5031 13.5874 35.5031 13.5874V12.9565C35.5031 12.8417 35.5413 12.7461 35.5413 12.7461L36.1898 12.1152L36.3806 11.924L38.4407 9.93567L38.8031 9.51505L38.9748 9.34298C39.0892 9.20915 39.1655 9.0562 39.1655 9.0562C39.1655 9.0562 39.3181 8.67382 39.3753 8.55911C39.4898 8.48263 39.4326 8.3488 39.4326 8.3488Z" fill="#526374"/>
<path d="M178.335 13.3007C178.335 12.536 178.946 11.905 179.728 11.905C180.51 11.905 181.12 12.536 181.12 13.3007C181.12 14.0655 180.51 14.6964 179.728 14.6964C178.927 14.6773 178.335 14.0463 178.335 13.3007ZM180.949 13.2816C180.949 12.5933 180.415 12.0389 179.728 12.0389C179.022 12.0389 178.488 12.5933 178.488 13.2816C178.488 13.9699 179.022 14.5052 179.709 14.5052C180.415 14.5243 180.949 13.9699 180.949 13.2816ZM179.156 12.4977H179.804C179.995 12.4977 180.167 12.5551 180.262 12.6507C180.338 12.7271 180.376 12.8419 180.376 12.9757C180.376 13.2051 180.243 13.3581 180.052 13.4345L180.415 13.9699H180.033L179.709 13.4919H179.461V13.989H179.156V12.4977ZM179.804 13.2242C179.976 13.2242 180.052 13.1286 180.052 13.0139C180.052 12.8801 179.957 12.8036 179.785 12.8036H179.461V13.2242H179.804Z" fill="#526374"/>
</g>
<defs>
<clipPath id="clip0_562_12615">
<rect width="187.339" height="40.8559" fill="white" transform="translate(0.972046 0.443726)"/>
</clipPath>
</defs>
</svg>
