<svg width="222" height="72" viewBox="0 0 222 72" fill="none" xmlns="http://www.w3.org/2000/svg">
<g clip-path="url(#clip0_562_12593)">
<path d="M24.949 20.1369H17.9437L17.317 30.6758C17.6857 30.7495 18.1281 30.86 18.4599 31.0443L24.949 20.1369ZM19.5292 44.0152L19.4554 44.8996L19.8241 45.0838C20.5246 45.3418 21.2252 45.526 22.0363 45.4523C22.8475 45.4523 23.6217 45.3786 24.3223 45.0101V44.1258C23.6217 44.4943 22.8106 44.6417 22.0363 44.6417C21.3358 44.6417 20.5246 44.4574 19.8241 44.1995L19.5292 44.0152ZM19.7872 47.2948L19.5292 47.1106H19.4554V47.9949L19.8241 48.1792C20.5246 48.4371 21.2252 48.6214 22.0363 48.5477C22.6631 48.5477 23.2899 48.474 23.8061 48.2897V47.479C23.2899 47.6633 22.6631 47.737 22.0363 47.737C21.2252 47.8107 20.414 47.6264 19.7872 47.2948ZM19.7872 50.3901L19.5292 50.2059H19.4554V51.0903L19.8241 51.2745C20.5246 51.5325 21.2252 51.643 21.9626 51.643C22.3313 51.643 22.6631 51.643 23.0318 51.5693V50.7586C22.6631 50.8323 22.3313 50.8323 21.9626 50.8323C21.2252 50.906 20.414 50.7218 19.7872 50.3901ZM27.6774 5.61832C28.3042 5.69202 28.8204 5.98682 29.3734 6.24476C29.8896 6.50271 30.4427 6.8712 30.8851 7.20284C31.5856 7.82928 32.3968 8.34517 33.171 8.78736V7.49763C32.5443 7.12914 32.0281 6.7975 31.4013 6.42901C30.8851 6.06052 30.2583 5.80257 29.7053 5.54462C29.0785 5.28668 28.4517 5.10244 27.8618 5.02874C27.235 4.95504 26.6082 4.95504 25.9077 5.02874H25.8339V5.54462H25.9077C26.4238 5.43408 27.0506 5.54462 27.6774 5.61832ZM53.5233 25.4432C53.2652 23.4902 52.6384 21.6477 51.8273 19.879C51.3111 18.7367 50.4999 17.668 49.5413 16.8573C48.3983 15.8993 46.8129 15.2728 45.3013 15.2728C43.2734 15.2728 41.3193 16.0835 39.9183 17.4838L37.6323 15.0149L38.001 14.2042H41.1718L40.8031 15.0149H42.0567L44.527 9.63489L40.0289 6.46585H36.4525C35.4939 6.28161 34.4984 5.83942 33.7978 5.21298C31.8437 3.62847 29.3734 2.74409 26.7925 2.74409C24.2116 2.55984 21.7414 3.44422 19.7872 5.13929L11.7496 12.9513L7.25145 17.3732C6.55092 18.0734 5.92413 18.9577 5.48169 19.8421C4.67055 21.6109 4.08063 23.4534 3.78567 25.4064C2.90079 29.902 3.08514 34.6187 4.22811 39.1143C5.55543 43.9047 7.76763 48.3266 10.8647 52.1957C15.2891 57.6863 20.6721 62.2924 26.7925 65.7194L28.7466 66.8617L30.7008 65.7194C36.8212 62.1819 42.2042 57.5757 46.6286 52.1957C49.6519 48.2897 51.8641 43.8678 53.1914 39.1143C54.2238 34.6187 54.4082 29.9388 53.5233 25.4432ZM20.5246 5.87627C21.0408 5.36038 22.8106 3.73901 26.7188 3.73901C29.0047 3.73901 31.3275 4.5497 33.0973 6.02366C34.2403 6.83435 35.2358 7.42394 36.4525 7.42394H39.6233L43.1628 9.89283L41.7617 12.9882H38.5909C38.1485 12.9882 37.7061 12.8039 37.3374 12.4723C36.8949 12.0301 36.6368 11.5142 36.5262 10.8878H36.01C36.01 11.2563 36.01 11.6984 36.1944 12.0301C36.2681 12.3986 36.5631 12.7302 36.8212 13.0987C36.8949 13.283 37.0793 13.3567 37.2636 13.4672L36.4525 15.1623L38.5909 17.4469H37.0055L34.1665 15.0517H33.5029L35.5307 17.4469H31.3644L28.9679 15.0517H27.6037C27.8618 14.4253 28.0461 13.7252 28.0461 13.025C28.0461 12.9513 28.0461 12.7671 28.0461 12.6565V12.288V12.1038V11.9195L27.9724 11.551C27.8986 11.0352 27.7143 10.593 27.4562 10.1508C27.1981 9.70859 26.94 9.2664 26.5713 8.89791L26.4976 8.82421L26.3132 8.75051L26.0551 8.49256C25.8708 8.30832 25.6127 8.23462 25.4283 8.05037C24.5435 7.53448 23.7323 7.23969 22.9581 7.16599C22.7737 7.16599 22.5156 7.16599 22.2575 7.16599V7.68188C23.1424 7.68188 24.0273 7.93982 24.7278 8.49256C24.9122 8.56626 25.0965 8.75051 25.244 8.86105L25.5021 9.119L25.5758 9.1927L25.6496 9.2664C25.9077 9.63489 26.1657 9.96653 26.3501 10.335C26.5344 10.7035 26.7188 11.1457 26.7925 11.5879V11.9564V12.1406V12.6565C26.7925 12.7302 26.7925 12.8408 26.7925 13.025C26.7188 13.9094 26.4238 14.7201 25.9077 15.3097L25.2809 16.1941H28.3042L29.6315 17.5206H17.2432V12.9145H13.2613L20.5246 5.87627ZM14.9204 21.9057C14.478 23.6007 13.0769 24.8168 11.3809 25.001H10.9384C8.79999 25.001 6.95649 23.306 6.77214 21.2056C6.77214 21.1319 6.77214 21.0213 6.77214 20.9476C6.77214 19.8053 7.21458 18.7366 8.09946 17.926L12.1183 14.02H16.1002V17.926L14.9204 21.9057ZM52.0116 38.8932C51.2005 41.62 50.1681 44.3837 48.7302 46.8526L48.4721 47.2211L48.2877 47.479L48.0296 47.8475L47.8453 48.2897L47.6609 48.6582L47.2185 49.2847L47.0342 49.5426L46.6655 49.9848L46.4811 50.2427L46.1124 50.6849L45.9281 50.8692L45.4119 51.5693L44.9694 52.1957C43.1259 54.4804 40.9875 56.6913 38.7015 58.6444C36.858 60.2289 34.9777 61.666 32.9498 62.9926C31.9912 63.619 30.922 64.3191 29.8527 64.9456L28.5254 65.7563L27.1981 64.9456C21.262 61.4818 15.9528 56.9861 11.639 51.6799L11.2703 51.2377L11.0859 50.9797L10.7172 50.4638L10.5329 50.0953L10.0904 49.4689L10.0167 49.3952L9.57425 48.6951C7.62015 45.6734 6.10848 42.4307 5.2236 38.9669C4.15437 34.6187 3.97002 30.1231 4.78116 25.7011C4.96551 24.3746 5.29734 23.048 5.73978 21.7951C5.81352 22.6058 6.18222 23.3796 6.62466 24.0061C6.44031 24.6325 6.36657 25.259 6.18222 25.9591C5.99787 27.0277 5.81352 28.17 5.81352 29.2387L13.0769 32.592C13.1506 32.4077 13.335 32.2235 13.5193 32.0761C13.5931 32.0024 13.7774 31.8181 13.888 31.7076L9.46365 25.9591C10.2748 26.1433 11.0491 26.217 11.8602 26.0328L14.8835 30.9706C15.2522 30.7864 15.5841 30.7127 16.0265 30.6021L15.5841 23.1586C15.7684 22.7901 15.8422 22.5321 15.9528 22.2005L17.022 18.6629V18.5524H40.3976L40.5819 18.3682C41.8355 17.0416 43.4946 16.3415 45.2644 16.4152C46.5917 16.4152 47.8453 16.8573 48.8039 17.7417C49.6888 18.4418 50.3156 19.4368 50.8318 20.3949C51.6429 22.0899 52.1591 23.8587 52.4172 25.6275C53.2652 30.0494 53.0808 34.545 52.0116 38.8932ZM39.8076 9.08215C40.1395 9.08215 40.4344 9.37694 40.4344 9.70859C40.4344 10.0402 40.1395 10.335 39.8076 10.335C39.4758 10.335 39.1809 10.0402 39.1809 9.70859C39.1809 9.3401 39.4758 9.08215 39.8076 9.08215ZM36.4525 10.0402C36.5262 9.59804 36.8949 9.22955 37.3374 9.15585V8.52941H35.9363V10.0402H36.4525ZM50.9424 25.8854C50.3156 22.2742 48.8039 17.926 45.2644 17.926C43.5684 17.8523 41.983 18.7366 41.2087 20.1369H28.3042L19.4554 31.6339C19.5292 31.7076 19.6398 31.8181 19.8241 31.8918C20.0085 32.0761 20.1928 32.334 20.2666 32.5183L26.6451 29.6072L26.1289 31.8918L20.8196 33.5869C20.8933 33.9554 21.004 34.3976 21.004 34.8398C20.8196 34.8398 20.6353 34.7661 20.4878 34.6555C20.3403 34.545 20.1191 34.4713 19.9716 34.4713L19.7135 34.3976L19.1973 34.1396C18.7549 33.9554 18.3124 33.7711 17.87 33.7711H17.6119H17.2432H16.3583H15.9896H15.7315C15.2891 33.8448 14.8467 33.9554 14.4042 34.1396L13.888 34.3976L13.63 34.4713C13.4456 34.545 13.2613 34.6555 13.1138 34.6555C12.9294 34.7292 12.7451 34.7292 12.5976 34.8398C12.5976 34.3976 12.6713 33.9554 12.7819 33.5869L5.961 31.3759C5.961 32.1866 5.961 32.9604 6.03474 33.7711C6.03474 33.8448 6.03474 33.9554 6.03474 34.0291C6.03474 34.1028 6.03474 34.3976 6.03474 34.545C6.03474 34.6187 6.03474 34.8029 6.03474 34.9135H6.73527L7.17771 34.9872C7.62015 35.0609 8.13633 35.2451 8.50503 35.503C9.38991 35.9452 10.3485 36.2032 11.344 36.2032C12.3395 36.2032 13.2981 36.0189 14.183 35.503C14.3674 35.4293 14.6254 35.3188 14.8098 35.2451C15.2522 35.0609 15.7684 34.9872 16.3215 34.9872H16.9483C17.3907 34.9872 17.9069 35.0609 18.3493 35.2451C18.6074 35.3188 18.7918 35.4293 19.0498 35.503C19.9347 35.9452 20.8933 36.2032 21.8888 36.2032C22.8843 36.2032 23.8429 36.0189 24.7278 35.503L25.1703 35.3188L24.9122 36.3874L25.8708 36.2032L25.6127 37.3455C25.0965 37.4192 24.6541 37.6035 24.2116 37.8614C23.4005 38.3036 22.6262 38.4878 21.7414 38.4878C20.8565 38.4878 20.0453 38.3036 19.2711 37.8614C18.3862 37.4192 17.4276 37.1613 16.4321 37.1613C15.4735 37.1613 14.478 37.3455 13.5931 37.8614C12.7819 38.3036 12.0077 38.4878 11.1228 38.4878C10.2379 38.4878 9.42677 38.3036 8.65251 37.8614C8.21007 37.6035 7.76763 37.4192 7.25145 37.3455H7.62015H7.32519H7.14084H7.0671C6.80901 37.3455 6.62466 37.2718 6.36657 37.2718C6.44031 37.5298 6.44031 37.7877 6.55092 38.0825H6.95649H7.14084H7.21458L7.47267 38.1562L7.73076 38.2299C7.98885 38.3036 8.35755 38.4878 8.61564 38.5984C9.50052 39.0406 10.4591 39.2985 11.4546 39.2985C12.4132 39.2985 13.4087 39.1143 14.2936 38.5984C15.1048 38.1562 15.879 37.972 16.7639 37.972C17.6488 37.972 18.4599 38.1562 19.2342 38.5984C20.1191 39.0406 21.0777 39.2985 22.0732 39.2985C23.0318 39.2985 24.0273 39.1143 24.9122 38.5984C25.1703 38.4141 25.539 38.3404 25.797 38.2299L25.2809 40.5145C25.0228 40.5882 24.7647 40.7725 24.4697 40.883C23.7692 41.3252 22.8843 41.5095 22.0732 41.5095C21.262 41.5095 20.3772 41.3252 19.6766 40.883C18.7918 40.4408 17.8331 40.1829 16.8376 40.1829C15.879 40.1829 14.8835 40.3671 13.9987 40.883C13.04 41.141 12.1552 41.3252 11.344 41.3252C10.5329 41.3252 9.648 41.141 8.94747 40.6988L8.43129 40.4408C8.06259 40.2566 7.62015 40.1829 7.28832 40.0723C7.47267 40.5145 7.54641 40.883 7.73076 41.3252C8.43129 43.094 9.24243 44.7891 10.201 46.4473L10.2748 46.7052L10.4591 47.0737L10.6435 47.3316L10.8278 47.7001L11.0122 47.9581L11.1965 48.3266L11.3809 48.5845L11.5652 48.8425L11.8233 49.211L12.0077 49.4689L12.2658 49.8374L12.4501 50.0216L12.8926 50.6481C17.1326 55.7701 22.2944 60.192 28.1199 63.4716L28.636 63.8401L29.1522 63.4716C34.9777 60.1183 40.1395 55.7701 44.2689 50.5744C44.527 50.3164 44.7114 49.9479 44.9694 49.69L45.0432 49.6163C45.2275 49.3584 45.4856 48.9899 45.67 48.7319L45.7437 48.6582C46.1861 48.0318 46.6286 47.3316 46.9973 46.7052C48.0665 44.9364 48.8408 43.1677 49.5782 41.3252C49.7625 40.9567 49.8363 40.6251 49.9469 40.2566C49.5045 40.3303 49.1357 40.4408 48.8039 40.6251H48.7302L48.214 40.883C46.7023 41.6937 44.9326 41.6937 43.4209 40.883C41.6511 39.9987 39.5127 39.9987 37.6692 40.883C36.1575 41.6937 34.3878 41.6937 32.8761 40.883C32.618 40.8093 32.3599 40.6251 32.0649 40.5145L31.1801 36.2769L32.2493 36.4611L31.6225 33.6237L34.9777 30.3442L37.1899 31.9287L40.6557 28.4648L44.0108 32.0024L46.223 30.4179L50.205 34.3976L51.1636 35.3557C51.1636 34.9872 51.2373 34.6555 51.2373 34.287C51.2373 34.2133 51.2373 34.2133 51.2373 34.1028C51.2373 34.0291 51.2373 33.9185 51.2373 33.9185C51.4954 31.1917 51.3848 28.5385 50.9424 25.8854ZM44.4901 26.4013L44.5639 26.217H45.8174L46.1861 24.9642H46.3705L46.7392 26.1065H47.9928L48.0665 26.2907L46.9973 26.9909L47.366 28.2437L47.1816 28.3174L46.1124 27.6173L45.0432 28.3174L44.8588 28.2437L45.2275 26.9909L44.4901 26.4013ZM41.8355 26.217L41.6511 26.2907L40.5819 25.5906L39.6233 26.2907L39.4389 26.217L39.8076 24.9642L38.7384 24.264L38.8122 24.0798H40.0657L40.5082 22.8269H40.6925L41.0612 24.0798H42.3148L42.3885 24.264L41.4299 25.0747L41.8355 26.217ZM36.0838 28.3543L35.8994 28.428L34.8302 27.7279L33.761 28.428L33.5766 28.3543L33.9453 27.1014L32.8761 26.4013L32.9498 26.217H34.2034L34.5721 24.9642H34.7565L35.1252 26.1065H36.3787L36.4525 26.2907L35.3832 26.9909L36.0838 28.3543ZM31.475 42.5044L30.2214 42.2464L31.9175 50.3901L28.636 49.0636L25.3546 50.3901L27.0506 42.2464L25.797 42.5044L27.3825 34.7292L26.4238 34.9135L28.4517 24.1166H28.636L30.7745 34.9135L29.8159 34.7292L31.475 42.5044ZM29.2628 51.4219L29.5209 59.1234H27.6774L27.9355 51.4219V50.169L28.5623 49.9111L29.1891 50.169L29.2628 51.4219ZM27.0506 53.6329V54.1488C26.4238 54.1488 25.797 54.333 25.2809 54.5909C24.3222 55.1068 23.1424 55.4016 21.9994 55.4016C20.9302 55.4016 19.7872 55.2174 18.9024 54.7015L18.8286 54.6278L18.3862 54.4435H18.3124C18.1281 54.3699 18.0544 54.3699 17.87 54.2593L18.3124 53.8908L18.3862 53.8171C18.6443 53.8908 18.8286 54.0014 19.0867 54.0751L19.3448 54.2593C20.1559 54.6278 21.0408 54.7752 21.8151 54.7752C22.7737 54.7752 23.7692 54.5909 24.6541 54.0751C25.3546 53.7066 26.1657 53.4486 26.94 53.4486L27.0506 53.6329ZM37.8535 54.1856L38.1116 54.0014C38.296 53.9277 38.5541 53.8171 38.8122 53.7434L39.4389 54.2593C39.2546 54.333 39.0702 54.333 38.9965 54.4435L38.7384 54.6278L38.6647 54.7015C37.7061 55.2174 36.6368 55.4016 35.5676 55.4016C34.4246 55.4016 33.2817 55.1437 32.2862 54.5909C31.77 54.333 31.1432 54.1488 30.5164 54.1488V53.6329V53.4486C31.3275 53.4486 32.1018 53.6329 32.8023 54.0751C33.6872 54.5172 34.6458 54.7752 35.6413 54.7752C36.2681 54.7015 37.0424 54.5173 37.8535 54.1856ZM24.8384 41.6937L24.396 43.831L25.7233 43.573L23.8798 52.2326L27.3456 50.5375L27.235 51.7167L27.1612 52.6748C26.2026 52.6748 25.3177 52.859 24.5066 53.3749C23.6955 53.7434 22.8106 53.8908 21.9257 53.8908C21.1146 53.8908 20.3403 53.7066 19.6398 53.3749L19.4554 53.3012C19.1973 53.2275 18.9392 53.0433 18.6443 52.9327V42.3202L17.9437 42.9466V53.1907L17.2432 53.8171V42.5044L18.5705 41.4358H18.6443L18.9024 41.5095L18.9761 41.5832C19.1605 41.6569 19.4185 41.7674 19.6766 41.8411C20.3772 42.0991 21.0777 42.2096 21.8888 42.2096C22.9949 42.4307 23.9536 42.1359 24.8384 41.6937ZM32.4705 41.6937C33.3554 42.1359 34.314 42.3939 35.3095 42.3939C36.01 42.3939 36.8212 42.3202 37.5217 42.0254C37.7798 41.9517 37.9641 41.8411 38.2222 41.7674L38.5909 41.5832H38.6647L39.992 42.6518V53.9277L39.2915 53.3012V42.9466L38.4803 42.3202V53.0064C38.2222 53.0801 37.9641 53.1907 37.6692 53.3749L37.4848 53.4486C36.7843 53.8171 35.9732 53.9645 35.1989 53.9645C34.314 53.9645 33.5029 53.7803 32.7286 53.3381C31.9175 52.8959 30.9588 52.6379 30.074 52.6379L30.0002 51.6799L29.9265 50.5375L33.3923 52.2326L33.1342 51.0903L31.5488 43.573L32.8761 43.831L32.4705 41.6937ZM37.4848 44.9733L37.8535 44.7891V43.9047H37.7798L37.5217 44.0889C36.8212 44.4574 36.1206 44.5311 35.3095 44.5311C34.4984 44.5311 33.7241 44.3469 33.0236 44.0152V44.8996C34.3878 45.4155 36.01 45.526 37.4848 44.9733ZM37.4848 47.2948C36.7843 47.6633 36.0838 47.737 35.2726 47.737C34.6458 47.737 34.0191 47.6633 33.5029 47.479V48.2897C34.0191 48.474 34.6458 48.5477 35.2726 48.5477C35.9732 48.5477 36.7843 48.474 37.4848 48.1792L37.8535 47.9949V47.1106H37.7798L37.4848 47.2948ZM37.4848 50.3901C36.7843 50.7586 36.0838 50.8323 35.2726 50.8323C34.9039 50.8323 34.5721 50.8323 34.2034 50.7586V51.5693C34.5721 51.643 34.9039 51.643 35.2726 51.643C35.9732 51.643 36.7843 51.5693 37.4848 51.2745L37.8535 51.0903V50.2059H37.7798L37.4848 50.3901ZM9.90609 21.9057L10.3485 22.2742L14.8467 16.0835V15.2728H14.1461L9.90609 21.9057ZM35.457 37.4561V34.8029H34.3878V35.503H34.7565V37.4561H35.457ZM37.6692 36.7559C37.8535 37.2718 38.3697 37.6403 38.9228 37.5666C39.2915 37.4929 39.6233 37.1981 39.7339 36.7559C39.7339 36.498 39.5496 36.24 39.2915 36.0558C39.4758 35.9821 39.6602 35.6873 39.6602 35.4293C39.5864 34.9135 39.144 34.545 38.5909 34.6187C38.2222 34.6924 37.8904 34.9872 37.7798 35.4293C37.7798 35.6873 37.9641 35.8715 38.1485 36.0558C37.8535 36.24 37.5954 36.498 37.6692 36.7559ZM38.6647 35.7978C38.4803 35.7978 38.4066 35.7241 38.4066 35.5399C38.4066 35.3557 38.4803 35.2819 38.6647 35.2819C38.849 35.2819 38.9228 35.3557 38.9228 35.5399C38.9228 35.6136 38.8122 35.7978 38.6647 35.7978ZM38.6647 36.9402C38.4803 36.9402 38.4066 36.8665 38.4066 36.6822C38.4066 36.498 38.4803 36.4243 38.6647 36.4243C38.849 36.4243 38.9228 36.498 38.9228 36.6822C38.9228 36.8296 38.8122 36.9402 38.6647 36.9402C38.6647 37.0139 38.6647 37.0139 38.6647 36.9402ZM42.536 34.8029L42.0198 35.503C41.7618 35.761 41.5774 36.2032 41.5774 36.5717C41.5774 36.8296 41.7617 37.0876 41.9461 37.2718C42.2042 37.4561 42.4623 37.5298 42.7572 37.5298C43.2734 37.6035 43.8265 37.1613 43.9002 36.5717V36.498C43.9002 35.9821 43.5315 35.6136 43.0891 35.5399C43.0891 35.5399 43.0891 35.5399 43.0153 35.5399C42.9416 35.5399 42.831 35.5399 42.7572 35.5399L43.4578 34.6555L42.536 34.8029ZM42.6466 36.24C42.831 36.24 43.0153 36.498 43.0153 36.6822C43.0153 36.8665 42.831 36.9402 42.6466 37.0507C42.4623 37.0507 42.2042 36.977 42.2042 36.6822C42.2042 36.498 42.2779 36.24 42.5729 36.24C42.536 36.24 42.6466 36.24 42.6466 36.24ZM45.5594 36.7559C45.6331 37.2718 46.2599 37.6403 46.8129 37.5666C47.1816 37.4929 47.5135 37.1981 47.6241 36.7559C47.6241 36.498 47.4397 36.24 47.1816 36.0558C47.366 35.9821 47.5503 35.6873 47.5503 35.4293C47.4766 34.9135 47.0342 34.545 46.4811 34.6187C46.1124 34.6924 45.7806 34.9872 45.67 35.4293C45.67 35.6873 45.8543 35.8715 46.0387 36.0558C45.7437 36.1295 45.5594 36.498 45.5594 36.7559ZM46.518 35.7978C46.3336 35.7978 46.2599 35.7241 46.2599 35.5399C46.2599 35.3557 46.3336 35.2819 46.518 35.2819C46.7023 35.2819 46.7761 35.3557 46.7761 35.5399C46.7761 35.6136 46.7023 35.7978 46.518 35.7978C46.6286 35.7978 46.6286 35.7978 46.518 35.7978ZM46.518 36.9402C46.3336 36.9402 46.2599 36.8665 46.2599 36.6822C46.2599 36.498 46.3336 36.4243 46.518 36.4243C46.7023 36.4243 46.7761 36.498 46.7761 36.6822C46.8867 36.8296 46.7761 36.9402 46.518 36.9402C46.6286 37.0139 46.6286 37.0139 46.518 36.9402Z" fill="#526374"/>
<path d="M60.2336 27.0279C60.2336 20.9109 63.515 17.226 69.3405 17.226C75.1659 17.226 78.3736 20.9478 78.3736 27.0279C78.3736 33.108 75.0922 36.8298 69.2667 36.8298C63.4413 36.8298 60.2336 33.0343 60.2336 27.0279ZM73.6174 27.0279C73.6174 21.0215 72.2901 18.7 69.3773 18.7C66.4646 18.7 65.1373 20.9846 65.1373 27.0279C65.1373 33.0712 66.4646 35.2453 69.3773 35.2453C72.2901 35.2453 73.6174 32.9606 73.6174 27.0279ZM87.5911 35.5032L87.1487 36.4613H79.2585V35.5769L80.5858 34.9505V26.1067L79.2585 23.9694V23.6009L84.1253 22.0164H84.7521L84.6784 25.296H84.7521C85.3789 23.6009 86.7062 22.0164 88.8078 22.0164C90.1351 21.8322 91.3887 22.8271 91.5362 24.2274C91.5362 24.3011 91.5362 24.4853 91.5362 24.5959C91.6099 25.8487 90.7251 26.8805 89.5083 26.9911C89.4346 26.9911 89.4346 26.9911 89.324 26.9911C88.181 27.0648 87.1855 26.1804 87.1118 25.0381C87.1118 24.9644 87.1118 24.8538 87.1118 24.7801C86.1532 25.2223 85.342 25.9224 84.7153 26.8068V34.84L87.5911 35.5032ZM99.537 34.103C100.791 34.103 102.118 33.6608 103.003 32.8501L103.63 33.5502C102.56 35.8349 100.606 36.8298 97.8778 36.8298C94.154 36.8298 91.315 34.4346 91.315 29.6811C91.315 24.8907 94.5964 22.1638 98.5784 22.1638C101.749 22.1638 103.961 24.0063 103.961 27.3964C103.961 28.0228 103.888 28.6493 103.777 29.2389H95.3707C95.4444 32.0763 96.7717 34.103 99.537 34.103ZM95.4444 27.6544H100.053C100.127 27.2859 100.127 26.8437 100.127 26.4015C100.127 24.8907 99.6845 23.5641 98.1728 23.5641C96.698 23.5641 95.7394 24.8907 95.4444 27.6544ZM114.138 33.6608C117.235 33.6608 119.189 35.1716 119.189 38.2669C119.189 42.2466 115.28 43.6469 111.04 43.6469C107.058 43.6469 104.219 42.7625 104.219 40.2936C104.219 38.4512 105.621 37.6405 107.833 37.272V37.1983C105.989 37.0141 104.92 35.9454 104.92 34.2872C104.92 32.629 106.174 31.6341 107.943 31.2656C106.1 30.8234 104.846 29.1283 104.92 27.2122C104.92 24.3748 107.058 22.1638 111.114 22.1638C112.884 22.1638 114.654 22.5323 116.239 23.2325C116.055 22.9745 116.055 22.7166 116.055 22.4218C116.055 21.5374 116.755 20.7267 117.64 20.7267C117.714 20.7267 117.714 20.7267 117.825 20.7267C118.783 20.7267 119.594 21.4268 119.594 22.4218C119.594 22.4955 119.594 22.4955 119.594 22.606C119.668 23.5641 118.967 24.4485 118.009 24.559C117.935 24.559 117.751 24.559 117.64 24.559C116.755 24.4853 115.87 24.3011 115.059 23.8589V24.2274C116.313 24.7433 117.013 25.9961 117.013 27.3227C117.013 30.418 113.916 31.8183 111.077 31.8183C110.377 31.8183 109.75 31.7446 109.123 31.5604C108.423 31.8183 107.98 32.1868 107.98 32.8869C107.98 33.5871 108.349 33.845 109.123 33.845L114.138 33.6608ZM107.685 39.6672C107.685 41.3623 108.939 42.1361 111.151 42.1361C113.732 42.1361 115.649 41.436 115.649 39.4093C115.649 38.1564 115.022 37.4562 113.068 37.4562H109.013C108.201 37.8984 107.685 38.7828 107.685 39.6672ZM111.04 23.4904C109.344 23.4904 109.086 24.7433 109.086 26.8437C109.086 28.9809 109.344 30.197 111.04 30.197C112.736 30.197 112.995 28.9441 112.995 26.8437C112.995 24.7433 112.7 23.4904 111.04 23.4904ZM125.641 36.8298C121.29 36.8298 118.378 34.3609 118.378 29.4968C118.378 24.6327 121.217 22.1638 125.641 22.1638C130.065 22.1638 132.904 24.6327 132.904 29.4968C132.904 34.3609 130.065 36.8298 125.641 36.8298ZM125.641 35.3558C127.779 35.3558 128.369 33.2186 128.369 29.4231C128.369 25.6276 127.743 23.6009 125.641 23.6009C123.502 23.6009 122.913 25.7382 122.913 29.4231C122.876 33.1449 123.502 35.3558 125.641 35.3558ZM149.865 35.5032L149.422 36.4613H142.343V35.5769L143.67 34.9505V27.8754C143.67 25.7382 142.601 25.0381 141.384 25.0381C140.426 25.0381 139.541 25.4803 138.804 26.1067V34.8768L140.758 35.5032L140.315 36.4613H133.236V35.5769L134.563 34.9505V26.1067L133.236 23.9694V23.6009L138.103 22.0164H138.804L138.73 24.8538H138.804C139.762 23.0851 141.716 22.0164 143.744 22.0164C146.141 22.0164 147.91 23.7115 147.91 26.9542V34.84L149.865 35.5032ZM162.88 32.5922C162.88 30.8234 161.995 30.0127 159.856 29.1283L157.57 28.1702C155.174 27.3596 153.588 25.0749 153.773 22.606C153.773 18.7 156.796 17.1155 159.893 17.1155C161.294 17.1155 162.622 17.3734 163.949 17.8156L165.534 17.1155L165.792 22.4955L164.907 22.6797L163.322 20.653C162.622 19.3264 161.184 18.5158 159.709 18.6263C158.381 18.5526 157.239 19.5107 157.128 20.8373C157.128 20.911 157.128 21.0215 157.128 21.0952C157.128 22.606 157.828 23.4904 159.783 24.1905L162.179 25.1486C165.202 26.4015 166.53 28.0597 166.53 31.0813C166.53 34.9874 163.617 36.8298 160.151 36.8298C158.64 36.8298 157.054 36.4613 155.727 35.7612L153.957 36.8298L153.441 30.7128L154.4 30.5286L155.985 32.8133C157.054 34.5083 158.271 35.2821 160.041 35.2821C161.368 35.3558 162.622 34.3978 162.769 33.0712C162.88 32.9606 162.88 32.7764 162.88 32.5922ZM166.862 23.0482L171.987 18.6263H172.945V22.4218H177.185L176.927 24.1168H172.945V31.7078C172.945 33.5502 173.646 34.2872 174.973 34.2872C175.858 34.2872 176.669 34.0293 177.37 33.5871L177.738 34.3978C176.669 35.9823 174.899 36.8667 173.056 36.793C170.475 36.793 168.816 35.5401 168.816 32.1868V24.0431H166.862V23.0482ZM189.979 33.4028C189.979 34.8031 190.495 35.1716 192.007 34.9874L192.081 35.6138C191.196 36.4245 189.942 36.8667 188.725 36.7561C187.324 36.7561 186.145 36.1297 185.886 34.7294H185.813C185.112 36.1297 183.674 36.8667 181.905 36.8667C179.766 36.8667 177.923 35.7243 177.923 32.9606C177.923 30.1233 180.209 28.723 183.748 28.723C184.375 28.723 185.075 28.7967 185.702 28.9809V27.7281C185.702 25.8856 184.449 24.8907 182.605 24.8907C181.278 24.8907 179.95 25.2592 178.697 25.8487L178.328 24.8907C179.84 22.9377 182.126 21.869 184.596 22.0533C187.251 22.0533 189.905 23.3061 189.905 27.1753L189.979 33.4028ZM185.002 30.197C183.048 30.197 181.978 30.6391 181.978 32.4079C181.905 33.366 182.494 34.2504 183.49 34.4346C183.564 34.4346 183.674 34.4346 183.859 34.4346C184.559 34.4346 185.186 34.2504 185.702 33.7345V30.197H185.002ZM190.569 23.0482L195.694 18.6263H196.653V22.4218H200.893L200.634 24.1168H196.653V31.7078C196.653 33.5502 197.353 34.2872 198.68 34.2872C199.565 34.2872 200.376 34.0293 201.077 33.5871L201.446 34.3978C200.376 35.9823 198.607 36.8667 196.763 36.793C194.182 36.793 192.523 35.5401 192.523 32.1868V24.0431H190.569V23.0482ZM209.446 34.103C210.7 34.103 212.027 33.6608 212.912 32.8501L213.539 33.5502C212.47 35.8349 210.516 36.8298 207.787 36.8298C204.063 36.8298 201.224 34.4346 201.224 29.6811C201.224 24.8907 204.506 22.1638 208.377 22.1638C211.548 22.1638 213.76 24.0063 213.76 27.3964C213.76 28.0228 213.686 28.6493 213.576 29.2389H205.243C205.354 32.0763 206.681 34.103 209.446 34.103ZM205.354 27.6544H209.852C209.926 27.2859 209.926 26.8437 209.926 26.4015C209.926 24.8907 209.483 23.5641 207.972 23.5641C206.497 23.5641 205.612 24.8907 205.354 27.6544Z" fill="#526374"/>
<path d="M152.372 48.9532L156.428 44.5312H157.054V48.3267H161.737L161.479 49.8375H156.981V58.2392C156.981 60.0079 157.792 60.8186 159.119 60.8186C160.004 60.8186 160.963 60.5607 161.774 60.1185L162.143 60.9292C161 62.182 159.414 62.7716 157.718 62.6979C155.58 62.6979 154.179 61.5556 154.179 58.7182V49.8744H152.335L152.372 48.9532Z" fill="#526374"/>
<path d="M76.7146 55.586C76.7146 60.2659 73.6175 62.6611 69.4512 62.6611C65.1005 62.6611 62.1141 60.8923 62.1141 55.9545V45.1577L59.7175 44.4575L59.9756 43.3889H67.239L67.4971 44.4575L65.1005 45.1577V55.5123C65.1005 59.2341 66.686 60.8923 69.783 60.8923C72.8801 60.8923 74.8342 59.1972 74.8342 55.2175V45.1208L72.3639 44.4207L72.622 43.3521H78.8162L79.0743 44.4207L76.6777 45.1208L76.7146 55.586ZM93.601 61.445L93.2323 62.4031H87.0382V61.5187L88.5499 61.0028V53.0434C88.5499 51.0167 87.2225 50.5745 86.1533 50.5745C84.8997 50.5745 83.7568 51.0167 82.7981 51.8274V60.8554L85.0841 61.4819L84.6416 62.44H78.4844V61.5556L79.996 61.0397V51.68L78.4106 49.9112V49.5427L82.3188 48.0319H82.835L82.7613 50.7588H82.9456C83.9042 49.0637 85.674 48.0319 87.6281 48.0319C89.4716 48.0319 91.4257 49.1742 91.4257 52.4538V60.8554L93.601 61.445ZM100.606 61.445L100.164 62.4031H93.9697V61.5187L95.4814 61.0028V51.6431L93.896 49.8744V49.5059L97.8042 47.9951H98.3204V60.8923L100.606 61.445ZM96.8825 41.6938C97.9517 41.6938 98.9103 42.5782 98.9103 43.7206C98.9103 44.7892 98.0254 45.7473 96.8825 45.7473C95.8132 45.7473 94.8546 44.8629 94.8546 43.7206C94.8546 42.6888 95.7395 41.8044 96.8825 41.6938ZM110.414 49.9481L108.275 49.2479L108.46 48.2899H113.695L113.88 49.2479L112.368 49.8744L107.501 62.4031H105.916L100.791 50.0218L99.3896 49.1374L99.6477 48.253H105.584L105.842 49.2111L103.814 49.727L106.1 55.4018C106.616 56.6546 106.985 57.9812 107.243 59.3078H107.427C107.685 57.9812 108.128 56.6546 108.57 55.3281L110.414 49.9481ZM119.963 60.6344C121.364 60.6344 122.802 60.1922 123.945 59.3078L124.387 60.0079C123.245 61.7767 121.217 62.8453 119.078 62.6611C115.612 62.6611 112.884 60.2659 112.884 55.4018C112.884 50.5377 115.907 47.8845 119.521 47.8845C122.433 47.8845 124.572 49.6533 124.572 52.9329C124.572 53.4488 124.498 54.0752 124.387 54.6279H115.612C115.649 58.4234 117.308 60.6344 119.963 60.6344ZM115.723 53.3751H121.659C121.659 53.1171 121.659 52.7486 121.659 52.4907C121.659 50.464 120.848 49.3953 119.189 49.3953C117.53 49.3953 116.165 50.6482 115.723 53.3751ZM132.351 61.445L131.909 62.4031H125.088V61.5187L126.6 61.0028V51.6431L125.014 49.8744V49.5059L128.922 47.9951H129.439L129.365 51.3483H129.439C130.25 49.5796 131.725 47.9951 133.494 47.9951C135.006 47.9951 135.891 48.8795 135.891 50.1323C135.965 51.0904 135.264 51.9748 134.195 52.0853C134.121 52.0853 134.011 52.0853 134.011 52.0853C133.052 52.159 132.241 51.3852 132.167 50.3903C132.167 50.3166 132.167 50.206 132.167 50.1323C131.024 50.7588 130.029 51.6431 129.439 52.7855V61.0028L132.351 61.445ZM136.776 57.797C138.103 60.7081 139.43 61.4082 141.126 61.4082C142.528 61.4082 143.523 60.8923 143.523 59.3815C143.523 58.1286 142.822 57.4285 141.237 56.9126L139.394 56.2861C137.439 55.586 136.223 54.4437 136.223 52.0485C136.223 49.3216 138.251 47.9951 140.905 47.9951C141.79 47.9951 142.675 48.253 143.486 48.6215L145.072 48.1056L145.33 52.2696L144.629 52.5275C143.228 50.1323 142.048 49.4322 140.721 49.4322C139.652 49.2479 138.693 50.0586 138.509 51.1273C138.509 51.2009 138.509 51.3115 138.509 51.3852C138.509 52.5275 139.135 53.3382 140.647 53.8541L142.491 54.4805C144.629 55.1807 145.956 56.323 145.956 58.8287C145.956 61.6661 143.818 62.8822 140.905 62.8822C139.762 62.8822 138.693 62.6242 137.734 62.182L136.333 62.8822L136.075 58.2023L136.776 57.797ZM153.33 61.445L152.888 62.4031H146.694V61.5187L148.205 61.0028V51.6431L146.62 49.8744V49.5059L150.528 47.9951H151.044V60.8923L153.33 61.445ZM149.607 41.6938C150.676 41.6938 151.634 42.5782 151.561 43.7206C151.561 44.7892 150.676 45.7473 149.533 45.6736C148.464 45.6736 147.579 44.7892 147.579 43.7206C147.579 42.6888 148.464 41.8044 149.607 41.6938C149.533 41.6938 149.533 41.6938 149.607 41.6938ZM161.737 50.0218L160.336 49.1374L160.594 48.253H166.604L166.862 49.2111L164.834 49.727L167.12 55.844C167.636 57.1705 168.005 58.5708 168.189 59.8974H168.263C168.263 59.8974 168.779 57.8707 169.516 55.7334L171.47 49.8007L169.332 49.1005L169.516 48.1425H174.641L174.826 49.1005L173.314 49.727L168.816 62.1452C166.788 67.6357 165.092 69.4045 162.437 69.4045C160.741 69.4045 159.856 68.4464 159.856 67.1935C159.783 66.2354 160.557 65.3511 161.552 65.3511C161.626 65.3511 161.626 65.3511 161.737 65.3511C162.622 65.3511 163.322 65.9775 163.433 66.8619C163.433 66.9356 163.433 66.9356 163.433 67.0461C163.433 67.4146 163.359 67.8568 163.064 68.1147C164.391 68.1147 166.087 65.7195 166.972 62.9927L161.737 50.0218Z" fill="#526374"/>
</g>
<defs>
<clipPath id="clip0_562_12593">
<rect width="221.22" height="70.7505" fill="white" transform="translate(0.688599 0.496582)"/>
</clipPath>
</defs>
</svg>
