<svg width="51" height="51" viewBox="0 0 51 51" fill="none" xmlns="http://www.w3.org/2000/svg">
<path d="M11.9771 10.5159C10.0396 12.4482 8.50314 14.7444 7.45594 17.2725C6.40874 19.8006 5.87147 22.5107 5.87502 25.2471C5.87147 27.9835 6.40874 30.6936 7.45594 33.2217C8.50314 35.7498 10.0396 38.046 11.9771 39.9784M41.4396 39.9784C43.3771 38.046 44.9136 35.7498 45.9608 33.2217C47.008 30.6936 47.5452 27.9835 47.5417 25.2471C47.5452 22.5107 47.008 19.8006 45.9608 17.2725C44.9136 14.7444 43.3771 12.4482 41.4396 10.5159M37.0209 35.5596C38.377 34.2068 39.4525 32.5994 40.1854 30.8296C40.9184 29.0598 41.2943 27.1627 41.2917 25.2471C41.2941 23.3316 40.918 21.4345 40.1851 19.6648C39.4522 17.895 38.3769 16.2875 37.0209 14.9346M16.3959 14.9346C15.0397 16.2874 13.9642 17.8949 13.2313 19.6646C12.4983 21.4344 12.1224 23.3316 12.125 25.2471C12.1226 27.1626 12.4987 29.0597 13.2316 30.8295C13.9645 32.5992 15.0398 34.2067 16.3959 35.5596" stroke="#FBBB5B" stroke-width="3" stroke-linecap="round"/>
<path d="M30.0229 21.0806C32.2188 21.0806 34 22.7597 34 24.8306C34 27.5264 31.3479 29.8306 30.0229 31.0806C29.1386 31.9139 28.0334 32.7472 26.7084 33.5806C25.3823 32.7472 24.2781 31.9139 23.3938 31.0806C22.0677 29.8306 19.4167 27.5264 19.4167 24.8306C19.4167 22.7597 21.1979 21.0806 23.3938 21.0806C24.7771 21.0806 25.9959 21.7472 26.7084 22.7577C27.4209 21.7472 28.6396 21.0806 30.0229 21.0806Z" stroke="#FBBB5B" stroke-width="3" stroke-linejoin="round"/>
</svg>
