<svg width="123" height="60" viewBox="0 0 123 60" fill="none" xmlns="http://www.w3.org/2000/svg">
<g clip-path="url(#clip0_562_12599)">
<path d="M5.59511 14.8881V10.3831H8.83699C12.121 10.3831 13.8893 8.27799 13.8893 5.66764C13.8893 3.03624 12.121 0.846919 8.83699 0.846919H1.34278V14.8881H5.59511ZM9.57379 5.62554C9.57379 6.36233 9.0054 6.84651 8.28966 6.84651H5.59511V4.38352H8.28966C9.0054 4.38352 9.57379 4.8677 9.57379 5.62554Z" fill="#526374"/>
<path d="M15.7862 7.87801C15.7862 12.1935 19.1333 15.1407 23.4699 15.1407C27.8064 15.1407 31.1535 12.1935 31.1535 7.87801C31.1535 3.56252 27.8064 0.615356 23.4699 0.615356C19.1333 0.615356 15.7862 3.56252 15.7862 7.87801ZM26.8381 7.87801C26.8381 9.83577 25.5118 11.3936 23.4699 11.3936C21.4279 11.3936 20.1017 9.83577 20.1017 7.87801C20.1017 5.92025 21.4279 4.36247 23.4699 4.36247C25.5118 4.36247 26.8381 5.92025 26.8381 7.87801Z" fill="#526374"/>
<path d="M46.492 14.8881L43.9448 9.91998C45.0605 9.37265 46.4709 8.08853 46.4709 5.66764C46.4709 3.03624 44.7026 0.846919 41.4186 0.846919H33.9244V14.8881H38.1767V10.3831H39.7135L41.6502 14.8881H46.492ZM42.1554 5.60449C42.1554 6.38338 41.4818 6.84651 40.766 6.84651H38.1767V4.38352H40.766C41.4818 4.38352 42.1554 4.84664 42.1554 5.60449Z" fill="#526374"/>
<path d="M56.5117 14.8881V4.55193H60.2588V0.846919H48.4912V4.55193H52.2593V14.8881H56.5117Z" fill="#526374"/>
<path d="M72.6101 14.8881V11.183H67.2841V0.846919H63.0318V14.8881H72.6101Z" fill="#526374"/>
<path d="M89.7696 14.8881L84.591 0.846919H79.244L74.0654 14.8881H78.6756L79.2229 13.0777H84.612L85.1594 14.8881H89.7696ZM83.5174 9.54106H80.3176L81.9175 4.59403L83.5174 9.54106Z" fill="#526374"/>
<path d="M105.305 14.8881V0.846919H101.052V7.92012L96.1683 0.846919H91.7897V14.8881H96.042V7.35173L101.221 14.8881H105.305Z" fill="#526374"/>
<path d="M115.135 14.8881C119.535 14.8881 122.819 12.3409 122.819 7.85696C122.819 3.37306 119.535 0.846919 115.114 0.846919H108.841V14.8881H115.135ZM113.093 4.55193H115.135C117.409 4.55193 118.504 5.96236 118.504 7.85696C118.504 9.62526 117.241 11.183 115.114 11.183H113.093V4.55193Z" fill="#526374"/>
<path d="M8.20546 37.1344C11.9947 37.1344 13.8682 34.903 14.6892 33.0295L11.0263 31.3454C10.6684 32.44 9.57379 33.3873 8.20546 33.3873C6.26875 33.3873 4.90042 31.8295 4.90042 29.8718C4.90042 27.914 6.26875 26.3562 8.20546 26.3562C9.57379 26.3562 10.6684 27.3035 11.0263 28.3982L14.6892 26.6931C13.8472 24.7563 11.9947 22.6091 8.20546 22.6091C3.91102 22.6091 0.584933 25.5352 0.584933 29.8718C0.584933 34.1873 3.91102 37.1344 8.20546 37.1344Z" fill="#526374"/>
<path d="M27.936 36.8818V33.3452H21.5364V31.5559H27.7886V28.0193H21.5364V26.3773H27.936V22.8407H17.2841V36.8818H27.936Z" fill="#526374"/>
<path d="M44.6023 36.8818V22.8407H40.3499V29.9139L35.4661 22.8407H31.0874V36.8818H35.3398V29.3455L40.5184 36.8818H44.6023Z" fill="#526374"/>
<path d="M55.4015 36.8818V26.5457H59.1486V22.8407H47.381V26.5457H51.1492V36.8818H55.4015Z" fill="#526374"/>
<path d="M72.5735 36.8818V33.3452H66.174V31.5559H72.4262V28.0193H66.174V26.3773H72.5735V22.8407H61.9216V36.8818H72.5735Z" fill="#526374"/>
<path d="M88.2925 36.8818L85.7453 31.9137C86.8611 31.3664 88.2715 30.0823 88.2715 27.6614C88.2715 25.03 86.5032 22.8407 83.2192 22.8407H75.725V36.8818H79.9773V32.3769H81.5141L83.4508 36.8818H88.2925ZM83.956 27.5983C83.956 28.3771 83.2823 28.8403 82.5666 28.8403H79.9773V26.3773H82.5666C83.2823 26.3773 83.956 26.8404 83.956 27.5983Z" fill="#526374"/>
<path d="M0.269165 56.8968C1.7638 58.2441 3.80576 59.1282 6.79503 59.1282C10.5632 59.1282 12.8578 57.3389 12.8578 54.2443C12.8578 51.0025 9.42643 50.3288 7.1108 49.9288C5.61616 49.6762 5.04778 49.4868 5.04778 48.9394C5.04778 48.5816 5.27935 48.2026 6.3319 48.2026C7.44762 48.2026 9.02645 48.6658 10.2474 49.592L12.521 46.5817C10.9211 45.2765 8.85805 44.6239 6.56347 44.6239C2.7111 44.6239 0.732291 46.7922 0.732291 49.171C0.732291 52.6866 4.26889 53.2339 6.58452 53.6549C7.9739 53.9075 8.56333 54.1812 8.56333 54.7285C8.56333 55.2758 7.80549 55.5495 7.00554 55.5495C5.11094 55.5495 3.5321 54.7496 2.47954 53.7391L0.269165 56.8968Z" fill="#526374"/>
<path d="M22.7788 58.8756V48.5395H26.5259V44.8345H14.7583V48.5395H18.5265V58.8756H22.7788Z" fill="#526374"/>
<path d="M42.2334 58.8756L37.0548 44.8345H31.7078L26.5292 58.8756H31.1394L31.6867 57.0652H37.0758L37.6232 58.8756H42.2334ZM35.9812 53.5286H32.7814L34.3813 48.5816L35.9812 53.5286Z" fill="#526374"/>
<path d="M42.8583 51.8655C42.8583 56.3494 46.3318 59.1282 50.5841 59.1282C53.3418 59.1282 55.4469 58.0125 57.0047 56.2863V50.6446H50.1631V54.1391H52.8787V54.7496C52.3314 55.1495 51.4893 55.3811 50.5841 55.3811C48.5421 55.3811 47.1738 53.8233 47.1738 51.8655C47.1738 49.9078 48.5421 48.35 50.5841 48.35C51.784 48.35 52.7103 49.0236 53.1734 49.8867L56.7521 48.0553C55.7837 46.2449 53.847 44.6029 50.5841 44.6029C46.3318 44.6029 42.8583 47.3606 42.8583 51.8655Z" fill="#526374"/>
<path d="M70.8056 58.8756V55.339H64.406V53.5496H70.6582V50.013H64.406V48.3711H70.8056V44.8345H60.1537V58.8756H70.8056Z" fill="#526374"/>
</g>
<defs>
<clipPath id="clip0_562_12599">
<rect width="122.568" height="58.7927" fill="white" transform="translate(0.269287 0.475464)"/>
</clipPath>
</defs>
</svg>
