<svg width="112" height="112" viewBox="0 0 112 112" fill="none" xmlns="http://www.w3.org/2000/svg">
<g filter="url(#filter0_d_562_13643)">
<rect x="30" y="29" width="52" height="52" rx="26" fill="white"/>
<path d="M67.7971 48.28V46.39C63.8551 46.066 57.0511 49.252 57.0511 56.542C57.0511 61.294 59.9671 63.238 62.7211 63.238C65.6371 63.238 67.9591 60.916 67.9591 58.108C67.9591 55.246 65.5831 52.924 62.8831 52.924C60.9391 52.87 63.6931 48.118 67.7971 48.28ZM44.0371 56.542C44.0371 61.294 46.9531 63.238 49.7071 63.238C52.6231 63.238 54.9451 60.916 54.9451 58.108C54.9451 55.246 52.5691 52.924 49.8691 52.924C47.9251 52.87 50.6791 48.118 54.7831 48.28V46.39C50.8411 46.066 44.0371 49.252 44.0371 56.542Z" fill="#0974E4"/>
<path d="M67.7971 48.28V46.39C63.8551 46.066 57.0511 49.252 57.0511 56.542C57.0511 61.294 59.9671 63.238 62.7211 63.238C65.6371 63.238 67.9591 60.916 67.9591 58.108C67.9591 55.246 65.5831 52.924 62.8831 52.924C60.9391 52.87 63.6931 48.118 67.7971 48.28ZM44.0371 56.542C44.0371 61.294 46.9531 63.238 49.7071 63.238C52.6231 63.238 54.9451 60.916 54.9451 58.108C54.9451 55.246 52.5691 52.924 49.8691 52.924C47.9251 52.87 50.6791 48.118 54.7831 48.28V46.39C50.8411 46.066 44.0371 49.252 44.0371 56.542Z" fill="url(#paint0_linear_562_13643)" fill-opacity="0.3"/>
</g>
<defs>
<filter id="filter0_d_562_13643" x="0" y="0" width="112" height="112" filterUnits="userSpaceOnUse" color-interpolation-filters="sRGB">
<feFlood flood-opacity="0" result="BackgroundImageFix"/>
<feColorMatrix in="SourceAlpha" type="matrix" values="0 0 0 0 0 0 0 0 0 0 0 0 0 0 0 0 0 0 127 0" result="hardAlpha"/>
<feOffset dy="1"/>
<feGaussianBlur stdDeviation="15"/>
<feColorMatrix type="matrix" values="0 0 0 0 0.321569 0 0 0 0 0.388235 0 0 0 0 0.454902 0 0 0 0.2 0"/>
<feBlend mode="normal" in2="BackgroundImageFix" result="effect1_dropShadow_562_13643"/>
<feBlend mode="normal" in="SourceGraphic" in2="effect1_dropShadow_562_13643" result="shape"/>
</filter>
<linearGradient id="paint0_linear_562_13643" x1="42.0728" y1="39" x2="70.9226" y2="40.4316" gradientUnits="userSpaceOnUse">
<stop offset="0.0989583" stop-color="#00386C"/>
<stop offset="0.515625" stop-color="#0974E4"/>
<stop offset="0.875" stop-color="#B0D3F8"/>
</linearGradient>
</defs>
</svg>
