<svg width="50" height="50" viewBox="0 0 50 50" fill="none" xmlns="http://www.w3.org/2000/svg">
<path d="M21.7771 6.3154L23.2667 5.32165C23.78 4.97947 24.3831 4.79688 25 4.79688C25.6169 4.79688 26.22 4.97947 26.7333 5.32165L28.2229 6.3154C31.0765 8.21778 33.4163 10.7952 35.0346 13.8189C36.653 16.8427 37.4998 20.2192 37.5 23.6487V34.3748H12.5V23.6498C12.5 20.22 13.3468 16.8433 14.9651 13.8194C16.5835 10.7955 18.9234 8.21788 21.7771 6.3154Z" stroke="#FBBB5B" stroke-width="3" stroke-linecap="round" stroke-linejoin="round"/>
<path d="M25 27.083C28.4518 27.083 31.25 24.2848 31.25 20.833C31.25 17.3812 28.4518 14.583 25 14.583C21.5482 14.583 18.75 17.3812 18.75 20.833C18.75 24.2848 21.5482 27.083 25 27.083Z" stroke="#FBBB5B" stroke-width="3"/>
<path d="M12.5 22.916L6.25 29.3921V34.3743H43.75V29.3921L37.5 22.916M25 39.5827V45.8327M16.6667 41.666V43.7493M33.3333 41.666V43.7493" stroke="#FBBB5B" stroke-width="3" stroke-linecap="round" stroke-linejoin="round"/>
</svg>
