<svg width="113" height="125" viewBox="0 0 113 125" fill="none" xmlns="http://www.w3.org/2000/svg">
<path d="M70.7712 1.56294C76.2197 8.54944 83.5919 29.1252 83.3942 37.5978C83.1638 45.0028 82.1299 52.3607 80.4927 59.5031C77.189 73.5852 71.1285 86.9702 62.8241 98.6895C58.1438 105.272 52.7446 111.406 46.6828 116.776C45.1674 118.154 43.0064 115.654 44.5506 114.334C54.9299 105.084 63.4078 93.7146 69.4427 81.1363C75.4491 68.6439 79.1559 54.9457 80.0215 40.9522C80.5628 32.3144 74.0481 10.8932 68.3979 3.6426C67.8503 2.96695 67.8465 1.95768 68.4754 1.36649C69.1333 0.833626 70.2236 0.887291 70.7712 1.56294Z" fill="#FBBB5B"/>
<path d="M45.6827 103.782C45.5643 106.076 44.9817 107.792 45.0646 109.873C44.9822 110.852 44.9282 111.745 44.8458 112.723C44.7917 113.616 44.5659 114.591 44.7415 115.518C44.9182 116.733 46.3239 116.707 47.3276 116.586C51.2855 116.272 47.9645 116.761 51.9603 116.157C54.0051 115.848 55.6811 115.582 56.9699 115.426C58.9773 115.184 59.6492 118.4 57.6129 118.584C56.3939 118.694 55.0785 119.016 53.2055 119.242C48.99 119.751 52.072 119.433 47.8271 119.74C46.1061 119.845 44.2122 119.744 42.8879 118.503C41.2755 116.967 41.4392 114.722 41.604 112.765C41.7686 110.808 42.095 108.068 42.1622 106.916C42.3015 104.526 42.432 103.985 42.4682 103.449C42.6041 101.434 45.7896 101.708 45.6827 103.782Z" fill="#FBBB5B"/>
</svg>
