<svg width="167" height="60" viewBox="0 0 167 60" fill="none" xmlns="http://www.w3.org/2000/svg">
<g clip-path="url(#clip0_562_12601)">
<g clip-path="url(#clip1_562_12601)">
<path d="M9.62853 0.615234C9.79757 0.654243 9.96661 0.725759 10.1356 0.73226C12.3136 0.881793 14.199 1.70097 15.8114 3.15729C15.9479 3.28082 16.0649 3.41735 16.1755 3.56038C16.338 3.75543 16.4875 3.96347 16.6761 4.21053C15.7919 4.93869 14.9337 5.63434 14.017 6.39501C13.6399 6.03743 13.2628 5.69936 12.8988 5.34178C12.3266 4.78265 11.6635 4.39257 10.8638 4.27554C9.4985 4.0805 8.17871 4.14551 6.98245 4.96469C5.97473 5.65385 5.30508 7.34422 6.59886 8.67701C7.00845 9.09961 7.50256 9.46369 8.01618 9.74325C9.0369 10.3024 10.0966 10.803 11.1564 11.2971C12.3656 11.8562 13.5164 12.4999 14.5176 13.371C16.351 14.9769 17.3327 17.0053 17.2417 19.4629C17.1117 23.0517 14.4461 25.9643 11.0393 26.3999C7.40504 26.855 4.26485 25.4702 2.26241 22.174C1.82031 21.4458 1.41722 20.6982 1.17017 19.7945C2.2169 19.3784 3.30914 19.1703 4.39488 18.8258C4.59642 19.2158 4.77846 19.5864 4.98001 19.944C5.72117 21.2378 6.69638 22.278 8.17871 22.7331C9.11492 23.0192 10.0576 23.0842 11.0068 22.7916C13.5619 22.005 14.5306 19.2223 12.9248 16.9013C12.2161 15.8806 11.2084 15.276 10.1291 14.7494C8.70533 14.0602 7.24901 13.4361 5.88371 12.6429C4.16083 11.6417 2.93205 10.1593 2.52897 8.1764C2.17789 6.43402 2.46395 4.76965 3.64721 3.35234C4.99951 1.75949 6.68338 0.816779 8.81585 0.73226C8.93288 0.73226 9.0499 0.654243 9.16043 0.615234C9.31646 0.615234 9.4725 0.615234 9.62853 0.615234Z" fill="#526374"/>
<path d="M116.739 37.6472C117.136 37.2051 117.52 36.763 117.923 36.3339C118.488 35.7292 119.041 35.1051 119.639 34.533C119.932 34.2534 120.302 34.0259 120.673 33.8503C122.571 32.9531 123.807 34.494 123.93 35.7813C124.034 36.8475 123.65 37.7772 123.137 38.6549C122.37 39.9747 121.525 41.249 120.744 42.5688C120.445 43.0759 120.237 43.635 120.023 44.0901C120.38 44.9808 120.686 45.1238 121.427 44.8118C122.188 44.4932 122.799 43.9666 123.345 43.3749C124.632 41.9901 125.854 40.5403 126.843 38.9215C127.733 37.4651 128.585 35.9828 129.456 34.507C129.599 34.2664 129.755 34.0259 129.879 33.8308H132.583C131.966 34.8451 131.361 35.8333 130.75 36.8215C129.781 38.3883 128.806 39.9422 127.844 41.5155C127.577 41.9576 127.35 42.4257 127.129 42.8938C126.882 43.4204 126.765 43.9731 126.927 44.5712C127.272 44.9743 127.694 45.0198 128.188 44.8508C128.845 44.6297 129.365 44.1876 129.853 43.7325C131.329 42.3412 132.603 40.7744 133.708 39.071C134.306 38.1478 135.028 37.3351 135.893 36.6655C137.375 35.5147 138.974 34.5525 140.756 33.9284C141.263 33.7528 141.809 33.6358 142.342 33.6033C143.291 33.5383 143.571 33.7788 143.837 34.702C143.857 34.7735 143.876 34.8451 143.915 34.9816C144.065 34.754 144.189 34.5655 144.306 34.377C144.423 34.1819 144.533 33.9804 144.624 33.8308H147.277C146.679 34.8125 146.093 35.7553 145.521 36.711C144.533 38.3558 143.538 39.9942 142.583 41.6521C142.264 42.2112 142.063 42.8353 141.809 43.4269C141.757 43.544 141.718 43.674 141.698 43.7975C141.659 44.1681 141.653 44.5322 141.985 44.7922C142.329 45.0588 142.693 44.9613 143.005 44.7532C143.46 44.4542 143.909 44.1421 144.312 43.778C145.794 42.4257 147.03 40.8589 148.2 39.24C148.447 38.8954 148.622 38.4729 149.175 38.2063C149.11 38.4794 149.11 38.6614 149.026 38.7784C148.662 39.3115 148.291 39.8447 147.881 40.3453C147.03 41.3855 146.184 42.4387 145.268 43.4269C144.748 43.9926 144.137 44.4997 143.493 44.9223C141.978 45.917 140.203 45.0133 140.112 43.1279C140.086 42.5428 140.184 41.9511 140.223 41.314C139.651 42.0291 139.13 42.7508 138.532 43.4074C138.051 43.9406 137.505 44.4282 136.939 44.8768C136.575 45.1693 136.12 45.2799 135.633 45.3059C134.67 45.3579 133.981 44.9483 133.481 44.1746C133.143 43.648 132.915 43.0694 132.915 42.4257C132.915 41.9576 132.915 41.496 132.915 40.8654C132.499 41.366 132.18 41.7691 131.842 42.1592C130.958 43.1734 130.067 44.1941 128.891 44.9028C128.045 45.4099 127.174 45.5009 126.31 44.9938C125.672 44.6167 125.289 44.0316 125.276 43.2709C125.263 42.7378 125.334 42.1982 125.373 41.561C125.146 41.8276 124.951 42.0616 124.749 42.2957C124.528 42.5493 124.288 42.7898 124.073 43.0499C123.494 43.7585 122.825 44.3762 122.051 44.8573C120.101 46.073 118.521 44.7467 118.436 42.8223C118.404 42.0616 118.625 41.3335 119.034 40.6833C119.867 39.3701 120.725 38.0763 121.551 36.7565C121.863 36.2559 122.123 35.7162 122.376 35.1766C122.558 34.793 122.532 34.416 122.129 34.1104C121.193 33.8373 120.439 34.2794 119.743 34.8516C118.469 35.8983 117.455 37.1726 116.512 38.5054C115.101 40.4948 113.814 42.5623 112.631 44.6947C112.559 44.8313 112.468 44.9548 112.377 45.1043H109.705C109.939 44.7142 110.128 44.3892 110.329 44.0771C111.558 42.1267 112.806 40.1827 114.009 38.2193C114.496 37.4261 114.906 36.5809 115.316 35.7488C115.68 35.0076 115.667 34.9036 115.556 34.1494C115.095 33.8958 114.711 34.1234 114.392 34.4355C113.801 35.0141 113.183 35.5862 112.676 36.2364C111.402 37.8682 110.186 39.5521 108.931 41.197C108.067 42.3347 107.137 43.4139 106.032 44.3241C105.368 44.8703 104.673 45.2929 103.73 45.3124C102.735 45.3384 101.63 44.3241 101.565 43.2579C101.526 42.5948 101.637 41.9706 101.89 41.3595C101.936 41.2425 101.981 41.1319 101.955 40.9564C101.786 41.1189 101.604 41.275 101.442 41.4505C99.8813 43.1474 98.0543 44.5062 96.0779 45.6699C95.5318 45.995 95.0897 46.3591 94.7776 46.9442C94.108 48.199 93.4188 49.4538 92.6191 50.6305C91.8065 51.8268 90.9158 52.9841 89.9601 54.0698C88.6143 55.5976 87.0084 56.8329 85.227 57.8276C84.1998 58.4063 83.0945 58.6793 81.8788 58.6923C80.4875 58.7053 79.7008 57.483 79.9414 56.2868C80.1689 55.1685 80.7085 54.2063 81.4887 53.3741C82.8345 51.9373 84.4273 50.8191 86.1567 49.9154C87.8796 49.0117 89.6415 48.186 91.3969 47.3603C91.9365 47.1068 92.3201 46.7687 92.5996 46.2226C93.2433 44.9483 93.9519 43.713 94.6346 42.4647C94.7191 42.3087 94.7906 42.1397 94.7906 41.9186C94.6801 42.0486 94.5631 42.1722 94.4526 42.3022C94.3355 42.4387 94.2185 42.5753 94.095 42.7118C93.5944 43.2709 93.0873 43.83 92.5866 44.3827C91.8325 45.2148 90.8833 45.5074 89.83 45.2018C88.7508 44.8898 88.2827 43.9796 88.0031 42.9588C87.7691 42.0812 87.9381 41.2295 88.1722 40.2477C87.4375 40.9824 86.7093 41.4375 85.8121 41.6195C84.993 41.7821 83.9462 41.314 83.9397 40.1827C83.9397 39.7211 83.9397 39.2595 83.9397 38.6614C83.6277 38.928 83.3741 39.1035 83.1726 39.318C82.2494 40.3128 81.4952 41.4245 80.7995 42.5818C80.2924 43.4204 79.7788 44.2591 79.2717 45.0978H76.6711C76.8662 44.7597 77.0157 44.4737 77.1847 44.1941C78.5045 42.0226 79.8503 39.8707 81.1441 37.6862C81.6317 36.867 82.0088 35.9763 82.3989 35.1051C82.5159 34.8386 82.5094 34.52 82.5549 34.2599C82.1648 33.9544 81.8333 33.9804 81.5537 34.2144C81.1116 34.572 80.663 34.9296 80.2859 35.3587C79.7203 36.0023 79.2132 36.685 78.6996 37.3741C77.5683 38.8889 76.4761 40.4363 75.3123 41.9251C74.4541 43.0304 73.5179 44.0836 72.3022 44.8183C71.9576 45.0263 71.561 45.2083 71.1644 45.2734C69.227 45.5789 68.1282 43.739 68.6094 42.1852C68.8499 41.3985 69.175 40.6183 69.5781 39.9032C70.6833 37.9397 71.8406 36.0088 72.9848 34.0649C73.0498 33.9544 73.1474 33.8698 73.1929 33.8178H75.8454C75.4164 34.5265 75.0068 35.2091 74.5907 35.8853C73.3229 37.9657 72.0421 40.0332 70.7938 42.1267C70.5208 42.5883 70.3322 43.1084 70.1632 43.622C70.0397 43.9991 70.0332 44.3957 70.3712 44.7012C70.7288 45.0198 71.1579 45.0198 71.535 44.8118C72.0486 44.5257 72.5687 44.2071 73.0043 43.8105C74.7012 42.2632 76.0795 40.4493 77.3993 38.5769C78.459 37.0685 79.5773 35.6057 80.9296 34.3509C81.1571 34.1429 81.4042 33.9414 81.6707 33.7918C82.5354 33.3107 83.4716 33.6618 83.8227 34.598C84.0568 35.2221 84.0763 35.8788 83.9007 36.5094C83.6862 37.2766 83.3806 38.0178 83.075 38.8694C83.6212 38.4208 84.1543 38.0958 84.4468 37.4651C84.9735 36.3274 85.6691 35.3002 86.5988 34.442C87.0279 34.0454 87.4895 33.7203 88.0616 33.5968C88.6078 33.4798 88.7963 33.5968 89.0824 34.1754C88.9068 35.0141 88.2697 35.5342 87.6325 36.0153C86.8914 36.5809 86.0917 37.0685 85.318 37.5887C85.1035 37.7317 84.8824 37.8682 84.6549 38.0243C84.4078 38.7849 84.1413 39.5391 84.4078 40.3648C84.6549 41.1254 85.162 41.3985 85.9552 41.249C86.5468 41.1384 87.0279 40.8459 87.444 40.4493C87.9121 40.0007 88.3672 39.5326 88.7508 39.0125C90.0966 37.1661 91.8715 35.8463 93.8609 34.7865C94.7776 34.2989 95.7138 33.8503 96.7411 33.6488C96.8191 33.6358 96.8906 33.6033 96.9686 33.5903C98.2494 33.3887 98.7305 33.7723 98.8215 35.0726C98.8215 35.1116 98.854 35.1506 98.893 35.2351C99.1986 34.728 99.4912 34.2469 99.7577 33.8048H102.352C100.161 37.6667 97.8983 41.457 95.6618 45.3774C95.8244 45.3449 95.9219 45.3449 95.9869 45.3059C97.6448 44.3762 99.2051 43.2969 100.544 41.9511C101.877 40.6118 103.086 39.1555 104.003 37.4781C104.647 36.2949 105.368 35.1571 106.051 33.9934C106.103 33.9088 106.168 33.8308 106.188 33.8048H108.827C108.756 33.9544 108.697 34.1169 108.613 34.2534C107.091 36.724 105.55 39.188 104.049 41.6651C103.73 42.1917 103.503 42.7768 103.282 43.3554C103.164 43.661 103.164 44.0056 103.119 44.2656C103.665 44.9938 104.12 45.1368 104.822 44.6622C105.524 44.1876 106.194 43.635 106.773 43.0109C108.632 41.0214 110.225 38.8044 111.889 36.659C112.507 35.8658 113.229 35.1441 113.918 34.4095C114.145 34.1689 114.431 33.9674 114.711 33.7918C115.316 33.4147 115.92 33.4733 116.408 33.9869C116.974 34.5785 117.227 35.3002 117.071 36.1193C116.974 36.6264 116.824 37.1206 116.7 37.6147C116.655 37.6667 116.609 37.7252 116.564 37.7772L116.648 37.8292C116.661 37.7577 116.681 37.6862 116.694 37.6082L116.739 37.6472ZM91.826 47.6399C91.6309 47.6789 91.5529 47.6789 91.4944 47.7114C89.661 48.6736 87.8016 49.5903 86.0007 50.6175C84.5119 51.4627 83.1206 52.4574 81.9243 53.6927C81.1766 54.4664 80.585 55.3311 80.3574 56.4103C80.1299 57.4895 80.754 58.2957 81.8658 58.3477C83.01 58.3933 83.9982 57.9772 84.9084 57.3465C85.9227 56.6444 86.7093 55.7212 87.444 54.7459C89.0889 52.542 90.4542 50.1689 91.826 47.6464V47.6399ZM97.5277 33.9934C97.1832 34.0909 96.8126 34.1364 96.507 34.2989C96.0064 34.5655 95.5058 34.8581 95.0897 35.2351C94.342 35.9113 93.6269 36.6264 92.9572 37.3741C91.839 38.6354 90.8443 39.9877 90.1486 41.5415C89.817 42.2762 89.57 43.0434 89.6415 43.8625C89.713 44.7402 90.4737 45.1953 91.2603 44.8053C91.6894 44.5907 92.086 44.2721 92.4436 43.9471C93.7894 42.7248 94.9142 41.301 95.9869 39.8382C96.611 38.98 97.1962 38.0958 97.7488 37.1921C98.1519 36.5354 98.5159 35.8398 98.5159 35.0271C98.5159 34.2599 98.3144 34.0519 97.5277 33.9869V33.9934ZM143.044 34.1299C142.459 33.9804 141.894 34.0519 141.328 34.3249C140.398 34.7735 139.644 35.4497 138.948 36.1713C138.09 37.062 137.297 38.0308 136.549 39.0125C135.704 40.1242 134.95 41.3075 134.638 42.7053C134.547 43.1279 134.508 43.5765 134.534 44.0056C134.579 44.6752 135.139 45.0653 135.795 44.9158C136.042 44.8573 136.296 44.7532 136.497 44.6037C136.874 44.3307 137.238 44.0381 137.57 43.713C139.397 41.9316 140.899 39.8902 142.238 37.7317C142.667 37.036 142.986 36.2624 143.298 35.5017C143.493 35.0271 143.46 34.533 143.038 34.1234L143.044 34.1299ZM95.1547 41.483C95.1547 41.522 95.1417 41.5675 95.1417 41.6065C95.1417 41.5675 95.1547 41.522 95.1547 41.483Z" fill="#526374"/>
<path d="M40.9003 17.9869C42.9482 12.9288 44.9962 7.8772 47.1091 2.66956C49.1441 7.64965 51.1075 12.4607 53.0905 17.3173C53.266 17.4083 53.4675 17.5253 53.6756 17.6164C55.0344 18.2275 56.2632 19.0467 57.3554 20.0544C58.3761 20.9971 59.1693 22.1218 59.8194 23.3376C60.8272 25.2295 61.4513 27.232 61.7309 29.3644C62.1079 32.2576 61.6593 35.0337 60.7101 37.7513C59.969 39.8903 58.9613 41.9057 57.7585 43.8171C56.6988 45.501 55.535 47.1264 54.4233 48.7842C54.2997 48.9663 54.1892 49.1548 54.1697 49.4409C54.8719 48.8882 55.5935 48.3616 56.2697 47.7765C58.6362 45.7481 60.4696 43.2645 62.0494 40.6054C64.2599 36.8866 66.4119 33.1288 68.8499 29.553C70.0592 27.7781 71.288 26.0032 72.7898 24.4559C74.5062 22.681 76.4891 21.2702 78.8947 20.5875C79.8309 20.3209 80.8191 20.2039 81.7943 20.0739C82.0479 20.0414 82.3729 20.1389 82.5875 20.2884C83.0751 20.633 82.9841 21.2311 82.4314 21.4522C82.1974 21.5432 81.9243 21.5952 81.6708 21.5952C79.2002 21.6017 77.0742 22.5704 75.1433 23.9943C73.4595 25.236 72.1332 26.8289 70.9369 28.5388C68.2063 32.4526 65.8008 36.568 63.3042 40.6314C61.8089 43.0695 60.216 45.436 58.1551 47.4319C57.2319 48.3291 56.1786 49.1028 55.1384 49.87C54.3322 50.4681 53.4545 50.9817 52.6028 51.5213C52.4273 51.6319 52.2388 51.7489 52.0307 51.5148C51.9592 51.1898 52.1868 50.9427 52.3493 50.6956C54.7418 47.0548 56.2242 43.0435 57.2384 38.837C57.635 37.1792 57.9665 35.5083 58.1096 33.7984C58.1876 32.8232 58.3761 31.8415 58.3566 30.8663C58.3111 28.4607 58.1746 26.0617 57.1864 23.7992C56.5752 22.3949 55.704 21.2051 54.3842 20.2104C54.4102 20.425 54.3972 20.5615 54.4428 20.6785C55.0474 22.1674 55.6585 23.6497 56.2632 25.1385C56.3802 25.4181 56.4777 25.7106 56.6207 26.0942C55.5935 26.1657 54.6768 26.1332 53.6821 26.1202C52.6224 23.5522 51.5626 21.0036 50.5159 18.481C49.3911 17.9154 45.5033 18.0324 43.4813 18.9687C42.5321 21.2897 41.5569 23.6757 40.5557 26.1267C39.6 26.1527 38.6573 26.1397 37.578 26.1267C38.3062 24.3388 38.9823 22.668 39.6975 20.8996C38.8458 21.3547 38.1827 21.9138 37.5585 22.4989C35.2765 24.6314 33.4041 27.0434 32.4809 30.0991C31.9413 31.887 31.7332 33.7139 31.9348 35.5473C32.2794 38.6095 33.6577 41.0735 36.4728 42.5428C38.1957 43.44 40.0421 43.7001 41.9795 43.4596C45.0092 43.076 47.2392 41.4116 49.0986 39.1296C49.4041 38.7525 49.6902 38.3559 50.0283 37.9073C49.8527 37.8683 49.7617 37.8358 49.6707 37.8228C48.754 37.6993 48.2794 36.9191 48.611 36.0804C48.8775 35.4108 49.9113 35.1897 50.4574 35.6968C50.8215 36.0349 50.958 36.464 50.8735 36.9646C50.7174 37.8813 50.3013 38.668 49.7552 39.4092C48.1234 41.6131 46.0559 43.1865 43.3448 43.7716C39.5675 44.5843 36.1997 43.7521 33.3521 41.0735C31.5447 39.3767 30.524 37.2897 30.1599 34.8386C29.7763 32.2966 30.2184 29.9041 31.2456 27.583C32.3184 25.1645 33.9892 23.2011 35.8942 21.4197C37.227 20.1714 38.7223 19.1507 40.3281 18.286C40.5102 18.1885 40.6922 18.0845 40.8743 17.9804L40.9003 17.9869ZM49.7877 16.5631C48.884 14.3526 48.0323 12.2592 47.1221 10.0227C46.1794 12.3372 45.2952 14.5217 44.359 16.8362C46.1989 16.5501 47.9088 16.3681 49.7942 16.5631H49.7877Z" fill="#526374"/>
<path d="M111.994 26.8419C108.424 26.8419 105.401 25.5416 102.944 22.9995C101.091 21.0881 99.992 18.7996 99.6995 16.1145C99.3939 13.3189 99.94 10.7443 101.546 8.44934C103.581 5.5497 106.357 3.67079 109.894 3.13767C114.906 2.3835 119.035 4.00886 122.168 8.00724C124.002 10.3478 124.619 13.0524 124.372 15.965C124.132 18.7801 122.955 21.1987 120.966 23.1816C119.087 25.054 116.831 26.2828 114.159 26.6208C113.444 26.7119 112.715 26.7639 112 26.8289L111.994 26.8419ZM112.156 23.5522C112.852 23.4742 113.554 23.4416 114.23 23.2986C117.897 22.5314 121.382 18.8646 121.109 14.4957C120.992 12.5647 120.361 10.8484 119.061 9.41155C116.811 6.9215 113.99 5.97229 110.661 6.34938C108.548 6.58993 106.786 7.51964 105.349 9.00846C103.47 10.9524 102.638 13.2929 103.002 16.03C103.243 17.8244 103.997 19.3327 105.239 20.62C107.124 22.5705 109.445 23.4872 112.15 23.5457L112.156 23.5522Z" fill="#526374"/>
<path d="M147.933 26.1011V3.76869C148.122 3.74268 148.291 3.69717 148.46 3.69717C150.645 3.69717 152.823 3.65166 155.001 3.73618C157.283 3.8272 159.448 4.39283 161.385 5.67361C163.101 6.81136 164.324 8.3717 165.188 10.1986C166.443 12.8707 166.606 15.6728 165.624 18.4294C164.265 22.2263 161.573 24.6773 157.621 25.659C156.411 25.9581 155.176 26.1011 153.934 26.1206C152.088 26.1531 150.248 26.1271 148.402 26.1271C148.278 26.1271 148.148 26.1076 147.933 26.0946V26.1011ZM151.08 22.9869C151.353 22.9869 151.555 22.9999 151.756 22.9869C153.148 22.8959 154.545 22.8439 155.937 22.6944C157.835 22.4928 159.48 21.6671 160.793 20.3083C162.568 18.4749 163.205 16.2059 162.835 13.7224C162.341 10.3741 159.844 7.4485 155.807 6.9999C154.409 6.84387 153.011 6.84387 151.613 6.84387C151.444 6.84387 151.269 6.87637 151.08 6.90238V22.9869Z" fill="#526374"/>
<path d="M139.436 26.1012C138.461 24.6644 137.505 23.2471 136.549 21.8298C135.548 20.3474 134.553 18.8651 133.546 17.3893C133.35 17.1032 133.188 16.7391 132.635 16.9017V26.0882H129.391C129.391 18.6311 129.391 11.2064 129.391 3.75577C129.658 3.72977 129.827 3.69726 130.002 3.69726C131.745 3.69726 133.481 3.67775 135.223 3.71676C137.225 3.76877 139.059 4.36691 140.587 5.6932C142.166 7.065 142.849 8.82039 142.55 10.9008C142.173 13.5404 140.541 15.1268 138.136 16.0305C137.654 16.2125 137.154 16.3425 136.588 16.5246C138.727 19.6908 140.834 22.8115 142.94 25.9322C142.537 26.1727 141.334 26.2247 139.442 26.0947L139.436 26.1012ZM132.668 14.1126C133.539 14.1776 134.332 14.1126 135.125 14.002C136.036 13.8785 136.887 13.6249 137.693 13.1894C139.845 12.0191 139.715 8.72937 138.051 7.58512C137.537 7.22754 136.991 6.96098 136.38 6.80494C135.164 6.49288 133.942 6.49938 132.668 6.55139V14.1191V14.1126Z" fill="#526374"/>
<path d="M63.4474 3.72961H75.8001C75.9562 4.30824 75.9822 5.88809 75.8456 6.81129C75.0915 6.88281 74.3178 6.8373 73.5506 6.8438C72.7704 6.8503 71.9903 6.8438 71.2101 6.8438H68.9476C68.1739 6.8438 67.4003 6.8438 66.5941 6.8438V12.2595H75.8781V15.3867H66.6331C66.4706 16.1278 66.5746 16.8235 66.5551 17.5062C66.5356 18.2343 66.5551 18.956 66.5551 19.6841V26.088H63.5514C63.5514 26.088 63.5124 26.049 63.4929 26.0295C63.4799 26.01 63.4539 25.9905 63.4539 25.971C63.4409 18.7674 63.4279 11.5573 63.4214 4.35375C63.4214 4.17821 63.4409 3.99617 63.4539 3.72961H63.4474Z" fill="#526374"/>
<path d="M83.0685 3.72968H95.4147C95.5707 4.3018 95.5968 5.85565 95.4667 6.77885C94.7126 6.91538 93.9389 6.82436 93.1717 6.83736C92.3915 6.85687 91.6114 6.83736 90.8377 6.83736H88.5817C87.808 6.83736 87.0344 6.83736 86.2217 6.83736V12.2596C89.3099 12.2661 92.385 12.2596 95.5057 12.2596V15.3152C94.9206 15.5038 94.2965 15.3802 93.6918 15.3998C93.0677 15.4193 92.4436 15.3998 91.8194 15.3998H86.2607C86.0982 16.1279 86.2022 16.8171 86.1827 17.5062C86.1632 18.2344 86.1827 18.956 86.1827 19.6842V26.0816H83.1855C83.1465 26.0491 83.127 26.0361 83.1075 26.0166C83.0945 25.9971 83.075 25.9711 83.075 25.9516C83.062 18.722 83.049 11.4924 83.0425 4.2628C83.0425 4.11326 83.062 3.95723 83.0815 3.71667L83.0685 3.72968Z" fill="#526374"/>
<path d="M29.5749 6.86327V26.114C29.0158 26.127 28.5347 26.14 28.0471 26.14C27.5529 26.14 27.0653 26.14 26.5907 26.14C26.3437 25.828 26.4412 25.5029 26.4347 25.2038C26.4282 20.3798 26.4347 15.5557 26.4347 10.7316C26.4347 9.6914 26.4347 8.65767 26.4347 7.61744V6.85027H21.136C20.98 6.16762 20.967 4.51626 21.1035 3.73608H34.7695C34.9191 4.29521 34.9451 5.90106 34.802 6.82427C33.0987 6.86327 31.3693 6.81126 29.5749 6.85677V6.86327Z" fill="#526374"/>
<path d="M74.8703 31.5687C74.8053 31.3801 74.7338 31.1656 74.6558 30.9575C74.7923 30.0148 75.2994 29.3777 76.1641 29.0396C77.0873 28.682 77.7309 29.1827 77.6074 30.1514C77.4449 31.4386 75.9691 32.2253 74.8638 31.5752L74.8703 31.5687Z" fill="#526374"/>
<path d="M110.674 30.0083C110.628 30.873 109.66 31.8417 108.782 31.8937C108.067 31.9327 107.599 31.3996 107.755 30.6975C107.95 29.8068 108.535 29.2412 109.38 28.9746C110.173 28.7275 110.719 29.1826 110.674 30.0083Z" fill="#526374"/>
<path d="M132.434 31.8938C131.771 31.9134 131.355 31.4908 131.4 30.8341C131.459 29.9434 132.473 28.9682 133.37 28.9357C133.975 28.9162 134.358 29.2738 134.365 29.8654C134.371 30.7821 133.351 31.8613 132.434 31.8938Z" fill="#526374"/>
</g>
</g>
<defs>
<clipPath id="clip0_562_12601">
<rect width="166.413" height="58.7927" fill="white" transform="translate(0.197998 0.475464)"/>
</clipPath>
<clipPath id="clip1_562_12601">
<rect width="165.091" height="58.1033" fill="white" transform="translate(1.17664 0.615356)"/>
</clipPath>
</defs>
</svg>
