<svg width="275" height="57" viewBox="0 0 275 57" fill="none" xmlns="http://www.w3.org/2000/svg">
<g clip-path="url(#clip0_562_9820)">
<path d="M267.537 20.7588C265.415 20.8789 263.185 20.8695 261.056 20.8544C260.147 20.9059 259.332 20.8164 258.422 20.8679C254.569 20.8148 250.716 20.7616 246.863 20.7085C242.201 20.7011 237.633 20.5528 232.972 20.5454C226.377 20.3762 219.789 20.3423 213.193 20.1731C211.671 20.1236 210.155 20.2094 208.633 20.16C204.78 20.1069 200.926 20.0537 197.08 20.1359C193.227 20.0827 189.373 20.0296 185.527 20.1118C184.004 20.0623 182.482 20.0129 180.966 20.0987C174.89 20.1714 168.713 20.2499 162.637 20.3226C158.891 20.3991 155.146 20.4755 151.293 20.4223C149.777 20.5082 148.356 20.453 146.84 20.5388C140.973 20.7354 135.004 20.9377 129.137 21.1343C123.27 21.3309 117.504 21.5217 111.636 21.7183C110.121 21.8041 108.605 21.8899 106.989 21.9815C103.149 22.1989 99.4104 22.4106 95.5708 22.628C89.6094 22.9656 83.749 23.2975 77.7807 23.4998C75.8609 23.6085 73.9411 23.7172 72.0213 23.8259C67.9797 24.0548 63.938 24.2836 59.8963 24.5125C59.5932 24.5297 59.189 24.5525 58.8859 24.5697C67.9865 24.19 77.1881 23.8047 86.2956 23.5603C90.142 23.4781 93.8805 23.2664 97.7269 23.1843C99.3436 23.0927 101.061 22.9955 102.685 23.0392C108.249 22.8598 113.719 22.8214 119.283 22.6419C125.662 22.552 132.035 22.3268 138.414 22.2369C139.526 22.174 140.543 22.2521 141.654 22.1891C145.103 22.2651 148.445 22.2116 151.894 22.2876C158.785 22.3044 165.677 22.3211 172.568 22.3379C173.578 22.2807 174.596 22.3587 175.613 22.4368C178.961 22.5186 182.417 22.7298 185.765 22.8116C191.855 23.0094 197.844 23.2129 203.934 23.4107C205.557 23.4545 207.288 23.6278 208.912 23.6715C212.772 23.8599 216.632 24.0483 220.499 24.372C225.377 24.6385 230.355 24.8992 235.232 25.1657C242.043 25.594 248.955 26.0166 255.766 26.4449C257.39 26.4886 259.02 26.6677 260.745 26.7057C263.695 26.9456 266.646 27.1855 269.597 27.4254C269.9 27.4082 270.217 27.6616 270.244 28.2027C270.265 28.6086 269.982 29.0315 269.679 29.0487C268.568 29.1117 267.564 29.3041 266.453 29.3671C266.689 30.032 266.811 30.4321 266.831 30.838C266.906 32.326 266.066 33.7303 264.853 33.799C256.432 33.5975 248.106 33.255 239.692 33.1888C232.397 33.1949 225.094 33.0657 217.799 33.0719C209.789 32.9828 201.678 32.8994 193.675 32.9456C191.142 32.9533 188.61 32.9611 186.07 32.8336C185.363 32.8736 184.648 32.7784 183.84 32.8242C170.886 33.1507 157.925 33.342 144.972 33.6685C138.087 33.787 131.102 33.9113 124.224 34.1651C121.691 34.1728 119.266 34.3102 116.733 34.3179C103.483 34.7969 90.2328 35.2759 76.9827 35.7549C71.3175 35.94 65.6523 36.1251 59.9872 36.3103C55.1303 36.4496 50.2803 36.7243 45.4166 36.7283C41.3681 36.8219 37.4138 36.7745 33.3653 36.8681C31.3376 36.8473 29.3168 36.9617 27.3901 36.9351C22.8227 36.7868 18.2553 36.6384 13.6879 36.4901C14.0184 37.014 14.0595 37.8257 13.9859 38.3725C13.9191 39.0546 13.6434 39.6129 13.1519 39.9121C12.7614 40.2055 12.1688 40.5104 11.751 40.2627C10.7131 39.7788 9.67534 39.2949 8.73856 38.8053C8.73856 38.8053 8.73856 38.8053 8.8396 38.7996C8.73856 38.8053 8.73171 38.67 8.63068 38.6758C8.52961 38.6815 8.42176 38.5519 8.42176 38.5519L8.52279 38.5462C8.00389 38.3042 7.48498 38.0623 6.85816 37.6908C6.33926 37.4489 5.71244 37.0773 5.19353 36.8354C4.56674 36.4639 4.04096 36.0867 3.41417 35.7152C2.78737 35.3437 2.3284 34.2843 2.28044 33.3374C2.25304 32.7963 2.33352 32.3847 2.50821 31.8322C2.68288 31.2796 3.15382 30.5746 3.65217 30.4107C4.15053 30.2468 4.64888 30.083 5.15411 30.0544C5.25514 30.0486 5.35621 30.0429 5.45724 30.0372C5.76038 30.02 6.16455 29.9971 6.4745 30.1152C7.28969 30.2048 8.00381 30.3 8.81215 30.2542C9.41841 30.2199 10.0315 30.3208 10.7388 30.2808C12.4633 30.3188 14.0869 30.3625 15.8183 30.5358C16.2224 30.5129 16.7345 30.6196 17.1387 30.5967C16.9229 30.3376 16.8081 30.0728 16.7944 29.8022C16.6797 29.5374 16.666 29.2668 16.6523 28.9963C16.6454 28.861 16.6317 28.5904 16.5238 28.4609C16.5101 28.1903 16.4964 27.9198 16.5906 27.7788C16.5906 27.7788 16.4896 27.7845 16.4827 27.6492C16.1659 27.3958 15.8491 27.1424 15.6196 26.6128C15.397 26.2184 15.2685 25.683 15.2411 25.1419C15.2137 24.6007 15.2942 24.1892 15.4689 23.6366C15.5631 23.4956 15.6504 23.2194 15.7446 23.0784C16.0272 22.6554 16.3234 22.5029 16.6197 22.3505C17.2123 22.0456 17.9127 21.8703 18.62 21.8302C19.2262 21.7959 19.7314 21.7673 20.3377 21.7329C21.146 21.6872 21.9544 21.6414 22.7627 21.5956C23.8741 21.5327 25.0866 21.464 26.1981 21.4011C29.2293 21.2294 32.2606 21.0578 35.2918 20.8861C38.121 20.7259 41.0512 20.56 43.8804 20.3998C46.5074 20.251 49.0335 20.108 51.6605 19.9592C62.0678 19.3699 72.3809 18.9216 82.795 18.4675C90.5821 18.1622 98.3691 17.8569 106.149 17.4164C109.585 17.2218 113.128 17.1569 116.57 17.0976C124.364 16.9276 132.151 16.6223 139.945 16.4523C142.168 16.3264 144.398 16.3358 146.621 16.2099C147.934 16.1356 149.154 16.2022 150.467 16.1278C158.167 16.0988 165.867 16.0698 173.566 16.0408C175.897 16.0444 178.228 16.0481 180.66 16.0461C181.973 15.9717 183.294 16.0326 184.614 16.0935C192.321 16.1997 199.926 16.3117 207.633 16.418C211.587 16.4654 215.541 16.5128 219.502 16.6955C226.3 16.8533 233.097 17.011 239.8 17.3098C245.688 17.519 251.569 17.593 257.45 17.667C258.366 17.7508 259.275 17.6993 260.292 17.7773C261.815 17.8268 263.331 17.741 264.853 17.7904C266.194 18.2572 267.609 18.177 268.922 18.1027C268.996 17.5558 269.379 17.1271 269.689 17.2452C270.599 17.1937 271.414 17.2832 272.33 17.367C272.741 17.4794 273.159 17.7271 273.287 18.2625C273.423 18.9331 273.154 19.6267 272.757 19.7849C272.359 19.943 271.962 20.1012 271.565 20.2593C271.167 20.4175 270.864 20.4347 270.46 20.4576C269.456 20.6501 268.547 20.7016 267.537 20.7588ZM30.8803 29.8186C29.6678 29.8872 28.3543 29.9616 27.1418 30.0303C27.0613 30.4418 26.8729 30.7238 26.6845 31.0058C27.1897 30.9772 27.7018 31.0839 28.1059 31.061C29.0153 31.0095 29.9316 31.0933 30.8409 31.0418C34.8894 30.9482 38.8438 30.9956 42.8923 30.902C44.7179 30.9343 46.5435 30.9666 48.3622 30.8636C51.1914 30.7034 54.1284 30.6727 56.9576 30.5125C63.5321 30.2759 70.0056 30.045 76.5802 29.8084C89.3251 29.358 101.969 28.9133 114.714 28.463C123.815 28.0833 132.929 27.9742 142.043 27.8651C155.711 27.6337 169.473 27.2614 183.141 27.0301C185.876 27.0109 188.611 26.9917 191.353 27.1078C199.161 27.2083 206.961 27.1736 214.769 27.2741C222.375 27.3861 230.074 27.3571 237.68 27.4691C238.387 27.429 239.101 27.5243 239.808 27.4842C237.774 27.3281 235.645 27.313 233.611 27.1568C226.402 26.8867 219.187 26.4813 211.979 26.2111C209.439 26.0836 206.9 25.9561 204.461 25.8229C203.141 25.762 201.82 25.7011 200.608 25.7697C193.002 25.6577 185.491 25.4048 177.986 25.287C176.565 25.2319 175.043 25.1824 173.621 25.1272C171.492 25.1121 169.364 25.097 167.343 25.2114C159.643 25.2404 151.943 25.2695 144.244 25.2985C142.519 25.2605 140.801 25.3577 139.178 25.314C138.774 25.3369 138.269 25.3655 137.864 25.3884C136.652 25.457 135.439 25.5257 134.321 25.4534C126.628 25.6176 118.841 25.9229 111.148 26.0872C107.605 26.1522 104.062 26.2172 100.525 26.4174C89.1008 26.9287 77.5752 27.4457 66.1506 27.957C54.2277 28.6321 42.5001 29.1606 30.8803 29.8186Z" fill="#FBBB5B"/>
</g>
<defs>
<clipPath id="clip0_562_9820">
<rect width="272.514" height="40.6644" fill="white" transform="matrix(-0.9984 0.0565362 0.0505801 0.99872 272.853 0.516418)"/>
</clipPath>
</defs>
</svg>
