<svg width="50" height="50" viewBox="0 0 50 50" fill="none" xmlns="http://www.w3.org/2000/svg">
<path d="M39.5833 4.16699H10.4166C9.26599 4.16699 8.33325 5.09973 8.33325 6.25033V43.7503C8.33325 44.9009 9.26599 45.8337 10.4166 45.8337H39.5833C40.7338 45.8337 41.6666 44.9009 41.6666 43.7503V6.25033C41.6666 5.09973 40.7338 4.16699 39.5833 4.16699Z" stroke="#FBBB5B" stroke-width="3" stroke-linejoin="round"/>
<path d="M21.875 14.584H34.375M21.875 25.0007H34.375M21.875 35.4173H34.375" stroke="#FBBB5B" stroke-width="3" stroke-linecap="round" stroke-linejoin="round"/>
<path fill-rule="evenodd" clip-rule="evenodd" d="M15.6248 16.6667C16.1774 16.6667 16.7073 16.4472 17.098 16.0565C17.4887 15.6658 17.7082 15.1359 17.7082 14.5833C17.7082 14.0308 17.4887 13.5009 17.098 13.1102C16.7073 12.7195 16.1774 12.5 15.6248 12.5C15.0723 12.5 14.5424 12.7195 14.1517 13.1102C13.761 13.5009 13.5415 14.0308 13.5415 14.5833C13.5415 15.1359 13.761 15.6658 14.1517 16.0565C14.5424 16.4472 15.0723 16.6667 15.6248 16.6667ZM15.6248 27.0833C16.1774 27.0833 16.7073 26.8638 17.098 26.4731C17.4887 26.0824 17.7082 25.5525 17.7082 25C17.7082 24.4475 17.4887 23.9176 17.098 23.5269C16.7073 23.1362 16.1774 22.9167 15.6248 22.9167C15.0723 22.9167 14.5424 23.1362 14.1517 23.5269C13.761 23.9176 13.5415 24.4475 13.5415 25C13.5415 25.5525 13.761 26.0824 14.1517 26.4731C14.5424 26.8638 15.0723 27.0833 15.6248 27.0833ZM15.6248 37.5C16.1774 37.5 16.7073 37.2805 17.098 36.8898C17.4887 36.4991 17.7082 35.9692 17.7082 35.4167C17.7082 34.8641 17.4887 34.3342 17.098 33.9435C16.7073 33.5528 16.1774 33.3333 15.6248 33.3333C15.0723 33.3333 14.5424 33.5528 14.1517 33.9435C13.761 34.3342 13.5415 34.8641 13.5415 35.4167C13.5415 35.9692 13.761 36.4991 14.1517 36.8898C14.5424 37.2805 15.0723 37.5 15.6248 37.5Z" fill="#FBBB5B"/>
</svg>
