<svg width="50" height="51" viewBox="0 0 50 51" fill="none" xmlns="http://www.w3.org/2000/svg">
<path d="M42.7083 6.74609H7.29163C5.56574 6.74609 4.16663 8.1452 4.16663 9.87109V34.8711C4.16663 36.597 5.56574 37.9961 7.29163 37.9961H42.7083C44.4342 37.9961 45.8333 36.597 45.8333 34.8711V9.87109C45.8333 8.1452 44.4342 6.74609 42.7083 6.74609Z" stroke="#FBBB5B" stroke-width="3" stroke-linecap="round" stroke-linejoin="round"/>
<path d="M25 37.9958V45.2874M33.3333 15.0791L16.6666 29.6624M10.4166 45.2874H39.5833" stroke="#FBBB5B" stroke-width="3" stroke-linecap="round" stroke-linejoin="round"/>
<path d="M15.625 21.3291C17.3509 21.3291 18.75 19.93 18.75 18.2041C18.75 16.4782 17.3509 15.0791 15.625 15.0791C13.8991 15.0791 12.5 16.4782 12.5 18.2041C12.5 19.93 13.8991 21.3291 15.625 21.3291Z" stroke="#FBBB5B" stroke-width="3" stroke-linecap="round" stroke-linejoin="round"/>
<path d="M34.375 29.6631C36.1009 29.6631 37.5 28.264 37.5 26.5381C37.5 24.8122 36.1009 23.4131 34.375 23.4131C32.6491 23.4131 31.25 24.8122 31.25 26.5381C31.25 28.264 32.6491 29.6631 34.375 29.6631Z" stroke="#FBBB5B" stroke-width="3" stroke-linecap="round" stroke-linejoin="round"/>
</svg>
