<svg width="119" height="7" viewBox="0 0 119 7" fill="none" xmlns="http://www.w3.org/2000/svg">
<path d="M109.686 1.89801C107.13 1.68145 104.53 1.46407 101.93 1.2467C101.093 1.17478 100.211 1.15852 99.3733 1.0866C97.5212 0.995981 95.6692 0.90536 93.8172 0.81474C92.8035 0.73957 91.7446 0.720053 90.7308 0.644884C90.422 0.639191 90.1131 0.633499 89.8484 0.62862C89.1866 0.616421 88.5248 0.604223 87.8189 0.591212C84.7745 0.5351 81.7302 0.478988 78.6859 0.422876C77.98 0.409865 77.2299 0.39604 76.5229 0.439494C74.7129 0.462618 72.9481 0.430089 71.1381 0.453213C69.1075 0.472271 67.078 0.434863 65.0474 0.45392C61.7804 0.506673 58.4693 0.558613 55.2022 0.611366C53.304 0.632863 51.4058 0.654361 49.5076 0.675858C46.2395 0.785076 42.9715 0.894295 39.7034 1.00351C37.8924 1.0831 36.1265 1.10704 34.3155 1.18663C30.913 1.40634 27.5115 1.56958 24.1101 1.73283C22.299 1.81242 20.488 1.892 18.6759 2.02806C15.3165 2.30505 11.912 2.63769 8.5515 2.97114C7.84453 3.0146 7.0924 3.1137 6.3413 3.15634C4.92632 3.29972 3.46513 3.55521 2.00499 3.75423C1.91675 3.75261 1.82747 3.80745 1.73922 3.80582C1.56274 3.80257 1.4283 3.91306 1.29281 4.08001C1.06701 4.35828 0.972521 4.69544 0.966277 5.03423C0.960032 5.37303 1.04203 5.71345 1.25847 5.94337C1.43079 6.17249 1.73651 6.34758 1.95711 6.35164C3.7261 6.15831 5.45201 5.9077 7.221 5.71437C8.85659 5.57506 10.4922 5.43575 12.1278 5.29644C13.8957 5.15958 15.6647 4.96624 17.4768 4.83019C18.1837 4.78673 18.8918 4.68681 19.6428 4.64417C22.4256 4.52601 25.1652 4.35057 27.9479 4.2324C29.6707 4.15119 31.3935 4.06997 33.1163 3.98876C33.8233 3.9453 34.5302 3.90185 35.2372 3.85839C37.9758 3.73942 40.7134 3.67691 43.452 3.55793C45.1296 3.53237 46.7642 3.44952 48.4418 3.42396C49.0154 3.43453 49.5458 3.38783 50.1194 3.3984C53.0776 3.33995 56.0347 3.33797 58.9929 3.27953C60.6264 3.25315 62.304 3.22759 63.9375 3.20121C64.5111 3.21178 65.1298 3.1667 65.7034 3.17727C68.7487 3.17692 71.7931 3.23303 74.8825 3.23349C76.7797 3.26846 78.678 3.24696 80.5752 3.28193C83.796 3.34129 87.0609 3.40147 90.2807 3.5173C90.8984 3.52869 91.5591 3.59735 92.1768 3.60874C93.9847 3.69854 95.7485 3.78754 97.5554 3.93381C98.878 4.01467 100.245 4.09635 101.567 4.17721C102.537 4.25157 103.462 4.32511 104.432 4.39946C107.208 4.62009 110.028 4.898 112.803 5.1751C113.508 5.24457 114.213 5.31405 114.918 5.38353C115.667 5.45382 116.46 5.52492 117.208 5.65167C117.341 5.65411 117.428 5.71221 117.559 5.77111C117.867 5.83327 118.132 5.83815 118.401 5.61717C118.668 5.45265 118.851 5.11711 118.946 4.77994C119.136 4.04915 118.797 3.25212 118.184 3.01488C117.657 2.83572 117.129 2.7695 116.646 2.64762C116.294 2.58465 115.942 2.52168 115.589 2.51517C114.885 2.38923 114.179 2.37622 113.519 2.25109C112.285 2.17185 110.963 2.03453 109.686 1.89801Z" fill="#FBBB5B"/>
</svg>
