<?xml version="1.0" standalone="no"?>
<!DOCTYPE svg PUBLIC "-//W3C//DTD SVG 1.1//EN" "http://www.w3.org/Graphics/SVG/1.1/DTD/svg11.dtd" >
<svg xmlns="http://www.w3.org/2000/svg" xmlns:xlink="http://www.w3.org/1999/xlink" version="1.1">
<metadata>
Created by FontForge 20201107 at Mon Nov  8 15:01:01 2021
 By Unknown
Copyright \(c\) 2021 by Connary Fagen. All rights reserved.
</metadata>
<defs>
<font id="FONTSPRINGDEMO-GreycliffCFExtraBoldRegular" horiz-adv-x="598" >
  <font-face 
    font-family="FONTSPRING DEMO - Greycliff CF Extra Bold"
    font-weight="800"
    font-stretch="normal"
    units-per-em="1000"
    panose-1="0 0 0 0 0 0 0 0 0 0"
    ascent="800"
    descent="-200"
    x-height="490"
    cap-height="700"
    bbox="-49 -205 1050.96 735"
    underline-thickness="50"
    underline-position="-125"
    stemh="140"
    stemv="29"
    unicode-range="U+0020-007E"
  />
<missing-glyph 
d="M101 197c-3 0 -6 0 -9 -1v-98c2 -1 6 -1 9 -1c26 0 31 19 31 50c0 32 -5 50 -31 50v0zM253 161v-24h-40v-38h47v-24h-76v145h76v-25h-47v-34h40zM99 73c-8 0 -23 0 -36 2v143c13 2 27 4 37 4c45 0 61 -25 61 -75c0 -51 -17 -74 -62 -74v0zM286 220h39l19 -80l19 80h40
c2 -35 4 -98 6 -145h-29c0 34 -1 70 -3 104l-20 -82h-27l-20 82h-1c-1 -34 -2 -70 -2 -104h-28c1 47 4 110 7 145v0zM482 73c-40 0 -53 23 -53 74s13 75 53 75s54 -24 54 -75s-14 -74 -54 -74v0zM482 197c-20 0 -24 -17 -24 -50c0 -32 4 -50 24 -50c21 0 25 18 25 50
c0 33 -4 50 -25 50zM472 496c52 0 62 -42 62 -63c0 -31 -31 -49 -52 -52c-72 -8 -124 -31 -166 -72c0 0 73 187 156 187v0zM139 444c94 0 156 -187 156 -187c-41 52 -93 72 -156 72c-31 0 -62 21 -62 52c0 32 21 63 62 63v0zM314 593c67 -65 -19 -243 -19 -243
c7 66 -16 118 -61 161c-22 22 -30 58 -9 81c22 22 59 30 89 1v0z" />
    <glyph glyph-name=".notdef" 
d="M101 197c-3 0 -6 0 -9 -1v-98c2 -1 6 -1 9 -1c26 0 31 19 31 50c0 32 -5 50 -31 50v0zM253 161v-24h-40v-38h47v-24h-76v145h76v-25h-47v-34h40zM99 73c-8 0 -23 0 -36 2v143c13 2 27 4 37 4c45 0 61 -25 61 -75c0 -51 -17 -74 -62 -74v0zM286 220h39l19 -80l19 80h40
c2 -35 4 -98 6 -145h-29c0 34 -1 70 -3 104l-20 -82h-27l-20 82h-1c-1 -34 -2 -70 -2 -104h-28c1 47 4 110 7 145v0zM482 73c-40 0 -53 23 -53 74s13 75 53 75s54 -24 54 -75s-14 -74 -54 -74v0zM482 197c-20 0 -24 -17 -24 -50c0 -32 4 -50 24 -50c21 0 25 18 25 50
c0 33 -4 50 -25 50zM472 496c52 0 62 -42 62 -63c0 -31 -31 -49 -52 -52c-72 -8 -124 -31 -166 -72c0 0 73 187 156 187v0zM139 444c94 0 156 -187 156 -187c-41 52 -93 72 -156 72c-31 0 -62 21 -62 52c0 32 21 63 62 63v0zM314 593c67 -65 -19 -243 -19 -243
c7 66 -16 118 -61 161c-22 22 -30 58 -9 81c22 22 59 30 89 1v0z" />
    <glyph glyph-name="space" unicode=" " horiz-adv-x="194" 
 />
    <glyph glyph-name="exclam" unicode="!" 
d="M101 197c-3 0 -6 0 -9 -1v-98c2 -1 6 -1 9 -1c26 0 31 19 31 50c0 32 -5 50 -31 50v0zM253 161v-24h-40v-38h47v-24h-76v145h76v-25h-47v-34h40zM99 73c-8 0 -23 0 -36 2v143c13 2 27 4 37 4c45 0 61 -25 61 -75c0 -51 -17 -74 -62 -74v0zM286 220h39l19 -80l19 80h40
c2 -35 4 -98 6 -145h-29c0 34 -1 70 -3 104l-20 -82h-27l-20 82h-1c-1 -34 -2 -70 -2 -104h-28c1 47 4 110 7 145v0zM482 73c-40 0 -53 23 -53 74s13 75 53 75s54 -24 54 -75s-14 -74 -54 -74v0zM482 197c-20 0 -24 -17 -24 -50c0 -32 4 -50 24 -50c21 0 25 18 25 50
c0 33 -4 50 -25 50zM472 496c52 0 62 -42 62 -63c0 -31 -31 -49 -52 -52c-72 -8 -124 -31 -166 -72c0 0 73 187 156 187v0zM139 444c94 0 156 -187 156 -187c-41 52 -93 72 -156 72c-31 0 -62 21 -62 52c0 32 21 63 62 63v0zM314 593c67 -65 -19 -243 -19 -243
c7 66 -16 118 -61 161c-22 22 -30 58 -9 81c22 22 59 30 89 1v0z" />
    <glyph glyph-name="quotedbl" unicode="&#x22;" 
d="M101 197c-3 0 -6 0 -9 -1v-98c2 -1 6 -1 9 -1c26 0 31 19 31 50c0 32 -5 50 -31 50v0zM253 161v-24h-40v-38h47v-24h-76v145h76v-25h-47v-34h40zM99 73c-8 0 -23 0 -36 2v143c13 2 27 4 37 4c45 0 61 -25 61 -75c0 -51 -17 -74 -62 -74v0zM286 220h39l19 -80l19 80h40
c2 -35 4 -98 6 -145h-29c0 34 -1 70 -3 104l-20 -82h-27l-20 82h-1c-1 -34 -2 -70 -2 -104h-28c1 47 4 110 7 145v0zM482 73c-40 0 -53 23 -53 74s13 75 53 75s54 -24 54 -75s-14 -74 -54 -74v0zM482 197c-20 0 -24 -17 -24 -50c0 -32 4 -50 24 -50c21 0 25 18 25 50
c0 33 -4 50 -25 50zM472 496c52 0 62 -42 62 -63c0 -31 -31 -49 -52 -52c-72 -8 -124 -31 -166 -72c0 0 73 187 156 187v0zM139 444c94 0 156 -187 156 -187c-41 52 -93 72 -156 72c-31 0 -62 21 -62 52c0 32 21 63 62 63v0zM314 593c67 -65 -19 -243 -19 -243
c7 66 -16 118 -61 161c-22 22 -30 58 -9 81c22 22 59 30 89 1v0z" />
    <glyph glyph-name="numbersign" unicode="#" 
d="M101 197c-3 0 -6 0 -9 -1v-98c2 -1 6 -1 9 -1c26 0 31 19 31 50c0 32 -5 50 -31 50v0zM253 161v-24h-40v-38h47v-24h-76v145h76v-25h-47v-34h40zM99 73c-8 0 -23 0 -36 2v143c13 2 27 4 37 4c45 0 61 -25 61 -75c0 -51 -17 -74 -62 -74v0zM286 220h39l19 -80l19 80h40
c2 -35 4 -98 6 -145h-29c0 34 -1 70 -3 104l-20 -82h-27l-20 82h-1c-1 -34 -2 -70 -2 -104h-28c1 47 4 110 7 145v0zM482 73c-40 0 -53 23 -53 74s13 75 53 75s54 -24 54 -75s-14 -74 -54 -74v0zM482 197c-20 0 -24 -17 -24 -50c0 -32 4 -50 24 -50c21 0 25 18 25 50
c0 33 -4 50 -25 50zM472 496c52 0 62 -42 62 -63c0 -31 -31 -49 -52 -52c-72 -8 -124 -31 -166 -72c0 0 73 187 156 187v0zM139 444c94 0 156 -187 156 -187c-41 52 -93 72 -156 72c-31 0 -62 21 -62 52c0 32 21 63 62 63v0zM314 593c67 -65 -19 -243 -19 -243
c7 66 -16 118 -61 161c-22 22 -30 58 -9 81c22 22 59 30 89 1v0z" />
    <glyph glyph-name="dollar" unicode="$" 
d="M101 197c-3 0 -6 0 -9 -1v-98c2 -1 6 -1 9 -1c26 0 31 19 31 50c0 32 -5 50 -31 50v0zM253 161v-24h-40v-38h47v-24h-76v145h76v-25h-47v-34h40zM99 73c-8 0 -23 0 -36 2v143c13 2 27 4 37 4c45 0 61 -25 61 -75c0 -51 -17 -74 -62 -74v0zM286 220h39l19 -80l19 80h40
c2 -35 4 -98 6 -145h-29c0 34 -1 70 -3 104l-20 -82h-27l-20 82h-1c-1 -34 -2 -70 -2 -104h-28c1 47 4 110 7 145v0zM482 73c-40 0 -53 23 -53 74s13 75 53 75s54 -24 54 -75s-14 -74 -54 -74v0zM482 197c-20 0 -24 -17 -24 -50c0 -32 4 -50 24 -50c21 0 25 18 25 50
c0 33 -4 50 -25 50zM472 496c52 0 62 -42 62 -63c0 -31 -31 -49 -52 -52c-72 -8 -124 -31 -166 -72c0 0 73 187 156 187v0zM139 444c94 0 156 -187 156 -187c-41 52 -93 72 -156 72c-31 0 -62 21 -62 52c0 32 21 63 62 63v0zM314 593c67 -65 -19 -243 -19 -243
c7 66 -16 118 -61 161c-22 22 -30 58 -9 81c22 22 59 30 89 1v0z" />
    <glyph glyph-name="percent" unicode="%" 
d="M101 197c-3 0 -6 0 -9 -1v-98c2 -1 6 -1 9 -1c26 0 31 19 31 50c0 32 -5 50 -31 50v0zM253 161v-24h-40v-38h47v-24h-76v145h76v-25h-47v-34h40zM99 73c-8 0 -23 0 -36 2v143c13 2 27 4 37 4c45 0 61 -25 61 -75c0 -51 -17 -74 -62 -74v0zM286 220h39l19 -80l19 80h40
c2 -35 4 -98 6 -145h-29c0 34 -1 70 -3 104l-20 -82h-27l-20 82h-1c-1 -34 -2 -70 -2 -104h-28c1 47 4 110 7 145v0zM482 73c-40 0 -53 23 -53 74s13 75 53 75s54 -24 54 -75s-14 -74 -54 -74v0zM482 197c-20 0 -24 -17 -24 -50c0 -32 4 -50 24 -50c21 0 25 18 25 50
c0 33 -4 50 -25 50zM472 496c52 0 62 -42 62 -63c0 -31 -31 -49 -52 -52c-72 -8 -124 -31 -166 -72c0 0 73 187 156 187v0zM139 444c94 0 156 -187 156 -187c-41 52 -93 72 -156 72c-31 0 -62 21 -62 52c0 32 21 63 62 63v0zM314 593c67 -65 -19 -243 -19 -243
c7 66 -16 118 -61 161c-22 22 -30 58 -9 81c22 22 59 30 89 1v0z" />
    <glyph glyph-name="ampersand" unicode="&#x26;" 
d="M101 197c-3 0 -6 0 -9 -1v-98c2 -1 6 -1 9 -1c26 0 31 19 31 50c0 32 -5 50 -31 50v0zM253 161v-24h-40v-38h47v-24h-76v145h76v-25h-47v-34h40zM99 73c-8 0 -23 0 -36 2v143c13 2 27 4 37 4c45 0 61 -25 61 -75c0 -51 -17 -74 -62 -74v0zM286 220h39l19 -80l19 80h40
c2 -35 4 -98 6 -145h-29c0 34 -1 70 -3 104l-20 -82h-27l-20 82h-1c-1 -34 -2 -70 -2 -104h-28c1 47 4 110 7 145v0zM482 73c-40 0 -53 23 -53 74s13 75 53 75s54 -24 54 -75s-14 -74 -54 -74v0zM482 197c-20 0 -24 -17 -24 -50c0 -32 4 -50 24 -50c21 0 25 18 25 50
c0 33 -4 50 -25 50zM472 496c52 0 62 -42 62 -63c0 -31 -31 -49 -52 -52c-72 -8 -124 -31 -166 -72c0 0 73 187 156 187v0zM139 444c94 0 156 -187 156 -187c-41 52 -93 72 -156 72c-31 0 -62 21 -62 52c0 32 21 63 62 63v0zM314 593c67 -65 -19 -243 -19 -243
c7 66 -16 118 -61 161c-22 22 -30 58 -9 81c22 22 59 30 89 1v0z" />
    <glyph glyph-name="quotesingle" unicode="'" 
d="M101 197c-3 0 -6 0 -9 -1v-98c2 -1 6 -1 9 -1c26 0 31 19 31 50c0 32 -5 50 -31 50v0zM253 161v-24h-40v-38h47v-24h-76v145h76v-25h-47v-34h40zM99 73c-8 0 -23 0 -36 2v143c13 2 27 4 37 4c45 0 61 -25 61 -75c0 -51 -17 -74 -62 -74v0zM286 220h39l19 -80l19 80h40
c2 -35 4 -98 6 -145h-29c0 34 -1 70 -3 104l-20 -82h-27l-20 82h-1c-1 -34 -2 -70 -2 -104h-28c1 47 4 110 7 145v0zM482 73c-40 0 -53 23 -53 74s13 75 53 75s54 -24 54 -75s-14 -74 -54 -74v0zM482 197c-20 0 -24 -17 -24 -50c0 -32 4 -50 24 -50c21 0 25 18 25 50
c0 33 -4 50 -25 50zM472 496c52 0 62 -42 62 -63c0 -31 -31 -49 -52 -52c-72 -8 -124 -31 -166 -72c0 0 73 187 156 187v0zM139 444c94 0 156 -187 156 -187c-41 52 -93 72 -156 72c-31 0 -62 21 -62 52c0 32 21 63 62 63v0zM314 593c67 -65 -19 -243 -19 -243
c7 66 -16 118 -61 161c-22 22 -30 58 -9 81c22 22 59 30 89 1v0z" />
    <glyph glyph-name="parenleft" unicode="(" 
d="M101 197c-3 0 -6 0 -9 -1v-98c2 -1 6 -1 9 -1c26 0 31 19 31 50c0 32 -5 50 -31 50v0zM253 161v-24h-40v-38h47v-24h-76v145h76v-25h-47v-34h40zM99 73c-8 0 -23 0 -36 2v143c13 2 27 4 37 4c45 0 61 -25 61 -75c0 -51 -17 -74 -62 -74v0zM286 220h39l19 -80l19 80h40
c2 -35 4 -98 6 -145h-29c0 34 -1 70 -3 104l-20 -82h-27l-20 82h-1c-1 -34 -2 -70 -2 -104h-28c1 47 4 110 7 145v0zM482 73c-40 0 -53 23 -53 74s13 75 53 75s54 -24 54 -75s-14 -74 -54 -74v0zM482 197c-20 0 -24 -17 -24 -50c0 -32 4 -50 24 -50c21 0 25 18 25 50
c0 33 -4 50 -25 50zM472 496c52 0 62 -42 62 -63c0 -31 -31 -49 -52 -52c-72 -8 -124 -31 -166 -72c0 0 73 187 156 187v0zM139 444c94 0 156 -187 156 -187c-41 52 -93 72 -156 72c-31 0 -62 21 -62 52c0 32 21 63 62 63v0zM314 593c67 -65 -19 -243 -19 -243
c7 66 -16 118 -61 161c-22 22 -30 58 -9 81c22 22 59 30 89 1v0z" />
    <glyph glyph-name="parenright" unicode=")" 
d="M101 197c-3 0 -6 0 -9 -1v-98c2 -1 6 -1 9 -1c26 0 31 19 31 50c0 32 -5 50 -31 50v0zM253 161v-24h-40v-38h47v-24h-76v145h76v-25h-47v-34h40zM99 73c-8 0 -23 0 -36 2v143c13 2 27 4 37 4c45 0 61 -25 61 -75c0 -51 -17 -74 -62 -74v0zM286 220h39l19 -80l19 80h40
c2 -35 4 -98 6 -145h-29c0 34 -1 70 -3 104l-20 -82h-27l-20 82h-1c-1 -34 -2 -70 -2 -104h-28c1 47 4 110 7 145v0zM482 73c-40 0 -53 23 -53 74s13 75 53 75s54 -24 54 -75s-14 -74 -54 -74v0zM482 197c-20 0 -24 -17 -24 -50c0 -32 4 -50 24 -50c21 0 25 18 25 50
c0 33 -4 50 -25 50zM472 496c52 0 62 -42 62 -63c0 -31 -31 -49 -52 -52c-72 -8 -124 -31 -166 -72c0 0 73 187 156 187v0zM139 444c94 0 156 -187 156 -187c-41 52 -93 72 -156 72c-31 0 -62 21 -62 52c0 32 21 63 62 63v0zM314 593c67 -65 -19 -243 -19 -243
c7 66 -16 118 -61 161c-22 22 -30 58 -9 81c22 22 59 30 89 1v0z" />
    <glyph glyph-name="asterisk" unicode="*" 
d="M101 197c-3 0 -6 0 -9 -1v-98c2 -1 6 -1 9 -1c26 0 31 19 31 50c0 32 -5 50 -31 50v0zM253 161v-24h-40v-38h47v-24h-76v145h76v-25h-47v-34h40zM99 73c-8 0 -23 0 -36 2v143c13 2 27 4 37 4c45 0 61 -25 61 -75c0 -51 -17 -74 -62 -74v0zM286 220h39l19 -80l19 80h40
c2 -35 4 -98 6 -145h-29c0 34 -1 70 -3 104l-20 -82h-27l-20 82h-1c-1 -34 -2 -70 -2 -104h-28c1 47 4 110 7 145v0zM482 73c-40 0 -53 23 -53 74s13 75 53 75s54 -24 54 -75s-14 -74 -54 -74v0zM482 197c-20 0 -24 -17 -24 -50c0 -32 4 -50 24 -50c21 0 25 18 25 50
c0 33 -4 50 -25 50zM472 496c52 0 62 -42 62 -63c0 -31 -31 -49 -52 -52c-72 -8 -124 -31 -166 -72c0 0 73 187 156 187v0zM139 444c94 0 156 -187 156 -187c-41 52 -93 72 -156 72c-31 0 -62 21 -62 52c0 32 21 63 62 63v0zM314 593c67 -65 -19 -243 -19 -243
c7 66 -16 118 -61 161c-22 22 -30 58 -9 81c22 22 59 30 89 1v0z" />
    <glyph glyph-name="plus" unicode="+" 
d="M101 197c-3 0 -6 0 -9 -1v-98c2 -1 6 -1 9 -1c26 0 31 19 31 50c0 32 -5 50 -31 50v0zM253 161v-24h-40v-38h47v-24h-76v145h76v-25h-47v-34h40zM99 73c-8 0 -23 0 -36 2v143c13 2 27 4 37 4c45 0 61 -25 61 -75c0 -51 -17 -74 -62 -74v0zM286 220h39l19 -80l19 80h40
c2 -35 4 -98 6 -145h-29c0 34 -1 70 -3 104l-20 -82h-27l-20 82h-1c-1 -34 -2 -70 -2 -104h-28c1 47 4 110 7 145v0zM482 73c-40 0 -53 23 -53 74s13 75 53 75s54 -24 54 -75s-14 -74 -54 -74v0zM482 197c-20 0 -24 -17 -24 -50c0 -32 4 -50 24 -50c21 0 25 18 25 50
c0 33 -4 50 -25 50zM472 496c52 0 62 -42 62 -63c0 -31 -31 -49 -52 -52c-72 -8 -124 -31 -166 -72c0 0 73 187 156 187v0zM139 444c94 0 156 -187 156 -187c-41 52 -93 72 -156 72c-31 0 -62 21 -62 52c0 32 21 63 62 63v0zM314 593c67 -65 -19 -243 -19 -243
c7 66 -16 118 -61 161c-22 22 -30 58 -9 81c22 22 59 30 89 1v0z" />
    <glyph glyph-name="comma" unicode="," horiz-adv-x="267" 
d="M41 -97c74 -1 120 86 85 86c-47 0 -88 40 -88 89s41 89 91 89c49 0 99 -35 99 -118c0 -124 -114 -184 -187 -179v33z" />
    <glyph glyph-name="hyphen" unicode="-" 
d="M101 197c-3 0 -6 0 -9 -1v-98c2 -1 6 -1 9 -1c26 0 31 19 31 50c0 32 -5 50 -31 50v0zM253 161v-24h-40v-38h47v-24h-76v145h76v-25h-47v-34h40zM99 73c-8 0 -23 0 -36 2v143c13 2 27 4 37 4c45 0 61 -25 61 -75c0 -51 -17 -74 -62 -74v0zM286 220h39l19 -80l19 80h40
c2 -35 4 -98 6 -145h-29c0 34 -1 70 -3 104l-20 -82h-27l-20 82h-1c-1 -34 -2 -70 -2 -104h-28c1 47 4 110 7 145v0zM482 73c-40 0 -53 23 -53 74s13 75 53 75s54 -24 54 -75s-14 -74 -54 -74v0zM482 197c-20 0 -24 -17 -24 -50c0 -32 4 -50 24 -50c21 0 25 18 25 50
c0 33 -4 50 -25 50zM472 496c52 0 62 -42 62 -63c0 -31 -31 -49 -52 -52c-72 -8 -124 -31 -166 -72c0 0 73 187 156 187v0zM139 444c94 0 156 -187 156 -187c-41 52 -93 72 -156 72c-31 0 -62 21 -62 52c0 32 21 63 62 63v0zM314 593c67 -65 -19 -243 -19 -243
c7 66 -16 118 -61 161c-22 22 -30 58 -9 81c22 22 59 30 89 1v0z" />
    <glyph glyph-name="period" unicode="." horiz-adv-x="256" 
d="M128 -13c-50 0 -89 40 -89 89c0 50 39 91 89 91s89 -41 89 -91c0 -49 -39 -89 -89 -89z" />
    <glyph glyph-name="slash" unicode="/" 
d="M101 197c-3 0 -6 0 -9 -1v-98c2 -1 6 -1 9 -1c26 0 31 19 31 50c0 32 -5 50 -31 50v0zM253 161v-24h-40v-38h47v-24h-76v145h76v-25h-47v-34h40zM99 73c-8 0 -23 0 -36 2v143c13 2 27 4 37 4c45 0 61 -25 61 -75c0 -51 -17 -74 -62 -74v0zM286 220h39l19 -80l19 80h40
c2 -35 4 -98 6 -145h-29c0 34 -1 70 -3 104l-20 -82h-27l-20 82h-1c-1 -34 -2 -70 -2 -104h-28c1 47 4 110 7 145v0zM482 73c-40 0 -53 23 -53 74s13 75 53 75s54 -24 54 -75s-14 -74 -54 -74v0zM482 197c-20 0 -24 -17 -24 -50c0 -32 4 -50 24 -50c21 0 25 18 25 50
c0 33 -4 50 -25 50zM472 496c52 0 62 -42 62 -63c0 -31 -31 -49 -52 -52c-72 -8 -124 -31 -166 -72c0 0 73 187 156 187v0zM139 444c94 0 156 -187 156 -187c-41 52 -93 72 -156 72c-31 0 -62 21 -62 52c0 32 21 63 62 63v0zM314 593c67 -65 -19 -243 -19 -243
c7 66 -16 118 -61 161c-22 22 -30 58 -9 81c22 22 59 30 89 1v0z" />
    <glyph glyph-name="zero" unicode="0" horiz-adv-x="659" 
d="M330 -13c-144 0 -286 104 -286 360s142 361 286 361c145 0 286 -105 286 -361s-141 -360 -286 -360zM192 347c0 -123 39 -219 138 -219c98 0 137 96 137 219s-39 220 -137 220c-99 0 -138 -97 -138 -220z" />
    <glyph glyph-name="one" unicode="1" horiz-adv-x="378" 
d="M182 0c-9 0 -15 6 -15 15v555h-118c-9 0 -15 7 -15 16v99c0 9 6 15 15 15h255c9 0 16 -6 16 -15v-670c0 -9 -7 -15 -16 -15h-122z" />
    <glyph glyph-name="two" unicode="2" horiz-adv-x="539" 
d="M66 0c-9 0 -16 6 -16 15v98c0 7 2 12 7 19l208 211c28 28 79 75 79 137c0 52 -38 88 -96 88c-54 0 -85 -32 -111 -66c-8 -9 -14 -8 -23 0l-69 69c-7 7 -7 16 -2 22c40 58 109 115 218 115c137 0 232 -91 232 -214c0 -104 -66 -166 -93 -194l-167 -170h245
c9 0 16 -7 16 -16v-99c0 -9 -7 -15 -16 -15h-412z" />
    <glyph glyph-name="three" unicode="3" horiz-adv-x="522" 
d="M252 -13c-104 0 -177 49 -215 109c-6 8 -3 17 3 21l75 69c6 6 14 6 22 -2c27 -32 59 -57 105 -57c62 0 94 42 94 87c0 38 -24 85 -94 85h-28c-10 0 -17 6 -17 16v91c0 11 7 16 17 16h27c57 0 77 38 77 72c0 44 -35 74 -80 74c-39 0 -71 -21 -89 -53
c-6 -11 -15 -10 -23 -2l-70 68c-7 5 -9 14 -4 22c38 60 110 105 202 105c112 0 213 -68 213 -187c0 -80 -48 -129 -96 -150c61 -25 120 -80 120 -175c0 -127 -106 -209 -239 -209z" />
    <glyph glyph-name="four" unicode="4" 
d="M101 197c-3 0 -6 0 -9 -1v-98c2 -1 6 -1 9 -1c26 0 31 19 31 50c0 32 -5 50 -31 50v0zM253 161v-24h-40v-38h47v-24h-76v145h76v-25h-47v-34h40zM99 73c-8 0 -23 0 -36 2v143c13 2 27 4 37 4c45 0 61 -25 61 -75c0 -51 -17 -74 -62 -74v0zM286 220h39l19 -80l19 80h40
c2 -35 4 -98 6 -145h-29c0 34 -1 70 -3 104l-20 -82h-27l-20 82h-1c-1 -34 -2 -70 -2 -104h-28c1 47 4 110 7 145v0zM482 73c-40 0 -53 23 -53 74s13 75 53 75s54 -24 54 -75s-14 -74 -54 -74v0zM482 197c-20 0 -24 -17 -24 -50c0 -32 4 -50 24 -50c21 0 25 18 25 50
c0 33 -4 50 -25 50zM472 496c52 0 62 -42 62 -63c0 -31 -31 -49 -52 -52c-72 -8 -124 -31 -166 -72c0 0 73 187 156 187v0zM139 444c94 0 156 -187 156 -187c-41 52 -93 72 -156 72c-31 0 -62 21 -62 52c0 32 21 63 62 63v0zM314 593c67 -65 -19 -243 -19 -243
c7 66 -16 118 -61 161c-22 22 -30 58 -9 81c22 22 59 30 89 1v0z" />
    <glyph glyph-name="five" unicode="5" horiz-adv-x="543" 
d="M256 -13c-110 0 -182 58 -211 109c-5 10 -3 18 7 25l81 61c9 8 19 4 25 -4c21 -29 51 -51 96 -51c70 0 110 52 110 108c0 60 -45 106 -108 106c-33 0 -60 -14 -80 -32c-6 -7 -14 -12 -25 -9l-86 34c-8 4 -12 9 -10 18l76 335c2 8 7 13 16 13h305c9 0 16 -6 16 -15v-99
c0 -9 -7 -16 -16 -16h-208l-26 -113c18 4 42 11 75 11c130 0 220 -104 220 -236c0 -149 -114 -245 -257 -245z" />
    <glyph glyph-name="six" unicode="6" horiz-adv-x="566" 
d="M284 -13c-140 0 -253 105 -253 243c0 66 25 132 90 212l220 271c6 7 13 10 22 3l82 -73c9 -7 11 -13 4 -21l-130 -149c2 -1 5 -2 10 -2c99 0 207 -106 207 -242c0 -138 -113 -242 -252 -242zM179 235c0 -61 44 -108 104 -108c62 0 105 47 105 108s-44 107 -105 107
c-60 0 -104 -46 -104 -107z" />
    <glyph glyph-name="seven" unicode="7" horiz-adv-x="527" 
d="M99 0c-9 0 -17 6 -11 18l223 552h-262c-9 0 -15 7 -15 16v99c0 9 6 15 15 15h436c10 0 15 -8 11 -19l-259 -666c-3 -9 -8 -15 -20 -15h-118z" />
    <glyph glyph-name="eight" unicode="8" horiz-adv-x="586" 
d="M293 -13c-125 0 -249 80 -249 222c0 88 47 155 114 189c-39 31 -67 76 -67 134c0 97 79 176 202 176s202 -79 202 -176c0 -58 -28 -103 -67 -134c67 -34 114 -101 114 -189c0 -141 -124 -222 -249 -222zM197 217c0 -58 44 -90 96 -90s96 33 96 90c0 62 -49 96 -96 96
s-96 -34 -96 -96zM226 520c0 -38 28 -68 67 -68c38 0 67 30 67 68c0 37 -29 68 -67 68s-67 -31 -67 -68z" />
    <glyph glyph-name="nine" unicode="9" horiz-adv-x="566" 
d="M121 52c-8 7 -11 14 -4 22l130 148c-2 2 -5 2 -9 2c-99 0 -207 106 -207 242c0 138 112 242 252 242s253 -105 253 -243c0 -66 -26 -132 -90 -212l-221 -271c-6 -7 -13 -10 -21 -3zM179 460c0 -60 44 -107 104 -107c61 0 105 47 105 107c0 61 -44 108 -105 108
c-62 0 -104 -47 -104 -108z" />
    <glyph glyph-name="colon" unicode=":" horiz-adv-x="256" 
d="M128 -13c-50 0 -89 40 -89 89c0 50 39 91 89 91s89 -41 89 -91c0 -49 -39 -89 -89 -89zM39 411c0 50 39 91 89 91s89 -41 89 -91c0 -49 -39 -89 -89 -89s-89 40 -89 89z" />
    <glyph glyph-name="semicolon" unicode=";" horiz-adv-x="267" 
d="M129 322c-50 0 -89 40 -89 89c0 50 39 91 89 91s89 -41 89 -91c0 -49 -39 -89 -89 -89zM38 78c0 49 41 89 91 89c49 0 99 -35 99 -118c0 -124 -114 -184 -187 -179v33c74 -1 120 86 85 86c-47 0 -88 40 -88 89z" />
    <glyph glyph-name="less" unicode="&#x3c;" 
d="M101 197c-3 0 -6 0 -9 -1v-98c2 -1 6 -1 9 -1c26 0 31 19 31 50c0 32 -5 50 -31 50v0zM253 161v-24h-40v-38h47v-24h-76v145h76v-25h-47v-34h40zM99 73c-8 0 -23 0 -36 2v143c13 2 27 4 37 4c45 0 61 -25 61 -75c0 -51 -17 -74 -62 -74v0zM286 220h39l19 -80l19 80h40
c2 -35 4 -98 6 -145h-29c0 34 -1 70 -3 104l-20 -82h-27l-20 82h-1c-1 -34 -2 -70 -2 -104h-28c1 47 4 110 7 145v0zM482 73c-40 0 -53 23 -53 74s13 75 53 75s54 -24 54 -75s-14 -74 -54 -74v0zM482 197c-20 0 -24 -17 -24 -50c0 -32 4 -50 24 -50c21 0 25 18 25 50
c0 33 -4 50 -25 50zM472 496c52 0 62 -42 62 -63c0 -31 -31 -49 -52 -52c-72 -8 -124 -31 -166 -72c0 0 73 187 156 187v0zM139 444c94 0 156 -187 156 -187c-41 52 -93 72 -156 72c-31 0 -62 21 -62 52c0 32 21 63 62 63v0zM314 593c67 -65 -19 -243 -19 -243
c7 66 -16 118 -61 161c-22 22 -30 58 -9 81c22 22 59 30 89 1v0z" />
    <glyph glyph-name="equal" unicode="=" 
d="M101 197c-3 0 -6 0 -9 -1v-98c2 -1 6 -1 9 -1c26 0 31 19 31 50c0 32 -5 50 -31 50v0zM253 161v-24h-40v-38h47v-24h-76v145h76v-25h-47v-34h40zM99 73c-8 0 -23 0 -36 2v143c13 2 27 4 37 4c45 0 61 -25 61 -75c0 -51 -17 -74 -62 -74v0zM286 220h39l19 -80l19 80h40
c2 -35 4 -98 6 -145h-29c0 34 -1 70 -3 104l-20 -82h-27l-20 82h-1c-1 -34 -2 -70 -2 -104h-28c1 47 4 110 7 145v0zM482 73c-40 0 -53 23 -53 74s13 75 53 75s54 -24 54 -75s-14 -74 -54 -74v0zM482 197c-20 0 -24 -17 -24 -50c0 -32 4 -50 24 -50c21 0 25 18 25 50
c0 33 -4 50 -25 50zM472 496c52 0 62 -42 62 -63c0 -31 -31 -49 -52 -52c-72 -8 -124 -31 -166 -72c0 0 73 187 156 187v0zM139 444c94 0 156 -187 156 -187c-41 52 -93 72 -156 72c-31 0 -62 21 -62 52c0 32 21 63 62 63v0zM314 593c67 -65 -19 -243 -19 -243
c7 66 -16 118 -61 161c-22 22 -30 58 -9 81c22 22 59 30 89 1v0z" />
    <glyph glyph-name="greater" unicode="&#x3e;" 
d="M101 197c-3 0 -6 0 -9 -1v-98c2 -1 6 -1 9 -1c26 0 31 19 31 50c0 32 -5 50 -31 50v0zM253 161v-24h-40v-38h47v-24h-76v145h76v-25h-47v-34h40zM99 73c-8 0 -23 0 -36 2v143c13 2 27 4 37 4c45 0 61 -25 61 -75c0 -51 -17 -74 -62 -74v0zM286 220h39l19 -80l19 80h40
c2 -35 4 -98 6 -145h-29c0 34 -1 70 -3 104l-20 -82h-27l-20 82h-1c-1 -34 -2 -70 -2 -104h-28c1 47 4 110 7 145v0zM482 73c-40 0 -53 23 -53 74s13 75 53 75s54 -24 54 -75s-14 -74 -54 -74v0zM482 197c-20 0 -24 -17 -24 -50c0 -32 4 -50 24 -50c21 0 25 18 25 50
c0 33 -4 50 -25 50zM472 496c52 0 62 -42 62 -63c0 -31 -31 -49 -52 -52c-72 -8 -124 -31 -166 -72c0 0 73 187 156 187v0zM139 444c94 0 156 -187 156 -187c-41 52 -93 72 -156 72c-31 0 -62 21 -62 52c0 32 21 63 62 63v0zM314 593c67 -65 -19 -243 -19 -243
c7 66 -16 118 -61 161c-22 22 -30 58 -9 81c22 22 59 30 89 1v0z" />
    <glyph glyph-name="question" unicode="?" horiz-adv-x="466" 
d="M178 223c-9 0 -16 6 -16 15l-1 39c-5 147 121 138 121 221c0 38 -29 62 -67 62c-49 0 -72 -41 -86 -72c-6 -11 -14 -11 -24 -5l-71 44c-18 10 -20 20 -17 31c28 88 106 150 217 150c99 0 202 -53 202 -177c0 -146 -131 -148 -142 -254l-3 -39c-2 -9 -7 -15 -16 -15h-97z
M139 76c0 50 39 91 89 91s89 -41 89 -91c0 -49 -39 -89 -89 -89s-89 40 -89 89z" />
    <glyph glyph-name="at" unicode="@" 
d="M101 197c-3 0 -6 0 -9 -1v-98c2 -1 6 -1 9 -1c26 0 31 19 31 50c0 32 -5 50 -31 50v0zM253 161v-24h-40v-38h47v-24h-76v145h76v-25h-47v-34h40zM99 73c-8 0 -23 0 -36 2v143c13 2 27 4 37 4c45 0 61 -25 61 -75c0 -51 -17 -74 -62 -74v0zM286 220h39l19 -80l19 80h40
c2 -35 4 -98 6 -145h-29c0 34 -1 70 -3 104l-20 -82h-27l-20 82h-1c-1 -34 -2 -70 -2 -104h-28c1 47 4 110 7 145v0zM482 73c-40 0 -53 23 -53 74s13 75 53 75s54 -24 54 -75s-14 -74 -54 -74v0zM482 197c-20 0 -24 -17 -24 -50c0 -32 4 -50 24 -50c21 0 25 18 25 50
c0 33 -4 50 -25 50zM472 496c52 0 62 -42 62 -63c0 -31 -31 -49 -52 -52c-72 -8 -124 -31 -166 -72c0 0 73 187 156 187v0zM139 444c94 0 156 -187 156 -187c-41 52 -93 72 -156 72c-31 0 -62 21 -62 52c0 32 21 63 62 63v0zM314 593c67 -65 -19 -243 -19 -243
c7 66 -16 118 -61 161c-22 22 -30 58 -9 81c22 22 59 30 89 1v0z" />
    <glyph glyph-name="A" unicode="A" horiz-adv-x="700" 
d="M44 0c-11 0 -17 7 -13 17l232 671c3 8 11 12 19 12h136c8 0 16 -4 19 -12l232 -671c4 -10 -1 -17 -12 -17h-134c-8 0 -14 3 -17 12l-30 94h-252l-30 -94c-3 -9 -9 -12 -17 -12h-133zM269 246h162l-81 253z" />
    <glyph glyph-name="B" unicode="B" horiz-adv-x="594" 
d="M81 0c-9 0 -15 6 -15 15v670c0 9 6 15 15 15h243c125 0 194 -81 194 -178c0 -75 -45 -124 -90 -146c68 -18 136 -75 136 -177c0 -118 -81 -199 -250 -199h-233zM222 139h82c59 0 99 25 99 83c0 59 -40 81 -99 81h-82v-164zM222 426h69c48 0 78 19 78 70
c0 48 -30 65 -78 65h-69v-135z" />
    <glyph glyph-name="C" unicode="C" horiz-adv-x="699" 
d="M407 -13c-198 0 -361 154 -361 360s163 361 361 361c101 0 185 -40 247 -104c7 -7 5 -14 0 -20l-80 -85c-6 -7 -14 -7 -21 -2c-39 34 -87 56 -145 56c-115 0 -202 -87 -202 -206c0 -118 87 -205 202 -205c58 0 106 22 145 56c7 5 15 5 21 -2l80 -85c5 -6 7 -13 0 -20
c-62 -64 -146 -104 -247 -104z" />
    <glyph glyph-name="D" unicode="D" horiz-adv-x="696" 
d="M81 0c-9 0 -15 6 -15 15v670c0 9 6 15 15 15h217c233 0 358 -154 358 -350s-125 -350 -358 -350h-217zM224 140h72c131 0 199 74 199 210s-68 210 -199 210h-72v-420z" />
    <glyph glyph-name="E" unicode="E" horiz-adv-x="512" 
d="M81 0c-9 0 -15 6 -15 15v670c0 9 6 15 15 15h361c9 0 15 -6 15 -15v-110c0 -9 -6 -15 -15 -15h-218v-137h205c9 0 15 -6 15 -15v-110c0 -9 -6 -15 -15 -15h-205v-143h217c9 0 16 -6 16 -15v-110c0 -9 -7 -15 -16 -15h-360z" />
    <glyph glyph-name="F" unicode="F" horiz-adv-x="504" 
d="M81 0c-9 0 -15 6 -15 15v670c0 9 6 15 15 15h357c9 0 15 -6 15 -15v-110c0 -9 -6 -15 -15 -15h-214v-132h201c9 0 15 -6 15 -15v-110c0 -9 -6 -15 -15 -15h-201v-273c0 -9 -6 -15 -15 -15h-128z" />
    <glyph glyph-name="G" unicode="G" horiz-adv-x="767" 
d="M410 -13c-202 0 -364 154 -364 360s162 361 360 361c102 0 185 -38 245 -100c8 -9 8 -18 -1 -28l-74 -79c-8 -9 -16 -9 -24 -3c-38 33 -86 55 -145 55c-114 0 -201 -87 -201 -206s87 -205 209 -205c101 0 159 57 163 123h-165c-9 0 -15 7 -15 16v109c0 9 6 15 15 15h303
c9 0 15 -6 15 -15v-72c0 -182 -121 -331 -321 -331z" />
    <glyph glyph-name="H" unicode="H" horiz-adv-x="688" 
d="M81 0c-9 0 -15 6 -15 15v670c0 9 6 15 15 15h128c9 0 15 -6 15 -15v-272h240v272c0 9 6 15 15 15h128c9 0 16 -6 16 -15v-670c0 -9 -7 -15 -16 -15h-128c-9 0 -15 6 -15 15v258h-240v-258c0 -9 -6 -15 -15 -15h-128z" />
    <glyph glyph-name="I" unicode="I" horiz-adv-x="290" 
d="M81 0c-9 0 -15 6 -15 15v670c0 9 6 15 15 15h128c9 0 15 -6 15 -15v-670c0 -9 -6 -15 -15 -15h-128z" />
    <glyph glyph-name="J" unicode="J" horiz-adv-x="557" 
d="M237 -13c-93 0 -156 38 -190 78c-6 7 -6 18 -1 25l67 89c5 6 15 7 22 1c18 -14 46 -38 96 -38c60 0 102 34 102 125v418c0 9 7 15 16 15h128c9 0 15 -6 15 -15v-410c0 -195 -108 -288 -255 -288z" />
    <glyph glyph-name="K" unicode="K" horiz-adv-x="680" 
d="M81 0c-9 0 -15 6 -15 15v670c0 9 6 15 15 15h128c9 0 15 -6 15 -15v-292l218 299c5 6 11 8 18 8h156c13 0 14 -9 8 -18l-231 -291l259 -373c7 -10 3 -18 -9 -18h-149c-8 0 -13 2 -18 9l-180 258l-72 -91v-161c0 -9 -6 -15 -15 -15h-128z" />
    <glyph glyph-name="L" unicode="L" horiz-adv-x="479" 
d="M81 0c-9 0 -15 6 -15 15v670c0 9 6 15 15 15h128c9 0 15 -6 15 -15v-545h204c9 0 15 -6 15 -15v-110c0 -9 -6 -15 -15 -15h-347z" />
    <glyph glyph-name="M" unicode="M" horiz-adv-x="884" 
d="M81 0c-9 0 -15 6 -15 15v670c0 9 6 15 15 15h146c8 0 14 -3 17 -10l198 -506l198 506c3 7 10 10 18 10h146c9 0 15 -6 15 -15v-670c0 -9 -6 -15 -15 -15h-128c-9 0 -16 6 -16 15v385l-12 -44l-132 -344c-3 -8 -10 -12 -18 -12h-112c-8 0 -15 4 -18 12l-131 344l-13 44
v-385c0 -9 -6 -15 -15 -15h-128z" />
    <glyph glyph-name="N" unicode="N" horiz-adv-x="704" 
d="M474 0c-8 0 -14 3 -18 10l-232 433v-428c0 -9 -6 -15 -15 -15h-128c-9 0 -15 6 -15 15v670c0 9 6 15 15 15h149c8 0 14 -3 18 -10l232 -433v428c0 9 6 15 15 15h128c9 0 15 -6 15 -15v-670c0 -9 -6 -15 -15 -15h-149z" />
    <glyph glyph-name="O" unicode="O" horiz-adv-x="812" 
d="M406 -13c-198 0 -360 158 -360 360c0 203 162 361 360 361c199 0 361 -158 361 -361c0 -202 -162 -360 -361 -360zM206 347c0 -116 87 -205 200 -205c114 0 200 89 200 205c0 118 -86 206 -200 206c-113 0 -200 -88 -200 -206z" />
    <glyph glyph-name="P" unicode="P" horiz-adv-x="581" 
d="M81 0c-9 0 -15 6 -15 15v670c0 9 6 15 15 15h215c169 0 249 -94 249 -230s-80 -229 -249 -229h-72v-226c0 -9 -6 -15 -15 -15h-128zM224 381h68c53 0 102 17 102 89c0 73 -49 90 -102 90h-68v-179z" />
    <glyph glyph-name="Q" unicode="Q" horiz-adv-x="812" 
d="M675 -14c-6 -5 -14 -7 -21 0l-56 56c-55 -35 -121 -55 -192 -55c-198 0 -360 158 -360 360c0 203 162 361 360 361c199 0 361 -158 361 -361c0 -74 -22 -142 -59 -199l54 -54c7 -7 7 -14 -1 -21zM206 347c0 -116 87 -205 200 -205c28 0 54 5 77 15l-73 73
c-7 7 -7 14 0 22l87 86c5 6 14 7 21 0l73 -73c10 25 15 53 15 82c0 118 -86 206 -200 206c-113 0 -200 -88 -200 -206z" />
    <glyph glyph-name="R" unicode="R" horiz-adv-x="606" 
d="M421 0c-8 0 -14 3 -18 10l-143 231h-36v-226c0 -9 -6 -15 -15 -15h-128c-9 0 -15 6 -15 15v670c0 9 6 15 15 15h215c169 0 249 -94 249 -230c0 -99 -43 -176 -132 -210l155 -242c7 -11 2 -18 -10 -18h-137zM224 381h68c53 0 102 17 102 89c0 73 -49 90 -102 90h-68v-179z
" />
    <glyph glyph-name="S" unicode="S" horiz-adv-x="558" 
d="M278 -12c-111 0 -190 55 -232 111c-5 6 -5 14 2 22l67 76c6 7 14 10 23 3c46 -45 84 -67 137 -67c51 0 87 20 87 64c0 41 -30 54 -74 74l-85 40c-74 33 -144 86 -144 195c0 131 99 202 221 202c83 0 152 -33 210 -93c6 -6 7 -15 1 -23l-66 -79c-5 -7 -14 -10 -21 -5
c-45 38 -78 55 -119 55c-46 0 -73 -23 -73 -59c0 -38 28 -50 79 -74l71 -32c74 -35 154 -81 154 -201c0 -146 -120 -209 -238 -209z" />
    <glyph glyph-name="T" unicode="T" horiz-adv-x="547" 
d="M210 0c-9 0 -16 6 -16 15v545h-133c-9 0 -15 6 -15 15v110c0 9 6 15 15 15h425c9 0 16 -6 16 -15v-110c0 -9 -7 -15 -16 -15h-133v-545c0 -9 -6 -15 -15 -15h-128z" />
    <glyph glyph-name="U" unicode="U" horiz-adv-x="664" 
d="M332 -13c-159 0 -271 97 -271 287v411c0 9 6 15 15 15h128c9 0 15 -6 15 -15v-409c0 -85 40 -134 113 -134c72 0 113 49 113 134v409c0 9 6 15 15 15h128c9 0 15 -6 15 -15v-411c0 -190 -113 -287 -271 -287z" />
    <glyph glyph-name="V" unicode="V" horiz-adv-x="700" 
d="M282 0c-8 0 -16 4 -19 12l-232 671c-4 10 2 17 13 17h133c8 0 14 -3 17 -12l156 -487l156 487c3 9 9 12 17 12h134c11 0 16 -7 12 -17l-232 -671c-3 -8 -11 -12 -19 -12h-136z" />
    <glyph glyph-name="W" unicode="W" horiz-adv-x="1081" 
d="M249 0c-9 0 -18 4 -20 12l-197 671c-4 10 1 17 12 17h133c8 0 15 -3 17 -12l128 -472l140 472c3 9 8 12 17 12h123c9 0 14 -3 17 -12l140 -472l128 472c2 9 9 12 17 12h134c11 0 15 -7 12 -17l-198 -671c-2 -8 -11 -12 -20 -12h-133c-10 0 -18 4 -20 12l-138 488
l-139 -488c-2 -8 -10 -12 -20 -12h-133z" />
    <glyph glyph-name="X" unicode="X" horiz-adv-x="656" 
d="M54 0c-12 0 -16 7 -10 18l198 340l-188 324c-6 11 -2 18 10 18h137c8 0 14 -3 18 -10l109 -187l109 187c4 7 10 10 18 10h137c12 0 17 -7 11 -18l-189 -324l199 -340c6 -11 1 -18 -11 -18h-138c-8 0 -15 3 -19 10l-117 202l-117 -202c-4 -7 -11 -10 -19 -10h-138z" />
    <glyph glyph-name="Y" unicode="Y" horiz-adv-x="634" 
d="M253 0c-9 0 -15 6 -15 15v307l-204 360c-6 11 -2 18 10 18h133c8 0 14 -3 18 -10l122 -224l122 224c4 7 11 10 19 10h133c12 0 16 -7 10 -18l-204 -361v-306c0 -9 -7 -15 -16 -15h-128z" />
    <glyph glyph-name="Z" unicode="Z" horiz-adv-x="552" 
d="M56 0c-9 0 -15 6 -15 15v115c0 7 2 12 5 18l290 412h-270c-9 0 -15 6 -15 15v110c0 9 6 15 15 15h415c9 0 16 -6 16 -15v-115c0 -7 -3 -12 -6 -18l-290 -412h290c9 0 16 -6 16 -15v-110c0 -9 -7 -15 -16 -15h-435z" />
    <glyph glyph-name="bracketleft" unicode="[" 
d="M101 197c-3 0 -6 0 -9 -1v-98c2 -1 6 -1 9 -1c26 0 31 19 31 50c0 32 -5 50 -31 50v0zM253 161v-24h-40v-38h47v-24h-76v145h76v-25h-47v-34h40zM99 73c-8 0 -23 0 -36 2v143c13 2 27 4 37 4c45 0 61 -25 61 -75c0 -51 -17 -74 -62 -74v0zM286 220h39l19 -80l19 80h40
c2 -35 4 -98 6 -145h-29c0 34 -1 70 -3 104l-20 -82h-27l-20 82h-1c-1 -34 -2 -70 -2 -104h-28c1 47 4 110 7 145v0zM482 73c-40 0 -53 23 -53 74s13 75 53 75s54 -24 54 -75s-14 -74 -54 -74v0zM482 197c-20 0 -24 -17 -24 -50c0 -32 4 -50 24 -50c21 0 25 18 25 50
c0 33 -4 50 -25 50zM472 496c52 0 62 -42 62 -63c0 -31 -31 -49 -52 -52c-72 -8 -124 -31 -166 -72c0 0 73 187 156 187v0zM139 444c94 0 156 -187 156 -187c-41 52 -93 72 -156 72c-31 0 -62 21 -62 52c0 32 21 63 62 63v0zM314 593c67 -65 -19 -243 -19 -243
c7 66 -16 118 -61 161c-22 22 -30 58 -9 81c22 22 59 30 89 1v0z" />
    <glyph glyph-name="backslash" unicode="\" 
d="M101 197c-3 0 -6 0 -9 -1v-98c2 -1 6 -1 9 -1c26 0 31 19 31 50c0 32 -5 50 -31 50v0zM253 161v-24h-40v-38h47v-24h-76v145h76v-25h-47v-34h40zM99 73c-8 0 -23 0 -36 2v143c13 2 27 4 37 4c45 0 61 -25 61 -75c0 -51 -17 -74 -62 -74v0zM286 220h39l19 -80l19 80h40
c2 -35 4 -98 6 -145h-29c0 34 -1 70 -3 104l-20 -82h-27l-20 82h-1c-1 -34 -2 -70 -2 -104h-28c1 47 4 110 7 145v0zM482 73c-40 0 -53 23 -53 74s13 75 53 75s54 -24 54 -75s-14 -74 -54 -74v0zM482 197c-20 0 -24 -17 -24 -50c0 -32 4 -50 24 -50c21 0 25 18 25 50
c0 33 -4 50 -25 50zM472 496c52 0 62 -42 62 -63c0 -31 -31 -49 -52 -52c-72 -8 -124 -31 -166 -72c0 0 73 187 156 187v0zM139 444c94 0 156 -187 156 -187c-41 52 -93 72 -156 72c-31 0 -62 21 -62 52c0 32 21 63 62 63v0zM314 593c67 -65 -19 -243 -19 -243
c7 66 -16 118 -61 161c-22 22 -30 58 -9 81c22 22 59 30 89 1v0z" />
    <glyph glyph-name="bracketright" unicode="]" 
d="M101 197c-3 0 -6 0 -9 -1v-98c2 -1 6 -1 9 -1c26 0 31 19 31 50c0 32 -5 50 -31 50v0zM253 161v-24h-40v-38h47v-24h-76v145h76v-25h-47v-34h40zM99 73c-8 0 -23 0 -36 2v143c13 2 27 4 37 4c45 0 61 -25 61 -75c0 -51 -17 -74 -62 -74v0zM286 220h39l19 -80l19 80h40
c2 -35 4 -98 6 -145h-29c0 34 -1 70 -3 104l-20 -82h-27l-20 82h-1c-1 -34 -2 -70 -2 -104h-28c1 47 4 110 7 145v0zM482 73c-40 0 -53 23 -53 74s13 75 53 75s54 -24 54 -75s-14 -74 -54 -74v0zM482 197c-20 0 -24 -17 -24 -50c0 -32 4 -50 24 -50c21 0 25 18 25 50
c0 33 -4 50 -25 50zM472 496c52 0 62 -42 62 -63c0 -31 -31 -49 -52 -52c-72 -8 -124 -31 -166 -72c0 0 73 187 156 187v0zM139 444c94 0 156 -187 156 -187c-41 52 -93 72 -156 72c-31 0 -62 21 -62 52c0 32 21 63 62 63v0zM314 593c67 -65 -19 -243 -19 -243
c7 66 -16 118 -61 161c-22 22 -30 58 -9 81c22 22 59 30 89 1v0z" />
    <glyph glyph-name="asciicircum" unicode="^" 
d="M101 197c-3 0 -6 0 -9 -1v-98c2 -1 6 -1 9 -1c26 0 31 19 31 50c0 32 -5 50 -31 50v0zM253 161v-24h-40v-38h47v-24h-76v145h76v-25h-47v-34h40zM99 73c-8 0 -23 0 -36 2v143c13 2 27 4 37 4c45 0 61 -25 61 -75c0 -51 -17 -74 -62 -74v0zM286 220h39l19 -80l19 80h40
c2 -35 4 -98 6 -145h-29c0 34 -1 70 -3 104l-20 -82h-27l-20 82h-1c-1 -34 -2 -70 -2 -104h-28c1 47 4 110 7 145v0zM482 73c-40 0 -53 23 -53 74s13 75 53 75s54 -24 54 -75s-14 -74 -54 -74v0zM482 197c-20 0 -24 -17 -24 -50c0 -32 4 -50 24 -50c21 0 25 18 25 50
c0 33 -4 50 -25 50zM472 496c52 0 62 -42 62 -63c0 -31 -31 -49 -52 -52c-72 -8 -124 -31 -166 -72c0 0 73 187 156 187v0zM139 444c94 0 156 -187 156 -187c-41 52 -93 72 -156 72c-31 0 -62 21 -62 52c0 32 21 63 62 63v0zM314 593c67 -65 -19 -243 -19 -243
c7 66 -16 118 -61 161c-22 22 -30 58 -9 81c22 22 59 30 89 1v0z" />
    <glyph glyph-name="underscore" unicode="_" 
d="M101 197c-3 0 -6 0 -9 -1v-98c2 -1 6 -1 9 -1c26 0 31 19 31 50c0 32 -5 50 -31 50v0zM253 161v-24h-40v-38h47v-24h-76v145h76v-25h-47v-34h40zM99 73c-8 0 -23 0 -36 2v143c13 2 27 4 37 4c45 0 61 -25 61 -75c0 -51 -17 -74 -62 -74v0zM286 220h39l19 -80l19 80h40
c2 -35 4 -98 6 -145h-29c0 34 -1 70 -3 104l-20 -82h-27l-20 82h-1c-1 -34 -2 -70 -2 -104h-28c1 47 4 110 7 145v0zM482 73c-40 0 -53 23 -53 74s13 75 53 75s54 -24 54 -75s-14 -74 -54 -74v0zM482 197c-20 0 -24 -17 -24 -50c0 -32 4 -50 24 -50c21 0 25 18 25 50
c0 33 -4 50 -25 50zM472 496c52 0 62 -42 62 -63c0 -31 -31 -49 -52 -52c-72 -8 -124 -31 -166 -72c0 0 73 187 156 187v0zM139 444c94 0 156 -187 156 -187c-41 52 -93 72 -156 72c-31 0 -62 21 -62 52c0 32 21 63 62 63v0zM314 593c67 -65 -19 -243 -19 -243
c7 66 -16 118 -61 161c-22 22 -30 58 -9 81c22 22 59 30 89 1v0z" />
    <glyph glyph-name="grave" unicode="`" 
d="M101 197c-3 0 -6 0 -9 -1v-98c2 -1 6 -1 9 -1c26 0 31 19 31 50c0 32 -5 50 -31 50v0zM253 161v-24h-40v-38h47v-24h-76v145h76v-25h-47v-34h40zM99 73c-8 0 -23 0 -36 2v143c13 2 27 4 37 4c45 0 61 -25 61 -75c0 -51 -17 -74 -62 -74v0zM286 220h39l19 -80l19 80h40
c2 -35 4 -98 6 -145h-29c0 34 -1 70 -3 104l-20 -82h-27l-20 82h-1c-1 -34 -2 -70 -2 -104h-28c1 47 4 110 7 145v0zM482 73c-40 0 -53 23 -53 74s13 75 53 75s54 -24 54 -75s-14 -74 -54 -74v0zM482 197c-20 0 -24 -17 -24 -50c0 -32 4 -50 24 -50c21 0 25 18 25 50
c0 33 -4 50 -25 50zM472 496c52 0 62 -42 62 -63c0 -31 -31 -49 -52 -52c-72 -8 -124 -31 -166 -72c0 0 73 187 156 187v0zM139 444c94 0 156 -187 156 -187c-41 52 -93 72 -156 72c-31 0 -62 21 -62 52c0 32 21 63 62 63v0zM314 593c67 -65 -19 -243 -19 -243
c7 66 -16 118 -61 161c-22 22 -30 58 -9 81c22 22 59 30 89 1v0z" />
    <glyph glyph-name="a" unicode="a" horiz-adv-x="614" 
d="M261 -12c-136 0 -230 111 -230 257c0 145 94 257 230 257c72 0 121 -28 153 -74l2 47c0 9 7 15 16 15h111c9 0 16 -6 16 -15v-460c0 -9 -8 -15 -17 -15h-110c-9 0 -16 6 -16 15l-2 48c-33 -47 -83 -75 -153 -75zM180 245c0 -72 49 -118 114 -118c67 0 113 47 113 119
c0 70 -46 117 -113 117c-65 0 -114 -47 -114 -118z" />
    <glyph glyph-name="b" unicode="b" horiz-adv-x="614" 
d="M353 -12c-70 0 -120 28 -153 75l-2 -48c0 -9 -7 -15 -16 -15h-110c-9 0 -16 6 -16 15v685c0 9 6 15 15 15h123c9 0 16 -6 16 -15v-259c32 39 79 61 143 61c137 0 231 -112 231 -257c0 -146 -94 -257 -231 -257zM208 246c0 -72 46 -119 112 -119c65 0 114 46 114 118
c0 71 -49 118 -114 118c-66 0 -112 -47 -112 -117z" />
    <glyph glyph-name="c" unicode="c" horiz-adv-x="513" 
d="M291 -12c-150 0 -260 113 -260 260c0 144 108 254 256 254c82 0 148 -35 190 -90c6 -6 5 -15 -1 -21l-69 -66c-8 -8 -19 -8 -27 -1c-26 26 -52 38 -86 38c-72 0 -116 -51 -116 -114c0 -64 44 -120 118 -120c33 0 59 13 86 38c7 7 18 7 26 -1l69 -66c6 -6 7 -14 1 -21
c-42 -55 -108 -90 -187 -90z" />
    <glyph glyph-name="d" unicode="d" horiz-adv-x="614" 
d="M261 -12c-136 0 -230 111 -230 257c0 145 94 257 230 257c64 0 111 -22 144 -61v259c0 9 6 15 15 15h123c9 0 16 -6 16 -15v-685c0 -9 -8 -15 -17 -15h-110c-9 0 -16 6 -16 15l-2 48c-33 -47 -83 -75 -153 -75zM180 245c0 -72 49 -118 114 -118c67 0 113 47 113 119
c0 70 -46 117 -113 117c-65 0 -114 -47 -114 -118z" />
    <glyph glyph-name="e" unicode="e" horiz-adv-x="550" 
d="M301 -12c-161 0 -270 110 -270 259c0 144 101 255 252 255c150 0 237 -109 237 -235c0 -50 -13 -80 -58 -80h-282c17 -53 63 -79 133 -79c33 0 67 4 108 27c8 4 12 2 18 -5l41 -58c4 -6 4 -14 -5 -22c-42 -42 -105 -62 -174 -62zM178 293h206c-10 59 -49 83 -100 83
s-94 -25 -106 -83z" />
    <glyph glyph-name="f" unicode="f" horiz-adv-x="391" 
d="M114 0c-9 0 -15 6 -15 15v357h-58c-9 0 -15 6 -15 15v88c0 9 6 15 15 15h58v69c0 120 67 172 176 172c30 0 52 -2 82 -17c6 -3 9 -10 9 -16v-101c0 -7 -6 -8 -13 -7c-17 3 -31 6 -42 6c-47 0 -58 -24 -58 -57v-49h98c9 0 15 -6 15 -15v-88c0 -9 -6 -15 -15 -15h-98v-357
c0 -9 -7 -15 -16 -15h-123z" />
    <glyph glyph-name="g" unicode="g" horiz-adv-x="606" 
d="M289 -205c-74 0 -145 20 -196 59c-10 7 -11 20 -5 30l31 61c6 11 15 16 27 9c44 -23 86 -35 128 -35c63 0 130 26 130 110v46c-30 -40 -78 -64 -145 -64c-137 0 -228 101 -228 246c0 143 91 245 229 245c69 0 115 -24 145 -65l3 38c0 9 6 15 15 15h112c9 0 15 -6 15 -15
v-446c0 -181 -142 -234 -261 -234zM180 257c0 -67 46 -109 110 -109c63 0 108 42 108 109c0 66 -45 108 -108 108c-64 0 -110 -42 -110 -108z" />
    <glyph glyph-name="h" unicode="h" horiz-adv-x="585" 
d="M71 0c-9 0 -15 6 -15 15v685c0 9 6 15 15 15h122c9 0 16 -6 16 -15v-283c28 50 73 85 143 85c102 0 177 -75 177 -203v-284c0 -9 -7 -15 -16 -15h-121c-9 0 -16 6 -16 15v248c0 65 -28 99 -82 99c-53 0 -85 -34 -85 -99v-248c0 -9 -7 -15 -16 -15h-122z" />
    <glyph glyph-name="i" unicode="i" horiz-adv-x="268" 
d="M134 568c-48 0 -84 37 -84 84c0 46 36 83 84 83s83 -37 83 -83c0 -47 -35 -84 -83 -84zM57 15v460c0 9 6 15 15 15h124c9 0 15 -6 15 -15v-460c0 -9 -6 -15 -15 -15h-124c-9 0 -15 6 -15 15z" />
    <glyph glyph-name="j" unicode="j" horiz-adv-x="275" 
d="M141 568c-48 0 -83 37 -83 84c0 46 35 83 83 83s84 -37 84 -83c0 -47 -36 -84 -84 -84zM-49 -167v101c0 7 6 8 13 7c17 -3 31 -6 42 -6c47 0 58 24 58 57v483c0 9 7 15 16 15h123c9 0 16 -6 16 -15v-503c0 -120 -68 -172 -177 -172c-30 0 -52 2 -82 17c-6 3 -9 10 -9 16z
" />
    <glyph glyph-name="k" unicode="k" horiz-adv-x="569" 
d="M71 0c-9 0 -15 6 -15 15v685c0 9 6 15 15 15h123c9 0 16 -6 16 -15v-394l145 176c5 6 11 8 18 8h138c14 0 17 -8 9 -19l-163 -187l189 -265c7 -11 3 -19 -9 -19h-132c-8 0 -13 2 -18 9l-122 169l-55 -64v-99c0 -9 -7 -15 -16 -15h-123z" />
    <glyph glyph-name="l" unicode="l" horiz-adv-x="265" 
d="M71 0c-9 0 -15 6 -15 15v685c0 9 6 15 15 15h123c9 0 16 -6 16 -15v-685c0 -9 -7 -15 -16 -15h-123z" />
    <glyph glyph-name="m" unicode="m" horiz-adv-x="859" 
d="M71 0c-9 0 -15 6 -15 15v460c0 9 6 15 15 15h118c9 0 15 -4 15 -16l4 -51c27 46 72 79 137 79c62 0 110 -29 138 -84c27 49 76 84 150 84c106 0 171 -74 171 -201v-286c0 -9 -7 -15 -16 -15h-121c-9 0 -16 6 -16 15v251c0 62 -22 96 -71 96c-48 0 -74 -33 -74 -96v-251
c0 -9 -6 -15 -15 -15h-121c-10 0 -17 6 -17 15v251c0 62 -22 96 -71 96c-47 0 -73 -33 -73 -96v-251c0 -9 -7 -15 -16 -15h-122z" />
    <glyph glyph-name="n" unicode="n" horiz-adv-x="585" 
d="M71 0c-9 0 -15 6 -15 15v460c0 9 6 15 15 15h118c9 0 15 -4 15 -16l5 -57c28 50 73 85 143 85c102 0 177 -75 177 -203v-284c0 -9 -7 -15 -16 -15h-121c-9 0 -16 6 -16 15v248c0 65 -28 99 -82 99c-53 0 -85 -34 -85 -99v-248c0 -9 -7 -15 -16 -15h-122z" />
    <glyph glyph-name="o" unicode="o" horiz-adv-x="576" 
d="M288 -12c-148 0 -257 112 -257 257s109 257 257 257s258 -112 258 -257s-110 -257 -258 -257zM178 245c0 -72 48 -117 110 -117s110 45 110 117s-48 117 -110 117s-110 -45 -110 -117z" />
    <glyph glyph-name="p" unicode="p" horiz-adv-x="614" 
d="M71 -190c-9 0 -15 6 -15 15v650c0 9 6 15 15 15h111c9 0 16 -6 16 -15l2 -47c32 46 82 74 153 74c137 0 231 -112 231 -257c0 -146 -94 -257 -231 -257c-63 0 -110 23 -143 62v-225c0 -9 -7 -15 -16 -15h-123zM208 246c0 -72 46 -119 112 -119c65 0 114 46 114 118
c0 71 -49 118 -114 118c-66 0 -112 -47 -112 -117z" />
    <glyph glyph-name="q" unicode="q" horiz-adv-x="614" 
d="M420 -190c-9 0 -15 6 -15 15v225c-34 -39 -81 -62 -144 -62c-136 0 -230 111 -230 257c0 145 94 257 230 257c72 0 121 -28 153 -74l2 47c0 9 7 15 16 15h111c9 0 16 -6 16 -15v-650c0 -9 -7 -15 -16 -15h-123zM180 245c0 -72 49 -118 114 -118c67 0 113 47 113 119
c0 70 -46 117 -113 117c-65 0 -114 -47 -114 -118z" />
    <glyph glyph-name="r" unicode="r" horiz-adv-x="394" 
d="M71 0c-9 0 -15 6 -15 15v460c0 9 6 15 15 15h118c9 0 14 -4 15 -16l5 -65c16 53 47 93 104 93c24 0 37 -7 45 -13c7 -5 9 -11 9 -20v-100c0 -12 -7 -15 -21 -12c-10 3 -21 5 -36 5c-63 0 -101 -38 -101 -111v-236c0 -9 -7 -15 -16 -15h-122z" />
    <glyph glyph-name="s" unicode="s" horiz-adv-x="451" 
d="M228 -12c-83 0 -148 34 -189 83c-5 7 -4 19 3 29l40 56c8 13 17 10 25 5c43 -31 76 -46 111 -46c27 0 45 10 45 32c0 19 -12 29 -44 42l-64 26c-64 25 -106 68 -106 136c0 96 82 151 176 151c65 0 126 -27 169 -77c6 -7 3 -15 -1 -21l-51 -60c-7 -7 -14 -6 -23 0
c-32 25 -59 39 -86 39c-30 0 -39 -17 -39 -32c0 -18 17 -30 39 -39l74 -29c61 -24 110 -68 108 -142c-1 -101 -88 -153 -187 -153z" />
    <glyph glyph-name="t" unicode="t" horiz-adv-x="373" 
d="M260 -6c-81 0 -158 37 -158 151v227h-61c-9 0 -15 6 -15 15v88c0 9 6 15 15 15h61v115c0 9 7 15 16 15h123c9 0 16 -6 16 -15v-115h75c9 0 15 -6 15 -15v-88c0 -9 -6 -15 -15 -15h-75v-211c0 -26 17 -40 42 -40c9 0 18 0 31 1c10 1 18 -4 18 -14v-83
c0 -25 -54 -31 -88 -31z" />
    <glyph glyph-name="u" unicode="u" horiz-adv-x="585" 
d="M232 -12c-102 0 -176 75 -176 203v284c0 9 6 15 15 15h122c9 0 16 -6 16 -15v-248c0 -65 28 -99 82 -99c52 0 85 34 85 99v248c0 9 7 15 16 15h121c9 0 16 -6 16 -15v-460c0 -9 -7 -15 -16 -15h-117c-9 0 -15 4 -16 16l-4 57c-28 -50 -73 -85 -144 -85z" />
    <glyph glyph-name="v" unicode="v" horiz-adv-x="577" 
d="M227 0c-8 0 -15 4 -18 12l-183 461c-4 11 2 17 13 17h124c8 0 16 -4 19 -12l107 -302l107 302c3 8 10 12 18 12h125c11 0 16 -6 12 -17l-183 -461c-3 -8 -10 -12 -18 -12h-123z" />
    <glyph glyph-name="w" unicode="w" horiz-adv-x="883" 
d="M196 0c-8 0 -15 4 -18 12l-152 461c-4 11 2 17 13 17h118c8 0 15 -4 18 -12l91 -300l99 300c3 8 10 12 18 12h117c8 0 15 -4 18 -12l99 -300l91 300c3 8 10 12 18 12h119c11 0 16 -6 12 -17l-152 -461c-3 -8 -10 -12 -18 -12h-125c-8 0 -15 4 -18 12l-102 300l-103 -300
c-3 -8 -10 -12 -18 -12h-125z" />
    <glyph glyph-name="x" unicode="x" horiz-adv-x="534" 
d="M39 0c-12 0 -16 8 -11 18l147 233l-141 221c-6 10 -1 18 11 18h133c8 0 14 -3 18 -10l71 -120l70 120c4 7 11 10 19 10h133c12 0 18 -8 10 -18l-140 -221l146 -233c7 -10 2 -18 -10 -18h-134c-8 0 -14 3 -18 10l-76 132l-76 -132c-4 -7 -11 -10 -19 -10h-133z" />
    <glyph glyph-name="y" unicode="y" horiz-adv-x="580" 
d="M157 -190c-12 0 -18 6 -13 18l72 171l-190 474c-4 11 2 17 13 17h124c8 0 16 -4 19 -12l108 -300l108 300c3 8 11 12 19 12h124c11 0 17 -6 13 -17l-260 -651c-3 -8 -10 -12 -18 -12h-119z" />
    <glyph glyph-name="z" unicode="z" horiz-adv-x="467" 
d="M51 0c-9 0 -15 6 -15 15v98c0 7 1 14 7 19l218 234h-207c-9 0 -15 7 -15 16v93c0 9 6 15 15 15h362c8 0 15 -6 15 -15v-97c0 -7 -2 -15 -7 -20l-219 -234h211c9 0 16 -6 16 -15v-94c0 -9 -7 -15 -16 -15h-365z" />
    <glyph glyph-name="braceleft" unicode="{" 
d="M101 197c-3 0 -6 0 -9 -1v-98c2 -1 6 -1 9 -1c26 0 31 19 31 50c0 32 -5 50 -31 50v0zM253 161v-24h-40v-38h47v-24h-76v145h76v-25h-47v-34h40zM99 73c-8 0 -23 0 -36 2v143c13 2 27 4 37 4c45 0 61 -25 61 -75c0 -51 -17 -74 -62 -74v0zM286 220h39l19 -80l19 80h40
c2 -35 4 -98 6 -145h-29c0 34 -1 70 -3 104l-20 -82h-27l-20 82h-1c-1 -34 -2 -70 -2 -104h-28c1 47 4 110 7 145v0zM482 73c-40 0 -53 23 -53 74s13 75 53 75s54 -24 54 -75s-14 -74 -54 -74v0zM482 197c-20 0 -24 -17 -24 -50c0 -32 4 -50 24 -50c21 0 25 18 25 50
c0 33 -4 50 -25 50zM472 496c52 0 62 -42 62 -63c0 -31 -31 -49 -52 -52c-72 -8 -124 -31 -166 -72c0 0 73 187 156 187v0zM139 444c94 0 156 -187 156 -187c-41 52 -93 72 -156 72c-31 0 -62 21 -62 52c0 32 21 63 62 63v0zM314 593c67 -65 -19 -243 -19 -243
c7 66 -16 118 -61 161c-22 22 -30 58 -9 81c22 22 59 30 89 1v0z" />
    <glyph glyph-name="bar" unicode="|" 
d="M101 197c-3 0 -6 0 -9 -1v-98c2 -1 6 -1 9 -1c26 0 31 19 31 50c0 32 -5 50 -31 50v0zM253 161v-24h-40v-38h47v-24h-76v145h76v-25h-47v-34h40zM99 73c-8 0 -23 0 -36 2v143c13 2 27 4 37 4c45 0 61 -25 61 -75c0 -51 -17 -74 -62 -74v0zM286 220h39l19 -80l19 80h40
c2 -35 4 -98 6 -145h-29c0 34 -1 70 -3 104l-20 -82h-27l-20 82h-1c-1 -34 -2 -70 -2 -104h-28c1 47 4 110 7 145v0zM482 73c-40 0 -53 23 -53 74s13 75 53 75s54 -24 54 -75s-14 -74 -54 -74v0zM482 197c-20 0 -24 -17 -24 -50c0 -32 4 -50 24 -50c21 0 25 18 25 50
c0 33 -4 50 -25 50zM472 496c52 0 62 -42 62 -63c0 -31 -31 -49 -52 -52c-72 -8 -124 -31 -166 -72c0 0 73 187 156 187v0zM139 444c94 0 156 -187 156 -187c-41 52 -93 72 -156 72c-31 0 -62 21 -62 52c0 32 21 63 62 63v0zM314 593c67 -65 -19 -243 -19 -243
c7 66 -16 118 -61 161c-22 22 -30 58 -9 81c22 22 59 30 89 1v0z" />
    <glyph glyph-name="braceright" unicode="}" 
d="M101 197c-3 0 -6 0 -9 -1v-98c2 -1 6 -1 9 -1c26 0 31 19 31 50c0 32 -5 50 -31 50v0zM253 161v-24h-40v-38h47v-24h-76v145h76v-25h-47v-34h40zM99 73c-8 0 -23 0 -36 2v143c13 2 27 4 37 4c45 0 61 -25 61 -75c0 -51 -17 -74 -62 -74v0zM286 220h39l19 -80l19 80h40
c2 -35 4 -98 6 -145h-29c0 34 -1 70 -3 104l-20 -82h-27l-20 82h-1c-1 -34 -2 -70 -2 -104h-28c1 47 4 110 7 145v0zM482 73c-40 0 -53 23 -53 74s13 75 53 75s54 -24 54 -75s-14 -74 -54 -74v0zM482 197c-20 0 -24 -17 -24 -50c0 -32 4 -50 24 -50c21 0 25 18 25 50
c0 33 -4 50 -25 50zM472 496c52 0 62 -42 62 -63c0 -31 -31 -49 -52 -52c-72 -8 -124 -31 -166 -72c0 0 73 187 156 187v0zM139 444c94 0 156 -187 156 -187c-41 52 -93 72 -156 72c-31 0 -62 21 -62 52c0 32 21 63 62 63v0zM314 593c67 -65 -19 -243 -19 -243
c7 66 -16 118 -61 161c-22 22 -30 58 -9 81c22 22 59 30 89 1v0z" />
    <glyph glyph-name="asciitilde" unicode="~" 
d="M101 197c-3 0 -6 0 -9 -1v-98c2 -1 6 -1 9 -1c26 0 31 19 31 50c0 32 -5 50 -31 50v0zM253 161v-24h-40v-38h47v-24h-76v145h76v-25h-47v-34h40zM99 73c-8 0 -23 0 -36 2v143c13 2 27 4 37 4c45 0 61 -25 61 -75c0 -51 -17 -74 -62 -74v0zM286 220h39l19 -80l19 80h40
c2 -35 4 -98 6 -145h-29c0 34 -1 70 -3 104l-20 -82h-27l-20 82h-1c-1 -34 -2 -70 -2 -104h-28c1 47 4 110 7 145v0zM482 73c-40 0 -53 23 -53 74s13 75 53 75s54 -24 54 -75s-14 -74 -54 -74v0zM482 197c-20 0 -24 -17 -24 -50c0 -32 4 -50 24 -50c21 0 25 18 25 50
c0 33 -4 50 -25 50zM472 496c52 0 62 -42 62 -63c0 -31 -31 -49 -52 -52c-72 -8 -124 -31 -166 -72c0 0 73 187 156 187v0zM139 444c94 0 156 -187 156 -187c-41 52 -93 72 -156 72c-31 0 -62 21 -62 52c0 32 21 63 62 63v0zM314 593c67 -65 -19 -243 -19 -243
c7 66 -16 118 -61 161c-22 22 -30 58 -9 81c22 22 59 30 89 1v0z" />
    </font>
</defs>
</svg>
