<svg width="72" height="122" viewBox="0 0 72 122" fill="none" xmlns="http://www.w3.org/2000/svg">
<path d="M83.6296 1.45587C87.0579 10.482 88.1224 34.2771 85.1937 43.0364C82.5741 50.6733 79.1329 58.003 75.1328 64.9144C67.167 78.5168 56.5546 90.5073 44.1408 100.042C37.1517 105.393 29.5581 110.045 21.5203 113.688C19.4994 114.637 18.0525 111.339 20.0848 110.46C33.8656 104.164 46.3475 95.0491 56.6739 83.8905C66.9432 72.8121 75.2053 59.7391 80.6037 45.4455C83.9433 36.6248 84.0434 12.2248 80.4898 2.85875C80.1367 1.9792 80.4571 0.927002 81.302 0.513502C82.1582 0.170029 83.2764 0.576321 83.6296 1.45587Z" fill="#FBBB5B"/>
<path d="M24.6542 99.8439C23.7938 102.195 22.6356 103.794 22.0529 105.989C21.6526 106.981 21.3095 107.894 20.9093 108.886C20.5661 109.798 20.0175 110.741 19.9026 111.762C19.6961 113.085 21.1681 113.51 22.2523 113.706C26.4746 114.651 22.8593 114.093 27.2142 114.748C29.4428 115.084 31.2736 115.345 32.6656 115.597C34.8339 115.99 34.5001 119.554 32.3205 119.092C31.0156 118.815 29.5427 118.727 27.5195 118.361C22.9661 117.537 26.2777 118.195 21.7588 117.151C19.9329 116.707 17.9932 115.994 17.013 114.276C15.8276 112.158 16.7197 109.872 17.5202 107.887C18.3205 105.902 19.5406 103.155 19.9809 101.977C20.894 99.5329 21.204 99.0109 21.4138 98.4644C22.203 96.4094 25.432 97.7189 24.6542 99.8439Z" fill="#FBBB5B"/>
</svg>
