<svg width="125" height="47" viewBox="0 0 125 47" fill="none" xmlns="http://www.w3.org/2000/svg">
<path d="M46.9195 42.5228C35.3383 42.2179 26.4979 41.6288 17.7911 39.3019C14.6443 38.487 11.5799 37.0945 8.57222 35.7048C7.2367 35.0595 5.98355 33.8368 4.90423 32.5394C3.06754 30.3752 3.05312 28.132 4.86097 25.81C6.00826 24.2869 7.37509 22.9404 8.73458 21.7596C12.3337 18.7758 16.229 16.8028 20.117 14.9955C29.7484 10.5562 39.643 7.87357 49.6107 6.10805C60.9506 4.15903 72.2282 3.61893 83.5495 4.65894C91.8722 5.38937 100.162 6.86571 108.301 9.16539C112.905 10.4653 117.504 11.8481 122.107 13.1481C122.164 13.1508 122.22 13.1535 122.274 13.2391C123.454 13.5447 124.213 13.0827 124.374 12.0108C124.649 10.9442 124.111 10.254 122.881 9.77994C115.04 7.16231 107.142 4.54197 99.1395 2.99633C90.5168 1.33796 81.8685 0.259734 73.1158 0.256211C58.2835 0.210954 43.5753 2.49714 28.9766 7.44627C23.2059 9.41261 17.5303 11.7988 12.0339 15.2732C9.51811 16.8969 7.09738 18.9405 4.73337 20.9868C3.72884 21.8523 2.81209 23.3034 2.06915 24.6798C0.398443 27.7559 0.410901 31.3278 2.16154 34.1523C3.16948 35.7785 4.472 37.1697 5.84591 38.2321C9.02913 40.7929 12.5583 41.9584 16.0947 42.9582C27.5586 45.9153 39.1215 46.6346 50.785 46.3621C55.5072 46.2559 60.2293 46.1496 64.9588 45.8776C71.0568 45.5049 77.2152 45.0521 83.3279 44.3479C89.0966 43.7103 94.8197 42.8214 100.557 41.601C103.77 40.9242 107.009 39.6672 110.134 38.4048C111.638 37.8124 113.111 36.637 114.417 35.3707C117.275 32.4345 117.632 28.2158 115.472 24.3751C114.21 22.0722 112.51 20.662 110.69 19.4122C106.663 16.6449 102.362 14.9441 97.9895 13.5722C91.9942 11.6242 85.8944 10.751 79.6336 10.9498C78.0986 10.9594 77.3886 11.5898 77.3903 12.8357C77.3994 13.9158 78.058 14.4457 79.4722 14.5964C83.1515 14.9385 86.8381 15.1149 90.5063 15.7057C96.7689 16.7528 102.874 18.7891 108.626 22.3864C109.954 23.1975 111.214 24.2544 112.354 25.4717C114.952 28.4198 114.717 31.1493 111.726 33.2486C110.317 34.2609 108.806 35.0192 107.245 35.6089C102.442 37.5385 97.5663 38.551 92.652 39.1464C83.3411 40.1959 73.9736 41.2426 64.6811 41.8777C57.8915 42.4664 51.0178 42.3867 46.9195 42.5228Z" fill="#FBBB5B"/>
</svg>
