<svg width="240" height="43" viewBox="0 0 240 43" fill="none" xmlns="http://www.w3.org/2000/svg">
<g clip-path="url(#clip0_502_5115)">
<path d="M65.6015 33.814C61.7557 33.814 58.4394 32.523 55.6526 29.9503C52.8658 27.3775 51.4724 24.2238 51.4724 20.4892C51.4724 16.7545 52.8658 13.5916 55.6526 10.9819C58.4394 8.38151 61.7557 7.0813 65.6015 7.0813C69.4473 7.0813 72.8194 8.38151 75.634 10.9819C78.4487 13.5824 79.8514 16.7545 79.8514 20.4892C79.8514 24.2238 78.4394 27.3775 75.634 29.9503C72.8194 32.523 69.4752 33.814 65.6015 33.814ZM65.6015 10.945C62.8426 10.945 60.4738 11.8764 58.4952 13.7299C56.5165 15.5834 55.5226 17.8426 55.5226 20.4892C55.5504 23.1449 56.5537 25.3673 58.5323 27.1746C60.511 28.9728 62.8612 29.8673 65.6015 29.8673C68.3419 29.8673 70.7386 28.9728 72.7265 27.1746C74.7144 25.3765 75.7269 23.1449 75.7548 20.4892C75.7827 17.8334 74.7887 15.5834 72.7636 13.7299C70.7478 11.8764 68.3512 10.945 65.5922 10.945H65.6015Z" fill="white"/>
<path d="M105.815 18.4605V33.4452H101.672V18.6726C101.672 16.5148 100.975 14.689 99.5728 13.1951C98.1794 11.7013 96.3865 10.9543 94.2035 10.9543C92.0205 10.9543 90.237 11.692 88.8343 13.1767C87.4409 14.6613 86.7349 16.4871 86.7349 18.6726V33.4452H82.4711V7.46865H86.7349V10.1613C88.1283 9.08239 89.3452 8.33546 90.3763 7.9205C91.6304 7.36722 93.0331 7.09058 94.5658 7.09058C97.6963 7.09058 100.344 8.20636 102.527 10.4287C104.701 12.6603 105.797 15.3345 105.797 18.4605H105.815Z" fill="white"/>
<path d="M108.704 0.617188H112.847V7.46866H121.914V11.3232H112.847V24.1132C112.847 24.5005 112.968 25.063 113.2 25.8099C113.433 26.5569 113.665 27.0825 113.888 27.3868C114.975 28.9083 116.897 29.6645 119.656 29.6645H122.75V33.436C122.583 33.436 121.691 33.4545 120.074 33.4729C118.876 33.5006 117.901 33.5006 117.148 33.4729C116.089 33.3899 115.188 33.2424 114.436 33.0211C112.736 32.5508 111.352 31.601 110.293 30.1624C109.234 28.7239 108.704 27.1194 108.704 25.3581V0.617188Z" fill="white"/>
<path d="M142.146 33.4453V11.2033H136.34C133.665 11.2033 131.389 12.0886 129.531 13.8591C127.664 15.6296 126.735 17.8335 126.735 20.4616C126.735 23.0897 127.655 25.2844 129.494 27.0364C131.333 28.7977 133.572 29.6737 136.229 29.6737C137.817 29.6737 139.285 29.2957 140.613 28.5579V32.7444C138.857 33.3254 137.325 33.6113 136.015 33.6113C132.253 33.6113 129.039 32.3479 126.382 29.8121C123.716 27.2762 122.387 24.1594 122.387 20.4524C122.387 18.3499 122.88 16.3396 123.855 14.4308C125.026 12.2177 126.67 10.5025 128.788 9.2853C130.906 8.06808 133.247 7.45947 135.811 7.45947H146.224V33.436H142.165L142.146 33.4453Z" fill="white"/>
<path d="M160.595 10.9543C158.439 10.9543 156.665 11.692 155.253 13.1767C153.841 14.6613 153.135 16.4871 153.135 18.6726V33.4452H148.871V7.46865H153.135V10.1613C154.529 9.08239 155.745 8.33546 156.777 7.9205C158.031 7.36722 159.433 7.09058 160.966 7.09058C164.515 7.09058 167.422 8.47378 169.68 11.2402L165.992 13.232C164.57 11.7105 162.768 10.9451 160.585 10.9451L160.595 10.9543Z" fill="white"/>
<path d="M181.523 33.4452C178.96 33.4452 176.619 32.8274 174.501 31.601C172.383 30.3745 170.739 28.6501 169.568 26.437C168.593 24.5558 168.1 22.5548 168.1 20.4155C168.1 16.7085 169.429 13.5916 172.076 11.0558C174.724 8.52912 177.928 7.25657 181.672 7.25657C181.867 7.25657 182.517 7.22891 183.632 7.17358C184.598 7.14592 185.369 7.14592 185.917 7.17358C186.753 7.20124 187.385 7.30268 187.831 7.46866H191.89V34.0262C191.89 35.852 191.389 37.4934 190.386 38.9688C189.327 40.5457 187.933 41.4586 186.205 41.7076C184.477 41.9566 181.737 42.0857 177.966 42.0857V38.351C178.328 38.351 178.848 38.3602 179.517 38.3879H181.068C183.827 38.3879 185.75 37.641 186.837 36.1471C187.534 35.1789 187.868 34.2752 187.84 33.4452H181.533H181.523ZM187.831 11.6183C187.413 11.397 186.809 11.2586 186.038 11.2033C185.481 11.148 184.756 11.1388 183.864 11.1664L181.941 11.2033C179.294 11.2033 177.055 12.0793 175.207 13.8406C173.367 15.6019 172.448 17.7874 172.448 20.4155C172.448 23.0435 173.377 25.2751 175.244 27.0364C177.111 28.7977 179.387 29.6737 182.053 29.6737H187.822V11.6183H187.831Z" fill="white"/>
<path d="M218.059 18.4604C217.278 13.4532 214.129 10.945 208.611 10.945C205.852 10.945 203.474 11.8764 201.486 13.7298C199.498 15.5833 198.514 17.8426 198.542 20.4891C198.57 23.0895 199.508 25.3027 201.366 27.1285C203.224 28.9543 205.453 29.8672 208.073 29.8672C210.302 29.8672 212.42 29.4523 214.427 28.6223C216.767 27.6264 218.254 26.2801 218.904 24.5926L221.7 27.2852C220.557 29.4154 218.727 31.0476 216.219 32.1818C213.934 33.2607 211.398 33.7955 208.611 33.7955C204.71 33.7955 201.375 32.5138 198.597 29.9594C195.82 27.4051 194.436 24.2422 194.436 20.4799C194.436 16.7176 195.829 13.5823 198.616 10.9727C201.403 8.37223 204.728 7.07202 208.602 7.07202C212.782 7.09969 216.052 8.04026 218.43 9.89376C221.245 12.0792 222.648 15.4727 222.648 20.0557C222.648 20.609 222.629 21.1899 222.61 21.7985H202.545V18.4788H218.012L218.049 18.442L218.059 18.4604Z" fill="white"/>
<path d="M225.955 0.617188H230.098V7.46866H239.164V11.3232H230.098V24.1132C230.098 24.5005 230.218 25.063 230.451 25.8099C230.683 26.5569 230.915 27.0825 231.138 27.3868C232.225 28.9083 234.148 29.6645 236.907 29.6645H240V33.436C239.833 33.436 238.941 33.4545 237.325 33.4729C236.126 33.5006 235.151 33.5006 234.399 33.4729C233.34 33.3899 232.439 33.2424 231.686 33.0211C229.986 32.5508 228.602 31.601 227.543 30.1624C226.484 28.7239 225.955 27.1194 225.955 25.3581V0.617188Z" fill="white"/>
<path d="M7.43149 6.94312H0V33.9433H7.43149V6.94312Z" fill="white"/>
<path d="M7.43149 0.423584H0V4.56398H7.43149V0.423584Z" fill="white"/>
<path d="M49.9396 14.8734V7.49634H27.0134V14.8734H39.1639L27.0134 26.5846V33.9616H49.9396V26.5846H37.7055L49.9396 14.8734Z" fill="white"/>
<path d="M24.1524 14.6429V7.26583H17.9842V0.423584H10.5527V27.6358C10.5527 31.1215 13.4139 33.9617 16.9252 33.9617H24.1524V26.5846H17.9842V14.6429H24.1524Z" fill="white"/>
</g>
<defs>
<clipPath id="clip0_502_5115">
<rect width="240" height="41.6529" fill="white" transform="translate(0 0.423584)"/>
</clipPath>
</defs>
</svg>
