<svg width="51" height="51" viewBox="0 0 51 51" fill="none" xmlns="http://www.w3.org/2000/svg">
<path d="M25.6667 6.49707C15.3115 6.49707 6.91669 14.8919 6.91669 25.2471C6.91669 35.6023 15.3115 43.9971 25.6667 43.9971C36.0219 43.9971 44.4167 35.6023 44.4167 25.2471" stroke="#FBBB5B" stroke-width="3" stroke-linecap="round" stroke-linejoin="round"/>
<path d="M25.6667 15.8721C23.8125 15.8721 21.9999 16.4219 20.4582 17.452C18.9165 18.4822 17.7149 19.9464 17.0053 21.6594C16.2957 23.3725 16.1101 25.2575 16.4718 27.076C16.8336 28.8946 17.7264 30.5651 19.0376 31.8762C20.3487 33.1873 22.0191 34.0802 23.8377 34.4419C25.6563 34.8037 27.5413 34.618 29.2543 33.9084C30.9674 33.1989 32.4316 31.9973 33.4617 30.4555C34.4919 28.9138 35.0417 27.1013 35.0417 25.2471M25.6667 25.2471L32.2292 18.6783" stroke="#FBBB5B" stroke-width="3" stroke-linecap="round" stroke-linejoin="round"/>
<path d="M32.2292 12.1492V18.6846H38.8177L44.4167 13.0596H37.8573V6.49707L32.2292 12.1492Z" stroke="#FBBB5B" stroke-width="3" stroke-linejoin="round"/>
</svg>
