<svg width="159" height="17" viewBox="0 0 159 17" fill="none" xmlns="http://www.w3.org/2000/svg">
<path d="M95.202 16.1115C78.3412 15.7624 61.4613 15.396 44.6005 15.0469C43.4951 15.0313 41.3742 14.4047 40.9476 13.2526C40.521 12.1005 41.6813 11.5755 42.767 11.5558C79.7987 11.0622 116.94 10.5468 153.664 5.4321L155.518 8.97626C116.649 4.7942 77.4722 3.44129 38.3792 5.02966C27.2731 5.48642 16.1566 6.17692 5.08494 7.09925L3.21217 3.53779C38.2408 5.2858 73.386 4.55234 108.336 1.38413C109.732 1.26396 111.977 1.76061 112.774 2.98963C113.572 4.21865 112.157 4.84216 111.038 4.95277C75.5378 8.1939 39.8389 8.89268 4.25607 7.09207C3.11266 7.04194 0.974608 6.45181 0.528348 5.26447C0.0820871 4.07713 1.30005 3.62201 2.3833 3.53061C41.9157 0.275387 81.6965 -0.0622157 121.267 2.55167C132.359 3.28025 143.441 4.2605 154.494 5.4572C155.64 5.57906 157.737 6.04495 158.203 7.28544C158.67 8.52593 157.411 8.85681 156.366 9.00073C119.604 14.0988 82.4623 14.5962 45.4294 15.054L43.5959 11.563C60.4573 11.9301 77.3372 12.2965 94.198 12.6456C95.3034 12.6611 97.7217 13.3672 97.9504 14.6518C98.184 16.0799 96.1413 16.1148 95.2014 16.0935L95.202 16.1115Z" fill="#FBBB5B"/>
</svg>
