<?xml version="1.0" standalone="no"?>
<!DOCTYPE svg PUBLIC "-//W3C//DTD SVG 1.1//EN" "http://www.w3.org/Graphics/SVG/1.1/DTD/svg11.dtd" >
<svg xmlns="http://www.w3.org/2000/svg" xmlns:xlink="http://www.w3.org/1999/xlink" version="1.1">
<metadata>
Created by FontForge 20201107 at Mon Nov  8 15:01:02 2021
 By Unknown
Copyright \(c\) 2021 by Connary Fagen. All rights reserved.
</metadata>
<defs>
<font id="FONTSPRINGDEMO-GreycliffCFBold" horiz-adv-x="598" >
  <font-face 
    font-family="FONTSPRING DEMO - Greycliff CF"
    font-weight="700"
    font-stretch="normal"
    units-per-em="1000"
    panose-1="0 0 0 0 0 0 0 0 0 0"
    ascent="800"
    descent="-200"
    x-height="490"
    cap-height="700"
    bbox="-45 -205 1046.96 731"
    underline-thickness="50"
    underline-position="-125"
    stemh="127"
    stemv="29"
    unicode-range="U+0020-007E"
  />
<missing-glyph 
d="M101 197c-3 0 -6 0 -9 -1v-98c2 -1 6 -1 9 -1c26 0 31 19 31 50c0 32 -5 50 -31 50v0zM253 161v-24h-40v-38h47v-24h-76v145h76v-25h-47v-34h40zM99 73c-8 0 -23 0 -36 2v143c13 2 27 4 37 4c45 0 61 -25 61 -75c0 -51 -17 -74 -62 -74v0zM286 220h39l19 -80l19 80h40
c2 -35 4 -98 6 -145h-29c0 34 -1 70 -3 104l-20 -82h-27l-20 82h-1c-1 -34 -2 -70 -2 -104h-28c1 47 4 110 7 145v0zM482 73c-40 0 -53 23 -53 74s13 75 53 75s54 -24 54 -75s-14 -74 -54 -74v0zM482 197c-20 0 -24 -17 -24 -50c0 -32 4 -50 24 -50c21 0 25 18 25 50
c0 33 -4 50 -25 50zM472 496c52 0 62 -42 62 -63c0 -31 -31 -49 -52 -52c-72 -8 -124 -31 -166 -72c0 0 73 187 156 187v0zM139 444c94 0 156 -187 156 -187c-41 52 -93 72 -156 72c-31 0 -62 21 -62 52c0 32 21 63 62 63v0zM314 593c67 -65 -19 -243 -19 -243
c7 66 -16 118 -61 161c-22 22 -30 58 -9 81c22 22 59 30 89 1v0z" />
    <glyph glyph-name=".notdef" 
d="M101 197c-3 0 -6 0 -9 -1v-98c2 -1 6 -1 9 -1c26 0 31 19 31 50c0 32 -5 50 -31 50v0zM253 161v-24h-40v-38h47v-24h-76v145h76v-25h-47v-34h40zM99 73c-8 0 -23 0 -36 2v143c13 2 27 4 37 4c45 0 61 -25 61 -75c0 -51 -17 -74 -62 -74v0zM286 220h39l19 -80l19 80h40
c2 -35 4 -98 6 -145h-29c0 34 -1 70 -3 104l-20 -82h-27l-20 82h-1c-1 -34 -2 -70 -2 -104h-28c1 47 4 110 7 145v0zM482 73c-40 0 -53 23 -53 74s13 75 53 75s54 -24 54 -75s-14 -74 -54 -74v0zM482 197c-20 0 -24 -17 -24 -50c0 -32 4 -50 24 -50c21 0 25 18 25 50
c0 33 -4 50 -25 50zM472 496c52 0 62 -42 62 -63c0 -31 -31 -49 -52 -52c-72 -8 -124 -31 -166 -72c0 0 73 187 156 187v0zM139 444c94 0 156 -187 156 -187c-41 52 -93 72 -156 72c-31 0 -62 21 -62 52c0 32 21 63 62 63v0zM314 593c67 -65 -19 -243 -19 -243
c7 66 -16 118 -61 161c-22 22 -30 58 -9 81c22 22 59 30 89 1v0z" />
    <glyph glyph-name="space" unicode=" " horiz-adv-x="195" 
 />
    <glyph glyph-name="exclam" unicode="!" 
d="M101 197c-3 0 -6 0 -9 -1v-98c2 -1 6 -1 9 -1c26 0 31 19 31 50c0 32 -5 50 -31 50v0zM253 161v-24h-40v-38h47v-24h-76v145h76v-25h-47v-34h40zM99 73c-8 0 -23 0 -36 2v143c13 2 27 4 37 4c45 0 61 -25 61 -75c0 -51 -17 -74 -62 -74v0zM286 220h39l19 -80l19 80h40
c2 -35 4 -98 6 -145h-29c0 34 -1 70 -3 104l-20 -82h-27l-20 82h-1c-1 -34 -2 -70 -2 -104h-28c1 47 4 110 7 145v0zM482 73c-40 0 -53 23 -53 74s13 75 53 75s54 -24 54 -75s-14 -74 -54 -74v0zM482 197c-20 0 -24 -17 -24 -50c0 -32 4 -50 24 -50c21 0 25 18 25 50
c0 33 -4 50 -25 50zM472 496c52 0 62 -42 62 -63c0 -31 -31 -49 -52 -52c-72 -8 -124 -31 -166 -72c0 0 73 187 156 187v0zM139 444c94 0 156 -187 156 -187c-41 52 -93 72 -156 72c-31 0 -62 21 -62 52c0 32 21 63 62 63v0zM314 593c67 -65 -19 -243 -19 -243
c7 66 -16 118 -61 161c-22 22 -30 58 -9 81c22 22 59 30 89 1v0z" />
    <glyph glyph-name="quotedbl" unicode="&#x22;" 
d="M101 197c-3 0 -6 0 -9 -1v-98c2 -1 6 -1 9 -1c26 0 31 19 31 50c0 32 -5 50 -31 50v0zM253 161v-24h-40v-38h47v-24h-76v145h76v-25h-47v-34h40zM99 73c-8 0 -23 0 -36 2v143c13 2 27 4 37 4c45 0 61 -25 61 -75c0 -51 -17 -74 -62 -74v0zM286 220h39l19 -80l19 80h40
c2 -35 4 -98 6 -145h-29c0 34 -1 70 -3 104l-20 -82h-27l-20 82h-1c-1 -34 -2 -70 -2 -104h-28c1 47 4 110 7 145v0zM482 73c-40 0 -53 23 -53 74s13 75 53 75s54 -24 54 -75s-14 -74 -54 -74v0zM482 197c-20 0 -24 -17 -24 -50c0 -32 4 -50 24 -50c21 0 25 18 25 50
c0 33 -4 50 -25 50zM472 496c52 0 62 -42 62 -63c0 -31 -31 -49 -52 -52c-72 -8 -124 -31 -166 -72c0 0 73 187 156 187v0zM139 444c94 0 156 -187 156 -187c-41 52 -93 72 -156 72c-31 0 -62 21 -62 52c0 32 21 63 62 63v0zM314 593c67 -65 -19 -243 -19 -243
c7 66 -16 118 -61 161c-22 22 -30 58 -9 81c22 22 59 30 89 1v0z" />
    <glyph glyph-name="numbersign" unicode="#" 
d="M101 197c-3 0 -6 0 -9 -1v-98c2 -1 6 -1 9 -1c26 0 31 19 31 50c0 32 -5 50 -31 50v0zM253 161v-24h-40v-38h47v-24h-76v145h76v-25h-47v-34h40zM99 73c-8 0 -23 0 -36 2v143c13 2 27 4 37 4c45 0 61 -25 61 -75c0 -51 -17 -74 -62 -74v0zM286 220h39l19 -80l19 80h40
c2 -35 4 -98 6 -145h-29c0 34 -1 70 -3 104l-20 -82h-27l-20 82h-1c-1 -34 -2 -70 -2 -104h-28c1 47 4 110 7 145v0zM482 73c-40 0 -53 23 -53 74s13 75 53 75s54 -24 54 -75s-14 -74 -54 -74v0zM482 197c-20 0 -24 -17 -24 -50c0 -32 4 -50 24 -50c21 0 25 18 25 50
c0 33 -4 50 -25 50zM472 496c52 0 62 -42 62 -63c0 -31 -31 -49 -52 -52c-72 -8 -124 -31 -166 -72c0 0 73 187 156 187v0zM139 444c94 0 156 -187 156 -187c-41 52 -93 72 -156 72c-31 0 -62 21 -62 52c0 32 21 63 62 63v0zM314 593c67 -65 -19 -243 -19 -243
c7 66 -16 118 -61 161c-22 22 -30 58 -9 81c22 22 59 30 89 1v0z" />
    <glyph glyph-name="dollar" unicode="$" 
d="M101 197c-3 0 -6 0 -9 -1v-98c2 -1 6 -1 9 -1c26 0 31 19 31 50c0 32 -5 50 -31 50v0zM253 161v-24h-40v-38h47v-24h-76v145h76v-25h-47v-34h40zM99 73c-8 0 -23 0 -36 2v143c13 2 27 4 37 4c45 0 61 -25 61 -75c0 -51 -17 -74 -62 -74v0zM286 220h39l19 -80l19 80h40
c2 -35 4 -98 6 -145h-29c0 34 -1 70 -3 104l-20 -82h-27l-20 82h-1c-1 -34 -2 -70 -2 -104h-28c1 47 4 110 7 145v0zM482 73c-40 0 -53 23 -53 74s13 75 53 75s54 -24 54 -75s-14 -74 -54 -74v0zM482 197c-20 0 -24 -17 -24 -50c0 -32 4 -50 24 -50c21 0 25 18 25 50
c0 33 -4 50 -25 50zM472 496c52 0 62 -42 62 -63c0 -31 -31 -49 -52 -52c-72 -8 -124 -31 -166 -72c0 0 73 187 156 187v0zM139 444c94 0 156 -187 156 -187c-41 52 -93 72 -156 72c-31 0 -62 21 -62 52c0 32 21 63 62 63v0zM314 593c67 -65 -19 -243 -19 -243
c7 66 -16 118 -61 161c-22 22 -30 58 -9 81c22 22 59 30 89 1v0z" />
    <glyph glyph-name="percent" unicode="%" 
d="M101 197c-3 0 -6 0 -9 -1v-98c2 -1 6 -1 9 -1c26 0 31 19 31 50c0 32 -5 50 -31 50v0zM253 161v-24h-40v-38h47v-24h-76v145h76v-25h-47v-34h40zM99 73c-8 0 -23 0 -36 2v143c13 2 27 4 37 4c45 0 61 -25 61 -75c0 -51 -17 -74 -62 -74v0zM286 220h39l19 -80l19 80h40
c2 -35 4 -98 6 -145h-29c0 34 -1 70 -3 104l-20 -82h-27l-20 82h-1c-1 -34 -2 -70 -2 -104h-28c1 47 4 110 7 145v0zM482 73c-40 0 -53 23 -53 74s13 75 53 75s54 -24 54 -75s-14 -74 -54 -74v0zM482 197c-20 0 -24 -17 -24 -50c0 -32 4 -50 24 -50c21 0 25 18 25 50
c0 33 -4 50 -25 50zM472 496c52 0 62 -42 62 -63c0 -31 -31 -49 -52 -52c-72 -8 -124 -31 -166 -72c0 0 73 187 156 187v0zM139 444c94 0 156 -187 156 -187c-41 52 -93 72 -156 72c-31 0 -62 21 -62 52c0 32 21 63 62 63v0zM314 593c67 -65 -19 -243 -19 -243
c7 66 -16 118 -61 161c-22 22 -30 58 -9 81c22 22 59 30 89 1v0z" />
    <glyph glyph-name="ampersand" unicode="&#x26;" 
d="M101 197c-3 0 -6 0 -9 -1v-98c2 -1 6 -1 9 -1c26 0 31 19 31 50c0 32 -5 50 -31 50v0zM253 161v-24h-40v-38h47v-24h-76v145h76v-25h-47v-34h40zM99 73c-8 0 -23 0 -36 2v143c13 2 27 4 37 4c45 0 61 -25 61 -75c0 -51 -17 -74 -62 -74v0zM286 220h39l19 -80l19 80h40
c2 -35 4 -98 6 -145h-29c0 34 -1 70 -3 104l-20 -82h-27l-20 82h-1c-1 -34 -2 -70 -2 -104h-28c1 47 4 110 7 145v0zM482 73c-40 0 -53 23 -53 74s13 75 53 75s54 -24 54 -75s-14 -74 -54 -74v0zM482 197c-20 0 -24 -17 -24 -50c0 -32 4 -50 24 -50c21 0 25 18 25 50
c0 33 -4 50 -25 50zM472 496c52 0 62 -42 62 -63c0 -31 -31 -49 -52 -52c-72 -8 -124 -31 -166 -72c0 0 73 187 156 187v0zM139 444c94 0 156 -187 156 -187c-41 52 -93 72 -156 72c-31 0 -62 21 -62 52c0 32 21 63 62 63v0zM314 593c67 -65 -19 -243 -19 -243
c7 66 -16 118 -61 161c-22 22 -30 58 -9 81c22 22 59 30 89 1v0z" />
    <glyph glyph-name="quotesingle" unicode="'" 
d="M101 197c-3 0 -6 0 -9 -1v-98c2 -1 6 -1 9 -1c26 0 31 19 31 50c0 32 -5 50 -31 50v0zM253 161v-24h-40v-38h47v-24h-76v145h76v-25h-47v-34h40zM99 73c-8 0 -23 0 -36 2v143c13 2 27 4 37 4c45 0 61 -25 61 -75c0 -51 -17 -74 -62 -74v0zM286 220h39l19 -80l19 80h40
c2 -35 4 -98 6 -145h-29c0 34 -1 70 -3 104l-20 -82h-27l-20 82h-1c-1 -34 -2 -70 -2 -104h-28c1 47 4 110 7 145v0zM482 73c-40 0 -53 23 -53 74s13 75 53 75s54 -24 54 -75s-14 -74 -54 -74v0zM482 197c-20 0 -24 -17 -24 -50c0 -32 4 -50 24 -50c21 0 25 18 25 50
c0 33 -4 50 -25 50zM472 496c52 0 62 -42 62 -63c0 -31 -31 -49 -52 -52c-72 -8 -124 -31 -166 -72c0 0 73 187 156 187v0zM139 444c94 0 156 -187 156 -187c-41 52 -93 72 -156 72c-31 0 -62 21 -62 52c0 32 21 63 62 63v0zM314 593c67 -65 -19 -243 -19 -243
c7 66 -16 118 -61 161c-22 22 -30 58 -9 81c22 22 59 30 89 1v0z" />
    <glyph glyph-name="parenleft" unicode="(" 
d="M101 197c-3 0 -6 0 -9 -1v-98c2 -1 6 -1 9 -1c26 0 31 19 31 50c0 32 -5 50 -31 50v0zM253 161v-24h-40v-38h47v-24h-76v145h76v-25h-47v-34h40zM99 73c-8 0 -23 0 -36 2v143c13 2 27 4 37 4c45 0 61 -25 61 -75c0 -51 -17 -74 -62 -74v0zM286 220h39l19 -80l19 80h40
c2 -35 4 -98 6 -145h-29c0 34 -1 70 -3 104l-20 -82h-27l-20 82h-1c-1 -34 -2 -70 -2 -104h-28c1 47 4 110 7 145v0zM482 73c-40 0 -53 23 -53 74s13 75 53 75s54 -24 54 -75s-14 -74 -54 -74v0zM482 197c-20 0 -24 -17 -24 -50c0 -32 4 -50 24 -50c21 0 25 18 25 50
c0 33 -4 50 -25 50zM472 496c52 0 62 -42 62 -63c0 -31 -31 -49 -52 -52c-72 -8 -124 -31 -166 -72c0 0 73 187 156 187v0zM139 444c94 0 156 -187 156 -187c-41 52 -93 72 -156 72c-31 0 -62 21 -62 52c0 32 21 63 62 63v0zM314 593c67 -65 -19 -243 -19 -243
c7 66 -16 118 -61 161c-22 22 -30 58 -9 81c22 22 59 30 89 1v0z" />
    <glyph glyph-name="parenright" unicode=")" 
d="M101 197c-3 0 -6 0 -9 -1v-98c2 -1 6 -1 9 -1c26 0 31 19 31 50c0 32 -5 50 -31 50v0zM253 161v-24h-40v-38h47v-24h-76v145h76v-25h-47v-34h40zM99 73c-8 0 -23 0 -36 2v143c13 2 27 4 37 4c45 0 61 -25 61 -75c0 -51 -17 -74 -62 -74v0zM286 220h39l19 -80l19 80h40
c2 -35 4 -98 6 -145h-29c0 34 -1 70 -3 104l-20 -82h-27l-20 82h-1c-1 -34 -2 -70 -2 -104h-28c1 47 4 110 7 145v0zM482 73c-40 0 -53 23 -53 74s13 75 53 75s54 -24 54 -75s-14 -74 -54 -74v0zM482 197c-20 0 -24 -17 -24 -50c0 -32 4 -50 24 -50c21 0 25 18 25 50
c0 33 -4 50 -25 50zM472 496c52 0 62 -42 62 -63c0 -31 -31 -49 -52 -52c-72 -8 -124 -31 -166 -72c0 0 73 187 156 187v0zM139 444c94 0 156 -187 156 -187c-41 52 -93 72 -156 72c-31 0 -62 21 -62 52c0 32 21 63 62 63v0zM314 593c67 -65 -19 -243 -19 -243
c7 66 -16 118 -61 161c-22 22 -30 58 -9 81c22 22 59 30 89 1v0z" />
    <glyph glyph-name="asterisk" unicode="*" 
d="M101 197c-3 0 -6 0 -9 -1v-98c2 -1 6 -1 9 -1c26 0 31 19 31 50c0 32 -5 50 -31 50v0zM253 161v-24h-40v-38h47v-24h-76v145h76v-25h-47v-34h40zM99 73c-8 0 -23 0 -36 2v143c13 2 27 4 37 4c45 0 61 -25 61 -75c0 -51 -17 -74 -62 -74v0zM286 220h39l19 -80l19 80h40
c2 -35 4 -98 6 -145h-29c0 34 -1 70 -3 104l-20 -82h-27l-20 82h-1c-1 -34 -2 -70 -2 -104h-28c1 47 4 110 7 145v0zM482 73c-40 0 -53 23 -53 74s13 75 53 75s54 -24 54 -75s-14 -74 -54 -74v0zM482 197c-20 0 -24 -17 -24 -50c0 -32 4 -50 24 -50c21 0 25 18 25 50
c0 33 -4 50 -25 50zM472 496c52 0 62 -42 62 -63c0 -31 -31 -49 -52 -52c-72 -8 -124 -31 -166 -72c0 0 73 187 156 187v0zM139 444c94 0 156 -187 156 -187c-41 52 -93 72 -156 72c-31 0 -62 21 -62 52c0 32 21 63 62 63v0zM314 593c67 -65 -19 -243 -19 -243
c7 66 -16 118 -61 161c-22 22 -30 58 -9 81c22 22 59 30 89 1v0z" />
    <glyph glyph-name="plus" unicode="+" 
d="M101 197c-3 0 -6 0 -9 -1v-98c2 -1 6 -1 9 -1c26 0 31 19 31 50c0 32 -5 50 -31 50v0zM253 161v-24h-40v-38h47v-24h-76v145h76v-25h-47v-34h40zM99 73c-8 0 -23 0 -36 2v143c13 2 27 4 37 4c45 0 61 -25 61 -75c0 -51 -17 -74 -62 -74v0zM286 220h39l19 -80l19 80h40
c2 -35 4 -98 6 -145h-29c0 34 -1 70 -3 104l-20 -82h-27l-20 82h-1c-1 -34 -2 -70 -2 -104h-28c1 47 4 110 7 145v0zM482 73c-40 0 -53 23 -53 74s13 75 53 75s54 -24 54 -75s-14 -74 -54 -74v0zM482 197c-20 0 -24 -17 -24 -50c0 -32 4 -50 24 -50c21 0 25 18 25 50
c0 33 -4 50 -25 50zM472 496c52 0 62 -42 62 -63c0 -31 -31 -49 -52 -52c-72 -8 -124 -31 -166 -72c0 0 73 187 156 187v0zM139 444c94 0 156 -187 156 -187c-41 52 -93 72 -156 72c-31 0 -62 21 -62 52c0 32 21 63 62 63v0zM314 593c67 -65 -19 -243 -19 -243
c7 66 -16 118 -61 161c-22 22 -30 58 -9 81c22 22 59 30 89 1v0z" />
    <glyph glyph-name="comma" unicode="," horiz-adv-x="257" 
d="M42 -97c72 -1 114 85 80 85c-45 0 -82 37 -82 83c0 45 37 82 84 82c46 0 93 -35 93 -112c0 -114 -102 -174 -175 -170v32z" />
    <glyph glyph-name="hyphen" unicode="-" 
d="M101 197c-3 0 -6 0 -9 -1v-98c2 -1 6 -1 9 -1c26 0 31 19 31 50c0 32 -5 50 -31 50v0zM253 161v-24h-40v-38h47v-24h-76v145h76v-25h-47v-34h40zM99 73c-8 0 -23 0 -36 2v143c13 2 27 4 37 4c45 0 61 -25 61 -75c0 -51 -17 -74 -62 -74v0zM286 220h39l19 -80l19 80h40
c2 -35 4 -98 6 -145h-29c0 34 -1 70 -3 104l-20 -82h-27l-20 82h-1c-1 -34 -2 -70 -2 -104h-28c1 47 4 110 7 145v0zM482 73c-40 0 -53 23 -53 74s13 75 53 75s54 -24 54 -75s-14 -74 -54 -74v0zM482 197c-20 0 -24 -17 -24 -50c0 -32 4 -50 24 -50c21 0 25 18 25 50
c0 33 -4 50 -25 50zM472 496c52 0 62 -42 62 -63c0 -31 -31 -49 -52 -52c-72 -8 -124 -31 -166 -72c0 0 73 187 156 187v0zM139 444c94 0 156 -187 156 -187c-41 52 -93 72 -156 72c-31 0 -62 21 -62 52c0 32 21 63 62 63v0zM314 593c67 -65 -19 -243 -19 -243
c7 66 -16 118 -61 161c-22 22 -30 58 -9 81c22 22 59 30 89 1v0z" />
    <glyph glyph-name="period" unicode="." horiz-adv-x="244" 
d="M122 -13c-46 0 -82 37 -82 82c0 46 36 84 82 84s83 -38 83 -84c0 -45 -37 -82 -83 -82z" />
    <glyph glyph-name="slash" unicode="/" 
d="M101 197c-3 0 -6 0 -9 -1v-98c2 -1 6 -1 9 -1c26 0 31 19 31 50c0 32 -5 50 -31 50v0zM253 161v-24h-40v-38h47v-24h-76v145h76v-25h-47v-34h40zM99 73c-8 0 -23 0 -36 2v143c13 2 27 4 37 4c45 0 61 -25 61 -75c0 -51 -17 -74 -62 -74v0zM286 220h39l19 -80l19 80h40
c2 -35 4 -98 6 -145h-29c0 34 -1 70 -3 104l-20 -82h-27l-20 82h-1c-1 -34 -2 -70 -2 -104h-28c1 47 4 110 7 145v0zM482 73c-40 0 -53 23 -53 74s13 75 53 75s54 -24 54 -75s-14 -74 -54 -74v0zM482 197c-20 0 -24 -17 -24 -50c0 -32 4 -50 24 -50c21 0 25 18 25 50
c0 33 -4 50 -25 50zM472 496c52 0 62 -42 62 -63c0 -31 -31 -49 -52 -52c-72 -8 -124 -31 -166 -72c0 0 73 187 156 187v0zM139 444c94 0 156 -187 156 -187c-41 52 -93 72 -156 72c-31 0 -62 21 -62 52c0 32 21 63 62 63v0zM314 593c67 -65 -19 -243 -19 -243
c7 66 -16 118 -61 161c-22 22 -30 58 -9 81c22 22 59 30 89 1v0z" />
    <glyph glyph-name="zero" unicode="0" horiz-adv-x="652" 
d="M326 -13c-147 0 -281 109 -281 360s134 361 281 361s281 -110 281 -361s-134 -360 -281 -360zM179 347c0 -135 44 -232 147 -232c102 0 147 97 147 232s-45 233 -147 233c-103 0 -147 -98 -147 -233z" />
    <glyph glyph-name="one" unicode="1" horiz-adv-x="363" 
d="M180 0c-9 0 -15 6 -15 15v568h-115c-9 0 -15 6 -15 15v87c0 9 6 15 15 15h238c9 0 15 -6 15 -15v-670c0 -9 -6 -15 -15 -15h-108z" />
    <glyph glyph-name="two" unicode="2" horiz-adv-x="531" 
d="M64 0c-9 0 -15 6 -15 15v86c0 7 2 13 7 19l210 220c30 33 81 82 81 146c0 56 -40 95 -102 95c-58 0 -90 -34 -115 -68c-8 -9 -15 -8 -23 0l-61 61c-7 7 -7 15 -2 22c39 57 105 112 212 112c135 0 226 -90 226 -210c0 -100 -64 -163 -94 -195l-174 -186h253
c9 0 15 -6 15 -15v-87c0 -9 -6 -15 -15 -15h-403z" />
    <glyph glyph-name="three" unicode="3" horiz-adv-x="519" 
d="M249 -13c-101 0 -172 47 -211 106c-5 9 -3 17 3 22l66 60c6 6 15 6 22 -2c26 -32 60 -59 111 -59c67 0 104 45 104 97c0 48 -33 96 -105 96h-27c-10 0 -16 6 -16 16v81c0 10 6 15 16 15h26c61 0 87 41 87 81c0 48 -38 81 -88 81c-42 0 -75 -22 -95 -56
c-6 -10 -14 -9 -22 -2l-62 61c-6 5 -9 13 -3 21c37 58 106 103 197 103c111 0 207 -69 207 -184c0 -79 -47 -129 -98 -152c64 -25 123 -82 123 -177c0 -125 -103 -208 -235 -208z" />
    <glyph glyph-name="four" unicode="4" 
d="M101 197c-3 0 -6 0 -9 -1v-98c2 -1 6 -1 9 -1c26 0 31 19 31 50c0 32 -5 50 -31 50v0zM253 161v-24h-40v-38h47v-24h-76v145h76v-25h-47v-34h40zM99 73c-8 0 -23 0 -36 2v143c13 2 27 4 37 4c45 0 61 -25 61 -75c0 -51 -17 -74 -62 -74v0zM286 220h39l19 -80l19 80h40
c2 -35 4 -98 6 -145h-29c0 34 -1 70 -3 104l-20 -82h-27l-20 82h-1c-1 -34 -2 -70 -2 -104h-28c1 47 4 110 7 145v0zM482 73c-40 0 -53 23 -53 74s13 75 53 75s54 -24 54 -75s-14 -74 -54 -74v0zM482 197c-20 0 -24 -17 -24 -50c0 -32 4 -50 24 -50c21 0 25 18 25 50
c0 33 -4 50 -25 50zM472 496c52 0 62 -42 62 -63c0 -31 -31 -49 -52 -52c-72 -8 -124 -31 -166 -72c0 0 73 187 156 187v0zM139 444c94 0 156 -187 156 -187c-41 52 -93 72 -156 72c-31 0 -62 21 -62 52c0 32 21 63 62 63v0zM314 593c67 -65 -19 -243 -19 -243
c7 66 -16 118 -61 161c-22 22 -30 58 -9 81c22 22 59 30 89 1v0z" />
    <glyph glyph-name="five" unicode="5" horiz-adv-x="542" 
d="M255 -13c-106 0 -178 56 -208 106c-4 10 -2 17 7 24l71 54c10 7 19 4 25 -4c22 -30 55 -53 103 -53c74 0 121 54 121 119c0 68 -50 117 -118 117c-35 0 -67 -14 -89 -38c-6 -7 -14 -11 -25 -7l-75 30c-9 4 -12 9 -10 18l75 334c2 8 7 13 16 13h300c9 0 15 -6 15 -15v-87
c0 -9 -6 -15 -15 -15h-214l-30 -133c20 7 49 16 85 16c127 0 219 -102 219 -236c0 -148 -112 -243 -253 -243z" />
    <glyph glyph-name="six" unicode="6" horiz-adv-x="564" 
d="M282 -13c-138 0 -248 104 -248 241c0 65 25 129 86 205l224 280c6 7 13 10 21 3l74 -65c8 -7 10 -13 3 -21l-140 -165c4 0 11 1 20 1c102 0 208 -103 208 -239c0 -137 -109 -240 -248 -240zM168 232c0 -68 48 -118 114 -118c67 0 114 50 114 118c0 67 -48 118 -114 118
s-114 -51 -114 -118z" />
    <glyph glyph-name="seven" unicode="7" horiz-adv-x="522" 
d="M105 0c-9 0 -16 6 -11 18l230 565h-274c-9 0 -15 6 -15 15v87c0 9 6 15 15 15h430c10 0 15 -8 11 -19l-262 -666c-3 -9 -8 -15 -19 -15h-105z" />
    <glyph glyph-name="eight" unicode="8" horiz-adv-x="578" 
d="M289 -13c-125 0 -244 81 -244 220c0 89 50 157 118 189c-43 31 -72 78 -72 137c0 96 77 175 198 175c120 0 198 -79 198 -175c0 -59 -29 -106 -72 -137c67 -32 118 -100 118 -189c0 -138 -119 -220 -244 -220zM183 214c0 -63 47 -101 106 -101c58 0 106 38 106 101
c0 67 -52 105 -106 105s-106 -38 -106 -105zM213 522c0 -42 32 -77 76 -77s76 35 76 77c0 43 -32 77 -76 77s-76 -34 -76 -77z" />
    <glyph glyph-name="nine" unicode="9" horiz-adv-x="564" 
d="M125 44c-8 7 -10 13 -3 21l141 165c-5 0 -12 -1 -21 -1c-101 0 -208 104 -208 239c0 137 110 240 248 240s248 -104 248 -240c0 -66 -25 -130 -86 -206l-224 -280c-6 -7 -13 -10 -21 -3zM168 463c0 -67 48 -118 114 -118s114 51 114 118c0 68 -48 118 -114 118
c-67 0 -114 -50 -114 -118z" />
    <glyph glyph-name="colon" unicode=":" horiz-adv-x="244" 
d="M122 -13c-46 0 -82 37 -82 82c0 46 36 84 82 84s83 -38 83 -84c0 -45 -37 -82 -83 -82zM40 418c0 46 36 84 82 84s83 -38 83 -84c0 -45 -37 -82 -83 -82s-82 37 -82 82z" />
    <glyph glyph-name="semicolon" unicode=";" horiz-adv-x="257" 
d="M123 336c-46 0 -82 37 -82 82c0 46 36 84 82 84s83 -38 83 -84c0 -45 -37 -82 -83 -82zM40 71c0 45 37 82 84 82c46 0 93 -35 93 -112c0 -114 -102 -174 -175 -170v32c72 -1 114 85 80 85c-45 0 -82 37 -82 83z" />
    <glyph glyph-name="less" unicode="&#x3c;" 
d="M101 197c-3 0 -6 0 -9 -1v-98c2 -1 6 -1 9 -1c26 0 31 19 31 50c0 32 -5 50 -31 50v0zM253 161v-24h-40v-38h47v-24h-76v145h76v-25h-47v-34h40zM99 73c-8 0 -23 0 -36 2v143c13 2 27 4 37 4c45 0 61 -25 61 -75c0 -51 -17 -74 -62 -74v0zM286 220h39l19 -80l19 80h40
c2 -35 4 -98 6 -145h-29c0 34 -1 70 -3 104l-20 -82h-27l-20 82h-1c-1 -34 -2 -70 -2 -104h-28c1 47 4 110 7 145v0zM482 73c-40 0 -53 23 -53 74s13 75 53 75s54 -24 54 -75s-14 -74 -54 -74v0zM482 197c-20 0 -24 -17 -24 -50c0 -32 4 -50 24 -50c21 0 25 18 25 50
c0 33 -4 50 -25 50zM472 496c52 0 62 -42 62 -63c0 -31 -31 -49 -52 -52c-72 -8 -124 -31 -166 -72c0 0 73 187 156 187v0zM139 444c94 0 156 -187 156 -187c-41 52 -93 72 -156 72c-31 0 -62 21 -62 52c0 32 21 63 62 63v0zM314 593c67 -65 -19 -243 -19 -243
c7 66 -16 118 -61 161c-22 22 -30 58 -9 81c22 22 59 30 89 1v0z" />
    <glyph glyph-name="equal" unicode="=" 
d="M101 197c-3 0 -6 0 -9 -1v-98c2 -1 6 -1 9 -1c26 0 31 19 31 50c0 32 -5 50 -31 50v0zM253 161v-24h-40v-38h47v-24h-76v145h76v-25h-47v-34h40zM99 73c-8 0 -23 0 -36 2v143c13 2 27 4 37 4c45 0 61 -25 61 -75c0 -51 -17 -74 -62 -74v0zM286 220h39l19 -80l19 80h40
c2 -35 4 -98 6 -145h-29c0 34 -1 70 -3 104l-20 -82h-27l-20 82h-1c-1 -34 -2 -70 -2 -104h-28c1 47 4 110 7 145v0zM482 73c-40 0 -53 23 -53 74s13 75 53 75s54 -24 54 -75s-14 -74 -54 -74v0zM482 197c-20 0 -24 -17 -24 -50c0 -32 4 -50 24 -50c21 0 25 18 25 50
c0 33 -4 50 -25 50zM472 496c52 0 62 -42 62 -63c0 -31 -31 -49 -52 -52c-72 -8 -124 -31 -166 -72c0 0 73 187 156 187v0zM139 444c94 0 156 -187 156 -187c-41 52 -93 72 -156 72c-31 0 -62 21 -62 52c0 32 21 63 62 63v0zM314 593c67 -65 -19 -243 -19 -243
c7 66 -16 118 -61 161c-22 22 -30 58 -9 81c22 22 59 30 89 1v0z" />
    <glyph glyph-name="greater" unicode="&#x3e;" 
d="M101 197c-3 0 -6 0 -9 -1v-98c2 -1 6 -1 9 -1c26 0 31 19 31 50c0 32 -5 50 -31 50v0zM253 161v-24h-40v-38h47v-24h-76v145h76v-25h-47v-34h40zM99 73c-8 0 -23 0 -36 2v143c13 2 27 4 37 4c45 0 61 -25 61 -75c0 -51 -17 -74 -62 -74v0zM286 220h39l19 -80l19 80h40
c2 -35 4 -98 6 -145h-29c0 34 -1 70 -3 104l-20 -82h-27l-20 82h-1c-1 -34 -2 -70 -2 -104h-28c1 47 4 110 7 145v0zM482 73c-40 0 -53 23 -53 74s13 75 53 75s54 -24 54 -75s-14 -74 -54 -74v0zM482 197c-20 0 -24 -17 -24 -50c0 -32 4 -50 24 -50c21 0 25 18 25 50
c0 33 -4 50 -25 50zM472 496c52 0 62 -42 62 -63c0 -31 -31 -49 -52 -52c-72 -8 -124 -31 -166 -72c0 0 73 187 156 187v0zM139 444c94 0 156 -187 156 -187c-41 52 -93 72 -156 72c-31 0 -62 21 -62 52c0 32 21 63 62 63v0zM314 593c67 -65 -19 -243 -19 -243
c7 66 -16 118 -61 161c-22 22 -30 58 -9 81c22 22 59 30 89 1v0z" />
    <glyph glyph-name="question" unicode="?" horiz-adv-x="464" 
d="M181 216c-9 0 -16 6 -16 15l-1 38c-4 151 126 145 126 236c0 44 -32 69 -74 69c-54 0 -80 -42 -94 -75c-6 -10 -14 -10 -24 -4l-61 38c-18 10 -20 19 -17 29c28 83 102 146 212 146c99 0 197 -54 197 -174c0 -147 -135 -153 -144 -265l-3 -38c-1 -9 -6 -15 -15 -15h-86z
M142 69c0 46 36 84 82 84s83 -38 83 -84c0 -45 -37 -82 -83 -82s-82 37 -82 82z" />
    <glyph glyph-name="at" unicode="@" 
d="M101 197c-3 0 -6 0 -9 -1v-98c2 -1 6 -1 9 -1c26 0 31 19 31 50c0 32 -5 50 -31 50v0zM253 161v-24h-40v-38h47v-24h-76v145h76v-25h-47v-34h40zM99 73c-8 0 -23 0 -36 2v143c13 2 27 4 37 4c45 0 61 -25 61 -75c0 -51 -17 -74 -62 -74v0zM286 220h39l19 -80l19 80h40
c2 -35 4 -98 6 -145h-29c0 34 -1 70 -3 104l-20 -82h-27l-20 82h-1c-1 -34 -2 -70 -2 -104h-28c1 47 4 110 7 145v0zM482 73c-40 0 -53 23 -53 74s13 75 53 75s54 -24 54 -75s-14 -74 -54 -74v0zM482 197c-20 0 -24 -17 -24 -50c0 -32 4 -50 24 -50c21 0 25 18 25 50
c0 33 -4 50 -25 50zM472 496c52 0 62 -42 62 -63c0 -31 -31 -49 -52 -52c-72 -8 -124 -31 -166 -72c0 0 73 187 156 187v0zM139 444c94 0 156 -187 156 -187c-41 52 -93 72 -156 72c-31 0 -62 21 -62 52c0 32 21 63 62 63v0zM314 593c67 -65 -19 -243 -19 -243
c7 66 -16 118 -61 161c-22 22 -30 58 -9 81c22 22 59 30 89 1v0z" />
    <glyph glyph-name="A" unicode="A" horiz-adv-x="697" 
d="M47 0c-11 0 -16 7 -12 17l234 671c3 8 11 12 19 12h121c8 0 16 -4 19 -12l234 -671c4 -10 -2 -17 -13 -17h-118c-8 0 -14 3 -17 12l-34 103h-264l-34 -103c-3 -9 -9 -12 -17 -12h-118zM257 242h182l-91 278z" />
    <glyph glyph-name="B" unicode="B" horiz-adv-x="592" 
d="M84 0c-9 0 -15 6 -15 15v670c0 9 6 15 15 15h236c128 0 193 -82 193 -176c0 -74 -42 -125 -92 -147c73 -19 137 -78 137 -179c0 -117 -80 -198 -246 -198h-228zM210 126h92c69 0 111 29 111 93s-42 92 -111 92h-92v-185zM210 422h82c53 0 86 24 86 79c0 54 -33 73 -86 73
h-82v-152z" />
    <glyph glyph-name="C" unicode="C" horiz-adv-x="704" 
d="M410 -13c-200 0 -361 155 -361 360s161 361 361 361c100 0 183 -39 245 -101c7 -7 6 -14 0 -21l-70 -75c-6 -7 -14 -7 -21 -1c-42 35 -92 58 -154 58c-123 0 -216 -94 -216 -221s93 -220 216 -220c62 0 112 23 154 58c7 6 15 6 21 -1l70 -75c6 -6 7 -13 0 -20
c-62 -63 -145 -102 -245 -102z" />
    <glyph glyph-name="D" unicode="D" horiz-adv-x="691" 
d="M84 0c-9 0 -15 6 -15 15v670c0 9 6 15 15 15h206c234 0 357 -153 357 -350s-123 -350 -357 -350h-206zM212 127h76c142 0 214 79 214 223s-72 223 -214 223h-76v-446z" />
    <glyph glyph-name="E" unicode="E" horiz-adv-x="515" 
d="M84 0c-9 0 -15 6 -15 15v670c0 9 6 15 15 15h356c9 0 15 -6 15 -15v-97c0 -9 -6 -15 -15 -15h-228v-155h215c9 0 15 -6 15 -15v-97c0 -9 -6 -15 -15 -15h-215v-164h228c9 0 15 -6 15 -15v-97c0 -9 -6 -15 -15 -15h-356z" />
    <glyph glyph-name="F" unicode="F" horiz-adv-x="505" 
d="M84 0c-9 0 -15 6 -15 15v670c0 9 6 15 15 15h351c9 0 16 -6 16 -15v-97c0 -9 -7 -15 -16 -15h-223v-150h210c9 0 16 -6 16 -15v-97c0 -9 -7 -15 -16 -15h-210v-281c0 -9 -6 -15 -15 -15h-113z" />
    <glyph glyph-name="G" unicode="G" horiz-adv-x="774" 
d="M412 -13c-202 0 -363 155 -363 360s161 361 360 361c101 0 183 -37 244 -99c8 -8 8 -16 0 -26l-67 -71c-7 -8 -15 -8 -22 -2c-42 35 -92 58 -154 58c-123 0 -216 -94 -216 -221s93 -220 223 -220c110 0 175 65 178 144h-178c-9 0 -15 6 -15 15v97c0 9 6 15 15 15h302
c9 0 15 -6 15 -15v-65c0 -183 -121 -331 -322 -331z" />
    <glyph glyph-name="H" unicode="H" horiz-adv-x="681" 
d="M84 0c-9 0 -15 6 -15 15v670c0 9 6 15 15 15h113c9 0 15 -6 15 -15v-278h257v278c0 9 6 15 15 15h113c9 0 15 -6 15 -15v-670c0 -9 -6 -15 -15 -15h-113c-9 0 -15 6 -15 15v266h-257v-266c0 -9 -6 -15 -15 -15h-113z" />
    <glyph glyph-name="I" unicode="I" horiz-adv-x="282" 
d="M84 0c-9 0 -15 6 -15 15v670c0 9 6 15 15 15h113c9 0 15 -6 15 -15v-670c0 -9 -6 -15 -15 -15h-113z" />
    <glyph glyph-name="J" unicode="J" horiz-adv-x="547" 
d="M233 -13c-90 0 -150 37 -183 76c-6 7 -6 18 -1 25l59 78c5 6 14 7 21 1c20 -16 48 -40 99 -40c64 0 107 37 107 133v425c0 9 6 15 15 15h113c9 0 15 -6 15 -15v-419c0 -188 -103 -279 -245 -279z" />
    <glyph glyph-name="K" unicode="K" horiz-adv-x="668" 
d="M84 0c-9 0 -15 6 -15 15v670c0 9 6 15 15 15h113c9 0 15 -6 15 -15v-309l232 316c5 6 11 8 18 8h137c13 0 15 -9 8 -18l-232 -294l260 -370c7 -10 3 -18 -9 -18h-131c-8 0 -13 2 -18 9l-189 267l-76 -95v-166c0 -9 -6 -15 -15 -15h-113z" />
    <glyph glyph-name="L" unicode="L" horiz-adv-x="480" 
d="M84 0c-9 0 -15 6 -15 15v670c0 9 6 15 15 15h113c9 0 15 -6 15 -15v-558h214c9 0 15 -6 15 -15v-97c0 -9 -6 -15 -15 -15h-342z" />
    <glyph glyph-name="M" unicode="M" horiz-adv-x="882" 
d="M84 0c-9 0 -15 6 -15 15v670c0 9 6 15 15 15h131c8 0 14 -3 17 -10l209 -525l209 525c3 7 9 10 17 10h131c9 0 15 -6 15 -15v-670c0 -9 -6 -15 -15 -15h-113c-9 0 -15 6 -15 15v417l-13 -43l-148 -377c-3 -8 -10 -12 -18 -12h-100c-8 0 -15 4 -18 12l-148 377l-13 43
v-417c0 -9 -6 -15 -15 -15h-113z" />
    <glyph glyph-name="N" unicode="N" horiz-adv-x="697" 
d="M480 0c-8 0 -14 3 -18 10l-250 461v-456c0 -9 -6 -15 -15 -15h-113c-9 0 -15 6 -15 15v670c0 9 6 15 15 15h133c8 0 14 -3 18 -10l250 -461v456c0 9 6 15 15 15h113c9 0 15 -6 15 -15v-670c0 -9 -6 -15 -15 -15h-133z" />
    <glyph glyph-name="O" unicode="O" horiz-adv-x="819" 
d="M409 -13c-199 0 -360 158 -360 360c0 203 161 361 360 361s360 -158 360 -361c0 -202 -161 -360 -360 -360zM194 347c0 -125 93 -220 215 -220c123 0 215 95 215 220c0 126 -92 221 -215 221c-122 0 -215 -95 -215 -221z" />
    <glyph glyph-name="P" unicode="P" horiz-adv-x="580" 
d="M84 0c-9 0 -15 6 -15 15v670c0 9 6 15 15 15h211c166 0 246 -93 246 -227c0 -135 -80 -228 -246 -228h-83v-230c0 -9 -6 -15 -15 -15h-113zM212 372h78c61 0 114 21 114 101c0 79 -53 100 -114 100h-78v-201z" />
    <glyph glyph-name="Q" unicode="Q" horiz-adv-x="819" 
d="M688 -13c-6 -6 -14 -7 -21 0l-59 59c-57 -37 -125 -59 -199 -59c-199 0 -360 158 -360 360c0 203 161 361 360 361s360 -158 360 -361c0 -77 -23 -147 -63 -205l58 -58c7 -7 7 -14 0 -21zM194 347c0 -125 93 -220 215 -220c35 0 68 8 97 22l-78 78c-7 7 -7 14 0 21l76 76
c6 6 14 7 21 0l77 -77c14 30 22 63 22 100c0 126 -92 221 -215 221c-122 0 -215 -95 -215 -221z" />
    <glyph glyph-name="R" unicode="R" horiz-adv-x="601" 
d="M429 0c-8 0 -14 3 -18 10l-148 235h-51v-230c0 -9 -6 -15 -15 -15h-113c-9 0 -15 6 -15 15v670c0 9 6 15 15 15h211c166 0 246 -93 246 -227c0 -102 -45 -179 -139 -212l157 -243c7 -11 2 -18 -10 -18h-120zM212 372h78c61 0 114 21 114 101c0 79 -53 100 -114 100h-78
v-201z" />
    <glyph glyph-name="S" unicode="S" horiz-adv-x="555" 
d="M276 -12c-109 0 -186 53 -227 109c-5 7 -5 14 2 22l58 67c7 8 15 9 23 2c44 -45 84 -69 141 -69c59 0 98 25 98 75c0 47 -35 64 -84 86l-85 40c-74 34 -140 87 -140 191c0 127 97 197 216 197c83 0 150 -33 205 -92c7 -7 7 -15 1 -23l-57 -69c-6 -8 -14 -10 -22 -4
c-43 38 -78 57 -122 57c-51 0 -83 -25 -83 -67c0 -41 28 -57 82 -82l72 -33c76 -36 156 -83 156 -201c0 -141 -115 -206 -234 -206z" />
    <glyph glyph-name="T" unicode="T" horiz-adv-x="545" 
d="M216 0c-9 0 -15 6 -15 15v558h-137c-9 0 -15 6 -15 15v97c0 9 6 15 15 15h416c9 0 15 -6 15 -15v-97c0 -9 -6 -15 -15 -15h-136v-558c0 -9 -6 -15 -15 -15h-113z" />
    <glyph glyph-name="U" unicode="U" horiz-adv-x="657" 
d="M329 -13c-155 0 -265 95 -265 279v419c0 9 6 15 15 15h113c9 0 15 -6 15 -15v-416c0 -92 45 -142 122 -142c76 0 121 50 121 142v416c0 9 6 15 15 15h113c9 0 15 -6 15 -15v-419c0 -184 -110 -279 -264 -279z" />
    <glyph glyph-name="V" unicode="V" horiz-adv-x="697" 
d="M288 0c-8 0 -16 4 -19 12l-234 671c-4 10 1 17 12 17h118c8 0 14 -3 17 -12l166 -508l166 508c3 9 9 12 17 12h118c11 0 17 -7 13 -17l-234 -671c-3 -8 -11 -12 -19 -12h-121z" />
    <glyph glyph-name="W" unicode="W" horiz-adv-x="1081" 
d="M254 0c-9 0 -17 4 -19 12l-200 671c-3 10 1 17 12 17h117c8 0 16 -3 17 -12l138 -494l150 494c3 9 8 12 17 12h109c9 0 14 -3 17 -12l150 -494l138 494c2 9 9 12 17 12h117c11 0 15 -7 12 -17l-200 -671c-2 -8 -10 -12 -19 -12h-119c-9 0 -17 4 -19 12l-148 508
l-149 -508c-2 -8 -10 -12 -19 -12h-119z" />
    <glyph glyph-name="X" unicode="X" horiz-adv-x="651" 
d="M57 0c-12 0 -16 7 -10 18l201 340l-191 324c-6 11 -2 18 10 18h121c8 0 15 -3 19 -10l119 -201l119 201c3 7 10 10 18 10h121c12 0 16 -7 10 -18l-191 -324l201 -340c6 -11 2 -18 -10 -18h-123c-8 0 -14 3 -18 10l-127 217l-128 -217c-4 -7 -10 -10 -18 -10h-123z" />
    <glyph glyph-name="Y" unicode="Y" horiz-adv-x="627" 
d="M257 0c-9 0 -15 6 -15 15v310l-205 357c-6 11 -2 18 10 18h118c8 0 14 -3 18 -10l131 -235l130 235c4 7 10 10 18 10h118c12 0 16 -7 10 -18l-205 -359v-308c0 -9 -6 -15 -15 -15h-113z" />
    <glyph glyph-name="Z" unicode="Z" horiz-adv-x="555" 
d="M59 0c-9 0 -15 6 -15 15v102c0 7 2 12 6 18l300 438h-281c-9 0 -15 6 -15 15v97c0 9 6 15 15 15h411c9 0 15 -6 15 -15v-102c0 -7 -2 -12 -6 -18l-300 -438h301c9 0 15 -6 15 -15v-97c0 -9 -6 -15 -15 -15h-431z" />
    <glyph glyph-name="bracketleft" unicode="[" 
d="M101 197c-3 0 -6 0 -9 -1v-98c2 -1 6 -1 9 -1c26 0 31 19 31 50c0 32 -5 50 -31 50v0zM253 161v-24h-40v-38h47v-24h-76v145h76v-25h-47v-34h40zM99 73c-8 0 -23 0 -36 2v143c13 2 27 4 37 4c45 0 61 -25 61 -75c0 -51 -17 -74 -62 -74v0zM286 220h39l19 -80l19 80h40
c2 -35 4 -98 6 -145h-29c0 34 -1 70 -3 104l-20 -82h-27l-20 82h-1c-1 -34 -2 -70 -2 -104h-28c1 47 4 110 7 145v0zM482 73c-40 0 -53 23 -53 74s13 75 53 75s54 -24 54 -75s-14 -74 -54 -74v0zM482 197c-20 0 -24 -17 -24 -50c0 -32 4 -50 24 -50c21 0 25 18 25 50
c0 33 -4 50 -25 50zM472 496c52 0 62 -42 62 -63c0 -31 -31 -49 -52 -52c-72 -8 -124 -31 -166 -72c0 0 73 187 156 187v0zM139 444c94 0 156 -187 156 -187c-41 52 -93 72 -156 72c-31 0 -62 21 -62 52c0 32 21 63 62 63v0zM314 593c67 -65 -19 -243 -19 -243
c7 66 -16 118 -61 161c-22 22 -30 58 -9 81c22 22 59 30 89 1v0z" />
    <glyph glyph-name="backslash" unicode="\" 
d="M101 197c-3 0 -6 0 -9 -1v-98c2 -1 6 -1 9 -1c26 0 31 19 31 50c0 32 -5 50 -31 50v0zM253 161v-24h-40v-38h47v-24h-76v145h76v-25h-47v-34h40zM99 73c-8 0 -23 0 -36 2v143c13 2 27 4 37 4c45 0 61 -25 61 -75c0 -51 -17 -74 -62 -74v0zM286 220h39l19 -80l19 80h40
c2 -35 4 -98 6 -145h-29c0 34 -1 70 -3 104l-20 -82h-27l-20 82h-1c-1 -34 -2 -70 -2 -104h-28c1 47 4 110 7 145v0zM482 73c-40 0 -53 23 -53 74s13 75 53 75s54 -24 54 -75s-14 -74 -54 -74v0zM482 197c-20 0 -24 -17 -24 -50c0 -32 4 -50 24 -50c21 0 25 18 25 50
c0 33 -4 50 -25 50zM472 496c52 0 62 -42 62 -63c0 -31 -31 -49 -52 -52c-72 -8 -124 -31 -166 -72c0 0 73 187 156 187v0zM139 444c94 0 156 -187 156 -187c-41 52 -93 72 -156 72c-31 0 -62 21 -62 52c0 32 21 63 62 63v0zM314 593c67 -65 -19 -243 -19 -243
c7 66 -16 118 -61 161c-22 22 -30 58 -9 81c22 22 59 30 89 1v0z" />
    <glyph glyph-name="bracketright" unicode="]" 
d="M101 197c-3 0 -6 0 -9 -1v-98c2 -1 6 -1 9 -1c26 0 31 19 31 50c0 32 -5 50 -31 50v0zM253 161v-24h-40v-38h47v-24h-76v145h76v-25h-47v-34h40zM99 73c-8 0 -23 0 -36 2v143c13 2 27 4 37 4c45 0 61 -25 61 -75c0 -51 -17 -74 -62 -74v0zM286 220h39l19 -80l19 80h40
c2 -35 4 -98 6 -145h-29c0 34 -1 70 -3 104l-20 -82h-27l-20 82h-1c-1 -34 -2 -70 -2 -104h-28c1 47 4 110 7 145v0zM482 73c-40 0 -53 23 -53 74s13 75 53 75s54 -24 54 -75s-14 -74 -54 -74v0zM482 197c-20 0 -24 -17 -24 -50c0 -32 4 -50 24 -50c21 0 25 18 25 50
c0 33 -4 50 -25 50zM472 496c52 0 62 -42 62 -63c0 -31 -31 -49 -52 -52c-72 -8 -124 -31 -166 -72c0 0 73 187 156 187v0zM139 444c94 0 156 -187 156 -187c-41 52 -93 72 -156 72c-31 0 -62 21 -62 52c0 32 21 63 62 63v0zM314 593c67 -65 -19 -243 -19 -243
c7 66 -16 118 -61 161c-22 22 -30 58 -9 81c22 22 59 30 89 1v0z" />
    <glyph glyph-name="asciicircum" unicode="^" 
d="M101 197c-3 0 -6 0 -9 -1v-98c2 -1 6 -1 9 -1c26 0 31 19 31 50c0 32 -5 50 -31 50v0zM253 161v-24h-40v-38h47v-24h-76v145h76v-25h-47v-34h40zM99 73c-8 0 -23 0 -36 2v143c13 2 27 4 37 4c45 0 61 -25 61 -75c0 -51 -17 -74 -62 -74v0zM286 220h39l19 -80l19 80h40
c2 -35 4 -98 6 -145h-29c0 34 -1 70 -3 104l-20 -82h-27l-20 82h-1c-1 -34 -2 -70 -2 -104h-28c1 47 4 110 7 145v0zM482 73c-40 0 -53 23 -53 74s13 75 53 75s54 -24 54 -75s-14 -74 -54 -74v0zM482 197c-20 0 -24 -17 -24 -50c0 -32 4 -50 24 -50c21 0 25 18 25 50
c0 33 -4 50 -25 50zM472 496c52 0 62 -42 62 -63c0 -31 -31 -49 -52 -52c-72 -8 -124 -31 -166 -72c0 0 73 187 156 187v0zM139 444c94 0 156 -187 156 -187c-41 52 -93 72 -156 72c-31 0 -62 21 -62 52c0 32 21 63 62 63v0zM314 593c67 -65 -19 -243 -19 -243
c7 66 -16 118 -61 161c-22 22 -30 58 -9 81c22 22 59 30 89 1v0z" />
    <glyph glyph-name="underscore" unicode="_" 
d="M101 197c-3 0 -6 0 -9 -1v-98c2 -1 6 -1 9 -1c26 0 31 19 31 50c0 32 -5 50 -31 50v0zM253 161v-24h-40v-38h47v-24h-76v145h76v-25h-47v-34h40zM99 73c-8 0 -23 0 -36 2v143c13 2 27 4 37 4c45 0 61 -25 61 -75c0 -51 -17 -74 -62 -74v0zM286 220h39l19 -80l19 80h40
c2 -35 4 -98 6 -145h-29c0 34 -1 70 -3 104l-20 -82h-27l-20 82h-1c-1 -34 -2 -70 -2 -104h-28c1 47 4 110 7 145v0zM482 73c-40 0 -53 23 -53 74s13 75 53 75s54 -24 54 -75s-14 -74 -54 -74v0zM482 197c-20 0 -24 -17 -24 -50c0 -32 4 -50 24 -50c21 0 25 18 25 50
c0 33 -4 50 -25 50zM472 496c52 0 62 -42 62 -63c0 -31 -31 -49 -52 -52c-72 -8 -124 -31 -166 -72c0 0 73 187 156 187v0zM139 444c94 0 156 -187 156 -187c-41 52 -93 72 -156 72c-31 0 -62 21 -62 52c0 32 21 63 62 63v0zM314 593c67 -65 -19 -243 -19 -243
c7 66 -16 118 -61 161c-22 22 -30 58 -9 81c22 22 59 30 89 1v0z" />
    <glyph glyph-name="grave" unicode="`" 
d="M101 197c-3 0 -6 0 -9 -1v-98c2 -1 6 -1 9 -1c26 0 31 19 31 50c0 32 -5 50 -31 50v0zM253 161v-24h-40v-38h47v-24h-76v145h76v-25h-47v-34h40zM99 73c-8 0 -23 0 -36 2v143c13 2 27 4 37 4c45 0 61 -25 61 -75c0 -51 -17 -74 -62 -74v0zM286 220h39l19 -80l19 80h40
c2 -35 4 -98 6 -145h-29c0 34 -1 70 -3 104l-20 -82h-27l-20 82h-1c-1 -34 -2 -70 -2 -104h-28c1 47 4 110 7 145v0zM482 73c-40 0 -53 23 -53 74s13 75 53 75s54 -24 54 -75s-14 -74 -54 -74v0zM482 197c-20 0 -24 -17 -24 -50c0 -32 4 -50 24 -50c21 0 25 18 25 50
c0 33 -4 50 -25 50zM472 496c52 0 62 -42 62 -63c0 -31 -31 -49 -52 -52c-72 -8 -124 -31 -166 -72c0 0 73 187 156 187v0zM139 444c94 0 156 -187 156 -187c-41 52 -93 72 -156 72c-31 0 -62 21 -62 52c0 32 21 63 62 63v0zM314 593c67 -65 -19 -243 -19 -243
c7 66 -16 118 -61 161c-22 22 -30 58 -9 81c22 22 59 30 89 1v0z" />
    <glyph glyph-name="a" unicode="a" horiz-adv-x="617" 
d="M267 -12c-138 0 -233 111 -233 257c0 145 95 257 233 257c74 0 127 -30 160 -81l2 54c0 9 6 15 15 15h98c9 0 15 -6 15 -15v-460c0 -9 -7 -15 -16 -15h-97c-9 0 -15 6 -15 15l-2 54c-34 -50 -87 -81 -160 -81zM169 245c0 -79 54 -131 127 -131s124 52 124 131
s-51 131 -124 131s-127 -53 -127 -131z" />
    <glyph glyph-name="b" unicode="b" horiz-adv-x="617" 
d="M350 -12c-74 0 -126 31 -160 81l-2 -54c0 -9 -6 -15 -15 -15h-98c-9 0 -16 6 -16 15v685c0 9 6 15 15 15h109c9 0 15 -6 15 -15v-267c33 44 84 69 152 69c137 0 232 -112 232 -257c0 -146 -95 -257 -232 -257zM196 245c0 -79 51 -131 125 -131c72 0 126 52 126 131
c0 78 -54 131 -126 131c-74 0 -125 -52 -125 -131z" />
    <glyph glyph-name="c" unicode="c" horiz-adv-x="519" 
d="M293 -12c-149 0 -259 112 -259 259c0 145 109 255 256 255c81 0 148 -34 190 -88c6 -7 4 -15 -2 -21l-60 -59c-8 -8 -19 -7 -26 0c-27 27 -56 41 -96 41c-78 0 -129 -56 -129 -128s51 -132 132 -132c38 0 67 14 94 41c7 7 18 8 26 0l60 -59c6 -6 8 -14 2 -21
c-42 -54 -109 -88 -188 -88z" />
    <glyph glyph-name="d" unicode="d" horiz-adv-x="617" 
d="M267 -12c-138 0 -233 111 -233 257c0 145 95 257 233 257c68 0 118 -25 151 -69v267c0 9 6 15 15 15h109c9 0 15 -6 15 -15v-685c0 -9 -7 -15 -16 -15h-97c-9 0 -15 6 -15 15l-2 54c-34 -50 -87 -81 -160 -81zM169 245c0 -79 54 -131 127 -131s124 52 124 131
s-51 131 -124 131s-127 -53 -127 -131z" />
    <glyph glyph-name="e" unicode="e" horiz-adv-x="555" 
d="M303 -12c-161 0 -269 111 -269 259c0 144 101 255 252 255c149 0 235 -110 235 -234c0 -48 -11 -75 -54 -75h-298c15 -62 66 -96 145 -96c38 0 74 7 114 30c7 4 12 3 17 -4l37 -51c5 -7 4 -14 -5 -22c-42 -42 -105 -62 -174 -62zM167 290h231c-8 65 -52 98 -111 98
c-61 0 -108 -33 -120 -98z" />
    <glyph glyph-name="f" unicode="f" horiz-adv-x="384" 
d="M117 0c-9 0 -15 6 -15 15v368h-58c-9 0 -15 6 -15 15v77c0 9 6 15 15 15h58v76c0 114 63 165 168 165c28 0 49 -2 75 -15c6 -3 9 -9 9 -15v-91c0 -7 -6 -8 -13 -7c-16 3 -29 5 -40 5c-49 0 -60 -25 -60 -61v-57h98c9 0 15 -6 15 -15v-77c0 -9 -6 -15 -15 -15h-98v-368
c0 -9 -6 -15 -15 -15h-109z" />
    <glyph glyph-name="g" unicode="g" horiz-adv-x="608" 
d="M290 -205c-73 0 -143 20 -191 56c-10 7 -11 20 -6 29l29 55c5 10 14 14 25 8c43 -24 87 -36 130 -36c69 0 140 30 140 121v53c-31 -44 -82 -71 -152 -71c-138 0 -231 101 -231 246c0 144 93 246 231 246c72 0 122 -26 153 -72l2 45c0 9 7 15 16 15h98c9 0 15 -6 15 -15
v-448c0 -176 -138 -232 -259 -232zM169 256c0 -75 52 -122 123 -122c70 0 120 47 120 122s-50 122 -120 122c-71 0 -123 -48 -123 -122z" />
    <glyph glyph-name="h" unicode="h" horiz-adv-x="581" 
d="M74 0c-9 0 -15 6 -15 15v685c0 9 6 15 15 15h108c9 0 15 -6 15 -15v-284c28 50 75 86 148 86c102 0 177 -74 177 -202v-285c0 -9 -7 -15 -16 -15h-107c-9 0 -15 6 -15 15v254c0 69 -32 106 -91 106c-58 0 -96 -37 -96 -106v-254c0 -9 -6 -15 -15 -15h-108z" />
    <glyph glyph-name="i" unicode="i" horiz-adv-x="260" 
d="M130 577c-44 0 -77 34 -77 77c0 42 33 76 77 76s76 -34 76 -76c0 -43 -32 -77 -76 -77zM60 15v460c0 9 6 15 15 15h109c9 0 15 -6 15 -15v-460c0 -9 -6 -15 -15 -15h-109c-9 0 -15 6 -15 15z" />
    <glyph glyph-name="j" unicode="j" horiz-adv-x="268" 
d="M138 577c-44 0 -77 34 -77 77c0 42 33 76 77 76s76 -34 76 -76c0 -43 -32 -77 -76 -77zM-45 -170v91c0 7 6 8 13 7c16 -3 29 -5 41 -5c48 0 59 25 59 61v491c0 9 6 15 15 15h109c9 0 15 -6 15 -15v-510c0 -114 -63 -165 -168 -165c-27 0 -48 2 -75 15c-6 3 -9 9 -9 15z
" />
    <glyph glyph-name="k" unicode="k" horiz-adv-x="562" 
d="M74 0c-9 0 -15 6 -15 15v685c0 9 6 15 15 15h109c9 0 15 -6 15 -15v-408l161 190c5 6 11 8 18 8h123c13 0 16 -8 8 -18l-166 -189l192 -265c7 -10 3 -18 -9 -18h-116c-8 0 -13 2 -18 9l-132 179l-61 -69v-104c0 -9 -6 -15 -15 -15h-109z" />
    <glyph glyph-name="l" unicode="l" horiz-adv-x="258" 
d="M74 0c-9 0 -15 6 -15 15v685c0 9 6 15 15 15h109c9 0 15 -6 15 -15v-685c0 -9 -6 -15 -15 -15h-109z" />
    <glyph glyph-name="m" unicode="m" horiz-adv-x="852" 
d="M74 0c-9 0 -15 6 -15 15v460c0 9 6 15 15 15h104c9 0 15 -4 15 -16l3 -52c27 46 71 80 138 80c63 0 112 -30 139 -87c27 50 75 87 151 87c105 0 169 -72 169 -200v-287c0 -9 -6 -15 -15 -15h-108c-9 0 -15 6 -15 15v257c0 67 -24 103 -78 103c-52 0 -82 -36 -82 -103
v-257c0 -9 -6 -15 -15 -15h-107c-10 0 -16 6 -16 15v257c0 67 -25 103 -78 103c-52 0 -82 -36 -82 -103v-257c0 -9 -6 -15 -15 -15h-108z" />
    <glyph glyph-name="n" unicode="n" horiz-adv-x="581" 
d="M74 0c-9 0 -15 6 -15 15v460c0 9 6 15 15 15h104c9 0 15 -4 15 -16l4 -58c28 50 75 86 148 86c102 0 177 -74 177 -202v-285c0 -9 -7 -15 -16 -15h-107c-9 0 -15 6 -15 15v254c0 69 -32 106 -91 106c-58 0 -96 -37 -96 -106v-254c0 -9 -6 -15 -15 -15h-108z" />
    <glyph glyph-name="o" unicode="o" horiz-adv-x="581" 
d="M291 -12c-148 0 -257 112 -257 257s109 257 257 257c147 0 256 -112 256 -257s-109 -257 -256 -257zM167 245c0 -80 54 -130 124 -130c69 0 123 50 123 130s-54 130 -123 130c-70 0 -124 -50 -124 -130z" />
    <glyph glyph-name="p" unicode="p" horiz-adv-x="617" 
d="M74 -190c-9 0 -15 6 -15 15v650c0 9 6 15 15 15h99c9 0 15 -6 15 -15l2 -54c33 51 85 81 160 81c137 0 232 -112 232 -257c0 -146 -95 -257 -232 -257c-67 0 -118 26 -152 70v-233c0 -9 -6 -15 -15 -15h-109zM196 245c0 -79 51 -131 125 -131c72 0 126 52 126 131
c0 78 -54 131 -126 131c-74 0 -125 -52 -125 -131z" />
    <glyph glyph-name="q" unicode="q" horiz-adv-x="617" 
d="M433 -190c-9 0 -15 6 -15 15v233c-34 -44 -84 -70 -151 -70c-138 0 -233 111 -233 257c0 145 95 257 233 257c74 0 127 -30 160 -81l2 54c0 9 6 15 15 15h98c9 0 15 -6 15 -15v-650c0 -9 -6 -15 -15 -15h-109zM169 245c0 -79 54 -131 127 -131s124 52 124 131
s-51 131 -124 131s-127 -53 -127 -131z" />
    <glyph glyph-name="r" unicode="r" horiz-adv-x="387" 
d="M74 0c-9 0 -15 6 -15 15v460c0 9 6 15 15 15h104c9 0 14 -4 15 -16l4 -63c17 52 48 91 106 91c23 0 37 -6 45 -12c7 -5 9 -11 9 -20v-88c0 -12 -7 -15 -20 -12c-11 3 -22 5 -36 5c-68 0 -104 -45 -104 -115v-245c0 -9 -6 -15 -15 -15h-108z" />
    <glyph glyph-name="s" unicode="s" horiz-adv-x="449" 
d="M226 -12c-82 0 -144 35 -183 81c-6 7 -5 18 2 29l35 49c8 12 17 10 25 4c41 -31 75 -48 113 -48c33 0 55 13 55 41c0 24 -15 35 -51 50l-62 25c-63 25 -107 67 -107 135c0 94 80 148 171 148c64 0 123 -26 164 -75c6 -7 4 -15 -1 -21l-44 -53c-7 -8 -14 -7 -23 0
c-32 27 -60 41 -89 41c-32 0 -47 -18 -47 -39c0 -24 20 -37 47 -47l69 -27c62 -25 111 -68 110 -143c-1 -99 -86 -150 -184 -150z" />
    <glyph glyph-name="t" unicode="t" horiz-adv-x="366" 
d="M254 -6c-78 0 -148 36 -148 143v246h-62c-9 0 -15 6 -15 15v77c0 9 6 15 15 15h62v115c0 9 6 15 15 15h109c9 0 15 -6 15 -15v-115h77c9 0 15 -6 15 -15v-77c0 -9 -6 -15 -15 -15h-77v-231c0 -29 17 -43 43 -43c9 0 19 0 31 1c11 1 18 -4 18 -14v-73
c0 -23 -50 -29 -83 -29z" />
    <glyph glyph-name="u" unicode="u" horiz-adv-x="581" 
d="M236 -12c-103 0 -177 74 -177 202v285c0 9 6 15 15 15h108c9 0 15 -6 15 -15v-254c0 -69 32 -106 91 -106c58 0 96 37 96 106v254c0 9 6 15 15 15h107c9 0 16 -6 16 -15v-460c0 -9 -7 -15 -16 -15h-103c-9 0 -14 4 -15 16l-4 58c-28 -50 -75 -86 -148 -86z" />
    <glyph glyph-name="v" unicode="v" horiz-adv-x="571" 
d="M231 0c-8 0 -15 4 -18 12l-183 461c-4 11 1 17 12 17h110c8 0 15 -4 18 -12l116 -319l115 319c3 8 10 12 18 12h110c11 0 16 -6 12 -17l-183 -461c-3 -8 -10 -12 -18 -12h-109z" />
    <glyph glyph-name="w" unicode="w" horiz-adv-x="881" 
d="M202 0c-8 0 -15 4 -18 12l-154 461c-4 11 1 17 12 17h105c8 0 15 -4 18 -12l98 -318l107 318c3 8 10 12 18 12h105c8 0 15 -4 18 -12l106 -318l98 318c3 8 11 12 19 12h104c11 0 16 -6 12 -17l-153 -461c-3 -8 -10 -12 -18 -12h-111c-8 0 -15 4 -18 12l-110 318
l-109 -318c-3 -8 -10 -12 -18 -12h-111z" />
    <glyph glyph-name="x" unicode="x" horiz-adv-x="526" 
d="M42 0c-12 0 -16 8 -10 18l148 233l-142 221c-6 10 -2 18 10 18h118c8 0 14 -3 18 -10l79 -131l78 131c4 7 10 10 18 10h118c12 0 17 -8 10 -18l-141 -221l147 -233c7 -10 2 -18 -10 -18h-118c-8 0 -14 3 -18 10l-84 143l-85 -143c-4 -7 -10 -10 -18 -10h-118z" />
    <glyph glyph-name="y" unicode="y" horiz-adv-x="573" 
d="M160 -190c-11 0 -17 6 -12 17l71 172l-189 474c-4 11 1 17 12 17h110c8 0 15 -4 18 -12l117 -318l116 318c3 8 10 12 18 12h110c11 0 16 -6 12 -17l-259 -651c-3 -8 -10 -12 -18 -12h-106z" />
    <glyph glyph-name="z" unicode="z" horiz-adv-x="470" 
d="M54 0c-9 0 -15 6 -15 15v86c0 7 2 14 7 19l230 258h-219c-9 0 -15 6 -15 15v82c0 9 6 15 15 15h357c9 0 15 -6 15 -15v-86c0 -7 -2 -14 -7 -19l-229 -258h222c9 0 15 -6 15 -15v-82c0 -9 -6 -15 -15 -15h-361z" />
    <glyph glyph-name="braceleft" unicode="{" 
d="M101 197c-3 0 -6 0 -9 -1v-98c2 -1 6 -1 9 -1c26 0 31 19 31 50c0 32 -5 50 -31 50v0zM253 161v-24h-40v-38h47v-24h-76v145h76v-25h-47v-34h40zM99 73c-8 0 -23 0 -36 2v143c13 2 27 4 37 4c45 0 61 -25 61 -75c0 -51 -17 -74 -62 -74v0zM286 220h39l19 -80l19 80h40
c2 -35 4 -98 6 -145h-29c0 34 -1 70 -3 104l-20 -82h-27l-20 82h-1c-1 -34 -2 -70 -2 -104h-28c1 47 4 110 7 145v0zM482 73c-40 0 -53 23 -53 74s13 75 53 75s54 -24 54 -75s-14 -74 -54 -74v0zM482 197c-20 0 -24 -17 -24 -50c0 -32 4 -50 24 -50c21 0 25 18 25 50
c0 33 -4 50 -25 50zM472 496c52 0 62 -42 62 -63c0 -31 -31 -49 -52 -52c-72 -8 -124 -31 -166 -72c0 0 73 187 156 187v0zM139 444c94 0 156 -187 156 -187c-41 52 -93 72 -156 72c-31 0 -62 21 -62 52c0 32 21 63 62 63v0zM314 593c67 -65 -19 -243 -19 -243
c7 66 -16 118 -61 161c-22 22 -30 58 -9 81c22 22 59 30 89 1v0z" />
    <glyph glyph-name="bar" unicode="|" 
d="M101 197c-3 0 -6 0 -9 -1v-98c2 -1 6 -1 9 -1c26 0 31 19 31 50c0 32 -5 50 -31 50v0zM253 161v-24h-40v-38h47v-24h-76v145h76v-25h-47v-34h40zM99 73c-8 0 -23 0 -36 2v143c13 2 27 4 37 4c45 0 61 -25 61 -75c0 -51 -17 -74 -62 -74v0zM286 220h39l19 -80l19 80h40
c2 -35 4 -98 6 -145h-29c0 34 -1 70 -3 104l-20 -82h-27l-20 82h-1c-1 -34 -2 -70 -2 -104h-28c1 47 4 110 7 145v0zM482 73c-40 0 -53 23 -53 74s13 75 53 75s54 -24 54 -75s-14 -74 -54 -74v0zM482 197c-20 0 -24 -17 -24 -50c0 -32 4 -50 24 -50c21 0 25 18 25 50
c0 33 -4 50 -25 50zM472 496c52 0 62 -42 62 -63c0 -31 -31 -49 -52 -52c-72 -8 -124 -31 -166 -72c0 0 73 187 156 187v0zM139 444c94 0 156 -187 156 -187c-41 52 -93 72 -156 72c-31 0 -62 21 -62 52c0 32 21 63 62 63v0zM314 593c67 -65 -19 -243 -19 -243
c7 66 -16 118 -61 161c-22 22 -30 58 -9 81c22 22 59 30 89 1v0z" />
    <glyph glyph-name="braceright" unicode="}" 
d="M101 197c-3 0 -6 0 -9 -1v-98c2 -1 6 -1 9 -1c26 0 31 19 31 50c0 32 -5 50 -31 50v0zM253 161v-24h-40v-38h47v-24h-76v145h76v-25h-47v-34h40zM99 73c-8 0 -23 0 -36 2v143c13 2 27 4 37 4c45 0 61 -25 61 -75c0 -51 -17 -74 -62 -74v0zM286 220h39l19 -80l19 80h40
c2 -35 4 -98 6 -145h-29c0 34 -1 70 -3 104l-20 -82h-27l-20 82h-1c-1 -34 -2 -70 -2 -104h-28c1 47 4 110 7 145v0zM482 73c-40 0 -53 23 -53 74s13 75 53 75s54 -24 54 -75s-14 -74 -54 -74v0zM482 197c-20 0 -24 -17 -24 -50c0 -32 4 -50 24 -50c21 0 25 18 25 50
c0 33 -4 50 -25 50zM472 496c52 0 62 -42 62 -63c0 -31 -31 -49 -52 -52c-72 -8 -124 -31 -166 -72c0 0 73 187 156 187v0zM139 444c94 0 156 -187 156 -187c-41 52 -93 72 -156 72c-31 0 -62 21 -62 52c0 32 21 63 62 63v0zM314 593c67 -65 -19 -243 -19 -243
c7 66 -16 118 -61 161c-22 22 -30 58 -9 81c22 22 59 30 89 1v0z" />
    <glyph glyph-name="asciitilde" unicode="~" 
d="M101 197c-3 0 -6 0 -9 -1v-98c2 -1 6 -1 9 -1c26 0 31 19 31 50c0 32 -5 50 -31 50v0zM253 161v-24h-40v-38h47v-24h-76v145h76v-25h-47v-34h40zM99 73c-8 0 -23 0 -36 2v143c13 2 27 4 37 4c45 0 61 -25 61 -75c0 -51 -17 -74 -62 -74v0zM286 220h39l19 -80l19 80h40
c2 -35 4 -98 6 -145h-29c0 34 -1 70 -3 104l-20 -82h-27l-20 82h-1c-1 -34 -2 -70 -2 -104h-28c1 47 4 110 7 145v0zM482 73c-40 0 -53 23 -53 74s13 75 53 75s54 -24 54 -75s-14 -74 -54 -74v0zM482 197c-20 0 -24 -17 -24 -50c0 -32 4 -50 24 -50c21 0 25 18 25 50
c0 33 -4 50 -25 50zM472 496c52 0 62 -42 62 -63c0 -31 -31 -49 -52 -52c-72 -8 -124 -31 -166 -72c0 0 73 187 156 187v0zM139 444c94 0 156 -187 156 -187c-41 52 -93 72 -156 72c-31 0 -62 21 -62 52c0 32 21 63 62 63v0zM314 593c67 -65 -19 -243 -19 -243
c7 66 -16 118 -61 161c-22 22 -30 58 -9 81c22 22 59 30 89 1v0z" />
    </font>
</defs>
</svg>
