<?xml version="1.0" standalone="no"?>
<!DOCTYPE svg PUBLIC "-//W3C//DTD SVG 1.1//EN" "http://www.w3.org/Graphics/SVG/1.1/DTD/svg11.dtd" >
<svg xmlns="http://www.w3.org/2000/svg" xmlns:xlink="http://www.w3.org/1999/xlink" version="1.1">
<metadata>
Created by FontForge 20201107 at Mon Nov  8 15:01:02 2021
 By Unknown
Copyright \(c\) 2021 by Connary Fagen. All rights reserved.
</metadata>
<defs>
<font id="FONTSPRINGDEMO-GreycliffCFDemiBoldRegular" horiz-adv-x="598" >
  <font-face 
    font-family="FONTSPRING DEMO - Greycliff CF Demi Bold"
    font-weight="600"
    font-stretch="normal"
    units-per-em="1000"
    panose-1="0 0 0 0 0 0 0 0 0 0"
    ascent="800"
    descent="-200"
    x-height="490"
    cap-height="700"
    bbox="-37 -205 1038.96 731"
    underline-thickness="50"
    underline-position="-125"
    stemh="100"
    stemv="29"
    unicode-range="U+0020-007E"
  />
<missing-glyph 
d="M101 197c-3 0 -6 0 -9 -1v-98c2 -1 6 -1 9 -1c26 0 31 19 31 50c0 32 -5 50 -31 50v0zM253 161v-24h-40v-38h47v-24h-76v145h76v-25h-47v-34h40zM99 73c-8 0 -23 0 -36 2v143c13 2 27 4 37 4c45 0 61 -25 61 -75c0 -51 -17 -74 -62 -74v0zM286 220h39l19 -80l19 80h40
c2 -35 4 -98 6 -145h-29c0 34 -1 70 -3 104l-20 -82h-27l-20 82h-1c-1 -34 -2 -70 -2 -104h-28c1 47 4 110 7 145v0zM482 73c-40 0 -53 23 -53 74s13 75 53 75s54 -24 54 -75s-14 -74 -54 -74v0zM482 197c-20 0 -24 -17 -24 -50c0 -32 4 -50 24 -50c21 0 25 18 25 50
c0 33 -4 50 -25 50zM472 496c52 0 62 -42 62 -63c0 -31 -31 -49 -52 -52c-72 -8 -124 -31 -166 -72c0 0 73 187 156 187v0zM139 444c94 0 156 -187 156 -187c-41 52 -93 72 -156 72c-31 0 -62 21 -62 52c0 32 21 63 62 63v0zM314 593c67 -65 -19 -243 -19 -243
c7 66 -16 118 -61 161c-22 22 -30 58 -9 81c22 22 59 30 89 1v0z" />
    <glyph glyph-name=".notdef" 
d="M101 197c-3 0 -6 0 -9 -1v-98c2 -1 6 -1 9 -1c26 0 31 19 31 50c0 32 -5 50 -31 50v0zM253 161v-24h-40v-38h47v-24h-76v145h76v-25h-47v-34h40zM99 73c-8 0 -23 0 -36 2v143c13 2 27 4 37 4c45 0 61 -25 61 -75c0 -51 -17 -74 -62 -74v0zM286 220h39l19 -80l19 80h40
c2 -35 4 -98 6 -145h-29c0 34 -1 70 -3 104l-20 -82h-27l-20 82h-1c-1 -34 -2 -70 -2 -104h-28c1 47 4 110 7 145v0zM482 73c-40 0 -53 23 -53 74s13 75 53 75s54 -24 54 -75s-14 -74 -54 -74v0zM482 197c-20 0 -24 -17 -24 -50c0 -32 4 -50 24 -50c21 0 25 18 25 50
c0 33 -4 50 -25 50zM472 496c52 0 62 -42 62 -63c0 -31 -31 -49 -52 -52c-72 -8 -124 -31 -166 -72c0 0 73 187 156 187v0zM139 444c94 0 156 -187 156 -187c-41 52 -93 72 -156 72c-31 0 -62 21 -62 52c0 32 21 63 62 63v0zM314 593c67 -65 -19 -243 -19 -243
c7 66 -16 118 -61 161c-22 22 -30 58 -9 81c22 22 59 30 89 1v0z" />
    <glyph glyph-name="space" unicode=" " horiz-adv-x="197" 
 />
    <glyph glyph-name="exclam" unicode="!" 
d="M101 197c-3 0 -6 0 -9 -1v-98c2 -1 6 -1 9 -1c26 0 31 19 31 50c0 32 -5 50 -31 50v0zM253 161v-24h-40v-38h47v-24h-76v145h76v-25h-47v-34h40zM99 73c-8 0 -23 0 -36 2v143c13 2 27 4 37 4c45 0 61 -25 61 -75c0 -51 -17 -74 -62 -74v0zM286 220h39l19 -80l19 80h40
c2 -35 4 -98 6 -145h-29c0 34 -1 70 -3 104l-20 -82h-27l-20 82h-1c-1 -34 -2 -70 -2 -104h-28c1 47 4 110 7 145v0zM482 73c-40 0 -53 23 -53 74s13 75 53 75s54 -24 54 -75s-14 -74 -54 -74v0zM482 197c-20 0 -24 -17 -24 -50c0 -32 4 -50 24 -50c21 0 25 18 25 50
c0 33 -4 50 -25 50zM472 496c52 0 62 -42 62 -63c0 -31 -31 -49 -52 -52c-72 -8 -124 -31 -166 -72c0 0 73 187 156 187v0zM139 444c94 0 156 -187 156 -187c-41 52 -93 72 -156 72c-31 0 -62 21 -62 52c0 32 21 63 62 63v0zM314 593c67 -65 -19 -243 -19 -243
c7 66 -16 118 -61 161c-22 22 -30 58 -9 81c22 22 59 30 89 1v0z" />
    <glyph glyph-name="quotedbl" unicode="&#x22;" 
d="M101 197c-3 0 -6 0 -9 -1v-98c2 -1 6 -1 9 -1c26 0 31 19 31 50c0 32 -5 50 -31 50v0zM253 161v-24h-40v-38h47v-24h-76v145h76v-25h-47v-34h40zM99 73c-8 0 -23 0 -36 2v143c13 2 27 4 37 4c45 0 61 -25 61 -75c0 -51 -17 -74 -62 -74v0zM286 220h39l19 -80l19 80h40
c2 -35 4 -98 6 -145h-29c0 34 -1 70 -3 104l-20 -82h-27l-20 82h-1c-1 -34 -2 -70 -2 -104h-28c1 47 4 110 7 145v0zM482 73c-40 0 -53 23 -53 74s13 75 53 75s54 -24 54 -75s-14 -74 -54 -74v0zM482 197c-20 0 -24 -17 -24 -50c0 -32 4 -50 24 -50c21 0 25 18 25 50
c0 33 -4 50 -25 50zM472 496c52 0 62 -42 62 -63c0 -31 -31 -49 -52 -52c-72 -8 -124 -31 -166 -72c0 0 73 187 156 187v0zM139 444c94 0 156 -187 156 -187c-41 52 -93 72 -156 72c-31 0 -62 21 -62 52c0 32 21 63 62 63v0zM314 593c67 -65 -19 -243 -19 -243
c7 66 -16 118 -61 161c-22 22 -30 58 -9 81c22 22 59 30 89 1v0z" />
    <glyph glyph-name="numbersign" unicode="#" 
d="M101 197c-3 0 -6 0 -9 -1v-98c2 -1 6 -1 9 -1c26 0 31 19 31 50c0 32 -5 50 -31 50v0zM253 161v-24h-40v-38h47v-24h-76v145h76v-25h-47v-34h40zM99 73c-8 0 -23 0 -36 2v143c13 2 27 4 37 4c45 0 61 -25 61 -75c0 -51 -17 -74 -62 -74v0zM286 220h39l19 -80l19 80h40
c2 -35 4 -98 6 -145h-29c0 34 -1 70 -3 104l-20 -82h-27l-20 82h-1c-1 -34 -2 -70 -2 -104h-28c1 47 4 110 7 145v0zM482 73c-40 0 -53 23 -53 74s13 75 53 75s54 -24 54 -75s-14 -74 -54 -74v0zM482 197c-20 0 -24 -17 -24 -50c0 -32 4 -50 24 -50c21 0 25 18 25 50
c0 33 -4 50 -25 50zM472 496c52 0 62 -42 62 -63c0 -31 -31 -49 -52 -52c-72 -8 -124 -31 -166 -72c0 0 73 187 156 187v0zM139 444c94 0 156 -187 156 -187c-41 52 -93 72 -156 72c-31 0 -62 21 -62 52c0 32 21 63 62 63v0zM314 593c67 -65 -19 -243 -19 -243
c7 66 -16 118 -61 161c-22 22 -30 58 -9 81c22 22 59 30 89 1v0z" />
    <glyph glyph-name="dollar" unicode="$" 
d="M101 197c-3 0 -6 0 -9 -1v-98c2 -1 6 -1 9 -1c26 0 31 19 31 50c0 32 -5 50 -31 50v0zM253 161v-24h-40v-38h47v-24h-76v145h76v-25h-47v-34h40zM99 73c-8 0 -23 0 -36 2v143c13 2 27 4 37 4c45 0 61 -25 61 -75c0 -51 -17 -74 -62 -74v0zM286 220h39l19 -80l19 80h40
c2 -35 4 -98 6 -145h-29c0 34 -1 70 -3 104l-20 -82h-27l-20 82h-1c-1 -34 -2 -70 -2 -104h-28c1 47 4 110 7 145v0zM482 73c-40 0 -53 23 -53 74s13 75 53 75s54 -24 54 -75s-14 -74 -54 -74v0zM482 197c-20 0 -24 -17 -24 -50c0 -32 4 -50 24 -50c21 0 25 18 25 50
c0 33 -4 50 -25 50zM472 496c52 0 62 -42 62 -63c0 -31 -31 -49 -52 -52c-72 -8 -124 -31 -166 -72c0 0 73 187 156 187v0zM139 444c94 0 156 -187 156 -187c-41 52 -93 72 -156 72c-31 0 -62 21 -62 52c0 32 21 63 62 63v0zM314 593c67 -65 -19 -243 -19 -243
c7 66 -16 118 -61 161c-22 22 -30 58 -9 81c22 22 59 30 89 1v0z" />
    <glyph glyph-name="percent" unicode="%" 
d="M101 197c-3 0 -6 0 -9 -1v-98c2 -1 6 -1 9 -1c26 0 31 19 31 50c0 32 -5 50 -31 50v0zM253 161v-24h-40v-38h47v-24h-76v145h76v-25h-47v-34h40zM99 73c-8 0 -23 0 -36 2v143c13 2 27 4 37 4c45 0 61 -25 61 -75c0 -51 -17 -74 -62 -74v0zM286 220h39l19 -80l19 80h40
c2 -35 4 -98 6 -145h-29c0 34 -1 70 -3 104l-20 -82h-27l-20 82h-1c-1 -34 -2 -70 -2 -104h-28c1 47 4 110 7 145v0zM482 73c-40 0 -53 23 -53 74s13 75 53 75s54 -24 54 -75s-14 -74 -54 -74v0zM482 197c-20 0 -24 -17 -24 -50c0 -32 4 -50 24 -50c21 0 25 18 25 50
c0 33 -4 50 -25 50zM472 496c52 0 62 -42 62 -63c0 -31 -31 -49 -52 -52c-72 -8 -124 -31 -166 -72c0 0 73 187 156 187v0zM139 444c94 0 156 -187 156 -187c-41 52 -93 72 -156 72c-31 0 -62 21 -62 52c0 32 21 63 62 63v0zM314 593c67 -65 -19 -243 -19 -243
c7 66 -16 118 -61 161c-22 22 -30 58 -9 81c22 22 59 30 89 1v0z" />
    <glyph glyph-name="ampersand" unicode="&#x26;" 
d="M101 197c-3 0 -6 0 -9 -1v-98c2 -1 6 -1 9 -1c26 0 31 19 31 50c0 32 -5 50 -31 50v0zM253 161v-24h-40v-38h47v-24h-76v145h76v-25h-47v-34h40zM99 73c-8 0 -23 0 -36 2v143c13 2 27 4 37 4c45 0 61 -25 61 -75c0 -51 -17 -74 -62 -74v0zM286 220h39l19 -80l19 80h40
c2 -35 4 -98 6 -145h-29c0 34 -1 70 -3 104l-20 -82h-27l-20 82h-1c-1 -34 -2 -70 -2 -104h-28c1 47 4 110 7 145v0zM482 73c-40 0 -53 23 -53 74s13 75 53 75s54 -24 54 -75s-14 -74 -54 -74v0zM482 197c-20 0 -24 -17 -24 -50c0 -32 4 -50 24 -50c21 0 25 18 25 50
c0 33 -4 50 -25 50zM472 496c52 0 62 -42 62 -63c0 -31 -31 -49 -52 -52c-72 -8 -124 -31 -166 -72c0 0 73 187 156 187v0zM139 444c94 0 156 -187 156 -187c-41 52 -93 72 -156 72c-31 0 -62 21 -62 52c0 32 21 63 62 63v0zM314 593c67 -65 -19 -243 -19 -243
c7 66 -16 118 -61 161c-22 22 -30 58 -9 81c22 22 59 30 89 1v0z" />
    <glyph glyph-name="quotesingle" unicode="'" 
d="M101 197c-3 0 -6 0 -9 -1v-98c2 -1 6 -1 9 -1c26 0 31 19 31 50c0 32 -5 50 -31 50v0zM253 161v-24h-40v-38h47v-24h-76v145h76v-25h-47v-34h40zM99 73c-8 0 -23 0 -36 2v143c13 2 27 4 37 4c45 0 61 -25 61 -75c0 -51 -17 -74 -62 -74v0zM286 220h39l19 -80l19 80h40
c2 -35 4 -98 6 -145h-29c0 34 -1 70 -3 104l-20 -82h-27l-20 82h-1c-1 -34 -2 -70 -2 -104h-28c1 47 4 110 7 145v0zM482 73c-40 0 -53 23 -53 74s13 75 53 75s54 -24 54 -75s-14 -74 -54 -74v0zM482 197c-20 0 -24 -17 -24 -50c0 -32 4 -50 24 -50c21 0 25 18 25 50
c0 33 -4 50 -25 50zM472 496c52 0 62 -42 62 -63c0 -31 -31 -49 -52 -52c-72 -8 -124 -31 -166 -72c0 0 73 187 156 187v0zM139 444c94 0 156 -187 156 -187c-41 52 -93 72 -156 72c-31 0 -62 21 -62 52c0 32 21 63 62 63v0zM314 593c67 -65 -19 -243 -19 -243
c7 66 -16 118 -61 161c-22 22 -30 58 -9 81c22 22 59 30 89 1v0z" />
    <glyph glyph-name="parenleft" unicode="(" 
d="M101 197c-3 0 -6 0 -9 -1v-98c2 -1 6 -1 9 -1c26 0 31 19 31 50c0 32 -5 50 -31 50v0zM253 161v-24h-40v-38h47v-24h-76v145h76v-25h-47v-34h40zM99 73c-8 0 -23 0 -36 2v143c13 2 27 4 37 4c45 0 61 -25 61 -75c0 -51 -17 -74 -62 -74v0zM286 220h39l19 -80l19 80h40
c2 -35 4 -98 6 -145h-29c0 34 -1 70 -3 104l-20 -82h-27l-20 82h-1c-1 -34 -2 -70 -2 -104h-28c1 47 4 110 7 145v0zM482 73c-40 0 -53 23 -53 74s13 75 53 75s54 -24 54 -75s-14 -74 -54 -74v0zM482 197c-20 0 -24 -17 -24 -50c0 -32 4 -50 24 -50c21 0 25 18 25 50
c0 33 -4 50 -25 50zM472 496c52 0 62 -42 62 -63c0 -31 -31 -49 -52 -52c-72 -8 -124 -31 -166 -72c0 0 73 187 156 187v0zM139 444c94 0 156 -187 156 -187c-41 52 -93 72 -156 72c-31 0 -62 21 -62 52c0 32 21 63 62 63v0zM314 593c67 -65 -19 -243 -19 -243
c7 66 -16 118 -61 161c-22 22 -30 58 -9 81c22 22 59 30 89 1v0z" />
    <glyph glyph-name="parenright" unicode=")" 
d="M101 197c-3 0 -6 0 -9 -1v-98c2 -1 6 -1 9 -1c26 0 31 19 31 50c0 32 -5 50 -31 50v0zM253 161v-24h-40v-38h47v-24h-76v145h76v-25h-47v-34h40zM99 73c-8 0 -23 0 -36 2v143c13 2 27 4 37 4c45 0 61 -25 61 -75c0 -51 -17 -74 -62 -74v0zM286 220h39l19 -80l19 80h40
c2 -35 4 -98 6 -145h-29c0 34 -1 70 -3 104l-20 -82h-27l-20 82h-1c-1 -34 -2 -70 -2 -104h-28c1 47 4 110 7 145v0zM482 73c-40 0 -53 23 -53 74s13 75 53 75s54 -24 54 -75s-14 -74 -54 -74v0zM482 197c-20 0 -24 -17 -24 -50c0 -32 4 -50 24 -50c21 0 25 18 25 50
c0 33 -4 50 -25 50zM472 496c52 0 62 -42 62 -63c0 -31 -31 -49 -52 -52c-72 -8 -124 -31 -166 -72c0 0 73 187 156 187v0zM139 444c94 0 156 -187 156 -187c-41 52 -93 72 -156 72c-31 0 -62 21 -62 52c0 32 21 63 62 63v0zM314 593c67 -65 -19 -243 -19 -243
c7 66 -16 118 -61 161c-22 22 -30 58 -9 81c22 22 59 30 89 1v0z" />
    <glyph glyph-name="asterisk" unicode="*" 
d="M101 197c-3 0 -6 0 -9 -1v-98c2 -1 6 -1 9 -1c26 0 31 19 31 50c0 32 -5 50 -31 50v0zM253 161v-24h-40v-38h47v-24h-76v145h76v-25h-47v-34h40zM99 73c-8 0 -23 0 -36 2v143c13 2 27 4 37 4c45 0 61 -25 61 -75c0 -51 -17 -74 -62 -74v0zM286 220h39l19 -80l19 80h40
c2 -35 4 -98 6 -145h-29c0 34 -1 70 -3 104l-20 -82h-27l-20 82h-1c-1 -34 -2 -70 -2 -104h-28c1 47 4 110 7 145v0zM482 73c-40 0 -53 23 -53 74s13 75 53 75s54 -24 54 -75s-14 -74 -54 -74v0zM482 197c-20 0 -24 -17 -24 -50c0 -32 4 -50 24 -50c21 0 25 18 25 50
c0 33 -4 50 -25 50zM472 496c52 0 62 -42 62 -63c0 -31 -31 -49 -52 -52c-72 -8 -124 -31 -166 -72c0 0 73 187 156 187v0zM139 444c94 0 156 -187 156 -187c-41 52 -93 72 -156 72c-31 0 -62 21 -62 52c0 32 21 63 62 63v0zM314 593c67 -65 -19 -243 -19 -243
c7 66 -16 118 -61 161c-22 22 -30 58 -9 81c22 22 59 30 89 1v0z" />
    <glyph glyph-name="plus" unicode="+" 
d="M101 197c-3 0 -6 0 -9 -1v-98c2 -1 6 -1 9 -1c26 0 31 19 31 50c0 32 -5 50 -31 50v0zM253 161v-24h-40v-38h47v-24h-76v145h76v-25h-47v-34h40zM99 73c-8 0 -23 0 -36 2v143c13 2 27 4 37 4c45 0 61 -25 61 -75c0 -51 -17 -74 -62 -74v0zM286 220h39l19 -80l19 80h40
c2 -35 4 -98 6 -145h-29c0 34 -1 70 -3 104l-20 -82h-27l-20 82h-1c-1 -34 -2 -70 -2 -104h-28c1 47 4 110 7 145v0zM482 73c-40 0 -53 23 -53 74s13 75 53 75s54 -24 54 -75s-14 -74 -54 -74v0zM482 197c-20 0 -24 -17 -24 -50c0 -32 4 -50 24 -50c21 0 25 18 25 50
c0 33 -4 50 -25 50zM472 496c52 0 62 -42 62 -63c0 -31 -31 -49 -52 -52c-72 -8 -124 -31 -166 -72c0 0 73 187 156 187v0zM139 444c94 0 156 -187 156 -187c-41 52 -93 72 -156 72c-31 0 -62 21 -62 52c0 32 21 63 62 63v0zM314 593c67 -65 -19 -243 -19 -243
c7 66 -16 118 -61 161c-22 22 -30 58 -9 81c22 22 59 30 89 1v0z" />
    <glyph glyph-name="comma" unicode="," horiz-adv-x="237" 
d="M43 -97c70 -1 103 84 70 84c-40 -1 -70 29 -70 68s32 69 71 69c42 0 81 -34 81 -99c0 -93 -78 -155 -152 -152v30z" />
    <glyph glyph-name="hyphen" unicode="-" 
d="M101 197c-3 0 -6 0 -9 -1v-98c2 -1 6 -1 9 -1c26 0 31 19 31 50c0 32 -5 50 -31 50v0zM253 161v-24h-40v-38h47v-24h-76v145h76v-25h-47v-34h40zM99 73c-8 0 -23 0 -36 2v143c13 2 27 4 37 4c45 0 61 -25 61 -75c0 -51 -17 -74 -62 -74v0zM286 220h39l19 -80l19 80h40
c2 -35 4 -98 6 -145h-29c0 34 -1 70 -3 104l-20 -82h-27l-20 82h-1c-1 -34 -2 -70 -2 -104h-28c1 47 4 110 7 145v0zM482 73c-40 0 -53 23 -53 74s13 75 53 75s54 -24 54 -75s-14 -74 -54 -74v0zM482 197c-20 0 -24 -17 -24 -50c0 -32 4 -50 24 -50c21 0 25 18 25 50
c0 33 -4 50 -25 50zM472 496c52 0 62 -42 62 -63c0 -31 -31 -49 -52 -52c-72 -8 -124 -31 -166 -72c0 0 73 187 156 187v0zM139 444c94 0 156 -187 156 -187c-41 52 -93 72 -156 72c-31 0 -62 21 -62 52c0 32 21 63 62 63v0zM314 593c67 -65 -19 -243 -19 -243
c7 66 -16 118 -61 161c-22 22 -30 58 -9 81c22 22 59 30 89 1v0z" />
    <glyph glyph-name="period" unicode="." horiz-adv-x="221" 
d="M111 -13c-38 0 -69 30 -69 68s31 69 69 69c37 0 68 -31 68 -69s-31 -68 -68 -68z" />
    <glyph glyph-name="slash" unicode="/" 
d="M101 197c-3 0 -6 0 -9 -1v-98c2 -1 6 -1 9 -1c26 0 31 19 31 50c0 32 -5 50 -31 50v0zM253 161v-24h-40v-38h47v-24h-76v145h76v-25h-47v-34h40zM99 73c-8 0 -23 0 -36 2v143c13 2 27 4 37 4c45 0 61 -25 61 -75c0 -51 -17 -74 -62 -74v0zM286 220h39l19 -80l19 80h40
c2 -35 4 -98 6 -145h-29c0 34 -1 70 -3 104l-20 -82h-27l-20 82h-1c-1 -34 -2 -70 -2 -104h-28c1 47 4 110 7 145v0zM482 73c-40 0 -53 23 -53 74s13 75 53 75s54 -24 54 -75s-14 -74 -54 -74v0zM482 197c-20 0 -24 -17 -24 -50c0 -32 4 -50 24 -50c21 0 25 18 25 50
c0 33 -4 50 -25 50zM472 496c52 0 62 -42 62 -63c0 -31 -31 -49 -52 -52c-72 -8 -124 -31 -166 -72c0 0 73 187 156 187v0zM139 444c94 0 156 -187 156 -187c-41 52 -93 72 -156 72c-31 0 -62 21 -62 52c0 32 21 63 62 63v0zM314 593c67 -65 -19 -243 -19 -243
c7 66 -16 118 -61 161c-22 22 -30 58 -9 81c22 22 59 30 89 1v0z" />
    <glyph glyph-name="zero" unicode="0" horiz-adv-x="637" 
d="M318 -13c-151 0 -271 119 -271 360s120 361 271 361c152 0 271 -120 271 -361s-119 -360 -271 -360zM153 347c0 -158 56 -259 165 -259c110 0 166 101 166 259s-56 260 -166 260c-109 0 -165 -102 -165 -260z" />
    <glyph glyph-name="one" unicode="1" horiz-adv-x="333" 
d="M177 0c-9 0 -14 6 -14 15v592h-112c-9 0 -14 6 -14 15v63c0 9 5 15 14 15h206c9 0 14 -6 14 -15v-670c0 -9 -5 -15 -14 -15h-80z" />
    <glyph glyph-name="two" unicode="2" horiz-adv-x="517" 
d="M62 0c-9 0 -15 6 -15 15v64c0 7 2 13 7 19l213 238c36 41 87 94 87 162c0 64 -45 110 -116 110c-66 0 -99 -39 -123 -73c-7 -9 -14 -8 -21 -1l-46 45c-7 7 -7 14 -2 22c37 55 99 107 200 107c130 0 214 -88 214 -201c0 -95 -60 -159 -96 -200l-188 -214h269
c9 0 15 -6 15 -15v-63c0 -9 -6 -15 -15 -15h-383z" />
    <glyph glyph-name="three" unicode="3" horiz-adv-x="512" 
d="M242 -13c-94 0 -162 43 -202 102c-5 8 -3 15 3 20l50 45c6 6 13 6 19 -2c25 -32 64 -65 125 -65c76 0 124 52 124 118c0 68 -51 118 -129 118h-22c-10 0 -15 5 -15 14v61c0 10 5 14 15 14h22c69 0 106 48 106 100c0 56 -42 96 -102 96c-49 0 -84 -26 -107 -63
c-6 -9 -13 -8 -20 -2l-47 46c-6 5 -7 12 -2 19c35 55 100 100 187 100c109 0 196 -71 196 -178c0 -76 -44 -129 -102 -156c71 -25 129 -86 129 -181c0 -121 -97 -206 -228 -206z" />
    <glyph glyph-name="four" unicode="4" 
d="M101 197c-3 0 -6 0 -9 -1v-98c2 -1 6 -1 9 -1c26 0 31 19 31 50c0 32 -5 50 -31 50v0zM253 161v-24h-40v-38h47v-24h-76v145h76v-25h-47v-34h40zM99 73c-8 0 -23 0 -36 2v143c13 2 27 4 37 4c45 0 61 -25 61 -75c0 -51 -17 -74 -62 -74v0zM286 220h39l19 -80l19 80h40
c2 -35 4 -98 6 -145h-29c0 34 -1 70 -3 104l-20 -82h-27l-20 82h-1c-1 -34 -2 -70 -2 -104h-28c1 47 4 110 7 145v0zM482 73c-40 0 -53 23 -53 74s13 75 53 75s54 -24 54 -75s-14 -74 -54 -74v0zM482 197c-20 0 -24 -17 -24 -50c0 -32 4 -50 24 -50c21 0 25 18 25 50
c0 33 -4 50 -25 50zM472 496c52 0 62 -42 62 -63c0 -31 -31 -49 -52 -52c-72 -8 -124 -31 -166 -72c0 0 73 187 156 187v0zM139 444c94 0 156 -187 156 -187c-41 52 -93 72 -156 72c-31 0 -62 21 -62 52c0 32 21 63 62 63v0zM314 593c67 -65 -19 -243 -19 -243
c7 66 -16 118 -61 161c-22 22 -30 58 -9 81c22 22 59 30 89 1v0z" />
    <glyph glyph-name="five" unicode="5" horiz-adv-x="540" 
d="M254 -13c-101 0 -171 52 -201 99c-5 10 -4 16 4 22l54 42c8 6 16 3 22 -5c24 -30 63 -58 119 -58c82 0 142 60 142 143c0 82 -60 139 -138 139c-37 0 -79 -14 -108 -49c-6 -7 -14 -10 -25 -5l-53 21c-10 4 -12 9 -10 18l73 333c2 8 7 13 16 13h290c9 0 14 -6 14 -15v-63
c0 -9 -5 -15 -14 -15h-225l-38 -173c24 14 61 27 104 27c124 0 218 -97 218 -233c0 -147 -109 -241 -244 -241z" />
    <glyph glyph-name="six" unicode="6" horiz-adv-x="560" 
d="M280 -13c-136 0 -238 103 -238 236c0 63 23 124 77 192l232 298c6 7 12 10 20 3l56 -49c7 -6 8 -11 2 -19l-162 -200c9 5 24 8 42 8c107 0 210 -98 210 -233c0 -134 -103 -236 -239 -236zM147 226c0 -82 57 -139 133 -139c77 0 134 57 134 139c0 81 -57 138 -134 138
c-76 0 -133 -57 -133 -138z" />
    <glyph glyph-name="seven" unicode="7" horiz-adv-x="512" 
d="M117 0c-10 0 -15 6 -11 18l244 589h-299c-9 0 -14 6 -14 15v63c0 9 5 15 14 15h419c10 0 15 -8 11 -19l-269 -666c-3 -9 -8 -15 -18 -15h-77z" />
    <glyph glyph-name="eight" unicode="8" horiz-adv-x="562" 
d="M281 -13c-125 0 -234 83 -234 214c0 94 57 163 126 191c-51 30 -82 82 -82 143c0 94 74 173 190 173c115 0 190 -79 190 -173c0 -61 -32 -113 -83 -143c70 -28 126 -97 126 -191c0 -131 -109 -214 -233 -214zM154 207c0 -73 55 -122 127 -122s126 48 126 122
c0 77 -59 124 -126 124s-127 -47 -127 -124zM187 528c0 -54 39 -96 94 -96s94 42 94 96c0 53 -39 93 -94 93c-56 0 -94 -40 -94 -93z" />
    <glyph glyph-name="nine" unicode="9" horiz-adv-x="560" 
d="M134 28c-8 6 -9 11 -2 19l162 200c-10 -5 -25 -8 -43 -8c-106 0 -209 99 -209 233s103 236 239 236c135 0 238 -103 238 -235c0 -64 -24 -125 -78 -193l-231 -298c-6 -7 -13 -10 -21 -3zM147 469c0 -81 57 -138 133 -138c77 0 134 57 134 138c0 82 -57 139 -134 139
s-133 -57 -133 -139z" />
    <glyph glyph-name="colon" unicode=":" horiz-adv-x="221" 
d="M111 -13c-38 0 -69 30 -69 68s31 69 69 69c37 0 68 -31 68 -69s-31 -68 -68 -68zM42 433c0 38 31 69 69 69c37 0 68 -31 68 -69s-31 -68 -68 -68c-38 0 -69 30 -69 68z" />
    <glyph glyph-name="semicolon" unicode=";" horiz-adv-x="237" 
d="M112 365c-38 0 -69 30 -69 68s31 69 69 69c37 0 68 -31 68 -69s-31 -68 -68 -68zM43 -127v30c70 -1 103 84 70 84c-40 -1 -70 29 -70 68s32 69 71 69c42 0 81 -34 81 -99c0 -93 -78 -155 -152 -152z" />
    <glyph glyph-name="less" unicode="&#x3c;" 
d="M101 197c-3 0 -6 0 -9 -1v-98c2 -1 6 -1 9 -1c26 0 31 19 31 50c0 32 -5 50 -31 50v0zM253 161v-24h-40v-38h47v-24h-76v145h76v-25h-47v-34h40zM99 73c-8 0 -23 0 -36 2v143c13 2 27 4 37 4c45 0 61 -25 61 -75c0 -51 -17 -74 -62 -74v0zM286 220h39l19 -80l19 80h40
c2 -35 4 -98 6 -145h-29c0 34 -1 70 -3 104l-20 -82h-27l-20 82h-1c-1 -34 -2 -70 -2 -104h-28c1 47 4 110 7 145v0zM482 73c-40 0 -53 23 -53 74s13 75 53 75s54 -24 54 -75s-14 -74 -54 -74v0zM482 197c-20 0 -24 -17 -24 -50c0 -32 4 -50 24 -50c21 0 25 18 25 50
c0 33 -4 50 -25 50zM472 496c52 0 62 -42 62 -63c0 -31 -31 -49 -52 -52c-72 -8 -124 -31 -166 -72c0 0 73 187 156 187v0zM139 444c94 0 156 -187 156 -187c-41 52 -93 72 -156 72c-31 0 -62 21 -62 52c0 32 21 63 62 63v0zM314 593c67 -65 -19 -243 -19 -243
c7 66 -16 118 -61 161c-22 22 -30 58 -9 81c22 22 59 30 89 1v0z" />
    <glyph glyph-name="equal" unicode="=" 
d="M101 197c-3 0 -6 0 -9 -1v-98c2 -1 6 -1 9 -1c26 0 31 19 31 50c0 32 -5 50 -31 50v0zM253 161v-24h-40v-38h47v-24h-76v145h76v-25h-47v-34h40zM99 73c-8 0 -23 0 -36 2v143c13 2 27 4 37 4c45 0 61 -25 61 -75c0 -51 -17 -74 -62 -74v0zM286 220h39l19 -80l19 80h40
c2 -35 4 -98 6 -145h-29c0 34 -1 70 -3 104l-20 -82h-27l-20 82h-1c-1 -34 -2 -70 -2 -104h-28c1 47 4 110 7 145v0zM482 73c-40 0 -53 23 -53 74s13 75 53 75s54 -24 54 -75s-14 -74 -54 -74v0zM482 197c-20 0 -24 -17 -24 -50c0 -32 4 -50 24 -50c21 0 25 18 25 50
c0 33 -4 50 -25 50zM472 496c52 0 62 -42 62 -63c0 -31 -31 -49 -52 -52c-72 -8 -124 -31 -166 -72c0 0 73 187 156 187v0zM139 444c94 0 156 -187 156 -187c-41 52 -93 72 -156 72c-31 0 -62 21 -62 52c0 32 21 63 62 63v0zM314 593c67 -65 -19 -243 -19 -243
c7 66 -16 118 -61 161c-22 22 -30 58 -9 81c22 22 59 30 89 1v0z" />
    <glyph glyph-name="greater" unicode="&#x3e;" 
d="M101 197c-3 0 -6 0 -9 -1v-98c2 -1 6 -1 9 -1c26 0 31 19 31 50c0 32 -5 50 -31 50v0zM253 161v-24h-40v-38h47v-24h-76v145h76v-25h-47v-34h40zM99 73c-8 0 -23 0 -36 2v143c13 2 27 4 37 4c45 0 61 -25 61 -75c0 -51 -17 -74 -62 -74v0zM286 220h39l19 -80l19 80h40
c2 -35 4 -98 6 -145h-29c0 34 -1 70 -3 104l-20 -82h-27l-20 82h-1c-1 -34 -2 -70 -2 -104h-28c1 47 4 110 7 145v0zM482 73c-40 0 -53 23 -53 74s13 75 53 75s54 -24 54 -75s-14 -74 -54 -74v0zM482 197c-20 0 -24 -17 -24 -50c0 -32 4 -50 24 -50c21 0 25 18 25 50
c0 33 -4 50 -25 50zM472 496c52 0 62 -42 62 -63c0 -31 -31 -49 -52 -52c-72 -8 -124 -31 -166 -72c0 0 73 187 156 187v0zM139 444c94 0 156 -187 156 -187c-41 52 -93 72 -156 72c-31 0 -62 21 -62 52c0 32 21 63 62 63v0zM314 593c67 -65 -19 -243 -19 -243
c7 66 -16 118 -61 161c-22 22 -30 58 -9 81c22 22 59 30 89 1v0z" />
    <glyph glyph-name="question" unicode="?" horiz-adv-x="458" 
d="M186 200c-9 0 -15 6 -15 15v38c-2 158 137 160 137 265c0 56 -40 85 -91 85c-64 0 -94 -47 -109 -82c-5 -9 -13 -9 -23 -3l-44 27c-15 9 -16 17 -13 26c24 72 92 137 200 137c99 0 188 -56 188 -169c0 -149 -143 -160 -150 -287l-2 -37c0 -9 -5 -15 -14 -15h-64zM150 55
c0 38 31 69 69 69c37 0 68 -31 68 -69s-31 -68 -68 -68c-38 0 -69 30 -69 68z" />
    <glyph glyph-name="at" unicode="@" 
d="M101 197c-3 0 -6 0 -9 -1v-98c2 -1 6 -1 9 -1c26 0 31 19 31 50c0 32 -5 50 -31 50v0zM253 161v-24h-40v-38h47v-24h-76v145h76v-25h-47v-34h40zM99 73c-8 0 -23 0 -36 2v143c13 2 27 4 37 4c45 0 61 -25 61 -75c0 -51 -17 -74 -62 -74v0zM286 220h39l19 -80l19 80h40
c2 -35 4 -98 6 -145h-29c0 34 -1 70 -3 104l-20 -82h-27l-20 82h-1c-1 -34 -2 -70 -2 -104h-28c1 47 4 110 7 145v0zM482 73c-40 0 -53 23 -53 74s13 75 53 75s54 -24 54 -75s-14 -74 -54 -74v0zM482 197c-20 0 -24 -17 -24 -50c0 -32 4 -50 24 -50c21 0 25 18 25 50
c0 33 -4 50 -25 50zM472 496c52 0 62 -42 62 -63c0 -31 -31 -49 -52 -52c-72 -8 -124 -31 -166 -72c0 0 73 187 156 187v0zM139 444c94 0 156 -187 156 -187c-41 52 -93 72 -156 72c-31 0 -62 21 -62 52c0 32 21 63 62 63v0zM314 593c67 -65 -19 -243 -19 -243
c7 66 -16 118 -61 161c-22 22 -30 58 -9 81c22 22 59 30 89 1v0z" />
    <glyph glyph-name="A" unicode="A" horiz-adv-x="690" 
d="M55 0c-11 0 -16 7 -12 17l238 671c3 8 10 12 18 12h91c8 0 16 -4 19 -12l238 -671c4 -10 -1 -17 -12 -17h-87c-8 0 -14 3 -17 12l-41 122h-290l-42 -122c-3 -9 -8 -12 -17 -12h-86zM234 234h222l-111 327z" />
    <glyph glyph-name="B" unicode="B" horiz-adv-x="589" 
d="M91 0c-9 0 -14 6 -14 15v670c0 9 5 15 14 15h221c134 0 191 -84 191 -173c0 -70 -37 -126 -96 -149c81 -20 140 -85 140 -181c0 -116 -79 -197 -241 -197h-215zM187 99h112c86 0 134 38 134 113s-48 114 -134 114h-112v-227zM187 414h106c64 0 104 33 104 97
c0 65 -40 90 -104 90h-106v-187z" />
    <glyph glyph-name="C" unicode="C" horiz-adv-x="714" 
d="M415 -13c-203 0 -358 156 -358 360s155 361 358 361c99 0 179 -37 241 -96c7 -7 8 -14 1 -22l-51 -55c-6 -7 -13 -7 -21 -1c-46 40 -101 64 -169 64c-140 0 -246 -106 -246 -251s106 -250 246 -250c68 0 123 24 169 64c8 7 15 6 21 0l51 -56c8 -7 6 -14 -1 -21
c-62 -60 -142 -97 -241 -97z" />
    <glyph glyph-name="D" unicode="D" horiz-adv-x="681" 
d="M91 0c-9 0 -14 6 -14 15v670c0 9 5 15 14 15h182c238 0 356 -152 356 -350s-118 -350 -356 -350h-182zM189 100h82c166 0 245 92 245 250s-79 250 -245 250h-82v-500z" />
    <glyph glyph-name="E" unicode="E" horiz-adv-x="520" 
d="M91 0c-9 0 -14 6 -14 15v670c0 9 5 15 14 15h347c9 0 14 -6 14 -15v-70c0 -9 -5 -15 -14 -15h-249v-192h235c9 0 15 -6 15 -15v-71c0 -9 -6 -14 -15 -14h-235v-208h249c9 0 15 -6 15 -15v-70c0 -9 -6 -15 -15 -15h-347z" />
    <glyph glyph-name="F" unicode="F" horiz-adv-x="507" 
d="M91 0c-9 0 -14 6 -14 15v670c0 9 5 15 14 15h340c9 0 15 -6 15 -15v-70c0 -9 -6 -15 -15 -15h-242v-187h229c9 0 15 -6 15 -15v-70c0 -9 -6 -15 -15 -15h-229v-298c0 -9 -6 -15 -15 -15h-83z" />
    <glyph glyph-name="G" unicode="G" horiz-adv-x="787" 
d="M418 -13c-205 0 -361 156 -361 360s156 361 359 361c98 0 178 -35 240 -97c8 -7 8 -14 1 -22l-51 -55c-6 -7 -13 -7 -19 -1c-48 41 -104 65 -171 65c-140 0 -246 -107 -246 -251s106 -250 251 -250c127 0 209 80 210 185h-206c-9 0 -14 5 -14 14v72c0 9 5 14 14 14h300
c9 0 15 -6 15 -15v-49c0 -185 -122 -331 -322 -331z" />
    <glyph glyph-name="H" unicode="H" horiz-adv-x="668" 
d="M91 0c-9 0 -14 6 -14 15v670c0 9 5 15 14 15h83c9 0 15 -6 15 -15v-290h290v290c0 9 6 15 15 15h83c9 0 14 -6 14 -15v-670c0 -9 -5 -15 -14 -15h-83c-9 0 -15 6 -15 15v281h-290v-281c0 -9 -6 -15 -15 -15h-83z" />
    <glyph glyph-name="I" unicode="I" horiz-adv-x="266" 
d="M91 0c-9 0 -14 6 -14 15v670c0 9 5 15 14 15h83c9 0 15 -6 15 -15v-670c0 -9 -6 -15 -15 -15h-83z" />
    <glyph glyph-name="J" unicode="J" horiz-adv-x="527" 
d="M225 -13c-84 0 -138 35 -171 72c-6 8 -6 16 0 23l44 58c5 6 13 7 19 1c24 -20 52 -44 105 -44c71 0 116 44 116 148v440c0 9 5 15 14 15h83c9 0 15 -6 15 -15v-438c0 -174 -93 -260 -225 -260z" />
    <glyph glyph-name="K" unicode="K" horiz-adv-x="643" 
d="M91 0c-9 0 -14 6 -14 15v670c0 9 5 15 14 15h83c9 0 15 -6 15 -15v-341l258 348c5 6 11 8 18 8h102c13 0 15 -9 8 -18l-236 -300l264 -364c7 -10 3 -18 -9 -18h-97c-8 0 -13 2 -18 9l-208 286l-82 -104v-176c0 -9 -6 -15 -15 -15h-83z" />
    <glyph glyph-name="L" unicode="L" horiz-adv-x="482" 
d="M91 0c-9 0 -14 6 -14 15v670c0 9 5 15 14 15h83c9 0 15 -6 15 -15v-585h232c9 0 15 -6 15 -15v-70c0 -9 -6 -15 -15 -15h-330z" />
    <glyph glyph-name="M" unicode="M" horiz-adv-x="878" 
d="M91 0c-9 0 -14 6 -14 15v670c0 9 5 15 14 15h101c8 0 14 -3 17 -10l230 -563l231 563c3 7 8 10 16 10h101c9 0 15 -6 15 -15v-670c0 -9 -6 -15 -15 -15h-83c-9 0 -14 6 -14 15v483l-14 -45l-181 -441c-3 -8 -9 -12 -17 -12h-77c-8 0 -15 4 -18 12l-180 441l-14 45v-483
c0 -9 -6 -15 -15 -15h-83z" />
    <glyph glyph-name="N" unicode="N" horiz-adv-x="684" 
d="M491 0c-8 0 -14 3 -18 10l-284 517v-512c0 -9 -6 -15 -15 -15h-83c-9 0 -14 6 -14 15v670c0 9 5 15 14 15h102c8 0 14 -3 18 -10l285 -519v514c0 9 5 15 14 15h83c9 0 15 -6 15 -15v-670c0 -9 -6 -15 -15 -15h-102z" />
    <glyph glyph-name="O" unicode="O" horiz-adv-x="832" 
d="M416 -13c-200 0 -359 158 -359 360c0 203 159 361 359 361s359 -158 359 -361c0 -202 -159 -360 -359 -360zM170 347c0 -143 106 -250 246 -250s245 107 245 250c0 144 -105 251 -245 251s-246 -107 -246 -251z" />
    <glyph glyph-name="P" unicode="P" horiz-adv-x="579" 
d="M91 0c-9 0 -14 6 -14 15v670c0 9 5 15 14 15h202c159 0 239 -92 239 -223s-80 -223 -239 -223h-104v-239c0 -9 -6 -15 -15 -15h-83zM189 354h99c74 0 136 29 136 123s-62 123 -136 123h-99v-246z" />
    <glyph glyph-name="Q" unicode="Q" horiz-adv-x="832" 
d="M715 -12c-7 -7 -14 -7 -21 0l-66 67c-60 -43 -133 -68 -212 -68c-200 0 -359 158 -359 360c0 203 159 361 359 361s359 -158 359 -361c0 -82 -26 -157 -71 -217l66 -66c7 -7 7 -14 0 -21zM170 347c0 -143 106 -250 246 -250c50 0 95 13 133 37l-86 86c-7 7 -7 14 -1 20
l56 56c6 6 13 7 21 -1l85 -85c23 39 37 86 37 137c0 144 -105 251 -245 251s-246 -107 -246 -251z" />
    <glyph glyph-name="R" unicode="R" horiz-adv-x="591" 
d="M443 0c-8 0 -14 3 -18 10l-157 244h-79v-239c0 -9 -6 -15 -15 -15h-83c-9 0 -14 6 -14 15v670c0 9 5 15 14 15h202c159 0 239 -92 239 -223c0 -105 -51 -184 -153 -212l162 -247c7 -11 2 -18 -10 -18h-88zM189 354h99c74 0 136 29 136 123s-62 123 -136 123h-99v-246z
" />
    <glyph glyph-name="S" unicode="S" horiz-adv-x="548" 
d="M272 -12c-105 0 -178 50 -218 107c-5 7 -5 14 2 22l42 48c8 9 16 8 23 1c41 -47 84 -75 150 -75c73 0 118 35 118 96c0 60 -44 84 -103 112l-85 40c-74 35 -133 88 -133 182c0 118 92 187 206 187c82 0 146 -33 197 -91c8 -8 7 -15 0 -23l-41 -49c-7 -9 -15 -9 -23 -2
c-41 41 -79 62 -129 62c-59 0 -101 -30 -101 -84c0 -46 28 -69 86 -97l77 -36c79 -38 158 -86 158 -201c0 -131 -104 -199 -226 -199z" />
    <glyph glyph-name="T" unicode="T" horiz-adv-x="540" 
d="M228 0c-9 0 -14 6 -14 15v585h-143c-9 0 -14 6 -14 15v70c0 9 5 15 14 15h397c9 0 15 -6 15 -15v-70c0 -9 -6 -15 -15 -15h-142v-585c0 -9 -6 -15 -15 -15h-83z" />
    <glyph glyph-name="U" unicode="U" horiz-adv-x="644" 
d="M322 -13c-147 0 -250 91 -250 263v435c0 9 5 15 14 15h83c9 0 15 -6 15 -15v-430c0 -106 54 -158 138 -158s138 52 138 158v430c0 9 6 15 15 15h83c9 0 15 -6 15 -15v-435c0 -172 -103 -263 -251 -263z" />
    <glyph glyph-name="V" unicode="V" horiz-adv-x="690" 
d="M299 0c-8 0 -15 4 -18 12l-238 671c-4 10 1 17 12 17h86c9 0 14 -3 17 -12l187 -549l186 549c3 9 9 12 17 12h87c11 0 16 -7 12 -17l-238 -671c-3 -8 -11 -12 -19 -12h-91z" />
    <glyph glyph-name="W" unicode="W" horiz-adv-x="1081" 
d="M264 0c-9 0 -16 4 -18 12l-203 671c-3 10 1 17 12 17h85c8 0 15 -3 17 -12l156 -537l169 537c3 9 8 12 17 12h83c9 0 14 -3 17 -12l169 -537l156 537c3 9 9 12 17 12h85c11 0 15 -7 12 -17l-203 -671c-2 -8 -9 -12 -18 -12h-90c-8 0 -16 4 -18 12l-168 548l-169 -548
c-2 -8 -10 -12 -18 -12h-90z" />
    <glyph glyph-name="X" unicode="X" horiz-adv-x="641" 
d="M64 0c-12 0 -15 7 -9 18l204 340l-194 324c-6 11 -3 18 9 18h90c8 0 13 -3 18 -10l139 -230l139 230c4 7 9 10 17 10h90c12 0 15 -7 9 -18l-194 -324l204 -340c6 -11 3 -18 -9 -18h-90c-8 0 -13 3 -18 10l-148 247l-149 -247c-5 -7 -10 -10 -18 -10h-90z" />
    <glyph glyph-name="Y" unicode="Y" horiz-adv-x="613" 
d="M265 0c-9 0 -14 6 -14 15v315l-206 352c-6 11 -3 18 9 18h88c8 0 14 -3 18 -10l147 -257l147 257c4 7 9 10 17 10h88c12 0 16 -7 10 -18l-206 -353v-314c0 -9 -6 -15 -15 -15h-83z" />
    <glyph glyph-name="Z" unicode="Z" horiz-adv-x="560" 
d="M66 0c-9 0 -14 6 -14 15v75c0 7 2 12 6 18l320 492h-302c-9 0 -14 6 -14 15v70c0 9 5 15 14 15h402c9 0 15 -6 15 -15v-75c0 -7 -2 -12 -6 -18l-321 -492h322c9 0 15 -6 15 -15v-70c0 -9 -6 -15 -15 -15h-422z" />
    <glyph glyph-name="bracketleft" unicode="[" 
d="M101 197c-3 0 -6 0 -9 -1v-98c2 -1 6 -1 9 -1c26 0 31 19 31 50c0 32 -5 50 -31 50v0zM253 161v-24h-40v-38h47v-24h-76v145h76v-25h-47v-34h40zM99 73c-8 0 -23 0 -36 2v143c13 2 27 4 37 4c45 0 61 -25 61 -75c0 -51 -17 -74 -62 -74v0zM286 220h39l19 -80l19 80h40
c2 -35 4 -98 6 -145h-29c0 34 -1 70 -3 104l-20 -82h-27l-20 82h-1c-1 -34 -2 -70 -2 -104h-28c1 47 4 110 7 145v0zM482 73c-40 0 -53 23 -53 74s13 75 53 75s54 -24 54 -75s-14 -74 -54 -74v0zM482 197c-20 0 -24 -17 -24 -50c0 -32 4 -50 24 -50c21 0 25 18 25 50
c0 33 -4 50 -25 50zM472 496c52 0 62 -42 62 -63c0 -31 -31 -49 -52 -52c-72 -8 -124 -31 -166 -72c0 0 73 187 156 187v0zM139 444c94 0 156 -187 156 -187c-41 52 -93 72 -156 72c-31 0 -62 21 -62 52c0 32 21 63 62 63v0zM314 593c67 -65 -19 -243 -19 -243
c7 66 -16 118 -61 161c-22 22 -30 58 -9 81c22 22 59 30 89 1v0z" />
    <glyph glyph-name="backslash" unicode="\" 
d="M101 197c-3 0 -6 0 -9 -1v-98c2 -1 6 -1 9 -1c26 0 31 19 31 50c0 32 -5 50 -31 50v0zM253 161v-24h-40v-38h47v-24h-76v145h76v-25h-47v-34h40zM99 73c-8 0 -23 0 -36 2v143c13 2 27 4 37 4c45 0 61 -25 61 -75c0 -51 -17 -74 -62 -74v0zM286 220h39l19 -80l19 80h40
c2 -35 4 -98 6 -145h-29c0 34 -1 70 -3 104l-20 -82h-27l-20 82h-1c-1 -34 -2 -70 -2 -104h-28c1 47 4 110 7 145v0zM482 73c-40 0 -53 23 -53 74s13 75 53 75s54 -24 54 -75s-14 -74 -54 -74v0zM482 197c-20 0 -24 -17 -24 -50c0 -32 4 -50 24 -50c21 0 25 18 25 50
c0 33 -4 50 -25 50zM472 496c52 0 62 -42 62 -63c0 -31 -31 -49 -52 -52c-72 -8 -124 -31 -166 -72c0 0 73 187 156 187v0zM139 444c94 0 156 -187 156 -187c-41 52 -93 72 -156 72c-31 0 -62 21 -62 52c0 32 21 63 62 63v0zM314 593c67 -65 -19 -243 -19 -243
c7 66 -16 118 -61 161c-22 22 -30 58 -9 81c22 22 59 30 89 1v0z" />
    <glyph glyph-name="bracketright" unicode="]" 
d="M101 197c-3 0 -6 0 -9 -1v-98c2 -1 6 -1 9 -1c26 0 31 19 31 50c0 32 -5 50 -31 50v0zM253 161v-24h-40v-38h47v-24h-76v145h76v-25h-47v-34h40zM99 73c-8 0 -23 0 -36 2v143c13 2 27 4 37 4c45 0 61 -25 61 -75c0 -51 -17 -74 -62 -74v0zM286 220h39l19 -80l19 80h40
c2 -35 4 -98 6 -145h-29c0 34 -1 70 -3 104l-20 -82h-27l-20 82h-1c-1 -34 -2 -70 -2 -104h-28c1 47 4 110 7 145v0zM482 73c-40 0 -53 23 -53 74s13 75 53 75s54 -24 54 -75s-14 -74 -54 -74v0zM482 197c-20 0 -24 -17 -24 -50c0 -32 4 -50 24 -50c21 0 25 18 25 50
c0 33 -4 50 -25 50zM472 496c52 0 62 -42 62 -63c0 -31 -31 -49 -52 -52c-72 -8 -124 -31 -166 -72c0 0 73 187 156 187v0zM139 444c94 0 156 -187 156 -187c-41 52 -93 72 -156 72c-31 0 -62 21 -62 52c0 32 21 63 62 63v0zM314 593c67 -65 -19 -243 -19 -243
c7 66 -16 118 -61 161c-22 22 -30 58 -9 81c22 22 59 30 89 1v0z" />
    <glyph glyph-name="asciicircum" unicode="^" 
d="M101 197c-3 0 -6 0 -9 -1v-98c2 -1 6 -1 9 -1c26 0 31 19 31 50c0 32 -5 50 -31 50v0zM253 161v-24h-40v-38h47v-24h-76v145h76v-25h-47v-34h40zM99 73c-8 0 -23 0 -36 2v143c13 2 27 4 37 4c45 0 61 -25 61 -75c0 -51 -17 -74 -62 -74v0zM286 220h39l19 -80l19 80h40
c2 -35 4 -98 6 -145h-29c0 34 -1 70 -3 104l-20 -82h-27l-20 82h-1c-1 -34 -2 -70 -2 -104h-28c1 47 4 110 7 145v0zM482 73c-40 0 -53 23 -53 74s13 75 53 75s54 -24 54 -75s-14 -74 -54 -74v0zM482 197c-20 0 -24 -17 -24 -50c0 -32 4 -50 24 -50c21 0 25 18 25 50
c0 33 -4 50 -25 50zM472 496c52 0 62 -42 62 -63c0 -31 -31 -49 -52 -52c-72 -8 -124 -31 -166 -72c0 0 73 187 156 187v0zM139 444c94 0 156 -187 156 -187c-41 52 -93 72 -156 72c-31 0 -62 21 -62 52c0 32 21 63 62 63v0zM314 593c67 -65 -19 -243 -19 -243
c7 66 -16 118 -61 161c-22 22 -30 58 -9 81c22 22 59 30 89 1v0z" />
    <glyph glyph-name="underscore" unicode="_" 
d="M101 197c-3 0 -6 0 -9 -1v-98c2 -1 6 -1 9 -1c26 0 31 19 31 50c0 32 -5 50 -31 50v0zM253 161v-24h-40v-38h47v-24h-76v145h76v-25h-47v-34h40zM99 73c-8 0 -23 0 -36 2v143c13 2 27 4 37 4c45 0 61 -25 61 -75c0 -51 -17 -74 -62 -74v0zM286 220h39l19 -80l19 80h40
c2 -35 4 -98 6 -145h-29c0 34 -1 70 -3 104l-20 -82h-27l-20 82h-1c-1 -34 -2 -70 -2 -104h-28c1 47 4 110 7 145v0zM482 73c-40 0 -53 23 -53 74s13 75 53 75s54 -24 54 -75s-14 -74 -54 -74v0zM482 197c-20 0 -24 -17 -24 -50c0 -32 4 -50 24 -50c21 0 25 18 25 50
c0 33 -4 50 -25 50zM472 496c52 0 62 -42 62 -63c0 -31 -31 -49 -52 -52c-72 -8 -124 -31 -166 -72c0 0 73 187 156 187v0zM139 444c94 0 156 -187 156 -187c-41 52 -93 72 -156 72c-31 0 -62 21 -62 52c0 32 21 63 62 63v0zM314 593c67 -65 -19 -243 -19 -243
c7 66 -16 118 -61 161c-22 22 -30 58 -9 81c22 22 59 30 89 1v0z" />
    <glyph glyph-name="grave" unicode="`" 
d="M101 197c-3 0 -6 0 -9 -1v-98c2 -1 6 -1 9 -1c26 0 31 19 31 50c0 32 -5 50 -31 50v0zM253 161v-24h-40v-38h47v-24h-76v145h76v-25h-47v-34h40zM99 73c-8 0 -23 0 -36 2v143c13 2 27 4 37 4c45 0 61 -25 61 -75c0 -51 -17 -74 -62 -74v0zM286 220h39l19 -80l19 80h40
c2 -35 4 -98 6 -145h-29c0 34 -1 70 -3 104l-20 -82h-27l-20 82h-1c-1 -34 -2 -70 -2 -104h-28c1 47 4 110 7 145v0zM482 73c-40 0 -53 23 -53 74s13 75 53 75s54 -24 54 -75s-14 -74 -54 -74v0zM482 197c-20 0 -24 -17 -24 -50c0 -32 4 -50 24 -50c21 0 25 18 25 50
c0 33 -4 50 -25 50zM472 496c52 0 62 -42 62 -63c0 -31 -31 -49 -52 -52c-72 -8 -124 -31 -166 -72c0 0 73 187 156 187v0zM139 444c94 0 156 -187 156 -187c-41 52 -93 72 -156 72c-31 0 -62 21 -62 52c0 32 21 63 62 63v0zM314 593c67 -65 -19 -243 -19 -243
c7 66 -16 118 -61 161c-22 22 -30 58 -9 81c22 22 59 30 89 1v0z" />
    <glyph glyph-name="a" unicode="a" horiz-adv-x="621" 
d="M278 -12c-140 0 -236 111 -236 257c0 145 96 257 236 257c81 0 139 -36 173 -93l2 66c0 9 5 15 14 15h73c9 0 14 -6 14 -15v-460c0 -9 -5 -15 -14 -15h-73c-9 0 -14 6 -14 15l-2 65c-35 -57 -93 -92 -173 -92zM147 245c0 -95 64 -158 152 -158c87 0 148 63 148 157
c0 95 -61 159 -148 159c-88 0 -152 -64 -152 -158z" />
    <glyph glyph-name="b" unicode="b" horiz-adv-x="621" 
d="M343 -12c-80 0 -138 35 -173 92l-2 -65c0 -9 -5 -15 -14 -15h-73c-9 0 -14 6 -14 15v685c0 9 5 15 14 15h80c9 0 14 -6 14 -15v-283c35 53 92 85 168 85c140 0 236 -112 236 -257c0 -146 -96 -257 -236 -257zM174 244c0 -94 61 -157 148 -157c88 0 152 63 152 158
c0 94 -64 158 -152 158c-87 0 -148 -64 -148 -159z" />
    <glyph glyph-name="c" unicode="c" horiz-adv-x="531" 
d="M299 -12c-147 0 -257 111 -257 258c0 146 109 256 255 256c80 0 145 -33 187 -85c6 -8 6 -15 0 -21l-45 -43c-8 -8 -18 -6 -24 1c-29 29 -62 48 -113 48c-92 0 -156 -66 -156 -156s64 -158 158 -158c50 0 83 19 111 48c7 7 17 9 25 1l45 -43c6 -6 6 -13 0 -21
c-42 -52 -107 -85 -186 -85z" />
    <glyph glyph-name="d" unicode="d" horiz-adv-x="621" 
d="M278 -12c-140 0 -236 111 -236 257c0 145 96 257 236 257c77 0 133 -32 168 -85v283c0 9 5 15 14 15h80c9 0 14 -6 14 -15v-685c0 -9 -5 -15 -14 -15h-73c-9 0 -14 6 -14 15l-2 65c-35 -57 -93 -92 -173 -92zM147 245c0 -95 64 -158 152 -158c87 0 148 63 148 157
c0 95 -61 159 -148 159c-88 0 -152 -64 -152 -158z" />
    <glyph glyph-name="e" unicode="e" horiz-adv-x="565" 
d="M306 -12c-160 0 -264 113 -264 259c0 144 100 255 249 255c147 0 232 -111 232 -233c0 -43 -9 -64 -46 -64h-330c13 -78 71 -130 168 -130c48 0 87 12 126 38c6 4 12 3 16 -3l28 -38c6 -8 4 -14 -4 -22c-43 -42 -106 -62 -175 -62zM146 283h281c-6 80 -59 128 -136 128
s-134 -47 -145 -128z" />
    <glyph glyph-name="f" unicode="f" horiz-adv-x="368" 
d="M124 0c-9 0 -14 6 -14 15v389h-59c-9 0 -14 6 -14 15v56c0 9 5 15 14 15h59v92c0 100 54 149 150 149c23 0 42 -2 62 -12c7 -3 9 -7 9 -14v-68c0 -7 -6 -8 -12 -7c-15 2 -27 4 -38 4c-52 0 -63 -30 -63 -70v-74h99c9 0 14 -6 14 -15v-56c0 -9 -5 -15 -14 -15h-99v-389
c0 -9 -5 -15 -14 -15h-80z" />
    <glyph glyph-name="g" unicode="g" horiz-adv-x="614" 
d="M292 -205c-72 0 -138 20 -182 52c-9 6 -11 16 -7 25l23 43c5 8 13 11 22 6c42 -25 89 -37 135 -37c81 0 160 36 160 142v66c-33 -52 -89 -84 -167 -84c-139 0 -234 102 -234 247s95 247 233 247c80 0 136 -32 169 -86l2 59c0 9 5 15 14 15h73c9 0 14 -6 14 -15v-452
c0 -168 -131 -228 -255 -228zM147 255c0 -92 64 -149 148 -149c85 0 145 57 145 148c0 92 -60 150 -145 150c-84 0 -148 -58 -148 -149z" />
    <glyph glyph-name="h" unicode="h" horiz-adv-x="573" 
d="M81 0c-9 0 -14 6 -14 15v685c0 9 5 15 14 15h80c9 0 14 -6 14 -15v-286c28 50 77 88 154 88c104 0 178 -72 178 -201v-286c0 -9 -6 -15 -15 -15h-79c-9 0 -14 6 -14 15v266c0 77 -38 121 -107 121s-117 -44 -117 -121v-266c0 -9 -5 -15 -14 -15h-80z" />
    <glyph glyph-name="i" unicode="i" horiz-adv-x="243" 
d="M122 595c-36 0 -63 28 -63 63c0 34 27 62 63 62c35 0 62 -28 62 -62c0 -35 -27 -63 -62 -63zM67 15v460c0 9 5 15 14 15h81c9 0 14 -6 14 -15v-460c0 -9 -5 -15 -14 -15h-81c-9 0 -14 6 -14 15z" />
    <glyph glyph-name="j" unicode="j" horiz-adv-x="252" 
d="M131 595c-36 0 -63 28 -63 63c0 34 27 62 63 62c35 0 62 -28 62 -62c0 -35 -27 -63 -62 -63zM-37 -174v68c0 7 6 8 13 7c14 -2 26 -4 37 -4c52 0 63 30 63 70v508c0 9 5 15 14 15h81c9 0 14 -6 14 -15v-526c0 -100 -54 -149 -150 -149c-23 0 -42 2 -63 12
c-6 3 -9 7 -9 14z" />
    <glyph glyph-name="k" unicode="k" horiz-adv-x="547" 
d="M81 0c-9 0 -14 6 -14 15v685c0 9 5 15 14 15h80c9 0 14 -6 14 -15v-436l193 218c5 6 10 8 17 8h94c12 0 14 -8 6 -17l-173 -191l200 -265c6 -9 3 -17 -9 -17h-86c-8 0 -13 2 -18 9l-152 199l-72 -79v-114c0 -9 -5 -15 -14 -15h-80z" />
    <glyph glyph-name="l" unicode="l" horiz-adv-x="242" 
d="M81 0c-9 0 -14 6 -14 15v685c0 9 5 15 14 15h80c9 0 14 -6 14 -15v-685c0 -9 -5 -15 -14 -15h-80z" />
    <glyph glyph-name="m" unicode="m" horiz-adv-x="838" 
d="M81 0c-9 0 -14 6 -14 15v460c0 9 5 15 14 15h76c9 0 14 -4 14 -16l3 -53c25 46 69 81 138 81c65 0 115 -31 141 -91c27 51 74 91 153 91c103 0 166 -69 166 -198v-289c0 -9 -5 -15 -14 -15h-80c-9 0 -14 6 -14 15v269c0 76 -29 118 -91 118c-61 0 -100 -43 -100 -118
v-269c0 -9 -5 -15 -14 -15h-79c-10 0 -15 6 -15 15v269c0 76 -32 118 -93 118s-97 -43 -97 -118v-269c0 -9 -5 -15 -14 -15h-80z" />
    <glyph glyph-name="n" unicode="n" horiz-adv-x="573" 
d="M81 0c-9 0 -14 6 -14 15v460c0 9 5 15 14 15h76c9 0 14 -4 14 -16l4 -60c28 50 77 88 154 88c104 0 178 -72 178 -201v-286c0 -9 -6 -15 -15 -15h-79c-9 0 -14 6 -14 15v266c0 77 -38 121 -107 121s-117 -44 -117 -121v-266c0 -9 -5 -15 -14 -15h-80z" />
    <glyph glyph-name="o" unicode="o" horiz-adv-x="591" 
d="M296 -12c-146 0 -254 112 -254 257s108 257 254 257c145 0 253 -112 253 -257s-108 -257 -253 -257zM146 245c0 -94 65 -157 150 -157c84 0 149 63 149 157s-65 157 -149 157c-85 0 -150 -63 -150 -157z" />
    <glyph glyph-name="p" unicode="p" horiz-adv-x="621" 
d="M81 -190c-9 0 -14 6 -14 15v650c0 9 5 15 14 15h73c9 0 14 -6 14 -15l2 -66c34 57 92 93 173 93c140 0 236 -112 236 -257c0 -146 -96 -257 -236 -257c-76 0 -133 32 -168 85v-248c0 -9 -5 -15 -14 -15h-80zM174 244c0 -94 61 -157 148 -157c88 0 152 63 152 158
c0 94 -64 158 -152 158c-87 0 -148 -64 -148 -159z" />
    <glyph glyph-name="q" unicode="q" horiz-adv-x="621" 
d="M460 -190c-9 0 -14 6 -14 15v248c-35 -53 -92 -85 -168 -85c-140 0 -236 111 -236 257c0 145 96 257 236 257c81 0 139 -36 173 -93l2 66c0 9 5 15 14 15h73c9 0 14 -6 14 -15v-650c0 -9 -5 -15 -14 -15h-80zM147 245c0 -95 64 -158 152 -158c87 0 148 63 148 157
c0 95 -61 159 -148 159c-88 0 -152 -64 -152 -158z" />
    <glyph glyph-name="r" unicode="r" horiz-adv-x="372" 
d="M81 0c-9 0 -14 6 -14 15v460c0 9 5 15 14 15h76c9 0 14 -4 14 -16l3 -59c18 49 50 87 109 87c22 0 37 -5 45 -11c7 -5 9 -10 9 -19v-64c0 -11 -7 -14 -19 -11c-12 4 -23 5 -36 5c-77 0 -107 -60 -107 -123v-264c0 -9 -5 -15 -14 -15h-80z" />
    <glyph glyph-name="s" unicode="s" horiz-adv-x="446" 
d="M223 -12c-80 0 -138 37 -172 78c-6 7 -6 17 1 27l26 36c7 10 16 9 24 2c36 -31 71 -51 116 -51c44 0 75 18 75 57c0 34 -23 50 -63 67l-60 24c-62 25 -109 65 -109 134c0 88 75 140 162 140c60 0 116 -25 154 -72c6 -7 5 -15 -1 -21l-31 -37c-8 -9 -15 -8 -24 0
c-31 29 -61 43 -93 43c-38 0 -64 -19 -64 -52c0 -34 26 -49 64 -64l59 -24c63 -25 113 -66 113 -141c-1 -96 -83 -146 -177 -146z" />
    <glyph glyph-name="t" unicode="t" horiz-adv-x="354" 
d="M242 -6c-73 0 -128 35 -128 126v284h-63c-9 0 -14 6 -14 15v56c0 9 5 15 14 15h63v115c0 9 5 15 14 15h81c9 0 14 -6 14 -15v-115h79c9 0 15 -6 15 -15v-56c0 -9 -6 -15 -15 -15h-79v-271c0 -33 16 -47 44 -47c8 0 20 0 31 1c12 2 18 -3 18 -13v-54
c0 -20 -44 -26 -74 -26z" />
    <glyph glyph-name="u" unicode="u" horiz-adv-x="573" 
d="M244 -12c-104 0 -177 72 -177 201v286c0 9 5 15 14 15h80c9 0 14 -6 14 -15v-266c0 -77 38 -121 107 -121c68 0 117 44 117 121v266c0 9 5 15 14 15h79c9 0 15 -6 15 -15v-460c0 -9 -6 -15 -15 -15h-75c-10 0 -14 4 -15 16l-3 60c-28 -50 -78 -88 -155 -88z" />
    <glyph glyph-name="v" unicode="v" horiz-adv-x="559" 
d="M239 0c-8 0 -15 4 -18 12l-183 461c-4 11 1 17 12 17h81c8 0 14 -4 17 -12l132 -355l131 355c3 8 10 12 18 12h80c11 0 16 -6 12 -17l-183 -461c-3 -8 -10 -12 -18 -12h-81z" />
    <glyph glyph-name="w" unicode="w" horiz-adv-x="876" 
d="M213 0c-8 0 -15 4 -18 12l-157 461c-4 11 1 17 12 17h77c8 0 15 -4 18 -12l114 -355l121 355c3 8 10 12 18 12h80c8 0 15 -4 18 -12l121 -355l114 355c3 8 9 12 17 12h78c11 0 15 -6 11 -17l-156 -461c-3 -8 -10 -12 -18 -12h-84c-8 0 -15 4 -18 12l-123 355l-123 -355
c-3 -8 -10 -12 -18 -12h-84z" />
    <glyph glyph-name="x" unicode="x" horiz-adv-x="510" 
d="M49 0c-12 0 -16 8 -9 18l150 233l-144 221c-6 10 -2 18 9 18h88c8 0 13 -3 17 -10l95 -153l94 153c4 7 10 10 18 10h87c12 0 16 -8 9 -18l-143 -221l150 -233c7 -10 2 -18 -9 -18h-88c-8 0 -13 3 -17 10l-101 164l-101 -164c-4 -7 -10 -10 -18 -10h-87z" />
    <glyph glyph-name="y" unicode="y" horiz-adv-x="560" 
d="M168 -190c-11 0 -16 6 -11 16l70 173l-189 474c-4 11 1 17 12 17h81c8 0 14 -4 17 -12l132 -354l133 354c3 8 9 12 17 12h81c11 0 15 -6 11 -17l-258 -651c-3 -8 -10 -12 -18 -12h-78z" />
    <glyph glyph-name="z" unicode="z" horiz-adv-x="475" 
d="M61 0c-9 0 -14 6 -14 15v64c0 7 2 13 7 18l252 304h-242c-9 0 -14 5 -14 14v60c0 9 5 15 14 15h348c9 0 15 -6 15 -15v-64c0 -7 -3 -13 -7 -18l-253 -304h246c9 0 15 -5 15 -14v-60c0 -9 -6 -15 -15 -15h-352z" />
    <glyph glyph-name="braceleft" unicode="{" 
d="M101 197c-3 0 -6 0 -9 -1v-98c2 -1 6 -1 9 -1c26 0 31 19 31 50c0 32 -5 50 -31 50v0zM253 161v-24h-40v-38h47v-24h-76v145h76v-25h-47v-34h40zM99 73c-8 0 -23 0 -36 2v143c13 2 27 4 37 4c45 0 61 -25 61 -75c0 -51 -17 -74 -62 -74v0zM286 220h39l19 -80l19 80h40
c2 -35 4 -98 6 -145h-29c0 34 -1 70 -3 104l-20 -82h-27l-20 82h-1c-1 -34 -2 -70 -2 -104h-28c1 47 4 110 7 145v0zM482 73c-40 0 -53 23 -53 74s13 75 53 75s54 -24 54 -75s-14 -74 -54 -74v0zM482 197c-20 0 -24 -17 -24 -50c0 -32 4 -50 24 -50c21 0 25 18 25 50
c0 33 -4 50 -25 50zM472 496c52 0 62 -42 62 -63c0 -31 -31 -49 -52 -52c-72 -8 -124 -31 -166 -72c0 0 73 187 156 187v0zM139 444c94 0 156 -187 156 -187c-41 52 -93 72 -156 72c-31 0 -62 21 -62 52c0 32 21 63 62 63v0zM314 593c67 -65 -19 -243 -19 -243
c7 66 -16 118 -61 161c-22 22 -30 58 -9 81c22 22 59 30 89 1v0z" />
    <glyph glyph-name="bar" unicode="|" 
d="M101 197c-3 0 -6 0 -9 -1v-98c2 -1 6 -1 9 -1c26 0 31 19 31 50c0 32 -5 50 -31 50v0zM253 161v-24h-40v-38h47v-24h-76v145h76v-25h-47v-34h40zM99 73c-8 0 -23 0 -36 2v143c13 2 27 4 37 4c45 0 61 -25 61 -75c0 -51 -17 -74 -62 -74v0zM286 220h39l19 -80l19 80h40
c2 -35 4 -98 6 -145h-29c0 34 -1 70 -3 104l-20 -82h-27l-20 82h-1c-1 -34 -2 -70 -2 -104h-28c1 47 4 110 7 145v0zM482 73c-40 0 -53 23 -53 74s13 75 53 75s54 -24 54 -75s-14 -74 -54 -74v0zM482 197c-20 0 -24 -17 -24 -50c0 -32 4 -50 24 -50c21 0 25 18 25 50
c0 33 -4 50 -25 50zM472 496c52 0 62 -42 62 -63c0 -31 -31 -49 -52 -52c-72 -8 -124 -31 -166 -72c0 0 73 187 156 187v0zM139 444c94 0 156 -187 156 -187c-41 52 -93 72 -156 72c-31 0 -62 21 -62 52c0 32 21 63 62 63v0zM314 593c67 -65 -19 -243 -19 -243
c7 66 -16 118 -61 161c-22 22 -30 58 -9 81c22 22 59 30 89 1v0z" />
    <glyph glyph-name="braceright" unicode="}" 
d="M101 197c-3 0 -6 0 -9 -1v-98c2 -1 6 -1 9 -1c26 0 31 19 31 50c0 32 -5 50 -31 50v0zM253 161v-24h-40v-38h47v-24h-76v145h76v-25h-47v-34h40zM99 73c-8 0 -23 0 -36 2v143c13 2 27 4 37 4c45 0 61 -25 61 -75c0 -51 -17 -74 -62 -74v0zM286 220h39l19 -80l19 80h40
c2 -35 4 -98 6 -145h-29c0 34 -1 70 -3 104l-20 -82h-27l-20 82h-1c-1 -34 -2 -70 -2 -104h-28c1 47 4 110 7 145v0zM482 73c-40 0 -53 23 -53 74s13 75 53 75s54 -24 54 -75s-14 -74 -54 -74v0zM482 197c-20 0 -24 -17 -24 -50c0 -32 4 -50 24 -50c21 0 25 18 25 50
c0 33 -4 50 -25 50zM472 496c52 0 62 -42 62 -63c0 -31 -31 -49 -52 -52c-72 -8 -124 -31 -166 -72c0 0 73 187 156 187v0zM139 444c94 0 156 -187 156 -187c-41 52 -93 72 -156 72c-31 0 -62 21 -62 52c0 32 21 63 62 63v0zM314 593c67 -65 -19 -243 -19 -243
c7 66 -16 118 -61 161c-22 22 -30 58 -9 81c22 22 59 30 89 1v0z" />
    <glyph glyph-name="asciitilde" unicode="~" 
d="M101 197c-3 0 -6 0 -9 -1v-98c2 -1 6 -1 9 -1c26 0 31 19 31 50c0 32 -5 50 -31 50v0zM253 161v-24h-40v-38h47v-24h-76v145h76v-25h-47v-34h40zM99 73c-8 0 -23 0 -36 2v143c13 2 27 4 37 4c45 0 61 -25 61 -75c0 -51 -17 -74 -62 -74v0zM286 220h39l19 -80l19 80h40
c2 -35 4 -98 6 -145h-29c0 34 -1 70 -3 104l-20 -82h-27l-20 82h-1c-1 -34 -2 -70 -2 -104h-28c1 47 4 110 7 145v0zM482 73c-40 0 -53 23 -53 74s13 75 53 75s54 -24 54 -75s-14 -74 -54 -74v0zM482 197c-20 0 -24 -17 -24 -50c0 -32 4 -50 24 -50c21 0 25 18 25 50
c0 33 -4 50 -25 50zM472 496c52 0 62 -42 62 -63c0 -31 -31 -49 -52 -52c-72 -8 -124 -31 -166 -72c0 0 73 187 156 187v0zM139 444c94 0 156 -187 156 -187c-41 52 -93 72 -156 72c-31 0 -62 21 -62 52c0 32 21 63 62 63v0zM314 593c67 -65 -19 -243 -19 -243
c7 66 -16 118 -61 161c-22 22 -30 58 -9 81c22 22 59 30 89 1v0z" />
    </font>
</defs>
</svg>
